<svg id="ppt" xmlns="http://www.w3.org/2000/svg" viewBox="0 0 432 392"><defs><style>.cls-1{fill:#553529;}</style></defs><path class="cls-1" d="M174.38,46.51A2.64,2.64,0,0,1,175,48.7v1.75a1.33,1.33,0,1,1-2.65,0V48.79c0-.56-.31-.85-.91-.87h-6.78v1.75c0,.33.1.54.31.62a8.39,8.39,0,0,0,2.34.19,3.32,3.32,0,0,0,1.69-.25c.13-.08.22-.37.28-.85s.41-.71,1-.71c.88,0,1.32.35,1.32,1.06a2.57,2.57,0,0,1-.66,1.94c-.4.37-1.45.56-3.16.56a23.55,23.55,0,0,1-4.62-.22,1.43,1.43,0,0,1-.94-1.47V47.92h-3.34a5,5,0,0,1-1.81,3.34,10.78,10.78,0,0,1-4.63,1.53l-1.09.13a1,1,0,0,1-.85-.24,1.23,1.23,0,0,1-.28-.86c0-.58.54-.94,1.63-1.06,2.33-.29,3.73-.85,4.18-1.69a2.89,2.89,0,0,0,.38-1.15h-5.31a.83.83,0,0,0-.94.87v1.66a1.32,1.32,0,1,1-2.63,0V48.7a3.16,3.16,0,0,1,.69-2.25,2.63,2.63,0,0,1,2.16-.63h9.22V45q0-1.35,1.47-1.35c1,0,1.46.45,1.46,1.35v.84h9.6A3.12,3.12,0,0,1,174.38,46.51Zm-.45,14.81a2.3,2.3,0,0,1,.53,1.91V69a3.4,3.4,0,0,1-.73,2.42,2.82,2.82,0,0,1-2.36.64h-1.6a1.5,1.5,0,0,1-1-.34,1.23,1.23,0,0,1-.4-1,1.2,1.2,0,0,1,.4-1,1.5,1.5,0,0,1,1-.34h1a1.21,1.21,0,0,0,.87-.3,1.12,1.12,0,0,0,.31-.86V63.88c0-.75-.39-1.12-1.18-1.12H151.87c-.79,0-1.19.37-1.19,1.12V70.7c0,1-.42,1.5-1.25,1.5s-1.25-.5-1.25-1.5V63.23a2.61,2.61,0,0,1,.59-1.92,2.71,2.71,0,0,1,1.94-.58h.5V55.79a2.69,2.69,0,0,1,.6-1.95,2.38,2.38,0,0,1,1.9-.55h15.13a2.67,2.67,0,0,1,1.93.59,2.45,2.45,0,0,1,.54,1.91v4.94h.62A2.86,2.86,0,0,1,173.93,61.32Zm-5-4.87a1,1,0,0,0-1.13-1.13h-13a1.09,1.09,0,0,0-.82.3,1.11,1.11,0,0,0-.3.83v4.28h5.53V59.2q0-2.28,2.19-2.28h7.53Zm-.59,10.12v1.85A2,2,0,0,1,166,70.73h-9.78a2,2,0,0,1-2.31-2.31V66.57a2,2,0,0,1,2.31-2.31H166A2,2,0,0,1,168.31,66.57Zm-2.44.41a.69.69,0,0,0-.78-.78h-7.94q-.81,0-.81.78v1a.72.72,0,0,0,.81.81h7.94q.78,0,.78-.81Zm3-8.1h-6.5a.8.8,0,0,0-.88.91v.94h7.38Z"/><path class="cls-1" d="M185.68,68.79A3,3,0,0,1,185,71.2a3.24,3.24,0,0,1-2.48.68H181a1.33,1.33,0,0,1-1-.31,1.77,1.77,0,0,1,0-2,1.33,1.33,0,0,1,1-.31h1c.77,0,1.17-.41,1.19-1.22V61.48a24,24,0,0,1-3.16.81c-.81,0-1.21-.43-1.21-1.28,0-.69.43-1.13,1.31-1.34l3.06-.75V52.07H180.4a1.79,1.79,0,0,1-1.13-.28,1.11,1.11,0,0,1-.34-.91c0-.79.49-1.18,1.47-1.18h2.78V45.2c0-1,.42-1.53,1.25-1.53s1.25.51,1.25,1.53v4.5h1.81c1,0,1.5.39,1.5,1.18a1.09,1.09,0,0,1-.36.91,1.84,1.84,0,0,1-1.14.28h-1.81V58.2l1.53-.5.85-.19c.72,0,1.09.41,1.09,1.22A1.32,1.32,0,0,1,188.06,60l-2.38.72Zm21.63-3.19a10.72,10.72,0,0,1-.79,4.47c-.54,1.17-1.24,1.75-2.09,1.75a5.61,5.61,0,0,1-3.56-1.72,18,18,0,0,1-3.66-4.81,31.43,31.43,0,0,1-5,3.34,11.11,11.11,0,0,1-3.5,1.57,1.2,1.2,0,0,1-1.34-1.38,1.38,1.38,0,0,1,.66-1,8.89,8.89,0,0,1,2-1.11,28.51,28.51,0,0,0,6.06-3.78l-.25-.63a21.38,21.38,0,0,1-1.11-3.8,49.21,49.21,0,0,1-.67-4.92l-1.82.22-2.21.22a1.1,1.1,0,0,1-1.35-1.22c0-.71.44-1.1,1.31-1.19l1.1-.12c.21,0,.56-.08,1.06-.13l1.69-.18c-.15-2-.22-3.92-.22-5.75,0-1.13.45-1.69,1.34-1.69s1.32.5,1.32,1.5v1.09q0,1.66.12,4.53l4.44-.5,4.9-.56a.9.9,0,0,1,.82.25,1.41,1.41,0,0,1,.28.94c0,.75-.46,1.18-1.38,1.28l-4.68.53-4.19.47c.16,1.77.37,3.3.61,4.58a16.85,16.85,0,0,0,1,3.36A28.08,28.08,0,0,0,202,56.38a4.63,4.63,0,0,1,.8-1,1.21,1.21,0,0,1,.8-.3,1.27,1.27,0,0,1,.89.33,1.05,1.05,0,0,1,.36.8,2.34,2.34,0,0,1-.41,1.11,22.42,22.42,0,0,1-1.37,1.92,38.71,38.71,0,0,1-3.85,4.31,19.62,19.62,0,0,0,2.47,3.53c.92,1,1.66,1.54,2.22,1.54s.79-1,.94-3.13c.06-.85.49-1.28,1.28-1.28S207.31,64.71,207.31,65.6Zm-6.88-18c-.85-.91-1.28-1.52-1.28-1.81a1.16,1.16,0,0,1,.3-.88,1.36,1.36,0,0,1,1-.28c.37,0,1,.43,1.94,1.28s1.37,1.54,1.37,2a1.12,1.12,0,0,1-1.25,1.28c-.42,0-.94-.38-1.56-1.13Z"/><path class="cls-1" d="M223.43,69.57a1.27,1.27,0,0,1,.47-1.09,2.88,2.88,0,0,1,1.59-.38,8.1,8.1,0,0,0,3.21-.56A2.93,2.93,0,0,0,230.15,66q1-2.88,1.84-10.78a1,1,0,0,0-.2-.74.91.91,0,0,0-.7-.26H216.9a2.53,2.53,0,0,1-1.66-.49,1.69,1.69,0,0,1-.59-1.39,3.52,3.52,0,0,1,.19-1.09q.43-1.38.72-2.13c.37-1.12.67-2.07.9-2.84q.47-1.62,1.53-1.62a2.69,2.69,0,0,1,.44.06,1.28,1.28,0,0,1,1.09,1.34,3.82,3.82,0,0,1-.15.94c-.42,1.37-.84,2.55-1.25,3.53a1.17,1.17,0,0,0-.1.44c0,.44.27.65.82.65h14a2.4,2.4,0,0,1,1.87.69,2.58,2.58,0,0,1,.56,1.94,67,67,0,0,1-1,8,29.54,29.54,0,0,1-1.5,5.52q-1.36,3.4-7.46,3.4C224.06,71.13,223.43,70.61,223.43,69.57Z"/><path class="cls-1" d="M255.93,55.73c-.44.06-.91.13-1.42.22s-1.06.15-1.64.22V60.6h4.56c1,0,1.47.39,1.47,1.16s-.49,1.16-1.47,1.16h-4.56v5l5.94-.65c.85-.08,1.28.28,1.28,1.09a1,1,0,0,1-1,1.06q-5.88.95-14.56,1.88l-.35,0c-.83,0-1.25-.4-1.25-1.19a1.32,1.32,0,0,1,.27-.86,1.34,1.34,0,0,1,.92-.39l6.12-.68V62.92h-4.93c-1,0-1.44-.4-1.44-1.19s.48-1.13,1.44-1.13h4.93V56.51q-3.47.43-5.62.59a1.63,1.63,0,0,1-1.23-.26,1.31,1.31,0,0,1-.4-1.08,1.09,1.09,0,0,1,.33-.86,1.69,1.69,0,0,1,1.08-.33l2.16-.15c1-2.73,1.66-4.9,2.06-6.5h-3.94a1.65,1.65,0,0,1-1.06-.3,1.08,1.08,0,0,1-.38-.89,1.07,1.07,0,0,1,.38-.89,1.65,1.65,0,0,1,1.06-.3h13.5c1,0,1.5.4,1.5,1.19s-.5,1.19-1.5,1.19h-6.78c-.79,2.37-1.59,4.48-2.41,6.31q4-.31,6.69-.66l-.56-.94q-.26-.43-.42-.78a1.28,1.28,0,0,1-.17-.59c0-.67.37-1,1.12-1,.52,0,1.42.94,2.69,2.81s1.84,3,1.84,3.56c0,.78-.44,1.16-1.31,1.16a1,1,0,0,1-.69-.28,4,4,0,0,1-.69-.91l-.62-1ZM262.77,66c-.81,0-1.21-.45-1.21-1.34V48c0-1,.4-1.44,1.21-1.44S264,47.08,264,48V64.67C264,65.56,263.61,66,262.77,66Zm7.16-20.59v23.4a3.37,3.37,0,0,1-.75,2.35,3,3,0,0,1-2.28.81H264c-1,0-1.53-.43-1.53-1.28s.51-1.28,1.53-1.28h2a1.15,1.15,0,0,0,1.32-1.32V45.42c0-1,.42-1.44,1.28-1.44S269.93,44.46,269.93,45.42Z"/><path class="cls-1" d="M204,215.94a50.54,50.54,0,0,0,32.54-12.16,67.81,67.81,0,0,0,15.57-19.35,45.94,45.94,0,0,0,2.29-4.74L253,180.8a14.67,14.67,0,0,0,12.15-4.93,23.23,23.23,0,0,0,5.26-12c.65-4.38.54-9.08-1.41-13.13a17.25,17.25,0,0,0-6.82-7.14,18.59,18.59,0,0,0-5.21-2.16l1.1,1.45q-.32-2.43-.72-4.86a1.47,1.47,0,0,0-1.05-1,2.18,2.18,0,0,0-2.8,1.64c-.44,1.45-.66,3-1.07,4.46a21.65,21.65,0,0,1-.82,2.47c-.15.35-.58,1.27-.73,1.2s.55-.21.46-.2.66.05.39.09.14-.07.09.07-.42-.51-.23-.23c-.16-.23-.29-.47-.42-.7a31.44,31.44,0,0,1-1.46-3.37c-1.08-2.68-2.21-5.29-4.42-7.25a21.91,21.91,0,0,0-8.44-4.34c-7.31-2.16-15.24-2.3-22.8-2a133.24,133.24,0,0,0-18.37,1.95c-1,.18-1.93.41-2.9.64a48.12,48.12,0,0,1-11.09,1.26,55.78,55.78,0,0,1-20.17-3.9,1.51,1.51,0,0,0-1.84,1.05,151.82,151.82,0,0,0-1.78,30.86,97,97,0,0,0,3.31,21.76,59.18,59.18,0,0,0,10.27,20.83,29.59,29.59,0,0,0,7,6.65,34.75,34.75,0,0,0,10.21,4.28A52.42,52.42,0,0,0,204,215.94c1.92-.09,1.93-3.09,0-3a49.65,49.65,0,0,1-11.73-1,37.33,37.33,0,0,1-9.92-3.24,24.51,24.51,0,0,1-7.57-6.08C165.59,191.89,162,177.37,161,163.53a145.44,145.44,0,0,1,1.51-32.89l-1.84,1.05a58.4,58.4,0,0,0,17.8,3.9A59.16,59.16,0,0,0,195,134a103.91,103.91,0,0,1,15.83-2c7.6-.49,15.47-.57,22.93,1.14a22.76,22.76,0,0,1,8.75,3.64c2.13,1.62,3.21,3.83,4.19,6.26.79,1.94,1.85,6.37,4.52,6.51,1.45.08,2.35-1.21,2.9-2.38a21.85,21.85,0,0,0,1.11-3.12c.21-.72.4-1.45.57-2.18.09-.35.17-.7.25-1s.14-.61.2-.92c.29-.72,0-.72-.79,0l-1-1c.23,1.35.45,2.7.62,4.06a1.58,1.58,0,0,0,1.1,1.45,15.56,15.56,0,0,1,9.19,6.1c2.12,3.13,2.56,6.84,2.35,10.54a22.53,22.53,0,0,1-3.55,11.29A12.05,12.05,0,0,1,253,177.8a1.54,1.54,0,0,0-1.45,1.1c-.12.3.2-.45,0-.08s-.21.46-.31.69c-.4.85-.82,1.69-1.25,2.53a71.2,71.2,0,0,1-5.09,8.23,56.28,56.28,0,0,1-21.48,18.44A46,46,0,0,1,204,212.94,1.5,1.5,0,0,0,204,215.94Z"/><path class="cls-1" d="M194.48,134.09a86.54,86.54,0,0,1,14.71-2c7.72-.59,15.72-.77,23.35.75a26.3,26.3,0,0,1,9.15,3.33,12.44,12.44,0,0,1,4.73,6.1c.89,2.11,1.54,5,3.33,6.6,2.91,2.56,4.76-2.37,5.37-4.39.2-.67.39-1.36.56-2.05a9.91,9.91,0,0,0,.59-2.56l.11-.47c-.59,0-.89.12-.9.46a4.79,4.79,0,0,0,.58.37c.39.25.77.53,1.18.74a2.32,2.32,0,0,0,3-.44c.87-1.1.68-2.84.68-4.16a66.77,66.77,0,0,0-3.58-21.52l-.16,1.16a103.94,103.94,0,0,0,5.1-13.67c1.06-3.66,2.13-7.76,1.57-11.6-.28-1.88-2.44-2.58-4-3.23a28.34,28.34,0,0,0-5.63-1.63,52.66,52.66,0,0,0-15-.55c-1.2.12-2.39.27-3.58.45-.68.11-1.37.22-2,.35a8.75,8.75,0,0,1-2.07.39,26.09,26.09,0,0,1-3.21-1.13c-1.26-.39-2.54-.72-3.84-1a88.08,88.08,0,0,0-15.71-1.66c-7.47-.22-15.11.43-22.18,2.94-5.87,2.08-11,5.42-15.92,9.16h1.52c-3.13-2.29-6.61-3.87-10-5.71a26.24,26.24,0,0,0-10.34-3.57,1.49,1.49,0,0,0-1.44,1.1,33.15,33.15,0,0,0,2.34,21.13l.89-2.2c-3.75,1.46-8.82,2.2-10.74,6.28-1.54,3.25,0,6.72,2.1,9.33,3,3.77,7.3,6.52,11.57,8.62A57.16,57.16,0,0,0,173.25,135a54.23,54.23,0,0,0,21.23-.95c1.87-.47,1.08-3.37-.8-2.89a52.89,52.89,0,0,1-32.37-2.49,38.72,38.72,0,0,1-12-7.23c-1.88-1.75-4.46-4.49-4-7.34.56-3.75,6.35-4.53,9.15-5.63a1.54,1.54,0,0,0,.9-2.2,29.83,29.83,0,0,1-2-18.83l-1.45,1.11c3.47.3,6.48,1.87,9.48,3.52a79.93,79.93,0,0,1,9.34,5.35,1.46,1.46,0,0,0,1.52,0,69.5,69.5,0,0,1,10-6.57,44.81,44.81,0,0,1,13.29-4.36,77.82,77.82,0,0,1,19.88-.36,60.59,60.59,0,0,1,12.19,2.15c.88.27,1.75.56,2.61.88a4.15,4.15,0,0,0,1.36.43,6.88,6.88,0,0,0,1.54-.3,59.14,59.14,0,0,1,6.2-1,52.22,52.22,0,0,1,12.74.18,23.79,23.79,0,0,1,9.63,3.25l-.69-.9a17.93,17.93,0,0,1-.55,7.17,74.58,74.58,0,0,1-2.89,9.56c-.53,1.44-1.09,2.86-1.67,4.28-.32.76-.65,1.51-1,2.26-.5,1.13-.22,1.76.14,2.9a62.86,62.86,0,0,1,2.52,11.41,45.69,45.69,0,0,1,.47,9.84l0,.31c-.21.56.08.49.87-.22,0,.06-.4-.22-.39-.21a7,7,0,0,0-1.19-.78c-1.16-.67-2.67-.84-3.43.53a9.31,9.31,0,0,0-.67,2.51c-.18.77-.37,1.54-.58,2.3a19.55,19.55,0,0,1-1,3c-.14.3-.31.58-.48.87,0,0-.16.06-.09.06s.72-.14.39-.12c0,0,.66.05.39.09s.09.17,0,0-.36-.44-.12-.12a15.3,15.3,0,0,1-1.7-3.56,41.12,41.12,0,0,0-2-4.45,15.33,15.33,0,0,0-7.59-6.41c-7.87-3.43-17.09-3.6-25.52-3.32-4.46.16-8.92.53-13.35,1.1a66.58,66.58,0,0,0-7.81,1.29C191.82,131.68,192.61,134.57,194.48,134.09Z"/><path class="cls-1" d="M259.22,178.36a3.63,3.63,0,0,0-3-.68,13.42,13.42,0,0,1-3.29.12,1.54,1.54,0,0,0-1.45,1.1c-.12.29.17-.39.07-.17s-.15.34-.22.51c-.28.61-.57,1.21-.86,1.8a67.6,67.6,0,0,1-3.51,6.14,62.63,62.63,0,0,1-14.33,15.9,46.84,46.84,0,0,1-25.56,9.77A55.51,55.51,0,0,1,188,210.93a26.54,26.54,0,0,1-12.92-8A51.59,51.59,0,0,1,166,187.54a1.51,1.51,0,0,0-2.5-.66c-4.93,4.93-7.54,11.59-9.74,18.08a235.65,235.65,0,0,0-6.6,24.65q-1.68,7.59-3.12,15.25a1.53,1.53,0,0,0,1.45,1.9l14.2.05,34.08.11,41,.13,35.6.12c5.74,0,11.52.25,17.25.06h.24a1.53,1.53,0,0,0,1.45-1.9c-3.06-11.15-6.37-22.24-10.35-33.09-3.28-9-6.87-18.14-12.24-26.08-2-3-4.36-5.92-7.47-7.8-1.65-1-3.16,1.59-1.51,2.59a21.19,21.19,0,0,1,6.07,6.26,78.12,78.12,0,0,1,6.11,10.9A230.77,230.77,0,0,1,281,227.82c1.91,6.06,3.67,12.17,5.35,18.31l1.45-1.9-14.2,0-34.08-.11-41-.14L163,243.82l-11.66,0a45.18,45.18,0,0,0-5.58,0,1.92,1.92,0,0,1-.24,0l1.44,1.9c1.66-8.68,3.47-17.34,5.65-25.9,1.84-7.21,3.83-14.51,6.87-21.31a30.76,30.76,0,0,1,6.17-9.45l-2.51-.66c3.73,9.71,9.77,19.64,19.7,23.9A51.62,51.62,0,0,0,204,216a50.53,50.53,0,0,0,27.36-8.24,63.52,63.52,0,0,0,16.88-16.93,58,58,0,0,0,6.21-11.09L253,180.8a16.43,16.43,0,0,0,4.69-.35l-1.16-.16c.41.21.8.43,1.2.66A1.5,1.5,0,0,0,259.22,178.36Z"/><path class="cls-1" d="M316.92,244.32l-28.59-.09-13.7,0-33.77-.11-41.26-.13-36-.12-17.81-.06c-8.24,0-16.49-.09-24.74-.08A36.06,36.06,0,0,0,84.9,278.13c-.2,4.31-.06,8.65-.08,13l-.06,19c0,1.4,0,2.8,0,4.2A36.09,36.09,0,0,0,107.1,347a37.7,37.7,0,0,0,14.36,2.71l5.57,0,24.42.08,36.27.12,41.36.13,39.67.13,31.17.11,15.87.05A37.26,37.26,0,0,0,330,347.76a36,36,0,0,0,22.71-32.64c0-1.37,0-2.74,0-4.12l.06-18.91c0-4.29.16-8.61,0-12.9a36.08,36.08,0,0,0-35.92-34.87,1.5,1.5,0,0,0,0,3,33.07,33.07,0,0,1,32.94,33.39q0,15.93-.11,31.85a45.89,45.89,0,0,1-.29,6.2,33.13,33.13,0,0,1-26.18,27.91c-4.84,1-10,.64-14.93.63l-25.57-.09-36.53-.12-41-.13-38.72-.13-30.14-.1-15.1-.05a34,34,0,0,1-14.84-3.25,33.35,33.35,0,0,1-17.24-19.94c-1.61-5.16-1.5-10.36-1.48-15.68l.06-19.29c0-4.53-.31-9.32.4-13.82a33.08,33.08,0,0,1,26.63-27.47,42.91,42.91,0,0,1,8.16-.55l17.12.06,13.49,0,29.79.09,40,.13,38,.13,23.74.08,17.5.06,14.3,0A1.5,1.5,0,0,0,316.92,244.32Z"/><path class="cls-1" d="M238,200.26a7.67,7.67,0,0,1,.45.79l.21.42c.16.35,0,0,.06.15a11.36,11.36,0,0,1,.44,1.28,9.69,9.69,0,0,1-.4,6.58c-1.54,3.62-5,6.19-8.35,8.06A28.71,28.71,0,0,1,222,221a14.66,14.66,0,0,1-7.66-.92,26.45,26.45,0,0,1-9-5.61,1.51,1.51,0,0,0-2.35.3,15.28,15.28,0,0,1-1.83,2.65,15.76,15.76,0,0,1-5.77,4.5,12.42,12.42,0,0,1-9.45-.1,23.55,23.55,0,0,1-6.27-3.81,23,23,0,0,1-6-6.69c-1.33-2.48-2-5.79-.94-8.39.74-1.78-2.16-2.56-2.89-.8-1.09,2.63-.68,6,.3,8.61,2.1,5.55,7.3,10.1,12.45,12.82a16.65,16.65,0,0,0,11.95,1.8,17,17,0,0,0,7.89-4.86,19.61,19.61,0,0,0,3.15-4.21l-2.36.3a29.83,29.83,0,0,0,8.64,5.7,20.14,20.14,0,0,0,8.18,1.88c3.38,0,6.51-1.38,9.52-2.8,7.1-3.36,14.35-9.53,12.72-18.2a11.83,11.83,0,0,0-1.7-4.4c-1.08-1.58-3.68-.08-2.59,1.52Z"/><path class="cls-1" d="M197.94,171.6a8.59,8.59,0,0,0,2,2.34,6.37,6.37,0,0,0,2.56,1.37,5.24,5.24,0,0,0,3.4-.36,9.63,9.63,0,0,0,3.65-3.35,1.51,1.51,0,0,0-.54-2,1.54,1.54,0,0,0-2.05.54,10.91,10.91,0,0,1-1.19,1.36c-.12.11-.24.2-.35.31s0,0,.06,0l-.15.1a5.59,5.59,0,0,1-.66.41l-.14.06c-.1.05-.13,0,0,0s.09,0,0,0a1.27,1.27,0,0,1-.18.06l-.27.08-.15,0c.27-.06-.07,0-.14,0h-.25a2.12,2.12,0,0,0-.24,0c.24-.05.31.06.16,0l-.16,0c-.16,0-.32-.11-.49-.15s.33.16.08,0l-.24-.12c-.15-.08-.29-.17-.43-.26l-.18-.13c-.27-.18.24.21,0,0a7.94,7.94,0,0,1-.67-.63c-.09-.1-.19-.2-.28-.31l-.11-.13c-.18-.22,0-.07.06.08-.16-.24-.35-.47-.49-.72a1.5,1.5,0,1,0-2.59,1.51Z"/><path class="cls-1" d="M180.92,153.46c.05-.09.16-.18,0,0a1.5,1.5,0,0,0,.11-.13c.12-.15-.2.11,0,0a.75.75,0,0,0,.15-.09c-.05,0-.29.09,0,0l.17,0c.19-.08-.26,0,0,0h.23c.2,0-.25-.08-.05,0l.19,0c.27.07,0,0,0,0l.16.09s.27.17.12.07,0,0,0,0,.24.24.35.37c-.19-.22.09.15.13.22l.15.29c-.18-.32,0,.05,0,.16s.07.28.1.42,0-.29,0,.09c0,.13,0,.25,0,.38s0,.25,0,.38,0-.13,0-.12a.66.66,0,0,1-.06.27c-.05.26-.15.49-.22.75s0-.09,0-.1a1.24,1.24,0,0,1-.1.2c-.06.14-.14.27-.21.4s-.15.23-.22.34-.18.23,0,.07,0,0,0,0a6.82,6.82,0,0,1-.59.61s-.22.2-.07.06,0,0,0,0l-.33.21-.34.2c-.2.11-.08,0,0,0l-.28.11-.29.08c-.06,0-.28,0,0,0-.08,0-.43,0-.18,0l-.29-.08s.29.14,0,0c0,0-.19-.11,0,0s-.09-.09-.11-.11-.15-.17,0,0-.06-.09-.08-.13,0-.11-.08-.16,0,.24,0,0-.08-.3-.11-.46c.06.34,0-.1,0-.23s0-.2,0-.3v0c.06-.23.11-.45.18-.66a5.71,5.71,0,0,1,.21-.58c0-.08.06-.15.08-.22a1.33,1.33,0,0,1,.09-.21l-1.69.69c-.34-.14.15.11.24.17s-.08-.12,0,0,.15.13.21.19l.15.17c.22.24-.07-.15,0,0a4.85,4.85,0,0,0,.29.49c.1.16-.1-.31,0,0l.07.22a2.68,2.68,0,0,0,.07.27c.05.26.07.09,0,0a1.51,1.51,0,0,1,0,.56s.06-.28,0-.06l-.09.33h2.9a2.33,2.33,0,0,1-.07-.25s-.06-.4,0-.19,0-.1,0-.13,0-.22,0-.33v-.26s0-.4,0-.19,0-.09,0-.13.05-.21.07-.32.1-.33.16-.5c.13-.37-.08.13,0-.06l.12-.24c.09-.17.2-.33.31-.5s-.07.06.05-.06l.22-.24-1.06.44a.8.8,0,0,1-.69-.33c-.08-.1-.08-.1,0,0l-.08-.17c.11.26,0-.22,0,0s0,.07,0-.05a.4.4,0,0,1,.07-.24c0,.12-.07.14,0,0-.07.09-.16.15-.23.23s.16-.09-.06.05l-.34.22,2.2,1.7c.11-.34,0,0,0,0a1.13,1.13,0,0,1,.12-.21c.06-.15-.21.21,0,0l.21-.2c.22-.22-.27.15,0,0l.21-.12c.28-.17,0,0,0,0a1.83,1.83,0,0,1,.28-.1l.24-.05c.17-.06-.33,0-.05,0h.28l.24,0c.32.07-.06,0,0,0s.24.13.25.13c.26.13-.22-.2,0,0a1.5,1.5,0,0,0,2.12-2.12,4.19,4.19,0,0,0-6.69,1.83,1.52,1.52,0,0,0,2.21,1.69c1-.66,2.11-1.61,2-3a2.62,2.62,0,0,0-.76-1.71,1.84,1.84,0,0,0-2.56-.11,6.65,6.65,0,0,0-1.61,6.27,1.52,1.52,0,0,0,2.9,0,5.05,5.05,0,0,0-3.06-6.06,1.49,1.49,0,0,0-1.7.69c-.83,1.93-1.6,4.19-.29,6.12a3.61,3.61,0,0,0,2.86,1.62,5.2,5.2,0,0,0,2.92-.92c3-2,4.35-6.24,2-9.21a4.17,4.17,0,0,0-3.09-1.59,3.46,3.46,0,0,0-3,1.67,1.5,1.5,0,1,0,2.59,1.52Z"/><path class="cls-1" d="M218.78,155.09c-.25.08.07,0,.11,0-.25,0,.09,0,.13,0-.27-.06.1,0,.1,0s-.15-.11-.16-.1.31.13.08.05L219,155l.11.15S219,155,219,155c.07.2.09.24.05.13s0-.09,0-.14,0,.39,0,.1c0-.1.05-.24,0,.11.05-.22-.06.07-.06.08s.12-.18.1-.18l0,.07c-.08.09-.08.09,0,0s0-.22-.08,0a1.63,1.63,0,0,1,.17-.11c.21-.15-.19,0,0,0l.2-.07c.08,0,.22-.12.06,0s-.06,0,.06,0h.21c.08,0,.25.07.06,0s0,0,.06,0a1.17,1.17,0,0,0,.2.06c.14,0-.23-.13,0,0,.08,0,.45.3.2.1a3.81,3.81,0,0,1,.36.33c.06.07.34.43.16.18a5.8,5.8,0,0,1,.34.52,8.45,8.45,0,0,1,.48.95c-.1-.24.1.27.12.32s.14.41.2.62a9.81,9.81,0,0,1,.26,1.07c0,.09,0,.19.05.28-.07-.28,0-.14,0-.06a4.21,4.21,0,0,1,0,.5,1.15,1.15,0,0,1,0,.21s.08-.39,0-.1c0,.13-.07.26-.1.39s.12-.29,0,.07c-.08.17-.1,0,.08-.08,0,0-.28.2,0,.06s0,0,0,0,.3-.12.12-.06.33,0,.13,0,.27,0,0,0,.21.09,0,0,.15.16,0,0-.28-.27-.41-.41l-.18-.2s-.29-.37-.11-.12a5.54,5.54,0,0,1-.33-.51,1.71,1.71,0,0,1-.13-.23c-.05-.11-.09-.27,0-.07a2.41,2.41,0,0,1-.08-.25,1.46,1.46,0,0,1-.05-.2c0-.12,0-.08,0,.11a1.25,1.25,0,0,1,0-.51c0-.21-.08.26,0,.06s0-.24.07-.27-.12.22,0,.05a1.5,1.5,0,0,1,.18-.28c.09,0-.33.2,0,.05l.08-.07c-.16.11-.17.13,0,0l-1.82-.24c.16.16,0,0,0-.08a.5.5,0,0,1,0-.38l1.45-1.1c-.31,0-.61.05-.92.05,0,0-.46,0-.28,0s-.23-.07-.28-.08-.08,0,0,0l-.18-.11.13.1-.15-.15.1.13-.11-.19.08.17c0-.17,0-.14,0,.09,0-.29-.12.3,0,0,0,.07-.27.41-.09.22-.15.1-.17.13-.08.07s.06,0-.1,0a1.48,1.48,0,0,1,.33-.09c-.21,0-.23,0-.06,0h.11c.05,0,.27,0,.32,0-.21,0-.24,0-.07,0l.11,0,.23.07c-.21-.07.12.06.17.09l.16.09c-.18-.11.09.08.14.12l.11.12,0,0s.16.26.16.27l-.07-.16a1.18,1.18,0,0,1,.07.2c.1.26,0-.28,0,0V157c0,.11,0,.07,0-.14a1.11,1.11,0,0,1-.09.31c.08-.17.09-.21,0-.11a1,1,0,0,1-.08.14c-.14.27.18-.15,0,0l-.16.15.14-.1s-.24.18-.27.16c.2-.07.22-.08.07,0l-.1,0c-.26.1.31,0-.06,0-.11,0-.07,0,.14,0l-.2-.06a1.5,1.5,0,0,0-1.85,1,1.54,1.54,0,0,0,1,1.85,3.43,3.43,0,0,0,3.86-1.59,3.53,3.53,0,0,0-.41-4.2,4.35,4.35,0,0,0-3.58-1.46,3.26,3.26,0,0,0-2.22,1,2.61,2.61,0,0,0-.55,2.48,3.17,3.17,0,0,0,1.64,1.91,5.57,5.57,0,0,0,2.83.35,1.52,1.52,0,0,0,1.44-1.1,2.6,2.6,0,0,0-.69-2.46,1.53,1.53,0,0,0-1.82-.23,3.77,3.77,0,0,0-1.75,3.18,5.33,5.33,0,0,0,1.35,3.41c.85,1.08,2,2,3.45,1.75a3,3,0,0,0,2.14-2.2,6.34,6.34,0,0,0-.09-3.29,11.34,11.34,0,0,0-1.3-3.21,5.42,5.42,0,0,0-2.75-2.4,3.89,3.89,0,0,0-3.18.28,3,3,0,0,0-1.4,3.48,2.85,2.85,0,0,0,3.41,2,1.51,1.51,0,0,0,1-1.84,1.53,1.53,0,0,0-1.84-1Z"/><path class="cls-1" d="M202.55,175.23a8.56,8.56,0,0,0-.27,2.25,5.43,5.43,0,0,1,0,.57c0,.06-.06.49,0,.23a3.15,3.15,0,0,1-.11.44c.09-.25-.13.19,0,0-.23.31-.91.38-1.36.51s-1.09.36-1.64.56c-1.25.46-2.5.94-3.77,1.38-.58.2-1.17.39-1.77.56l-.8.2-.43.09c-.4.08.2,0-.1,0a1.54,1.54,0,0,0-1.5,1.5,1.51,1.51,0,0,0,1.5,1.5c2.81-.29,5.46-1.57,8.09-2.5,1.42-.5,3.16-.68,4.11-2a4.38,4.38,0,0,0,.76-2.49c0-.38,0-.76,0-1.15a2.34,2.34,0,0,1,.14-.87c.56-1.86-2.33-2.65-2.89-.8Z"/><path class="cls-1" d="M203.61,181.67A98.28,98.28,0,0,0,223,185.91a1.51,1.51,0,0,0,1.5-1.5,1.53,1.53,0,0,0-1.5-1.5,93.9,93.9,0,0,1-18.59-4.13c-1.84-.61-2.63,2.29-.8,2.89Z"/><path class="cls-1" d="M176.58,141.15l1.4,1.28.3-2.35-8.52,6.45a1.53,1.53,0,0,0-.54,2.05,1.51,1.51,0,0,0,2.05.54l8.53-6.45a1.59,1.59,0,0,0,.71-1.1,1.44,1.44,0,0,0-.41-1.26L178.7,139a1.5,1.5,0,1,0-2.12,2.12Z"/><path class="cls-1" d="M221.26,145.22l12.43,7.52a1.5,1.5,0,0,0,1.51-2.59l-12.42-7.52a1.5,1.5,0,0,0-1.52,2.59Z"/><path class="cls-1" d="M219.2,156.52l-2.12,1.19a3.11,3.11,0,0,0-1.14,1,2,2,0,0,0,0,2.05,2.14,2.14,0,0,0,3.28.35,2.73,2.73,0,0,0,.45-3,5.2,5.2,0,0,0-.64-1.24,2.27,2.27,0,0,0-.76-.75,2,2,0,0,0-1.48-.17,2.71,2.71,0,0,0-1.83,1.94,3.43,3.43,0,0,0,.31,2.45,3.88,3.88,0,0,0,1.82,1.6,8.66,8.66,0,0,0,1.32.48,3.55,3.55,0,0,0,1.77.12,2,2,0,0,0,1.48-1.66,1.86,1.86,0,0,0-1.29-2.06,1.52,1.52,0,0,0-1.85,1.05,1.54,1.54,0,0,0,1,1.84h0l-.36-.15.06,0-.3-.24.05.05-.24-.3,0,.06-.15-.36,0,.1-.06-.4a.43.43,0,0,1,0,.16l.06-.4,0,.11.15-.36a.64.64,0,0,1-.08.14l.23-.3s0,0,0,.05l.3-.23-.13.07.36-.15-.17,0,.4-.05a2,2,0,0,1-.35,0l.4.05a6.21,6.21,0,0,1-1.47-.43l.36.15a3.17,3.17,0,0,1-.76-.43l.3.23a2.09,2.09,0,0,1-.42-.42l.23.3a1.79,1.79,0,0,1-.22-.38l.15.36a2.52,2.52,0,0,1-.13-.47l.06.4a1.93,1.93,0,0,1,0-.48l-.05.4a1.76,1.76,0,0,1,.1-.41l-.15.36a1.38,1.38,0,0,1,.17-.29l-.24.3.2-.2-.3.24a1,1,0,0,1,.25-.15l-.36.15.21-.06-.4.06h.11l-.39,0h0l-.36-.15.09.05-.3-.24a.67.67,0,0,1,.14.15l-.23-.31a4.38,4.38,0,0,1,.5.86l-.15-.36a3.4,3.4,0,0,1,.2.69l-.06-.4a1.7,1.7,0,0,1,0,.39l.05-.4a1.2,1.2,0,0,1-.08.27l.16-.36a1.74,1.74,0,0,1-.11.18l.23-.31-.08.09.3-.24a1,1,0,0,1-.17.1l.36-.15-.19,0,.4-.06a.67.67,0,0,1-.2,0l.4.06-.14,0,.36.15a.33.33,0,0,1-.1-.06l.31.24-.08-.07.23.3a.31.31,0,0,1-.05-.1l.15.36a.5.5,0,0,1,0-.13l0,.4a.66.66,0,0,1,0-.14l-.06.4s0-.09,0-.13l-.15.36a1,1,0,0,1,.1-.17l-.24.3a2.39,2.39,0,0,1,.23-.22l-.3.24a8.9,8.9,0,0,1,1.15-.68l1.29-.72a1.56,1.56,0,0,0,.69-.9,1.5,1.5,0,0,0-2.21-1.69Z"/><path class="cls-1" d="M176.55,152.92a7.93,7.93,0,0,0-3.49,3.5,9,9,0,0,0-1.35,5.65,5.51,5.51,0,0,0,7.07,4.07,1.56,1.56,0,0,0,1.05-1.84,1.51,1.51,0,0,0-1.85-1.05c-.12,0-.25.09-.38.12s-.46.08-.11,0a3.48,3.48,0,0,1-.79,0c.27,0,0,0-.12,0s-.25-.08-.38-.12.08.05-.07,0l-.35-.19-.23-.15c.13.1-.17-.14-.2-.18l-.23-.23c-.24-.23.06.14-.1-.11l-.2-.34c-.19-.29.05.22-.06-.12,0-.12-.08-.25-.11-.38-.08-.35,0,.25,0-.24a5.43,5.43,0,0,1,.39-2,6,6,0,0,1,.27-.68c.14-.29.29-.58.44-.86a5.71,5.71,0,0,1,1-1.35,3.82,3.82,0,0,1,1.34-.93,1.51,1.51,0,0,0,.54-2,1.53,1.53,0,0,0-2-.54Z"/><path class="cls-1" d="M224.45,157.5a19.53,19.53,0,0,1,2.47,2.34l.22.27-.08-.11.11.15c.14.2.28.4.4.61a2.85,2.85,0,0,1,.16.3c.06.12.09.32,0-.07a5.36,5.36,0,0,1,.17.57c.06.26,0-.44,0-.08s.1-.31,0-.1a1,1,0,0,0,0,.17c.12-.27.14-.34.08-.21l-.06.1c-.09.2.29-.31,0-.08s.28-.16.08,0l-.17.1c-.32.17.3-.09.06,0l-.28.08c-.39.09.29,0,0,0a3.87,3.87,0,0,1-.59,0h-.17c.24,0,.28,0,.12,0l-.38-.08a5.5,5.5,0,0,1-.81-.27,1.52,1.52,0,0,0-1.16.16,1.54,1.54,0,0,0-.69.89A1.56,1.56,0,0,0,225,164c1.79.72,4.28.74,5.45-1.06s-.22-3.87-1.37-5.22a19.4,19.4,0,0,0-2.5-2.38,1.63,1.63,0,0,0-1.06-.44,1.5,1.5,0,0,0-1.06,2.56Z"/><path class="cls-1" d="M194.48,184.1c1.43,4.69,5.74,7.65,10.44,8.47a9.1,9.1,0,0,0,3.67.19c1.21-.31,1.95-1.29,2.82-2.11a20.74,20.74,0,0,1,6.13-4,1.52,1.52,0,0,0,.54-2,1.54,1.54,0,0,0-2.06-.54,23.71,23.71,0,0,0-5.14,3.07,24.63,24.63,0,0,0-2.22,2c-.32.32-.54.66-1,.73a5.82,5.82,0,0,1-1.61-.14c-3.76-.54-7.52-2.6-8.69-6.43-.57-1.84-3.46-1.06-2.89.8Z"/><path class="cls-1" d="M234.72,101.49,245.57,100l-1.84-1.84c-.44,1.43-.94,2.84-1.51,4.22-.26.62-.54,1.24-.83,1.84-.16.33-.32.66-.49,1-.08.16-.16.32-.25.48l-.1.2q-.21.33.18-.15l.76-.21c.29.14.3.14,0,0l-.28-.14-.67-.32-1.12-.58a14.78,14.78,0,0,1-2.23-1.42,6.5,6.5,0,0,1-2.45-3.78,1.5,1.5,0,0,0-2.9.8c.81,4,4.52,6.3,7.95,7.94a3.3,3.3,0,0,0,1.67.48,2,2,0,0,0,1.58-1,22.82,22.82,0,0,0,1.32-2.67A48.13,48.13,0,0,0,246.62,99a1.49,1.49,0,0,0-.38-1.46,1.6,1.6,0,0,0-1.46-.39L233.92,98.6a1.51,1.51,0,0,0-1,1.85,1.55,1.55,0,0,0,1.85,1Z"/><path class="cls-1" d="M121.71,307.32a1.4,1.4,0,0,1-.42-1v-4.22h-9.5a1.83,1.83,0,0,1-1.3-.53,1.73,1.73,0,0,1-.55-1.28V300a1.9,1.9,0,0,1,.38-1.16l9.81-12.53a2.08,2.08,0,0,1,1.6-.75h.62a1.79,1.79,0,0,1,1.33.53,1.83,1.83,0,0,1,.51,1.31v12.1h2.35a1.33,1.33,0,0,1,1.31,1.31,1.22,1.22,0,0,1-.37.92,1.31,1.31,0,0,1-.94.36h-2.35v4.22a1.38,1.38,0,0,1-.43,1,1.44,1.44,0,0,1-1,.42A1.39,1.39,0,0,1,121.71,307.32Zm-.48-17.93c0-.06-.09-.09-.13-.09s-.15.06-.25.19l-7.44,9.56a.35.35,0,0,0-.12.22c0,.15.11.22.34.22h7.66v-9.88A.43.43,0,0,0,121.23,289.39Z"/><path class="cls-1" d="M132.34,304.89q-2.21-3-2.21-8.25t2.21-8.25a7.32,7.32,0,0,1,6.29-3,7.39,7.39,0,0,1,6.27,3q2.23,3,2.23,8.28t-2.23,8.28a7.39,7.39,0,0,1-6.27,3A7.32,7.32,0,0,1,132.34,304.89ZM142.76,303a14.28,14.28,0,0,0,0-12.62,4.92,4.92,0,0,0-8.25,0,14.28,14.28,0,0,0,0,12.62,4.92,4.92,0,0,0,8.25,0Z"/><path class="cls-1" d="M161,307.32a1.4,1.4,0,0,1-.42-1v-4.22H151a1.83,1.83,0,0,1-1.3-.53,1.73,1.73,0,0,1-.55-1.28V300a1.9,1.9,0,0,1,.38-1.16l9.81-12.53a2.08,2.08,0,0,1,1.6-.75h.62a1.79,1.79,0,0,1,1.33.53,1.83,1.83,0,0,1,.51,1.31v12.1h2.35a1.33,1.33,0,0,1,1.31,1.31,1.22,1.22,0,0,1-.37.92,1.31,1.31,0,0,1-.94.36h-2.35v4.22a1.38,1.38,0,0,1-.43,1,1.44,1.44,0,0,1-1,.42A1.39,1.39,0,0,1,161,307.32Zm-.48-17.93c0-.06-.09-.09-.13-.09s-.15.06-.25.19l-7.44,9.56a.35.35,0,0,0-.12.22c0,.15.11.22.34.22h7.66v-9.88A.43.43,0,0,0,160.48,289.39Z"/><path class="cls-1" d="M180.87,307.32a1.41,1.41,0,0,1-.43-1V287.64a2.07,2.07,0,0,1,.61-1.47,2,2,0,0,1,1.46-.62h.4a2.18,2.18,0,0,1,1.75.94l11.53,16.65c.11.13.19.19.25.19s.09,0,.13-.09a.43.43,0,0,0,.06-.22V287a1.43,1.43,0,0,1,.42-1,1.39,1.39,0,0,1,1-.44,1.5,1.5,0,0,1,1.47,1.47v18.65a2,2,0,0,1-.63,1.46,2,2,0,0,1-1.47.61h-.37a2,2,0,0,1-.95-.24,2,2,0,0,1-.74-.61l-11.59-16.75c-.11-.12-.19-.18-.25-.18a.17.17,0,0,0-.13.09.4.4,0,0,0-.06.22v16a1.39,1.39,0,0,1-.44,1,1.43,1.43,0,0,1-1,.42A1.38,1.38,0,0,1,180.87,307.32Z"/><path class="cls-1" d="M207.38,306.86a7.25,7.25,0,0,1-2.81-3,9.07,9.07,0,0,1-1-4.31,9.17,9.17,0,0,1,1-4.34,7.1,7.1,0,0,1,2.83-2.94,9.06,9.06,0,0,1,8.39,0,7.21,7.21,0,0,1,2.84,2.95,9.1,9.1,0,0,1,1,4.33,9,9,0,0,1-1,4.31,7.19,7.19,0,0,1-2.86,3,9.06,9.06,0,0,1-8.39,0Zm6.69-2.22a4.54,4.54,0,0,0,1.94-1.92,6.43,6.43,0,0,0,.72-3.17,6,6,0,0,0-.75-3.19,4.75,4.75,0,0,0-1.83-1.81,5.18,5.18,0,0,0-2.55-.63,5.65,5.65,0,0,0-2.47.57,4.61,4.61,0,0,0-1.94,1.9,6.5,6.5,0,0,0-.71,3.16,6.09,6.09,0,0,0,.75,3.22,4.54,4.54,0,0,0,1.82,1.84,5.18,5.18,0,0,0,2.55.63A5.42,5.42,0,0,0,214.07,304.64Z"/><path class="cls-1" d="M231.94,305.39a1.12,1.12,0,0,1,.35.82,1.23,1.23,0,0,1-.75,1.12,6,6,0,0,1-2.6.56q-4.59,0-4.59-4.15v-9.5h-1.56a1.23,1.23,0,0,1-.92-.33,1.25,1.25,0,0,1-.33-.92,1.22,1.22,0,0,1,.33-.92,1.23,1.23,0,0,1,.92-.33h1.56v-2.22a1.46,1.46,0,0,1,.39-1.1,1.49,1.49,0,0,1,1.08-.37,1.4,1.4,0,0,1,1.06.39,1.5,1.5,0,0,1,.38,1.08v2.22h3.5a1.21,1.21,0,0,1,.89.36,1.2,1.2,0,0,1,.36.89,1.22,1.22,0,0,1-.36.87,1.19,1.19,0,0,1-.89.38h-3.5v9.25a1.73,1.73,0,0,0,.5,1.47,2.48,2.48,0,0,0,1.5.37,4,4,0,0,0,1.25-.19.12.12,0,0,0,.09,0,3,3,0,0,1,.53-.06A1.13,1.13,0,0,1,231.94,305.39Z"/><path class="cls-1" d="M246.34,307.32a1.38,1.38,0,0,1-.43-1V294.08H244.1a1.19,1.19,0,0,1-.87-.37,1.22,1.22,0,0,1,0-1.77,1.22,1.22,0,0,1,.87-.36h1.81V289.8a6.1,6.1,0,0,1,.69-3.09,4.26,4.26,0,0,1,1.7-1.74,4.94,4.94,0,0,1,2.33-.58,6.19,6.19,0,0,1,2.72.63,1.29,1.29,0,0,1,.75,1.12,1.19,1.19,0,0,1-.36.85,1.1,1.1,0,0,1-.83.37,3.08,3.08,0,0,1-.72-.09l-.84-.1a2.54,2.54,0,0,0-1.95.63,3,3,0,0,0-.58,2.09v1.69h3.87a1.22,1.22,0,0,1,.9.36,1.29,1.29,0,0,1,0,1.77,1.19,1.19,0,0,1-.9.37h-3.87V306.3a1.39,1.39,0,0,1-.44,1,1.43,1.43,0,0,1-1,.42A1.37,1.37,0,0,1,246.34,307.32Z"/><path class="cls-1" d="M258.6,306.86a7.19,7.19,0,0,1-2.81-3,9.07,9.07,0,0,1-1-4.31,9.17,9.17,0,0,1,1-4.34,7,7,0,0,1,2.83-2.94,9.06,9.06,0,0,1,8.39,0,7.27,7.27,0,0,1,2.84,2.95,9.1,9.1,0,0,1,1,4.33,9,9,0,0,1-1,4.31,7.19,7.19,0,0,1-2.86,3,9.06,9.06,0,0,1-8.39,0Zm6.69-2.22a4.54,4.54,0,0,0,1.94-1.92,6.54,6.54,0,0,0,.71-3.17,6,6,0,0,0-.75-3.19,4.66,4.66,0,0,0-1.82-1.81,5.18,5.18,0,0,0-2.55-.63,5.65,5.65,0,0,0-2.47.57,4.61,4.61,0,0,0-1.94,1.9,6.39,6.39,0,0,0-.72,3.16,6.09,6.09,0,0,0,.75,3.22,4.63,4.63,0,0,0,1.83,1.84,5.18,5.18,0,0,0,2.55.63A5.42,5.42,0,0,0,265.29,304.64Z"/><path class="cls-1" d="M277.23,307.08a5.38,5.38,0,0,1-1.94-2.22,7,7,0,0,1-.69-3.12v-8.88a1.36,1.36,0,0,1,.44-1,1.44,1.44,0,0,1,1-.43,1.41,1.41,0,0,1,1,.43,1.38,1.38,0,0,1,.42,1v8.56q0,3.79,3.4,3.79a5,5,0,0,0,2.71-.75,9.91,9.91,0,0,0,2.39-2.22v-9.38a1.35,1.35,0,0,1,.43-1,1.48,1.48,0,0,1,1-.43,1.45,1.45,0,0,1,1.43,1.44v13.41a1.43,1.43,0,0,1-.42,1,1.36,1.36,0,0,1-1,.44,1.45,1.45,0,0,1-1-.44,1.4,1.4,0,0,1-.43-1v-1.19a9.81,9.81,0,0,1-2.66,2.09,6.64,6.64,0,0,1-3.12.72A5.57,5.57,0,0,1,277.23,307.08Z"/><path class="cls-1" d="M294.21,307.32a1.4,1.4,0,0,1-.42-1V292.89a1.44,1.44,0,0,1,.42-1,1.37,1.37,0,0,1,1-.44,1.49,1.49,0,0,1,1.46,1.47v1.19a10.21,10.21,0,0,1,2.66-2.09,6.66,6.66,0,0,1,3.13-.72,5.68,5.68,0,0,1,3,.81,5.33,5.33,0,0,1,1.92,2.22,7.13,7.13,0,0,1,.67,3.12v8.88a1.39,1.39,0,0,1-.44,1,1.43,1.43,0,0,1-1,.42,1.38,1.38,0,0,1-1-.42,1.41,1.41,0,0,1-.43-1v-8.56q0-3.78-3.4-3.78a5,5,0,0,0-2.7.75,10.08,10.08,0,0,0-2.4,2.21v9.38a1.38,1.38,0,0,1-.43,1,1.44,1.44,0,0,1-1,.42A1.39,1.39,0,0,1,294.21,307.32Z"/><path class="cls-1" d="M315.79,306.89a7.23,7.23,0,0,1-2.88-2.92,9.6,9.6,0,0,1,0-8.83,7.55,7.55,0,0,1,2.79-2.87,7.28,7.28,0,0,1,9,1.34V286a1.4,1.4,0,0,1,.43-1,1.47,1.47,0,0,1,1-.42,1.36,1.36,0,0,1,1,.44,1.43,1.43,0,0,1,.42,1V306.3a1.4,1.4,0,0,1-.42,1,1.38,1.38,0,0,1-1,.42,1.47,1.47,0,0,1-1-.42,1.38,1.38,0,0,1-.43-1v-.75a7.2,7.2,0,0,1-9,1.34Zm6.7-2.34a7.91,7.91,0,0,0,2.27-1.69V296.3a7.91,7.91,0,0,0-2.27-1.69,6,6,0,0,0-2.64-.62,4.79,4.79,0,0,0-3.73,1.48,6.89,6.89,0,0,0,0,8.22,4.79,4.79,0,0,0,3.73,1.48A5.82,5.82,0,0,0,322.49,304.55Z"/></svg>