<svg width="301" height="211" viewBox="0 0 301 211" fill="none" xmlns="http://www.w3.org/2000/svg">
<path d="M263.648 93.1826C317.346 99.0879 322.572 186.964 201.588 206.668C132.212 217.965 40.5363 195.636 8.32931 134.164C-16.8022 86.1922 25.246 1.76172 95.53 1.76172C165.814 1.76172 141.88 79.7817 263.648 93.1826Z" fill="white" stroke="#553529" stroke-width="2" stroke-miterlimit="10"/>
<path d="M139.188 120.664C139.295 120.606 139.386 120.548 139.188 120.664V120.664Z" fill="#553529"/>
<path d="M137.331 121.127C137.372 121.102 137.339 121.094 137.174 121.16C137.182 121.16 137.182 121.16 137.19 121.16C137.231 121.144 137.281 121.135 137.331 121.127Z" fill="#553529"/>
<path d="M133.904 119.935C133.97 119.711 133.904 119.819 133.904 119.935V119.935Z" fill="#553529"/>
<path d="M134.003 120.597C134.003 120.581 133.987 120.539 133.937 120.473C133.937 120.481 133.937 120.481 133.937 120.49C133.962 120.523 133.987 120.556 134.003 120.597Z" fill="#553529"/>
<path d="M133.937 119.702C133.937 119.719 133.929 119.744 133.929 119.76C133.962 119.736 133.97 119.669 133.97 119.628C133.962 119.644 133.954 119.661 133.937 119.686C133.946 119.694 133.946 119.694 133.937 119.702Z" fill="#553529"/>
<path d="M134.193 119.388C134.226 119.379 134.259 119.371 134.276 119.354C134.243 119.371 134.218 119.379 134.193 119.388C134.193 119.388 134.193 119.379 134.193 119.388Z" fill="#553529"/>
<path d="M133.912 120.365C133.912 120.374 133.921 120.39 133.921 120.398C133.937 120.291 133.912 120.233 133.896 120.258V120.266C133.896 120.291 133.904 120.324 133.912 120.365Z" fill="#553529"/>
<path d="M133.937 120.473C133.929 120.448 133.921 120.423 133.913 120.39C133.913 120.407 133.913 120.415 133.904 120.432C133.929 120.448 133.929 120.465 133.937 120.473Z" fill="#553529"/>
<path d="M122.61 75.3747C110.655 77.0147 108.847 83.0691 111.77 81.719C114.692 80.369 121.553 79.6153 122.486 79.2509C123.543 78.8285 124.269 75.1428 122.61 75.3747Z" fill="#553529"/>
<path d="M151.217 80.8745C155.477 81.388 158.557 84.3945 160.786 86.1421C162.206 87.2602 163.643 79.6901 150.714 75.9465C148.922 75.4247 147.337 80.4024 151.217 80.8745Z" fill="#553529"/>
<path d="M120.554 83.1441C117.689 83.2021 115.452 87.7905 115.568 93.3977C115.683 99.0049 118.094 103.502 120.959 103.444C123.824 103.386 126.061 98.7978 125.945 93.1906C125.83 87.5835 123.419 83.0861 120.554 83.1441Z" fill="#553529"/>
<path d="M151.436 105.069C154.288 104.761 156.114 99.9909 155.515 94.4154C154.917 88.84 152.12 84.5699 149.268 84.8781C146.417 85.1862 144.591 89.9559 145.189 95.5313C145.788 101.107 148.585 105.377 151.436 105.069Z" fill="#553529"/>
<path d="M179.255 119.735C185.075 121.334 190.467 116.911 193.158 111.942C196.411 105.92 197.303 97.9775 194.256 91.6912C193.001 89.0905 190.946 86.846 188.254 85.7941C187.816 70.9935 182.054 56.1267 170.553 46.4777C159.754 37.4085 144.967 34.8741 131.741 39.5785C118.259 44.374 107.914 55.7457 102.35 68.7324C96.2896 82.8622 95.5961 99.3607 100.954 113.813C105.693 126.601 115.592 137.667 128.81 141.775C130.445 142.28 132.104 142.661 133.789 142.967C135.349 143.249 135.489 140.764 133.937 140.483C121.025 138.172 110.696 128.862 105.091 117.226C98.8077 104.156 98.2958 88.6847 102.68 74.9525C106.849 61.8829 115.724 49.9977 128.133 43.819C139.898 37.9634 153.934 38.3527 165.071 45.5169C177.059 53.2361 183.903 66.9849 185.472 80.9158C185.686 82.8125 185.794 84.7091 185.818 86.6141C185.827 87.1442 186.107 87.7074 186.661 87.8647C191.697 89.3141 193.571 95.2774 193.629 99.9984C193.695 105.763 191.54 112.173 186.826 115.76C184.564 117.474 181.806 118.137 179.115 117.093C178.636 116.911 177.959 117.118 177.695 117.574C175.449 121.35 172.989 125.053 169.851 128.158C166.887 131.09 163.428 133.352 159.696 135.165C158.26 135.861 159.358 138.097 160.794 137.393C164.708 135.488 168.373 133.103 171.478 130.03C172.188 129.326 172.865 128.589 173.517 127.827C173.5 127.819 177.975 121.847 179.255 119.735Z" fill="#553529"/>
<path d="M185.695 108.852C185.711 108.835 185.719 108.819 185.728 108.81C185.719 108.819 185.711 108.827 185.703 108.835C185.62 108.918 185.546 109.001 185.463 109.084C185.397 109.15 185.323 109.224 185.249 109.291C184.052 110.351 185.67 112.223 186.875 111.171C188.039 110.144 188.939 108.761 189.608 107.377C191.028 104.429 191.028 101.182 189.922 98.1343C189.691 97.5049 188.815 97.2978 188.262 97.5711C187.61 97.8941 187.47 98.5981 187.701 99.2359C188.188 100.569 188.37 101.994 188.221 103.41C188.155 104.007 188.031 104.578 187.841 105.15C187.759 105.415 187.66 105.671 187.552 105.928C187.494 106.061 187.437 106.193 187.379 106.326C187.313 106.475 187.305 106.475 187.28 106.524C186.875 107.303 186.38 108.024 185.827 108.694C185.818 108.703 185.81 108.711 185.802 108.727C185.794 108.744 185.769 108.769 185.744 108.794C185.728 108.81 185.711 108.827 185.695 108.852Z" fill="#553529"/>
<path d="M185.728 108.802C185.736 108.794 185.736 108.794 185.744 108.786C185.761 108.761 185.786 108.736 185.802 108.719C185.819 108.695 185.81 108.711 185.728 108.802Z" fill="#553529"/>
<path d="M132.369 107.304C131.981 107.776 131.749 108.29 131.741 108.911C131.733 109.416 131.881 109.954 132.154 110.377C132.699 111.246 133.599 111.71 134.532 112.033C135.432 112.34 136.398 112.472 137.331 112.265C138.206 112.075 139.015 111.47 139.386 110.65C139.84 109.64 139.816 108.455 138.99 107.635C138.528 107.18 137.694 107.138 137.24 107.635C136.786 108.132 136.753 108.902 137.24 109.391C137.454 109.606 137.149 109.192 137.231 109.366C137.355 109.623 137.198 109.209 137.207 109.3C137.215 109.325 137.223 109.35 137.231 109.383C137.256 109.507 137.256 109.457 137.215 109.217C137.215 109.283 137.215 109.35 137.223 109.416C137.231 109.689 137.289 109.134 137.231 109.35C137.207 109.424 137.19 109.507 137.165 109.582C137.108 109.78 137.306 109.317 137.19 109.507C137.149 109.573 137.108 109.648 137.066 109.714C136.951 109.888 137.273 109.499 137.108 109.656C137.05 109.714 136.984 109.764 136.934 109.822C137.124 109.606 137.108 109.698 136.984 109.764C136.942 109.789 136.901 109.805 136.86 109.83C137.033 109.764 137.058 109.747 136.934 109.797C136.86 109.822 136.786 109.847 136.711 109.863C136.662 109.872 136.612 109.888 136.554 109.896C136.753 109.872 136.786 109.871 136.645 109.88C136.455 109.888 136.274 109.88 136.084 109.872C135.828 109.855 136.373 109.921 136.051 109.863C135.96 109.847 135.861 109.83 135.77 109.805C135.588 109.764 135.399 109.706 135.225 109.648C135.126 109.615 135.035 109.573 134.936 109.54C134.713 109.457 135.184 109.664 134.953 109.548C134.796 109.474 134.631 109.391 134.482 109.292C134.441 109.267 134.4 109.234 134.358 109.209C134.507 109.325 134.532 109.341 134.433 109.259C134.375 109.209 134.325 109.151 134.276 109.101C134.193 109.002 134.21 109.027 134.334 109.176C134.309 109.134 134.284 109.093 134.259 109.06C134.127 108.828 134.292 109.027 134.268 109.093C134.251 109.052 134.234 109.002 134.226 108.96C134.201 108.828 134.201 108.869 134.234 109.085C134.243 109.027 134.226 108.936 134.226 108.878C134.234 108.745 134.226 108.787 134.21 109.002C134.218 108.96 134.234 108.911 134.243 108.869C134.152 109.06 134.144 109.093 134.201 108.977C134.267 108.869 134.243 108.894 134.127 109.06C134.342 108.795 134.49 108.53 134.49 108.182C134.49 107.875 134.358 107.511 134.127 107.304C133.665 106.882 132.806 106.766 132.369 107.304Z" fill="#553529"/>
<path d="M118.284 134.95C111.365 135.48 104.802 132.929 98.6673 130.006C93.4907 127.538 88.4298 124.697 84.2027 120.763C81.9405 118.659 79.959 116.274 78.6711 113.441C78.506 113.085 77.9941 112.787 77.5978 112.828C73.6844 113.226 69.7545 113.971 65.9732 115.048C61.581 116.307 54.4312 118.634 53.9772 124.134C53.8203 126.047 54.3652 128.184 54.8028 130.031C55.3807 132.474 56.2228 134.851 57.2135 137.153C59.2033 141.767 61.8947 146.049 64.9577 150.016C70.9186 157.76 78.3656 164.725 86.7538 169.769C95.9015 175.269 106.288 178.019 116.599 180.371C118.152 180.727 118.812 178.333 117.26 177.977C108.393 175.948 99.4269 173.704 91.3029 169.48C83.2862 165.305 76.219 159.284 70.2334 152.534C63.9175 145.411 58.4354 136.855 56.7677 127.331C56.52 125.931 56.198 124.506 56.6852 123.289C56.9659 122.585 57.6429 121.814 58.3529 121.218C60.2683 119.611 62.7699 118.667 65.1229 117.905C67.9299 116.994 70.8278 116.356 73.7339 115.859C74.2871 115.768 74.8485 115.677 75.4099 115.594C75.6494 115.561 75.8805 115.528 76.12 115.495C76.4502 115.445 76.0869 115.495 76.4915 115.445C76.863 115.396 77.2428 115.354 77.6143 115.313C77.2593 115.106 76.9043 114.899 76.541 114.7C78.9931 120.108 83.8559 124.183 88.7105 127.372C91.1708 128.987 93.7549 130.387 96.3969 131.67C99.6333 133.236 102.927 134.727 106.354 135.828C110.201 137.062 114.247 137.758 118.3 137.443C119.861 137.311 119.869 134.826 118.284 134.95Z" fill="#553529"/>
<path d="M74.5431 107.875C74.5431 107.875 80.6938 114.302 76.83 119.263C72.9579 124.224 64.6853 129.732 55.9999 124.514C47.3063 119.296 54.2579 117.548 54.2579 117.548" fill="white"/>
<path d="M73.6679 108.753C74.9558 110.103 76.0374 111.859 76.574 113.664C76.9951 115.097 77.0116 116.621 76.2355 117.938C75.3769 119.396 73.9899 120.654 72.6937 121.706C69.6967 124.15 65.8659 125.723 61.9608 125.309C59.6573 125.069 57.552 124.083 55.6366 122.816C54.5303 122.079 53.3332 121.176 52.8626 120.008C52.8626 120 52.8461 119.934 52.8708 119.826C52.8956 119.727 52.9616 119.652 52.9121 119.694C53.2836 119.329 53.1185 119.404 53.5313 119.172C53.6964 119.081 53.8698 118.99 54.0432 118.915C53.7707 119.039 54.0762 118.899 54.1835 118.865C54.3074 118.824 54.4395 118.774 54.5716 118.741C56.1155 118.344 55.4632 115.95 53.9111 116.348C52.4663 116.72 50.8563 117.681 50.46 119.222C50.0968 120.638 50.9141 121.971 51.8553 122.957C53.5643 124.746 55.9503 126.113 58.2455 126.966C62.9515 128.713 68.1033 127.719 72.2561 125.061C75.5255 122.965 79.4719 119.586 79.3315 115.329C79.2325 112.256 77.4987 109.183 75.4099 106.997C74.3201 105.837 72.5698 107.593 73.6679 108.753Z" fill="#553529"/>
<path d="M78.9022 95.0118C78.6876 92.4194 93.9283 79.706 89.6021 73.0221C83.9302 64.2593 72.0662 73.0055 69.2674 82.9444C69.2674 82.9444 63.8514 60.8801 58.3611 56.2586C54.6707 53.161 47.8264 54.9499 48.8749 59.2816C50.7242 66.9263 49.2216 59.704 45.589 57.0951C41.3619 54.0637 33.4856 60.3004 36.6972 67.7297C34.2451 64.0937 27.2522 65.5597 27.1366 72.5748C27.0293 79.267 31.8261 96.014 37.077 103.51C41.1389 109.166 46.5384 117.581 55.1743 119.644C63.8101 121.706 80.6277 115.502 78.9022 95.0118Z" fill="white"/>
<path d="M80.1406 95.0117C80.1324 94.813 80.1159 94.9952 80.1159 95.1029C80.1159 95.0366 80.1489 94.9206 80.1819 94.8627C80.2067 94.8213 80.0828 95.0614 80.1902 94.8378C80.2397 94.7301 80.2975 94.6308 80.3553 94.5231C80.636 94.0344 80.9745 93.5706 81.313 93.1151C82.279 91.8313 83.3357 90.6138 84.3512 89.3632C86.7703 86.3898 89.2471 83.3088 90.7167 79.7308C91.3111 78.2813 91.7322 76.6829 91.5753 75.1009C91.3854 73.2043 90.3286 71.5395 88.9251 70.2889C85.6474 67.3569 81.2057 67.8373 77.6225 69.9576C73.0156 72.6742 69.5481 77.4945 68.0702 82.6047C68.8628 82.6047 69.6637 82.6047 70.4563 82.6047C69.1848 77.4283 67.6244 72.2932 65.7586 67.3072C64.5119 63.9694 63.1579 60.5074 61.1104 57.5671C59.0051 54.5441 55.7687 52.871 52.037 53.6496C50.0968 54.0554 48.1731 55.3143 47.653 57.3352C47.3392 58.5527 47.6943 59.7288 47.9832 60.9132C48.1071 61.4019 48.2309 61.8905 48.3382 62.3875C48.363 62.4951 48.3713 62.6442 48.4208 62.7436C48.429 62.7933 48.4373 62.843 48.4456 62.901C48.3713 62.6194 48.4125 62.3378 48.5694 62.0727C49.0317 61.8822 49.5023 61.6918 49.9647 61.5013C50.4518 61.6172 50.7407 62.3709 50.4848 61.7166C50.3857 61.4598 50.2289 61.2114 50.105 60.9712C49.717 60.2341 49.2959 59.5052 48.8171 58.8178C47.7686 57.3104 46.4393 55.8113 44.6065 55.2895C40.8582 54.2293 36.9779 57.1447 35.5165 60.4577C34.435 62.901 34.468 65.6093 35.4835 68.0775C36.2348 67.7545 36.9944 67.4397 37.7457 67.1167C35.7725 64.3256 31.9169 63.8286 29.1511 65.7667C25.8817 68.0609 25.634 72.111 26.0881 75.7469C26.6165 80.0372 27.6898 84.2529 28.9695 88.3693C30.34 92.7507 31.9747 97.1237 34.1625 101.166C36.1357 104.818 38.7694 108.255 41.4114 111.444C44.4496 115.113 48.0658 118.393 52.5406 120.14C58.2373 122.36 64.8917 121.118 69.9939 117.929C73.2881 115.867 76.0043 112.918 77.7299 109.423C79.9425 104.951 80.5287 99.9232 80.1406 95.0117C80.0168 93.4298 77.54 93.4132 77.6638 95.0117C78.2417 102.292 76.4502 109.721 70.5966 114.484C66.7823 117.59 61.259 119.387 56.4787 118.641C48.1731 117.349 42.9553 109.605 38.4309 103.278C36.1853 100.139 34.5753 96.5606 33.2048 92.9577C31.7105 89.0236 30.4721 84.9818 29.5391 80.882C29.1098 78.9771 28.7218 77.0556 28.5154 75.1175C28.3338 73.4113 28.2017 71.5726 28.8787 69.9493C29.9189 67.4563 33.7415 65.6839 35.6321 68.3673C36.3752 69.4192 38.4722 68.8063 37.8943 67.4066C36.9614 65.1621 36.9283 62.7685 38.2163 60.6565C39.1822 59.0828 40.8912 57.7079 42.7901 57.5671C44.6973 57.4263 45.977 58.9503 46.943 60.4163C47.4053 61.1203 47.8016 61.8574 48.1896 62.6028C48.4538 63.1246 48.6932 63.7375 49.329 63.8949C49.8821 64.0274 50.427 63.8038 50.7242 63.3234C51.0132 62.8679 50.8728 62.3461 50.7738 61.8657C50.5674 60.8966 50.2371 59.9359 50.072 58.9586C49.8326 57.5423 50.782 56.6229 52.0782 56.2171C53.6799 55.7119 55.5128 55.9024 56.9576 56.772C57.9978 57.4015 58.7409 58.4119 59.3849 59.4224C61.1682 62.2053 62.4148 65.336 63.5542 68.4253C64.7018 71.5561 65.7173 74.7365 66.642 77.9335C67.1538 79.7059 67.6492 81.4783 68.0868 83.2756C68.384 84.4931 70.1425 84.4269 70.4728 83.2756C71.6782 79.1262 74.3696 75.192 77.9363 72.7239C80.7764 70.761 84.6732 69.5766 87.4473 72.3015C88.4875 73.3285 89.181 74.4797 89.148 75.9292C89.115 77.3123 88.5783 78.6623 87.9674 79.8798C86.4235 82.9692 84.2026 85.6858 82.023 88.3444C80.9745 89.6199 79.9012 90.8871 78.9353 92.2206C78.3656 92.9991 77.639 93.9847 77.6803 95.0117C77.7299 96.602 80.2067 96.6102 80.1406 95.0117Z" fill="#553529"/>
<path d="M57.9401 82.936C57.9401 82.936 53.5726 71.3821 49.8326 62.7188L57.9401 82.936Z" fill="white"/>
<path d="M59.129 82.6045C56.5283 75.7135 53.8121 68.8557 50.8894 62.0973C50.2537 60.6313 48.1236 61.8985 48.7511 63.3479C51.5829 69.9159 54.2084 76.5749 56.7347 83.267C57.3044 84.7496 59.6987 84.1036 59.129 82.6045Z" fill="#553529"/>
<path d="M36.6972 67.7295C36.6972 67.7295 39.1575 78.5794 44.4497 85.3958L36.6972 67.7295Z" fill="white"/>
<path d="M35.5 68.0614C35.9954 70.2231 36.6806 72.3599 37.4319 74.4471C38.9015 78.5303 40.7261 82.5804 43.3846 86.0258C43.7974 86.5642 44.4413 86.8375 45.0771 86.4731C45.6054 86.1749 45.9274 85.3053 45.5229 84.7752C41.7086 79.8058 39.2813 73.4946 37.8943 67.4071C37.531 65.8417 35.145 66.5043 35.5 68.0614Z" fill="#553529"/>
<path d="M69.1105 83.5908C69.1105 83.5908 65.4613 97.0828 67.2446 101.928L69.1105 83.5908Z" fill="white"/>
<path d="M67.9217 83.2589C67.2529 85.7436 66.7163 88.278 66.287 90.8207C65.932 92.883 65.643 94.9785 65.5522 97.0739C65.4779 98.7883 65.4861 100.635 66.0641 102.267C66.5924 103.766 68.9867 103.12 68.4501 101.604C67.9299 100.13 67.963 98.515 68.029 96.9745C68.1281 94.995 68.4005 93.0238 68.739 91.0692C69.1601 88.6673 69.672 86.2737 70.3077 83.9215C70.7205 82.3727 68.3345 81.7101 67.9217 83.2589Z" fill="#553529"/>
<path d="M40.6849 90.3657C49.5189 82.7045 62.0681 83.6984 62.0681 83.6984L40.6849 90.3657Z" fill="white"/>
<path d="M41.56 91.2441C46.9925 86.606 54.9596 84.3946 62.0598 84.9412C63.6532 85.0655 63.645 82.5808 62.0598 82.4565C59.4674 82.2577 56.7842 82.5476 54.2331 82.9783C48.9492 83.8811 43.9047 85.9765 39.8014 89.48C38.5961 90.5236 40.3546 92.2794 41.56 91.2441Z" fill="#553529"/>
<path d="M130.882 71.64C135.184 71.0437 172.08 69.8924 178.371 83.8979C180.823 89.3643 180.815 102.641 186.372 85.455C187.181 82.9455 189.963 89.5299 190.59 85.2976C193.224 67.5402 189.583 35.9098 160.216 27.8511C119.365 16.645 116.575 38.0053 93.177 42.2127C73.0734 45.8321 101.029 75.7978 130.882 71.64Z" fill="white"/>
<path d="M131.213 72.8408C130.676 72.9154 131.312 72.8326 131.452 72.8243C131.683 72.7994 131.915 72.7829 132.154 72.7663C132.765 72.7249 133.376 72.6918 133.979 72.6669C135.745 72.5924 137.512 72.5675 139.279 72.5841C144.117 72.6172 148.972 72.8988 153.777 73.5283C158.747 74.1826 163.799 75.193 168.439 77.1394C172.014 78.6385 175.779 80.9327 177.356 84.6598C178.016 86.2252 178.438 88.2626 178.883 90.0268C179.247 91.4679 179.56 93.3149 180.592 94.4578C181.831 95.841 183.391 95.0045 184.283 93.729C184.96 92.76 185.414 91.6336 185.86 90.5486C186.19 89.7452 186.487 88.9418 186.776 88.1218C186.958 87.6 187.139 87.0782 187.313 86.5482C187.362 86.4074 187.594 85.869 187.56 85.7862C187.544 85.7448 187.8 85.7531 187.346 85.9933C187.255 86.0429 186.817 86.0595 186.776 86.0926C186.644 86.2252 186.702 85.811 186.743 86.0926C186.76 86.1838 186.941 86.2334 186.966 86.2583C187.296 86.5316 187.594 86.8546 187.915 87.1279C188.659 87.7574 189.583 88.304 190.557 87.7988C191.589 87.2687 191.73 85.9684 191.87 84.9497C192.019 83.8564 192.151 82.7631 192.25 81.6616C192.679 76.8826 192.613 72.054 192.052 67.2834C190.797 56.5163 187.04 45.774 179.494 37.7898C175.375 33.4333 170.272 30.1618 164.691 28.0166C161.116 26.6501 157.343 25.7556 153.603 24.9853C150.119 24.273 146.577 23.7429 143.027 23.511C137.71 23.1715 132.303 23.5607 127.176 25.0764C123.048 26.2939 119.184 28.2154 115.501 30.4185C112.009 32.5057 108.641 34.7999 105.041 36.7131C101.07 38.8169 96.9418 40.1917 92.5413 41.0697C89.0077 41.7737 85.5402 43.8028 85.1521 47.7121C84.7723 51.5551 87.3317 55.2656 89.726 57.9988C93.3174 62.0986 97.9738 65.3287 102.812 67.7638C108.558 70.6626 114.816 72.5261 121.223 73.0893C124.567 73.3958 127.894 73.2881 131.213 72.8408C131.882 72.7497 132.228 71.8967 132.08 71.3086C131.89 70.588 131.213 70.3478 130.552 70.439C118.573 72.0623 105.784 68.1696 96.2978 60.7486C93.078 58.2307 89.6352 54.9509 88.1738 51.083C87.9262 50.4205 87.6785 49.4928 87.6372 49.0125C87.5629 48.1925 87.5877 47.7867 87.7776 47.1158C87.9179 46.6354 88.2234 46.0639 88.5371 45.7078C89.0655 45.1197 89.4866 44.8216 90.1966 44.4406C92.0047 43.4881 94.1595 43.3307 96.1327 42.8421C98.2875 42.3037 100.376 41.5749 102.416 40.7052C106.123 39.1233 109.565 37.0279 112.975 34.891C116.302 32.8039 119.646 30.7167 123.254 29.1265C127.374 27.3044 131.815 26.2608 136.307 25.9709C142.804 25.5402 149.318 26.4761 155.634 27.9587C161.975 29.4412 167.994 31.5367 173.253 35.4873C181.723 41.8399 186.603 51.7208 188.716 61.933C189.707 66.7202 190.12 71.6233 190.046 76.5099C190.013 78.6799 189.88 80.8582 189.641 83.0116C189.591 83.434 189.542 83.8481 189.492 84.2705C189.451 84.6101 189.154 85.5377 189.22 85.7199C189.294 85.9187 189.129 85.6785 189.393 85.5957C188.898 85.7613 190.021 85.4632 189.938 85.5294C189.905 85.5543 189.938 85.5543 189.773 85.43C189.649 85.3389 189.286 84.9911 189.022 84.7592C188.427 84.2125 187.734 83.5831 186.867 83.6245C185.331 83.6908 185.067 85.4715 184.679 86.6144C184.151 88.155 183.614 89.712 182.888 91.178C182.689 91.5839 182.475 91.9897 182.219 92.3541C182.07 92.5777 182.186 92.4121 182.004 92.6357C181.963 92.6854 181.905 92.7268 181.864 92.7765C181.732 92.9256 181.88 92.6937 181.88 92.76C181.88 92.8179 181.633 92.8179 181.872 92.7765C182.161 92.7268 181.666 92.7434 182.004 92.7351C182.227 92.7268 182.392 92.7848 182.4 92.7848C182.293 92.7517 182.557 92.9836 182.392 92.7517C182.574 93.0084 182.376 92.7268 182.326 92.6191C182.087 92.1471 181.88 91.5756 181.666 90.8302C181.162 89.0743 180.807 87.2853 180.279 85.5294C177.612 76.7004 167.721 73.578 159.597 71.9629C151.077 70.265 142.185 69.7681 133.508 70.1822C132.517 70.2319 131.535 70.2982 130.552 70.4307C129.884 70.5218 129.537 71.3749 129.685 71.9629C129.875 72.6918 130.552 72.9237 131.213 72.8408Z" fill="#553529"/>
<path d="M162.123 136.889C163.321 141.063 162.09 145.743 158.978 148.774C157.393 150.323 155.659 150.778 153.488 151.226C148.402 152.261 142.202 152.244 137.57 149.619C134.911 148.111 133.211 145.635 132.93 142.562C132.79 140.98 130.305 140.964 130.453 142.562C130.759 145.958 132.278 148.882 135.027 150.919C137.636 152.849 140.889 153.702 144.059 154.075C147.188 154.439 150.383 154.298 153.479 153.743C155.824 153.321 158.218 152.683 160.068 151.118C164.287 147.581 166.012 141.477 164.509 136.218C164.072 134.694 161.678 135.348 162.123 136.889Z" fill="#553529"/>
<path d="M167.044 137.469C167.911 140.509 166.64 144.186 165.253 146.895C163.453 150.406 160.596 153.678 156.774 154.978C152.431 156.461 147.444 157.057 142.887 156.527C139.37 156.121 135.861 154.813 133.252 152.353C130.214 149.479 128.752 145.445 128.397 141.337C128.257 139.755 125.78 139.739 125.921 141.337C126.292 145.586 127.613 149.702 130.42 152.974C133.079 156.071 136.893 157.968 140.856 158.714C145.9 159.666 151.135 159.061 156.064 157.778C160.703 156.568 164.32 153.421 166.747 149.33C168.827 145.818 170.619 140.923 169.438 136.815C169.001 135.274 166.607 135.929 167.044 137.469Z" fill="#553529"/>
<path d="M106.998 177.77C106.684 186.085 107.13 194.393 108.277 202.634C108.5 204.207 110.886 203.536 110.663 201.971C109.541 193.962 109.161 185.854 109.466 177.77C109.532 176.171 107.056 176.18 106.998 177.77Z" fill="#553529"/>
<path d="M185.009 169.033C187.238 180.67 187.56 192.679 185.917 204.415C185.827 205.086 186.083 205.741 186.784 205.948C187.362 206.113 188.213 205.741 188.312 205.078C190.021 192.87 189.724 180.488 187.404 168.379C187.098 166.805 184.712 167.468 185.009 169.033Z" fill="#553529"/>
<path d="M164.014 137.204C174.26 138.206 183.276 144.194 189.88 151.872C197.443 160.651 201.621 171.7 204.345 182.831C205.996 189.581 207.152 196.447 208.292 203.305C208.556 204.879 210.942 204.208 210.678 202.643C208.597 190.103 206.417 177.448 201.299 165.728C196.89 155.64 190.004 146.463 180.634 140.533C175.597 137.344 169.942 135.299 164.006 134.719C162.429 134.57 162.437 137.054 164.014 137.204Z" fill="#553529"/>
<path d="M32.1811 111.074C30.5134 111.049 29.0438 109.848 28.2099 108.324C27.1449 106.369 27.1036 104.009 27.1449 101.847C27.1779 100.249 24.7011 100.249 24.6681 101.847C24.6185 104.556 24.7919 107.463 26.2202 109.848C27.4834 111.952 29.6713 113.525 32.1729 113.567C33.7745 113.583 33.7745 111.099 32.1811 111.074Z" fill="#553529"/>
<path d="M23.4792 125.599C20.0034 126.577 17.5843 123.231 16.6101 120.315C15.2313 116.199 15.2644 111.718 15.3552 107.436C15.3882 105.838 12.9114 105.838 12.8784 107.436C12.771 112.414 12.7545 117.773 14.7773 122.419C16.3872 126.121 19.9125 129.186 24.1397 128.001C25.667 127.571 25.0148 125.169 23.4792 125.599Z" fill="#553529"/>
<path d="M124.36 118.947C125.345 120.521 127.287 121.533 128.925 122.27C131.134 123.264 133.462 123.577 135.864 123.724C140.631 124.018 146.853 123.319 150.092 119.334C151.206 117.972 149.264 116.002 148.141 117.383C145.436 120.714 140.263 121.174 136.287 120.99C134.318 120.898 132.256 120.724 130.425 119.941C129.265 119.444 127.443 118.68 126.744 117.558C125.805 116.048 123.412 117.438 124.36 118.947Z" fill="#553529"/>
<path d="M148.592 119.361C148.381 119.085 148.721 119.564 148.749 119.619C148.878 119.821 148.988 120.024 149.108 120.236C149.365 120.714 149.586 121.211 149.752 121.727C150.083 122.721 150.415 123.981 149.918 124.975C149.715 125.389 149.31 125.73 148.804 126.052C148.105 126.485 147.598 126.678 146.761 126.89C141.451 128.252 136.343 124.856 132.873 121.138C131.658 119.84 129.707 121.791 130.922 123.089C134.539 126.963 139.49 130.203 144.994 129.918C148.39 129.743 152.568 128.169 152.899 124.276C153.102 121.892 151.998 119.26 150.553 117.41C150.092 116.821 149.089 116.932 148.602 117.41C148.003 117.981 148.132 118.781 148.592 119.361Z" fill="#553529"/>
<path d="M232.28 163.023C232.248 163.01 232.166 162.978 232.038 162.969C232.011 162.955 231.988 162.951 231.97 162.941C231.897 162.887 231.815 162.864 231.724 162.86L203.325 150.397C203.116 150.302 203.016 150.124 203.016 149.993V125.09C203.066 124.999 203.08 124.908 203.084 124.845C203.107 124.817 203.134 124.786 203.157 124.749C203.166 124.736 203.171 124.727 203.18 124.713C203.184 124.708 203.444 124.513 203.444 124.513L231.952 112.032C232.075 111.978 232.225 111.946 232.385 111.946C232.544 111.946 232.694 111.973 232.813 112.028L261.252 124.508L261.421 124.636C261.453 124.677 261.494 124.717 261.544 124.754C261.567 124.79 261.589 124.817 261.612 124.845C261.621 124.904 261.644 124.963 261.676 125.013L261.53 149.984C261.53 150.115 261.435 150.292 261.216 150.392L232.822 162.855C232.731 162.86 232.644 162.892 232.571 162.951C232.567 162.955 232.558 162.96 232.553 162.964C232.48 162.964 232.407 162.982 232.344 163.019C232.339 163.019 232.33 163.019 232.325 163.019C232.321 163.023 232.28 163.023 232.28 163.023ZM205.174 142.717C205.088 142.717 205.001 142.739 204.924 142.789C204.796 142.871 204.719 143.016 204.719 143.171V149.448C204.719 149.629 204.823 149.793 204.992 149.866L231.014 161.275C231.073 161.302 231.137 161.311 231.196 161.311C231.283 161.311 231.369 161.288 231.447 161.238C231.574 161.157 231.651 161.011 231.651 160.857V154.58C231.651 154.398 231.547 154.235 231.378 154.162L205.356 142.753C205.297 142.73 205.238 142.717 205.174 142.717ZM259.682 142.717C259.618 142.717 259.559 142.73 259.499 142.753L233.477 154.162C233.313 154.235 233.204 154.398 233.204 154.58V160.857C233.204 161.011 233.282 161.152 233.409 161.238C233.486 161.288 233.573 161.311 233.659 161.311C233.723 161.311 233.782 161.297 233.842 161.275L259.864 149.866C260.028 149.793 260.137 149.629 260.137 149.448V143.171C260.137 143.016 260.059 142.876 259.932 142.789C259.855 142.739 259.768 142.717 259.682 142.717ZM205.174 135.182C205.088 135.182 205.001 135.205 204.924 135.254C204.796 135.336 204.719 135.482 204.719 135.636V141.041C204.719 141.222 204.823 141.386 204.992 141.459L231.014 152.868C231.073 152.895 231.137 152.904 231.196 152.904C231.283 152.904 231.369 152.881 231.447 152.831C231.574 152.75 231.651 152.604 231.651 152.45V147.045C231.651 146.863 231.547 146.7 231.378 146.627L205.356 135.218C205.297 135.195 205.238 135.182 205.174 135.182ZM259.682 135.127C259.618 135.127 259.559 135.141 259.499 135.164L233.477 146.573C233.313 146.645 233.204 146.809 233.204 146.991V152.395C233.204 152.55 233.282 152.691 233.409 152.777C233.486 152.827 233.573 152.85 233.659 152.85C233.723 152.85 233.782 152.836 233.842 152.813L259.864 141.404C260.028 141.331 260.137 141.168 260.137 140.986V135.581C260.137 135.427 260.059 135.286 259.932 135.2C259.855 135.155 259.768 135.127 259.682 135.127ZM259.682 126.175C259.618 126.175 259.559 126.189 259.499 126.212L233.477 137.621C233.313 137.693 233.204 137.857 233.204 138.039V144.865C233.204 145.019 233.282 145.16 233.409 145.246C233.486 145.296 233.573 145.319 233.659 145.319C233.723 145.319 233.782 145.306 233.842 145.283L259.864 133.874C260.028 133.801 260.137 133.638 260.137 133.456V126.634C260.137 126.48 260.059 126.339 259.932 126.253C259.855 126.203 259.768 126.175 259.682 126.175ZM205.174 126.175C205.088 126.175 205.001 126.198 204.924 126.248C204.796 126.33 204.719 126.475 204.719 126.63V133.451C204.719 133.633 204.823 133.797 204.992 133.869L231.014 145.278C231.073 145.306 231.137 145.315 231.196 145.315C231.283 145.315 231.369 145.292 231.447 145.242C231.574 145.16 231.651 145.015 231.651 144.86V138.039C231.651 137.857 231.547 137.693 231.378 137.621L205.356 126.212C205.302 126.189 205.238 126.175 205.174 126.175ZM232.426 113.131C232.362 113.131 232.303 113.145 232.243 113.168L206.221 124.577C206.057 124.649 205.948 124.813 205.948 124.994C205.948 125.176 206.053 125.34 206.221 125.412L232.243 136.821C232.303 136.849 232.366 136.858 232.426 136.858C232.485 136.858 232.548 136.844 232.608 136.821L258.63 125.412C258.794 125.34 258.903 125.176 258.903 124.994C258.903 124.813 258.798 124.649 258.63 124.577L232.608 113.168C232.553 113.145 232.489 113.131 232.426 113.131Z" fill="#553529"/>
</svg>
