<svg width="171" height="118" viewBox="0 0 171 118" fill="none" xmlns="http://www.w3.org/2000/svg">
<g clip-path="url(#clip0_70_990)">
<path d="M135.71 0C125.12 0 114.17 4.15 104.27 11.18C100 14.21 95.1 14.08 92.07 10.69C86.07 3.96 77.58 0 67.23 0C40.55 0 11.65 26.32 2.67 58.78C-6.3 91.25 8.05 117.56 34.74 117.56C44.94 117.56 55.47 113.71 65.09 107.14C69.97 103.81 75.55 103.9 79.08 107.62C85.03 113.9 93.27 117.56 103.22 117.56C129.9 117.56 158.81 91.24 167.78 58.78C176.74 26.32 162.39 0 135.71 0Z" fill="#FFB11B"/>
<path d="M20.26 49.03C29.42 49.26 38.45 48.09 47.24 45.54C53.41 43.75 50.78 34.1 44.58 35.9C36.59 38.22 28.57 39.25 20.25 39.04C13.82 38.87 13.83 48.87 20.26 49.03Z" fill="white"/>
<path d="M32.54 35.1C31.61 43.44 30.11 61.91 18.36 61.41C12.82 61.18 11.43 70.2 17.03 71.23C24.95 72.68 32.88 70.46 40.44 68.17C46.58 66.31 43.96 56.65 37.78 58.53C33.39 59.86 28.84 61.3 24.24 61.69C22.01 61.88 20.72 61.78 19.68 61.59C19.24 64.86 18.79 68.14 18.35 71.41C37.2 72.21 40.95 49.22 42.53 35.1C43.26 28.72 33.25 28.77 32.54 35.1Z" fill="white"/>
<path d="M57.01 38.67C65.44 36.17 73.93 33.86 82.33 31.25C80.22 29.64 78.11 28.04 76 26.43C75.87 33.14 75.51 39.9 74.68 46.57C73.56 55.54 69.7 69.18 59.53 71.57C53.27 73.04 55.92 82.69 62.19 81.21C74.43 78.34 81.88 64.03 83.83 52.62C85.3 44 85.83 35.16 86 26.43C86.06 23.26 82.75 20.65 79.67 21.61C71.27 24.22 62.78 26.53 54.35 29.03C48.19 30.85 50.81 40.5 57.01 38.67Z" fill="white"/>
<path d="M58.39 34.68C57.85 40.65 56.58 49.87 50.01 52.22C44 54.38 46.59 64.04 52.67 61.86C64.2 57.73 67.38 45.76 68.39 34.68C68.98 28.27 58.97 28.31 58.39 34.68Z" fill="white"/>
<path d="M128.17 34.68C127.63 40.65 126.36 49.87 119.79 52.22C113.78 54.38 116.37 64.04 122.45 61.86C133.98 57.73 137.16 45.76 138.17 34.68C138.76 28.27 128.75 28.31 128.17 34.68Z" fill="white"/>
<path d="M96.86 53.63C104.03 53.82 110.78 52.85 117.66 50.82C123.82 49 121.2 39.35 115 41.18C108.91 42.98 103.2 43.81 96.86 43.64C90.42 43.46 90.42 53.46 96.86 53.63Z" fill="white"/>
<path d="M102.96 40.39C102.05 48.51 100.53 67.18 89.03 66.69C82.43 66.4 82.85 75.89 89.03 76.69C93.08 77.22 97.52 76.5 101.52 75.97C106.79 75.27 112.3 74.34 116.93 71.57C122.45 68.27 117.42 59.62 111.88 62.94C105.97 66.48 95.84 67.59 89.03 66.7C89.03 70.03 89.03 73.37 89.03 76.7C107.68 77.51 111.4 54.31 112.96 40.4C113.67 34 103.67 34.05 102.96 40.39Z" fill="white"/>
<path d="M127.21 36.55C136.25 33.87 145.33 31.35 154.33 28.55C152.22 26.94 150.11 25.34 148 23.73C147.37 39.32 146.26 55.22 138.59 69.17C130.03 84.75 115.05 88.38 98.34 88.45C91.91 88.48 91.89 98.48 98.34 98.45C117.55 98.37 135.49 93.59 146.03 76.28C155.68 60.44 157.27 41.83 158 23.73C158.13 20.54 154.69 17.97 151.67 18.91C142.67 21.71 133.59 24.23 124.55 26.91C118.4 28.74 121.02 38.39 127.21 36.55Z" fill="white"/>
<path d="M21.62 97.52H19.5C19.18 97.52 18.93 97.37 18.78 97.05L16.71 93.15L15.51 97.05C15.41 97.37 15.21 97.52 14.89 97.52H13.26C12.94 97.52 12.83 97.37 12.92 97.05L15.66 88.11C15.76 87.79 15.96 87.65 16.28 87.65H17.91C18.23 87.65 18.35 87.79 18.25 88.11L17.05 92.01L21.52 88.11C21.86 87.79 22.2 87.65 22.52 87.65H24.63C24.95 87.65 24.93 87.79 24.59 88.11L19.47 92.58L21.85 97.04C22.01 97.37 21.94 97.52 21.62 97.52Z" fill="white"/>
<path d="M26.48 88.75C26.57 88.45 26.78 88.29 27.1 88.29H28.74C29.06 88.29 29.17 88.44 29.08 88.75L28.94 89.22C28.85 89.52 28.64 89.68 28.32 89.68H26.68C26.36 89.68 26.25 89.53 26.34 89.22L26.48 88.75ZM25.92 90.59C26.02 90.28 26.22 90.13 26.54 90.13H28.18C28.5 90.13 28.62 90.27 28.52 90.59L26.53 97.06C26.43 97.38 26.23 97.53 25.91 97.53H24.27C23.95 97.53 23.84 97.38 23.93 97.06L25.92 90.59Z" fill="white"/>
<path d="M30.43 90.59C30.53 90.28 30.73 90.13 31.05 90.13H34.8C35.12 90.13 35.24 90.27 35.14 90.59L34.92 91.31C34.82 91.62 34.62 91.77 34.3 91.77H33.14C32.82 91.77 32.61 91.92 32.52 92.23L31.04 97.07C30.94 97.39 30.74 97.54 30.42 97.54H28.79C28.47 97.54 28.36 97.39 28.45 97.07L30.43 90.59Z" fill="white"/>
<path d="M42.86 97.06C42.76 97.38 42.56 97.53 42.24 97.53H36.85C35.57 97.53 35.12 96.92 35.49 95.7L37.06 90.6C37.16 90.29 37.36 90.14 37.68 90.14H39.32C39.64 90.14 39.76 90.28 39.66 90.6L38.18 95.44C38.09 95.74 38.2 95.9 38.52 95.9H40.16C40.48 95.9 40.69 95.75 40.78 95.44L42.26 90.6C42.36 90.29 42.56 90.14 42.88 90.14H44.51C44.83 90.14 44.95 90.28 44.85 90.6L42.86 97.06Z" fill="white"/>
<path d="M53.48 97.52H51.37C51.05 97.52 50.8 97.37 50.65 97.05L48.58 93.15L47.38 97.05C47.28 97.37 47.08 97.52 46.76 97.52H45.12C44.8 97.52 44.69 97.37 44.78 97.05L47.52 88.11C47.62 87.79 47.82 87.65 48.14 87.65H49.78C50.1 87.65 50.22 87.79 50.12 88.11L48.92 92.01L53.39 88.11C53.73 87.79 54.07 87.65 54.39 87.65H56.5C56.82 87.65 56.8 87.79 56.46 88.11L51.34 92.58L53.72 97.04C53.87 97.37 53.8 97.52 53.48 97.52Z" fill="white"/>
<path d="M58.34 88.75C58.43 88.45 58.64 88.29 58.96 88.29H60.59C60.91 88.29 61.02 88.44 60.93 88.75L60.79 89.22C60.7 89.52 60.49 89.68 60.17 89.68H58.54C58.22 89.68 58.11 89.53 58.2 89.22L58.34 88.75ZM57.78 90.59C57.88 90.28 58.08 90.13 58.4 90.13H60.03C60.35 90.13 60.47 90.27 60.37 90.59L58.38 97.06C58.28 97.38 58.08 97.53 57.76 97.53H56.13C55.81 97.53 55.7 97.38 55.79 97.06L57.78 90.59Z" fill="white"/>
<path d="M62.29 90.59C62.39 90.28 62.59 90.13 62.91 90.13H66.66C66.98 90.13 67.1 90.27 67 90.59L66.78 91.31C66.68 91.62 66.48 91.77 66.16 91.77H65C64.68 91.77 64.48 91.92 64.38 92.23L62.9 97.07C62.8 97.39 62.6 97.54 62.28 97.54H60.64C60.32 97.54 60.21 97.39 60.3 97.07L62.29 90.59Z" fill="white"/>
<path d="M74.72 97.06C74.62 97.38 74.42 97.53 74.1 97.53H68.71C67.43 97.53 66.98 96.92 67.35 95.7L68.92 90.6C69.02 90.29 69.22 90.14 69.54 90.14H71.18C71.5 90.14 71.62 90.28 71.52 90.6L70.04 95.44C69.95 95.74 70.06 95.9 70.38 95.9H72.02C72.34 95.9 72.55 95.75 72.64 95.44L74.12 90.6C74.22 90.29 74.42 90.14 74.74 90.14H76.37C76.69 90.14 76.81 90.28 76.71 90.6L74.72 97.06Z" fill="white"/>
</g>
<defs>
<clipPath id="clip0_70_990">
<rect width="170.44" height="117.57" fill="white"/>
</clipPath>
</defs>
</svg>
