<svg width="141" height="94" viewBox="0 0 141 94" fill="none" xmlns="http://www.w3.org/2000/svg">
<path d="M111.677 0C103.04 0 94.1099 3.31802 86.0361 8.93867C82.5537 11.3612 78.5576 11.2573 76.0865 8.54691C71.1933 3.16611 64.2694 0 55.8286 0C34.0701 0 10.5011 21.0435 3.17763 46.996C-4.13773 72.9565 7.56521 93.992 29.3319 93.992C37.6503 93.992 46.2379 90.9138 54.0834 85.661C58.0632 82.9986 62.6139 83.0705 65.4927 86.0447C70.3452 91.0657 77.0652 93.992 85.1798 93.992C106.938 93.992 130.515 72.9485 137.831 46.996C145.138 21.0435 133.435 0 111.677 0Z" fill="white"/>
<path d="M17.5228 39.2007C24.9931 39.3846 32.3574 38.4491 39.526 36.4104C44.5578 34.9792 42.413 27.2638 37.3567 28.7029C30.8405 30.5578 24.2999 31.3813 17.5147 31.2134C12.2708 31.0775 12.2789 39.0728 17.5228 39.2007Z" fill="#553529"/>
<path d="M27.5376 28.0633C26.7791 34.7313 25.5558 49.4985 15.9733 49.0988C11.4552 48.9149 10.3216 56.1266 14.8886 56.9501C21.3476 58.1094 27.8148 56.3345 33.9803 54.5036C38.9877 53.0165 36.851 45.2931 31.811 46.7962C28.2308 47.8595 24.5201 49.0108 20.7686 49.3227C18.95 49.4746 17.8979 49.3946 17.0498 49.2427C16.6909 51.8571 16.3239 54.4796 15.9651 57.094C31.338 57.7336 34.3962 39.3526 35.6848 28.0633C36.2801 22.9623 28.1166 23.0023 27.5376 28.0633Z" fill="#553529"/>
<path d="M47.4937 30.9176C54.3687 28.9188 61.2926 27.0719 68.1431 24.9851C66.4223 23.6979 64.7015 22.4187 62.9807 21.1314C62.8747 26.4962 62.5811 31.901 61.9042 37.2338C60.9908 44.4056 57.8429 55.3111 49.5489 57.2219C44.4436 58.3972 46.6048 66.1126 51.7182 64.9293C61.7003 62.6347 67.7761 51.1935 69.3664 42.071C70.5652 35.1791 70.9975 28.1113 71.1361 21.1314C71.185 18.5969 68.4856 16.5102 65.9738 17.2777C59.1233 19.3645 52.1994 21.2114 45.3244 23.2102C40.3007 24.6653 42.4374 32.3807 47.4937 30.9176Z" fill="#553529"/>
<path d="M48.6192 27.7275C48.1788 32.5006 47.1431 39.8722 41.785 41.7511C36.8836 43.4781 38.9959 51.2015 43.9543 49.4585C53.3575 46.1565 55.9509 36.5862 56.7746 27.7275C57.2557 22.6025 49.0922 22.6345 48.6192 27.7275Z" fill="#553529"/>
<path d="M105.527 27.7275C105.087 32.5006 104.051 39.8722 98.6931 41.7511C93.7917 43.4781 95.904 51.2015 100.862 49.4585C110.266 46.1565 112.859 36.5862 113.683 27.7275C114.164 22.6025 106 22.6345 105.527 27.7275Z" fill="#553529"/>
<path d="M79.9929 42.8784C85.8403 43.0304 91.3451 42.2548 96.956 40.6318C101.98 39.1767 99.843 31.4612 94.7867 32.9244C89.8201 34.3635 85.1634 35.0271 79.9929 34.8912C74.7408 34.7473 74.7408 42.7425 79.9929 42.8784Z" fill="#553529"/>
<path d="M84.9677 32.2928C84.2255 38.7849 82.9859 53.712 73.6073 53.3203C68.2247 53.0884 68.5673 60.6759 73.6073 61.3155C76.9102 61.7392 80.5312 61.1636 83.7933 60.7398C88.0912 60.1802 92.5848 59.4366 96.3607 57.2219C100.862 54.5835 96.7603 47.6676 92.2423 50.322C87.4224 53.1524 79.1611 54.0398 73.6073 53.3283C73.6073 55.9907 73.6073 58.6611 73.6073 61.3235C88.817 61.9711 91.8508 43.4222 93.123 32.3008C93.7021 27.1838 85.5467 27.2238 84.9677 32.2928Z" fill="#553529"/>
<path d="M104.744 29.2226C112.117 27.0799 119.522 25.0651 126.862 22.8264C125.141 21.5392 123.42 20.2599 121.699 18.9727C121.185 31.4373 120.28 44.1497 114.025 55.303C107.044 67.7596 94.8274 70.6619 81.1998 70.7179C75.9559 70.7418 75.9396 78.7371 81.1998 78.7131C96.8662 78.6491 111.497 74.8274 120.093 60.9877C127.963 48.3232 129.259 33.4441 129.855 18.9727C129.961 16.4222 127.155 14.3674 124.692 15.119C117.352 17.3577 109.947 19.3725 102.575 21.5152C97.5594 22.9783 99.6961 30.6937 104.744 29.2226Z" fill="#553529"/>
<path d="M18.6319 77.9696H16.903C16.642 77.9696 16.4381 77.8496 16.3158 77.5938L14.6276 74.4756L13.649 77.5938C13.5675 77.8496 13.4043 77.9696 13.1434 77.9696H11.814C11.5531 77.9696 11.4634 77.8496 11.5368 77.5938L13.7713 70.446C13.8529 70.1902 14.016 70.0782 14.277 70.0782H15.6063C15.8673 70.0782 15.9651 70.1902 15.8836 70.446L14.9049 73.5642L18.5504 70.446C18.8277 70.1902 19.1049 70.0782 19.3659 70.0782H21.0867C21.3477 70.0782 21.3314 70.1902 21.0541 70.446L16.8785 74.0199L18.8195 77.5858C18.95 77.8496 18.8929 77.9696 18.6319 77.9696Z" fill="#553529"/>
<path d="M22.5954 70.9577C22.6688 70.7178 22.84 70.5899 23.101 70.5899H24.4385C24.6995 70.5899 24.7892 70.7098 24.7158 70.9577L24.6016 71.3335C24.5282 71.5733 24.3569 71.7012 24.096 71.7012H22.7585C22.4975 71.7012 22.4078 71.5813 22.4812 71.3335L22.5954 70.9577ZM22.1387 72.4288C22.2202 72.181 22.3833 72.061 22.6443 72.061H23.9818C24.2428 72.061 24.3406 72.173 24.2591 72.4288L22.6362 77.6018C22.5546 77.8576 22.3915 77.9775 22.1305 77.9775H20.7931C20.5321 77.9775 20.4424 77.8576 20.5158 77.6018L22.1387 72.4288Z" fill="#553529"/>
<path d="M25.8168 72.4288C25.8984 72.181 26.0615 72.061 26.3224 72.061H29.3807C29.6417 72.061 29.7395 72.173 29.658 72.4288L29.4786 73.0045C29.397 73.2523 29.2339 73.3723 28.9729 73.3723H28.0269C27.7659 73.3723 27.5947 73.4922 27.5213 73.74L26.3143 77.6097C26.2327 77.8656 26.0696 77.9855 25.8087 77.9855H24.4793C24.2184 77.9855 24.1286 77.8656 24.202 77.6097L25.8168 72.4288Z" fill="#553529"/>
<path d="M35.954 77.6018C35.8724 77.8576 35.7093 77.9776 35.4483 77.9776H31.0526C30.0087 77.9776 29.6417 77.4899 29.9435 76.5144L31.2238 72.4369C31.3054 72.189 31.4685 72.0691 31.7295 72.0691H33.067C33.3279 72.0691 33.4258 72.181 33.3442 72.4369L32.1372 76.3066C32.0638 76.5464 32.1536 76.6744 32.4145 76.6744H33.752C34.013 76.6744 34.1842 76.5544 34.2576 76.3066L35.4646 72.4369C35.5462 72.189 35.7093 72.0691 35.9703 72.0691H37.2996C37.5606 72.0691 37.6584 72.181 37.5769 72.4369L35.954 77.6018Z" fill="#553529"/>
<path d="M44.615 77.9695H42.8942C42.6332 77.9695 42.4293 77.8496 42.307 77.5937L40.6188 74.4756L39.6402 77.5937C39.5586 77.8496 39.3955 77.9695 39.1346 77.9695H37.7971C37.5361 77.9695 37.4464 77.8496 37.5198 77.5937L39.7544 70.446C39.8359 70.1902 39.999 70.0782 40.26 70.0782H41.5975C41.8584 70.0782 41.9563 70.1902 41.8748 70.446L40.8961 73.5642L44.5416 70.446C44.8188 70.1902 45.0961 70.0782 45.3571 70.0782H47.0779C47.3389 70.0782 47.3225 70.1902 47.0453 70.446L42.8697 74.0199L44.8107 77.5857C44.933 77.8496 44.8759 77.9695 44.615 77.9695Z" fill="#553529"/>
<path d="M48.5784 70.9577C48.6518 70.7178 48.8231 70.5899 49.084 70.5899H50.4134C50.6743 70.5899 50.7641 70.7098 50.6907 70.9577L50.5765 71.3335C50.5031 71.5733 50.3318 71.7012 50.0708 71.7012H48.7415C48.4806 71.7012 48.3908 71.5813 48.4642 71.3335L48.5784 70.9577ZM48.1217 72.4288C48.2033 72.181 48.3664 72.061 48.6273 72.061H49.9567C50.2176 72.061 50.3155 72.173 50.234 72.4288L48.611 77.6018C48.5295 77.8576 48.3664 77.9775 48.1054 77.9775H46.7761C46.5151 77.9775 46.4254 77.8576 46.4988 77.6018L48.1217 72.4288Z" fill="#553529"/>
<path d="M51.7998 72.4288C51.8814 72.181 52.0445 72.061 52.3055 72.061H55.3637C55.6247 72.061 55.7226 72.173 55.641 72.4288L55.4616 73.0045C55.38 73.2523 55.2169 73.3723 54.956 73.3723H54.0099C53.749 73.3723 53.5859 73.4922 53.5043 73.74L52.2973 77.6097C52.2158 77.8656 52.0526 77.9855 51.7917 77.9855H50.4542C50.1932 77.9855 50.1035 77.8656 50.1769 77.6097L51.7998 72.4288Z" fill="#553529"/>
<path d="M61.9369 77.6018C61.8553 77.8576 61.6922 77.9776 61.4312 77.9776H57.0355C55.9916 77.9776 55.6246 77.4899 55.9264 76.5144L57.2068 72.4369C57.2883 72.189 57.4514 72.0691 57.7124 72.0691H59.0499C59.3108 72.0691 59.4087 72.181 59.3271 72.4369L58.1202 76.3066C58.0468 76.5464 58.1365 76.6744 58.3974 76.6744H59.7349C59.9959 76.6744 60.1671 76.5544 60.2405 76.3066L61.4475 72.4369C61.5291 72.189 61.6922 72.0691 61.9532 72.0691H63.2825C63.5435 72.0691 63.6413 72.181 63.5598 72.4369L61.9369 77.6018Z" fill="#553529"/>
</svg>
