<svg width="141" height="94" viewBox="0 0 141 94" fill="none" xmlns="http://www.w3.org/2000/svg">
<path d="M87.4638 10.9909L87.4644 10.9904C95.2302 5.58421 103.671 2.5 111.677 2.5C121.648 2.5 129.177 7.26844 133.469 14.9813C137.807 22.7783 138.944 33.8172 135.424 46.3184C131.904 58.8085 124.452 70.1534 115.257 78.3611C106.04 86.5879 95.2734 91.492 85.1798 91.492C77.7041 91.492 71.6454 88.8137 67.2904 84.3074L67.2891 84.306C63.3467 80.2331 57.3852 80.4443 52.6933 83.5831L52.6925 83.5836C45.1523 88.6321 37.041 91.492 29.3319 91.492C19.356 91.492 11.8246 86.7248 7.53354 79.0136C3.19572 71.2183 2.06009 60.1801 5.58366 47.675C9.10844 35.1841 16.5602 23.8386 25.7549 15.6308C34.9708 7.40401 45.735 2.5 55.8286 2.5C63.6003 2.5 69.8407 5.39455 74.237 10.2289L74.2391 10.2312C77.7729 14.1073 83.2415 13.9282 87.4638 10.9909Z" stroke="#FFB11B" stroke-width="5"/>
<path d="M17.5228 39.2007C24.9931 39.3846 32.3574 38.4491 39.526 36.4104C44.5578 34.9792 42.413 27.2638 37.3567 28.7029C30.8405 30.5578 24.2999 31.3813 17.5147 31.2134C12.2708 31.0775 12.2789 39.0728 17.5228 39.2007Z" fill="#FFB11B"/>
<path d="M27.5376 28.0633C26.7791 34.7313 25.5558 49.4985 15.9733 49.0988C11.4552 48.9149 10.3216 56.1266 14.8886 56.9501C21.3476 58.1094 27.8148 56.3345 33.9803 54.5036C38.9877 53.0165 36.851 45.2931 31.811 46.7962C28.2308 47.8595 24.5201 49.0108 20.7686 49.3227C18.95 49.4746 17.8979 49.3946 17.0498 49.2427C16.6909 51.8571 16.3239 54.4796 15.9651 57.094C31.338 57.7336 34.3962 39.3526 35.6848 28.0633C36.2801 22.9623 28.1166 23.0023 27.5376 28.0633Z" fill="#FFB11B"/>
<path d="M47.4937 30.9175C54.3687 28.9187 61.2926 27.0718 68.1431 24.9851C66.4223 23.6978 64.7015 22.4186 62.9807 21.1314C62.8747 26.4962 62.5811 31.901 61.9042 37.2338C60.9908 44.4055 57.8429 55.311 49.5489 57.2219C44.4436 58.3972 46.6048 66.1126 51.7182 64.9293C61.7003 62.6347 67.7761 51.1935 69.3664 42.0709C70.5652 35.179 70.9975 28.1112 71.1361 21.1314C71.185 18.5969 68.4856 16.5101 65.9738 17.2777C59.1233 19.3644 52.1993 21.2113 45.3244 23.2101C40.3007 24.6653 42.4374 32.3807 47.4937 30.9175Z" fill="#FFB11B"/>
<path d="M48.6191 27.7275C48.1788 32.5006 47.143 39.8722 41.785 41.7511C36.8836 43.4781 38.9958 51.2015 43.9543 49.4585C53.3574 46.1565 55.9508 36.5862 56.7745 27.7275C57.2557 22.6025 49.0922 22.6345 48.6191 27.7275Z" fill="#FFB11B"/>
<path d="M105.527 27.7275C105.087 32.5006 104.051 39.8722 98.6931 41.7511C93.7917 43.4781 95.904 51.2015 100.862 49.4585C110.266 46.1565 112.859 36.5862 113.683 27.7275C114.164 22.6025 106 22.6345 105.527 27.7275Z" fill="#FFB11B"/>
<path d="M79.9929 42.8784C85.8403 43.0304 91.3451 42.2548 96.956 40.6318C101.98 39.1767 99.843 31.4612 94.7867 32.9244C89.8201 34.3635 85.1634 35.0271 79.9929 34.8912C74.7408 34.7473 74.7408 42.7425 79.9929 42.8784Z" fill="#FFB11B"/>
<path d="M84.9676 32.2928C84.2255 38.7849 82.9859 53.712 73.6072 53.3203C68.2247 53.0884 68.5672 60.6759 73.6072 61.3155C76.9101 61.7392 80.5311 61.1636 83.7932 60.7398C88.0911 60.1802 92.5847 59.4366 96.3607 57.2219C100.862 54.5835 96.7603 47.6676 92.2422 50.322C87.4224 53.1524 79.161 54.0398 73.6072 53.3283C73.6072 55.9907 73.6072 58.6611 73.6072 61.3235C88.8169 61.9711 91.8507 43.4222 93.123 32.3008C93.702 27.1838 85.5466 27.2238 84.9676 32.2928Z" fill="#FFB11B"/>
<path d="M104.744 29.2226C112.117 27.0799 119.522 25.0651 126.862 22.8265C125.141 21.5392 123.42 20.26 121.699 18.9728C121.186 31.4373 120.28 44.1498 114.025 55.3031C107.044 67.7597 94.8274 70.662 81.1998 70.7179C75.9559 70.7419 75.9396 78.7371 81.1998 78.7132C96.8663 78.6492 111.497 74.8275 120.093 60.9877C127.963 48.3233 129.259 33.4441 129.855 18.9728C129.961 16.4223 127.155 14.3675 124.692 15.1191C117.353 17.3577 109.947 19.3725 102.575 21.5152C97.5595 22.9784 99.6962 30.6938 104.744 29.2226Z" fill="#FFB11B"/>
<path d="M18.6319 77.9696H16.903C16.642 77.9696 16.4381 77.8497 16.3158 77.5938L14.6276 74.4756L13.649 77.5938C13.5675 77.8497 13.4043 77.9696 13.1434 77.9696H11.814C11.5531 77.9696 11.4634 77.8497 11.5368 77.5938L13.7713 70.446C13.8529 70.1902 14.016 70.0782 14.277 70.0782H15.6063C15.8673 70.0782 15.9651 70.1902 15.8836 70.446L14.9049 73.5642L18.5504 70.446C18.8277 70.1902 19.1049 70.0782 19.3659 70.0782H21.0867C21.3477 70.0782 21.3314 70.1902 21.0541 70.446L16.8785 74.0199L18.8195 77.5858C18.95 77.8496 18.8929 77.9696 18.6319 77.9696Z" fill="#FFB11B"/>
<path d="M22.5954 70.9577C22.6688 70.7179 22.84 70.59 23.101 70.59H24.4385C24.6995 70.59 24.7892 70.7099 24.7158 70.9577L24.6016 71.3335C24.5282 71.5734 24.3569 71.7013 24.096 71.7013H22.7585C22.4975 71.7013 22.4078 71.5814 22.4812 71.3335L22.5954 70.9577ZM22.1387 72.4289C22.2202 72.181 22.3833 72.0611 22.6443 72.0611H23.9818C24.2428 72.0611 24.3406 72.173 24.2591 72.4289L22.6362 77.6018C22.5546 77.8577 22.3915 77.9776 22.1305 77.9776H20.7931C20.5321 77.9776 20.4424 77.8577 20.5158 77.6018L22.1387 72.4289Z" fill="#FFB11B"/>
<path d="M25.8168 72.4288C25.8984 72.181 26.0615 72.061 26.3224 72.061H29.3807C29.6417 72.061 29.7395 72.173 29.658 72.4288L29.4786 73.0045C29.397 73.2523 29.2339 73.3723 28.9729 73.3723H28.0269C27.7659 73.3723 27.5947 73.4922 27.5213 73.74L26.3143 77.6097C26.2327 77.8656 26.0696 77.9855 25.8087 77.9855H24.4793C24.2184 77.9855 24.1286 77.8656 24.202 77.6097L25.8168 72.4288Z" fill="#FFB11B"/>
<path d="M35.954 77.6018C35.8724 77.8576 35.7093 77.9776 35.4483 77.9776H31.0526C30.0087 77.9776 29.6417 77.4899 29.9435 76.5144L31.2238 72.4369C31.3054 72.189 31.4685 72.0691 31.7295 72.0691H33.067C33.3279 72.0691 33.4258 72.181 33.3442 72.4369L32.1372 76.3066C32.0638 76.5464 32.1536 76.6744 32.4145 76.6744H33.752C34.013 76.6744 34.1842 76.5544 34.2576 76.3066L35.4646 72.4369C35.5462 72.189 35.7093 72.0691 35.9703 72.0691H37.2996C37.5606 72.0691 37.6584 72.181 37.5769 72.4369L35.954 77.6018Z" fill="#FFB11B"/>
<path d="M44.6149 77.9695H42.8941C42.6331 77.9695 42.4293 77.8496 42.3069 77.5937L40.6188 74.4756L39.6401 77.5937C39.5586 77.8496 39.3955 77.9695 39.1345 77.9695H37.797C37.536 77.9695 37.4463 77.8496 37.5197 77.5937L39.7543 70.446C39.8359 70.1902 39.999 70.0782 40.2599 70.0782H41.5974C41.8584 70.0782 41.9563 70.1902 41.8747 70.446L40.8961 73.5642L44.5415 70.446C44.8188 70.1902 45.0961 70.0782 45.357 70.0782H47.0778C47.3388 70.0782 47.3225 70.1902 47.0452 70.446L42.8697 74.0199L44.8106 77.5857C44.933 77.8496 44.8759 77.9695 44.6149 77.9695Z" fill="#FFB11B"/>
<path d="M48.5784 70.9577C48.6518 70.7179 48.8231 70.59 49.084 70.59H50.4134C50.6743 70.59 50.7641 70.7099 50.6907 70.9577L50.5765 71.3335C50.5031 71.5734 50.3318 71.7013 50.0708 71.7013H48.7415C48.4806 71.7013 48.3908 71.5814 48.4642 71.3335L48.5784 70.9577ZM48.1217 72.4289C48.2033 72.181 48.3664 72.0611 48.6273 72.0611H49.9567C50.2176 72.0611 50.3155 72.173 50.234 72.4289L48.611 77.6018C48.5295 77.8577 48.3664 77.9776 48.1054 77.9776H46.7761C46.5151 77.9776 46.4254 77.8577 46.4988 77.6018L48.1217 72.4289Z" fill="#FFB11B"/>
<path d="M51.7998 72.4288C51.8813 72.181 52.0444 72.061 52.3054 72.061H55.3637C55.6246 72.061 55.7225 72.173 55.641 72.4288L55.4615 73.0045C55.38 73.2523 55.2169 73.3723 54.9559 73.3723H54.0099C53.7489 73.3723 53.5858 73.4922 53.5042 73.74L52.2972 77.6097C52.2157 77.8656 52.0526 77.9855 51.7916 77.9855H50.4541C50.1932 77.9855 50.1034 77.8656 50.1768 77.6097L51.7998 72.4288Z" fill="#FFB11B"/>
<path d="M61.9369 77.6018C61.8554 77.8576 61.6923 77.9776 61.4313 77.9776H57.0356C55.9917 77.9776 55.6247 77.4899 55.9264 76.5144L57.2068 72.4369C57.2884 72.189 57.4515 72.0691 57.7124 72.0691H59.0499C59.3109 72.0691 59.4088 72.181 59.3272 72.4369L58.1202 76.3066C58.0468 76.5464 58.1365 76.6744 58.3975 76.6744H59.735C59.9959 76.6744 60.1672 76.5544 60.2406 76.3066L61.4476 72.4369C61.5291 72.189 61.6923 72.0691 61.9532 72.0691H63.2825C63.5435 72.0691 63.6414 72.181 63.5598 72.4369L61.9369 77.6018Z" fill="#FFB11B"/>
</svg>
