<svg width="264" height="250" viewBox="0 0 264 250" fill="none" xmlns="http://www.w3.org/2000/svg">
<path d="M52.9099 223.597C18.7193 225.342 -24.8137 167.117 21.2328 77.136C33.0314 54.0783 57.3286 25.8106 80.3634 19.5211C103.536 13.1857 127.351 14.1268 150.523 17.0535C163.791 18.7292 177.013 21.0705 189.638 25.5352C210.446 32.892 259.339 59.5988 262.254 139.687C264.148 191.839 270.632 261.254 155.608 246.689C116.631 241.766 114.784 220.452 52.9099 223.597Z" fill="white" stroke="#553529" stroke-width="2" stroke-miterlimit="10"/>
<path d="M150.845 115.62C150.696 115.539 150.569 115.47 150.845 115.62V115.62Z" fill="#553529"/>
<path d="M153.427 116.262C153.37 116.228 153.416 116.216 153.645 116.308C153.634 116.308 153.634 116.308 153.622 116.308C153.565 116.285 153.496 116.285 153.427 116.262Z" fill="#553529"/>
<path d="M158.19 114.621C158.098 114.311 158.19 114.46 158.19 114.621V114.621Z" fill="#553529"/>
<path d="M158.144 114.299C158.144 114.322 158.156 114.356 158.156 114.379C158.11 114.345 158.099 114.253 158.099 114.196C158.11 114.219 158.121 114.242 158.144 114.276C158.133 114.276 158.133 114.288 158.144 114.299Z" fill="#553529"/>
<path d="M157.787 113.852C157.742 113.84 157.697 113.829 157.674 113.806C157.719 113.829 157.753 113.84 157.787 113.852Z" fill="#553529"/>
<path d="M158.179 115.206C158.179 115.217 158.167 115.24 158.167 115.252C158.144 115.103 158.179 115.022 158.202 115.057V115.068C158.202 115.103 158.19 115.16 158.179 115.206Z" fill="#553529"/>
<path d="M158.144 115.367C158.156 115.332 158.167 115.298 158.179 115.253C158.179 115.276 158.179 115.287 158.19 115.31C158.156 115.332 158.156 115.344 158.144 115.367Z" fill="#553529"/>
<path d="M176.198 59.5305C190.051 63.7886 191.015 71.2947 187.813 69.1255C184.611 66.9563 176.623 64.7412 175.59 64.1214C174.43 63.4328 174.281 58.9452 176.198 59.5305Z" fill="#553529"/>
<path d="M143.442 63.6167C138.289 63.3986 134.065 66.3482 131.093 67.978C129.199 69.0224 128.958 59.8062 144.992 57.901C147.218 57.6256 148.125 63.8118 143.442 63.6167Z" fill="#553529"/>
<path d="M179.331 72.2584C182.717 72.8782 184.473 78.7431 183.256 85.3425C182.04 91.9418 178.31 96.7852 174.924 96.1655C171.538 95.5457 169.782 89.6808 170.999 83.0814C172.215 76.4706 175.945 71.6272 179.331 72.2584Z" fill="#553529"/>
<path d="M147.736 82.1144C149.526 75.6448 148.287 69.6562 144.97 68.7386C141.653 67.821 137.513 72.3218 135.723 78.7915C133.933 85.2612 135.172 91.2497 138.489 92.1673C141.806 93.0849 145.946 88.5841 147.736 82.1144Z" fill="#553529"/>
<path d="M101.952 117.881C94.5493 119.901 87.6859 114.3 84.2657 107.999C80.1224 100.355 78.9862 90.2895 82.8655 82.3013C84.4723 79.0074 87.0776 76.161 90.5093 74.8182C91.0602 56.03 98.4056 37.1845 113.039 24.9383C126.777 13.4381 145.6 10.213 162.437 16.1812C179.607 22.2641 192.76 36.691 199.853 53.1722C207.565 71.0996 208.449 92.0225 201.632 110.363C195.595 126.592 183.004 140.628 166.178 145.839C164.101 146.482 161.978 146.964 159.843 147.343C157.858 147.698 157.674 144.554 159.659 144.198C176.095 141.26 189.248 129.461 196.375 114.69C204.375 98.1055 205.017 78.4794 199.439 61.0456C194.125 44.461 182.832 29.38 167.051 21.541C152.073 14.1038 134.203 14.5973 120.04 23.6988C104.775 33.5003 96.0757 50.9342 94.0672 68.609C93.7918 71.0078 93.6541 73.418 93.6196 75.8397C93.6081 76.5168 93.2523 77.2284 92.5522 77.4235C86.1365 79.2599 83.7492 86.8234 83.6804 92.8145C83.6 100.125 86.3431 108.263 92.3342 112.808C95.2149 114.988 98.727 115.826 102.147 114.506C102.755 114.265 103.616 114.541 103.961 115.115C106.818 119.912 109.952 124.606 113.934 128.543C117.71 132.262 122.106 135.131 126.858 137.438C128.682 138.322 127.294 141.156 125.469 140.261C120.488 137.84 115.817 134.821 111.868 130.919C110.962 130.024 110.101 129.082 109.263 128.13C109.275 128.13 103.582 120.555 101.952 117.881Z" fill="#553529"/>
<path d="M93.757 104.062C93.7341 104.039 93.7226 104.027 93.7111 104.005C93.7226 104.016 93.7341 104.027 93.7341 104.039C93.8374 104.142 93.9407 104.257 94.044 104.36C94.1358 104.452 94.2276 104.532 94.3194 104.624C95.8459 105.967 93.78 108.343 92.2535 107.012C90.773 105.703 89.6367 103.959 88.7759 102.203C86.9625 98.461 86.9625 94.3407 88.3742 90.4729C88.6612 89.6695 89.7744 89.4055 90.486 89.7498C91.3239 90.163 91.496 91.0582 91.2091 91.8616C90.5893 93.5603 90.3483 95.3622 90.5434 97.1526C90.6238 97.9101 90.7844 98.6332 91.0255 99.3677C91.1288 99.7006 91.255 100.033 91.3927 100.355C91.4616 100.527 91.5419 100.688 91.6108 100.86C91.7026 101.055 91.7026 101.055 91.737 101.112C92.2535 102.099 92.8848 103.006 93.5849 103.867C93.5964 103.878 93.6078 103.89 93.6193 103.901C93.6308 103.924 93.6652 103.959 93.6996 103.993C93.7111 104.016 93.7341 104.039 93.757 104.062Z" fill="#553529"/>
<path d="M93.7101 104.002C93.6987 103.991 93.6987 103.991 93.6873 103.98C93.6646 103.946 93.6419 103.923 93.6078 103.889C93.5964 103.866 93.6078 103.889 93.7101 104.002Z" fill="#553529"/>
<path d="M158.535 98.3239C158.535 98.5879 158.523 98.8404 158.489 99.1044C158.466 99.265 158.397 99.552 158.512 98.9207C158.5 98.9896 158.489 99.0699 158.477 99.1503C158.454 99.3109 158.42 99.4831 158.374 99.6438C158.339 99.8045 158.294 99.9651 158.236 100.126C158.202 100.218 158.179 100.309 158.144 100.401C158.133 100.447 158.11 100.482 158.098 100.516C158.018 100.757 158.271 100.137 158.19 100.309C158.03 100.642 157.846 100.929 157.662 101.239C157.949 100.769 157.834 101.021 157.72 101.147C157.662 101.216 157.605 101.274 157.536 101.342C157.467 101.4 157.398 101.457 157.341 101.526C157.169 101.687 157.536 101.377 157.536 101.377C157.479 101.4 157.421 101.457 157.364 101.492C157.284 101.538 157.203 101.583 157.123 101.629C156.939 101.721 156.733 101.721 157.215 101.606C157.008 101.652 156.813 101.733 156.606 101.779C156.239 101.87 157.043 101.744 156.664 101.779C156.549 101.79 156.434 101.79 156.32 101.79C156.193 101.79 156.078 101.79 155.952 101.779C155.883 101.779 155.826 101.767 155.757 101.767C155.459 101.744 155.78 101.733 155.872 101.779C155.642 101.664 155.275 101.664 155.023 101.583C154.942 101.56 154.403 101.388 154.736 101.503C155.057 101.606 154.793 101.503 154.759 101.492C154.724 101.469 154.69 101.446 154.655 101.423C154.724 101.48 154.793 101.526 154.873 101.583C154.862 101.549 154.77 101.492 154.747 101.457C154.586 101.285 154.678 101.251 154.782 101.526C154.736 101.4 154.609 101.274 154.552 101.147C154.518 101.09 154.495 101.021 154.46 100.964C154.357 100.792 154.586 101.319 154.483 101.033C154.414 100.849 154.357 100.677 154.3 100.493C154.208 100.16 154.07 99.7586 154.07 99.4028C154.07 99.7815 154.093 99.5864 154.081 99.4716C154.07 99.3454 154.058 99.2077 154.047 99.0814C154.036 98.8633 154.024 98.6338 154.013 98.4157C153.99 97.5205 153.244 96.6482 152.291 96.6941C151.384 96.7401 150.546 97.4516 150.569 98.4157C150.615 100.16 150.891 102.088 151.993 103.512C152.991 104.809 154.816 105.268 156.411 105.222C157.743 105.187 159.017 104.705 159.981 103.764C160.75 103.007 161.266 102.008 161.576 100.998C161.84 100.137 161.978 99.2191 161.978 98.3239C161.978 97.4287 161.186 96.5564 160.256 96.6023C159.315 96.6368 158.535 97.3598 158.535 98.3239Z" fill="#553529"/>
<path d="M169.186 51.5769C153.875 47.9846 108.884 50.6702 100.908 67.2204C97.7973 73.682 97.8088 89.3599 90.7503 69.0567C89.7174 66.0841 86.1824 73.8657 85.3905 68.8731C82.0391 47.9042 92.8621 9.34085 130.84 3.03986C162.483 -2.21669 179.377 13.0135 209.08 17.9832C234.594 22.2412 206.395 60.2996 169.186 51.5769Z" fill="white"/>
<path d="M169.645 49.9127C165.145 48.8683 160.451 48.5814 155.849 48.4781C149.8 48.3518 143.74 48.6617 137.738 49.3618C131.563 50.0849 125.411 51.1752 119.455 52.9772C114.279 54.5495 109.091 56.6613 104.798 60.0127C101.229 62.8016 99.1171 66.2563 97.8891 70.5832C97.3496 72.4769 96.9364 74.4166 96.2708 76.2644C96.0871 76.7809 96.1445 76.6661 95.9724 76.9875C95.892 77.1252 95.8232 77.2744 95.7428 77.4121C95.5821 77.6761 95.6395 77.3088 95.6625 77.5269C95.674 77.6876 95.6395 77.5269 95.6625 77.5154C95.7543 77.5039 96.3052 77.3662 96.1216 77.3777C96.4544 77.3662 96.684 77.6531 96.3855 77.3547C94.6066 75.5413 93.5162 71.6965 92.5981 69.1256C92.1619 67.8975 91.5536 66.6465 90.0501 66.635C88.9827 66.6235 88.1334 67.3351 87.353 67.9893C87.1349 68.173 86.6299 68.6206 86.5955 68.6435C86.4578 68.7468 86.2282 68.9419 86.2397 68.896C86.2856 68.7124 86.2856 69.0108 86.1823 68.9075C86.1134 68.8272 87.2726 69.0911 87.1579 69.1485C87.2841 69.0911 87.1349 69.2863 87.1349 68.8731C87.1349 68.5862 87.0201 68.2533 86.9742 67.9779C86.9054 67.5188 86.848 67.0597 86.8021 66.6006C86.5611 64.3281 86.4922 62.0327 86.5496 59.7372C86.825 49.006 89.9124 38.2175 95.4215 29.0013C101.849 18.2586 111.811 10.1328 123.828 6.44858C131.632 4.06133 140.01 3.31531 148.136 3.80883C155.815 4.27939 163.298 6.12722 170.609 8.4571C177.92 10.7984 185.093 13.5415 192.45 15.7681C196.444 16.9847 200.495 18.0406 204.581 18.8784C207.336 19.4408 210.32 19.6359 212.879 20.8639C214.452 21.61 215.622 22.5511 216.391 23.9284C217.057 25.1335 217.252 26.4074 217.114 27.9913C216.999 29.38 216.322 31.3312 215.565 32.7773C214.555 34.7055 213.258 36.45 211.8 38.0453C203.824 46.7106 191.704 51.1982 180.066 51.1523C176.554 51.1293 173.065 50.7047 169.645 49.9127C167.487 49.4192 166.569 52.7361 168.726 53.2297C181.994 56.2826 196.363 53.9871 207.623 46.1597C211.835 43.2215 215.748 39.5259 218.273 35.0039C220.144 31.6525 221.395 27.4404 220.029 23.6759C218.526 19.5211 214.463 17.306 210.343 16.4682C206.154 15.6074 201.987 14.8614 197.855 13.7481C193.793 12.6463 189.787 11.3608 185.804 10.0065C178.356 7.47006 170.964 4.69257 163.321 2.77588C155.229 0.755894 146.874 -0.17376 138.541 0.411577C130.565 0.962483 122.714 2.60372 115.461 6.02393C109.55 8.81289 104.19 12.7725 99.7369 17.547C91.5766 26.3041 86.3659 37.6666 84.2197 49.3963C83.2901 54.5036 82.8654 59.7372 83.2212 64.9249C83.3589 66.9564 83.2097 70.7439 85.1723 71.9604C86.1479 72.5573 87.2726 72.3277 88.1908 71.7424C88.627 71.4555 89.0287 71.0997 89.4189 70.7668C89.7173 70.5143 90.1764 70.3077 90.2911 70.0667C90.3485 69.9519 90.2797 70.0897 90.2682 70.0667C90.2567 70.0438 89.6484 69.9749 89.4533 69.929C89.4189 69.9175 89.0516 69.5847 89.086 69.5273C89.0401 69.5847 89.3271 70.2274 89.3615 70.3192C89.7632 71.4555 90.1879 72.5917 90.6355 73.7165C91.2438 75.22 91.8635 76.7464 92.7014 78.1467C93.6425 79.7076 95.3067 81.5898 97.3152 80.5569C98.8072 79.7879 99.3926 77.8942 99.8517 76.4021C100.494 74.3592 100.942 72.2703 101.585 70.2274C104.695 60.4373 117.182 56.8335 126.238 54.7791C138.071 52.0934 150.684 51.1752 162.781 52.3344C164.778 52.5295 166.764 52.805 168.715 53.2526C170.884 53.7346 171.802 50.4177 169.645 49.9127Z" fill="#553529"/>
<path d="M115.644 137.196C113.739 143.83 115.541 151.199 120.189 156.283C122.829 159.175 126.077 160.472 129.83 161.253C138.048 162.974 148.148 162.917 155.493 158.337C159.946 155.56 162.517 151.176 162.988 145.976C163.194 143.773 159.74 143.784 159.544 145.976C158.798 154.148 151.097 157.706 143.798 158.521C140.01 158.946 136.12 158.854 132.366 158.234C130.783 157.97 129.21 157.626 127.672 157.132C126.502 156.753 125.802 156.535 124.734 155.789C119.305 151.99 117.182 144.301 118.961 138.114C119.581 135.98 116.252 135.062 115.644 137.196Z" fill="#553529"/>
<path d="M102.905 140.594C99.3695 150.407 104.718 161.23 113.441 166.28C117.24 168.484 121.968 169.39 126.249 170.056C138.415 171.95 153.06 171.64 163.171 163.675C169.599 158.613 172.33 150.832 172.365 142.832C172.376 140.617 168.933 140.617 168.921 142.832C168.887 149.225 167.051 155.457 162.276 159.922C158.087 163.847 152.44 165.81 146.885 166.785C141.078 167.807 135.052 167.726 129.21 167.026C126.777 166.739 124.367 166.303 121.991 165.718C120.935 165.465 119.879 165.167 118.846 164.845C118.422 164.708 117.986 164.559 117.561 164.409C117.354 164.329 117.148 164.249 116.941 164.168C116.849 164.134 116.769 164.099 116.677 164.065C116.241 163.893 116.999 164.214 116.585 164.031C108.23 160.312 103.054 150.315 106.221 141.524C106.979 139.423 103.651 138.528 102.905 140.594Z" fill="#553529"/>
<path d="M83.8295 181.739C82.4293 188.935 81.0521 196.155 80.5241 203.477C79.9847 210.788 80.4782 218.065 81.4997 225.318C81.8096 227.499 85.1265 226.569 84.8166 224.4C83.841 217.468 83.4508 210.467 83.9673 203.477C84.4837 196.464 85.8151 189.544 87.1579 182.657C87.5711 180.488 84.2542 179.559 83.8295 181.739Z" fill="#553529"/>
<path d="M116.333 135.108C101.608 136.542 88.5351 144.565 78.8024 155.457C68.5303 166.945 61.7703 181.567 57.6614 196.315C55.2397 204.969 53.7247 213.853 52.2557 222.702C51.8999 224.871 55.2168 225.8 55.5726 223.62C58.0861 208.539 60.9554 193.561 67.4515 179.616C73.5918 166.429 82.1882 154.32 94.5951 146.378C101.149 142.178 108.563 139.32 116.333 138.562C118.514 138.333 118.536 134.89 116.333 135.108Z" fill="#553529"/>
<path d="M168.659 115.887C167.571 116.957 165.041 117.395 163.463 117.67C161.029 118.081 158.458 117.67 156.051 117.19C151.141 116.216 144.925 114.104 142.613 109.18C141.484 106.793 137.975 108.878 139.09 111.251C141.919 117.272 149.413 120.139 155.48 121.25C158.499 121.812 161.505 122.169 164.552 121.634C166.905 121.222 169.774 120.523 171.543 118.794C173.433 116.943 170.536 114.035 168.659 115.887Z" fill="#553529"/>
<path d="M139.064 108.692C137.02 110.294 135.258 112.885 134.559 115.368C133.859 117.851 134.518 120.188 136.226 122.057C139.508 125.662 145.022 126.904 149.729 126.369C154.181 125.862 158.309 124.086 162.048 121.67C164.213 120.268 162.196 116.796 160.017 118.212C154.665 121.67 147.362 124.22 141.471 121.029C140.422 120.455 140.032 120.201 139.252 119.4C138.876 119.013 138.445 118.559 138.351 117.958C137.948 115.608 140.167 112.884 141.929 111.523C142.789 110.855 142.628 109.386 141.929 108.692C141.068 107.851 139.925 108.025 139.064 108.692Z" fill="#553529"/>
<path d="M170.425 148.376C190.797 153.781 208.908 165.959 222.91 181.568C228.626 187.937 233.641 194.881 238.072 202.192C239.219 204.086 242.192 202.353 241.044 200.459C227.685 178.434 208.552 159.772 184.634 149.649C180.307 147.813 175.877 146.264 171.332 145.059C169.197 144.485 168.279 147.802 170.425 148.376Z" fill="#553529"/>
<path d="M130.886 186.457C124.436 187.8 116.907 190.945 113.027 196.523C110.996 199.438 110.479 203.398 110.479 206.875C110.491 210.571 111.203 214.336 112.821 217.664C114.301 220.717 116.78 223.368 120.315 223.667C122.519 223.85 122.508 220.407 120.315 220.223C118.158 220.04 116.735 217.825 115.862 216.08C114.531 213.383 113.98 210.25 113.923 207.266C113.865 204.305 114.198 200.907 115.897 198.405C117.549 195.972 120.247 194.296 122.817 192.965C125.641 191.507 128.682 190.429 131.793 189.774C133.973 189.327 133.055 186.01 130.886 186.457Z" fill="#553529"/>
<path d="M122.262 203.762C118.882 206.605 117.115 210.876 117.899 215.281C118.633 219.418 121.651 223.342 125.636 224.816C126.505 225.141 127.5 224.945 127.946 224.053C128.33 223.296 128.051 222.067 127.183 221.743C124.228 220.653 121.928 217.959 121.297 214.864C120.701 211.884 121.807 208.618 124.146 206.657C124.853 206.06 125.201 205.122 124.651 204.275C124.181 203.554 122.979 203.158 122.262 203.762Z" fill="#553529"/>
<path d="M132.993 219.679C129.631 220.735 126.692 222.296 125.591 225.877C124.592 229.102 128.086 236.119 130.358 238.587C134.674 243.304 142.065 241.537 147.276 239.425C148.94 238.748 152.291 237.577 152.624 235.454C152.773 234.535 152.383 233.606 151.419 233.33C150.604 233.101 149.445 233.606 149.295 234.535C149.261 234.696 149.295 234.639 149.399 234.352C149.376 234.409 149.341 234.467 149.307 234.512C149.468 234.306 149.491 234.271 149.353 234.421C149.295 234.478 149.227 234.547 149.158 234.604C148.997 234.731 149.238 234.581 148.871 234.799C148.653 234.937 148.446 235.063 148.228 235.19C147.23 235.752 146.174 236.2 145.095 236.578C142.501 237.497 139.724 238.185 136.946 238.116C132.317 238.587 128.953 232.258 128.632 229.366C128.483 227.966 128.77 226.451 129.619 225.303C130.618 223.96 132.351 223.467 133.866 222.996C136.023 222.331 135.117 219.002 132.993 219.679Z" fill="#553529"/>
<path d="M140.423 235.717C147.585 233.272 155.218 236.635 162.528 235.063C168.887 233.685 174.075 228.957 176.427 222.966C177.242 220.9 173.914 220.005 173.11 222.048C170.953 227.522 165.604 231.516 159.751 232.021C152.979 232.607 146.151 230.128 139.505 232.4C137.416 233.112 138.312 236.429 140.423 235.717Z" fill="#553529"/>
<path d="M178.103 215.46C179.687 208.562 178.562 200.757 174.809 194.72C174.063 193.515 173.283 192.127 171.963 191.507C170.792 190.967 169.576 190.508 168.359 190.107C163.16 188.396 157.662 187.547 152.222 187.065C147.838 186.675 143.442 186.629 139.058 186.296C135.006 185.986 131.012 186.135 127.202 187.662C123.426 189.177 120.029 191.828 118.387 195.627C116.804 199.3 116.895 203.696 119.248 207.024C120.522 208.814 123.506 207.104 122.221 205.291C120.396 202.72 120.339 199.392 121.716 196.591C123.139 193.71 125.962 191.713 128.935 190.669C132.516 189.406 136.143 189.51 139.873 189.808C143.672 190.118 147.471 190.13 151.27 190.439C156.331 190.841 161.404 191.61 166.27 193.079C167.487 193.446 168.703 193.86 169.874 194.353C169.438 194.169 170.299 194.514 170.448 194.617C170.574 194.697 170.701 194.858 170.655 194.812C171.791 195.88 172.583 197.693 173.203 199.093C173.903 200.677 174.408 202.353 174.775 204.04C175.521 207.495 175.555 211.133 174.763 214.576C174.281 216.699 177.598 217.617 178.103 215.46Z" fill="#553529"/>
<path d="M174.247 195.031C175.578 193.676 177.323 192.517 179.262 193.344C180.605 193.917 181.569 195.145 182.143 196.442C183.257 199.025 183.555 202.02 183.67 204.786C183.934 210.961 183.371 218.261 180.089 223.678C179.343 224.917 178.425 225.904 177.174 226.65C175.475 227.672 172.904 228.739 171.045 227.592C169.151 226.432 167.418 229.405 169.312 230.564C173.157 232.928 178.826 230.587 181.558 227.465C183.991 224.711 185.231 220.992 186.011 217.457C186.929 213.314 187.285 209.01 187.101 204.775C186.952 201.263 186.539 197.475 184.921 194.308C183.842 192.196 181.891 190.405 179.572 189.809C176.6 189.051 173.857 190.486 171.814 192.575C170.253 194.181 172.686 196.615 174.247 195.031Z" fill="#553529"/>
<path d="M182.717 195.054C187.251 193.883 192.083 193.734 196.708 194.492C200.059 195.042 203.916 195.938 206.659 198.072C207.393 198.646 208.369 198.784 209.092 198.072C209.689 197.487 209.826 196.213 209.092 195.639C205.821 193.091 201.655 191.84 197.626 191.175C192.37 190.302 186.975 190.394 181.81 191.737C179.664 192.288 180.571 195.616 182.717 195.054Z" fill="#553529"/>
<path d="M183.842 185.883C184.921 186.469 185.965 187.111 186.975 187.823C187.182 187.972 187.4 188.133 187.606 188.282C187.974 188.558 187.331 188.064 187.687 188.339C187.79 188.42 187.893 188.5 187.997 188.581C188.352 188.867 188.708 189.166 189.052 189.464C190.395 190.623 191.681 191.852 193.127 192.873C193.861 193.389 195.078 193.034 195.48 192.253C195.95 191.369 195.652 190.451 194.86 189.9C194.745 189.82 194.458 189.51 194.332 189.51C194.424 189.51 194.63 189.751 194.378 189.545C194.297 189.476 194.206 189.407 194.125 189.338C193.815 189.086 193.517 188.833 193.219 188.569C192.576 188.007 191.945 187.421 191.29 186.859C189.523 185.344 187.618 184.001 185.575 182.888C184.783 182.452 183.658 182.67 183.222 183.508C182.797 184.334 182.992 185.424 183.842 185.883Z" fill="#553529"/>
<path d="M240.987 206.92C243.5 211.477 244.74 216.974 243.466 222.105C242.157 227.361 238.232 231.114 233.102 232.687C227.535 234.397 221.406 233.731 215.679 233.375C208.839 232.951 201.999 232.354 195.181 231.654C188.765 230.988 182.281 230.345 175.957 229.037C173.799 228.589 172.869 231.906 175.039 232.354C180.984 233.593 187.09 234.225 193.115 234.879C200.403 235.671 207.703 236.314 215.014 236.784C221.211 237.174 227.811 237.863 233.859 236.072C239.713 234.328 244.453 230.208 246.404 224.354C248.516 218.019 247.115 210.926 243.959 205.199C242.892 203.236 239.919 204.969 240.987 206.92Z" fill="#553529"/>
</svg>
