<svg width="676" height="831" viewBox="0 0 676 831" fill="none" xmlns="http://www.w3.org/2000/svg">
<g clip-path="url(#clip0_480_7663)">
<path fill-rule="evenodd" clip-rule="evenodd" d="M-179.386 328.909C-128.755 239.767 -17.5683 195.18 78.9861 195.668C164.15 196.099 218.704 270.564 275.13 331.207C319.216 378.588 339.64 437.094 361.768 499.58C395.999 596.25 483.935 689.668 436.907 788.06C388.256 889.847 259.129 938.577 152.75 936.887C58.6349 935.392 1.75546 848.531 -59.3612 780.177C-105.583 728.482 -131.444 667.563 -149.814 598.495C-173.643 508.903 -227.851 414.237 -179.386 328.909Z" fill="#FFB11B"/>
<path fill-rule="evenodd" clip-rule="evenodd" d="M410.413 10.3581C401.425 -30.0708 425.176 -73.4626 457.081 -99.3717C485.222 -122.224 524.591 -114.587 560.6 -111.605C588.734 -109.276 612.284 -97.2205 637.539 -84.4295C676.611 -64.6413 732.414 -60.3215 745.249 -18.0878C758.526 25.6031 730.065 75.0802 694.583 103.28C663.191 128.228 619.491 117.497 579.721 113.466C549.643 110.417 523.61 99.104 497.697 83.323C464.084 62.8528 419.017 49.0571 410.413 10.3581Z" fill="#FFB11B"/>
<path d="M642 598H332V281.42C332 206.081 401.401 145 487 145C572.599 145 642 206.081 642 281.42V598Z" fill="#FFB11B"/>
<mask id="mask0_480_7663" style="mask-type:alpha" maskUnits="userSpaceOnUse" x="332" y="145" width="310" height="453">
<path d="M642 598H332V281.42C332 206.081 401.401 145 487 145C572.599 145 642 206.081 642 281.42V598Z" fill="#FFB11B"/>
</mask>
<g mask="url(#mask0_480_7663)">
<path d="M397 296.5C335 296.5 314 385 314 450.5V606.5H711C713.167 541.167 716.2 407 711 393C704.5 375.5 671.5 235 590.5 235C509.5 235 485.026 329.746 483.5 343C475.5 412.5 466 296.5 397 296.5Z" fill="#989F0C"/>
<path d="M422.5 260C400.685 260 383 241.644 383 219C383 196.356 400.685 178 422.5 178C444.315 178 462 196.356 462 219C462 241.644 444.315 260 422.5 260Z" fill="#F26A2F"/>
<path d="M516.575 590.287L516.003 604.066L510.739 613.275L496.267 617.219L471.658 611.906L453.205 605.988L448.419 642.234L442.528 670.606C442.528 670.606 362.706 657.036 330.719 651.154C321.735 649.499 326.979 642.484 325.948 642.726C289.998 651.082 289.872 631.803 289.872 631.803C289.872 631.803 298.304 556.047 328.137 519.896C343.522 501.253 358.864 492.742 379.518 488.675L383.243 490.409L381.819 498.742L379.16 506.039L380.726 510.901L398.391 527.084L426.992 527.563L442.611 519.202L448.112 511.209L461.195 519.393L480.249 530.789L491.545 542.536L505.336 563.14L512.061 579.579L516.575 590.287Z" fill="white"/>
<path d="M494.071 423.295L501.288 428.985L502.918 438.449L501.641 455.326L495.767 473.139L489.854 484.52L478.892 497.631L464.599 505.232L450.789 508.323L445.775 509.118L441.918 509.151L436.32 515.065L420.892 520.92L405.607 520.117L394.14 514.508L389.388 505.304L392.047 498.008L395.229 492.332L393.894 485.964L392.317 467.803L391.279 464.023L385.56 462.283L380.856 459.143L377.211 444.024L379.215 431.303L386.51 423.469L393.156 421.576L394.064 426.507L396.198 431.934L406.997 417.173L428.859 407.389L479.506 419.752L494.071 423.295Z" fill="white"/>
<path d="M476.262 430.966C490.45 437.162 490.567 445.246 487.436 442.555C484.303 439.872 476.084 436.547 475.064 435.766C473.912 434.889 474.291 430.101 476.262 430.966Z" fill="#553529"/>
<path d="M439.023 427.73C433.585 426.873 428.737 429.497 425.376 430.869C423.231 431.742 424.096 421.928 441.358 421.848C443.757 421.83 443.981 428.505 439.023 427.73Z" fill="#553529"/>
<path d="M476.097 441.241C479.615 442.312 480.771 448.745 478.679 455.604C476.587 462.464 472.038 467.159 468.52 466.088C465.002 465.017 463.846 458.585 465.938 451.725C468.029 444.865 472.578 440.17 476.097 441.241Z" fill="#553529"/>
<path d="M441.35 447.879C444.032 441.224 443.44 434.714 440.027 433.338C436.614 431.963 431.672 436.242 428.99 442.896C426.308 449.551 426.9 456.061 430.313 457.436C433.726 458.812 438.667 454.533 441.35 447.879Z" fill="#553529"/>
<path d="M383.243 490.411C360.196 530.137 431.304 540.344 445.687 512.912L446.283 511.131L438.314 511.05L436.177 515.444L428.784 519.041L419.29 520.668L408.406 521.31L398.214 517.437L391.379 511.766L389.407 504.53L393.854 491.853L383.243 490.411Z" fill="white"/>
<path d="M443.604 511.971C443.429 512.307 443.234 512.623 443.053 512.95C442.86 513.306 443.343 512.517 443.033 512.985C442.921 513.161 442.809 513.336 442.69 513.511C442.271 514.132 441.826 514.726 441.345 515.3C440.881 515.86 440.391 516.394 439.873 516.908C439.756 517.021 439.637 517.141 439.52 517.254C439.992 516.787 439.547 517.228 439.423 517.332C439.145 517.59 438.853 517.838 438.562 518.078C437.37 519.066 436.101 519.958 434.77 520.748C434.626 520.834 434.474 520.918 434.322 521.01C434.237 521.059 434.153 521.108 434.061 521.155C433.798 521.308 434.455 520.946 434.179 521.089C433.827 521.273 433.474 521.466 433.123 521.643C432.405 522.003 431.668 522.337 430.926 522.655C429.428 523.28 427.89 523.815 426.334 524.27C425.954 524.381 425.578 524.477 425.199 524.581C424.638 524.726 425.487 524.517 425.087 524.61C424.831 524.671 424.575 524.732 424.312 524.792C423.506 524.976 422.695 525.137 421.888 525.275C420.218 525.566 418.538 525.771 416.847 525.897C415.981 525.964 415.119 526.01 414.253 526.031C413.843 526.045 413.441 526.053 413.033 526.052C412.84 526.053 412.655 526.055 412.463 526.049C412.34 526.046 411.618 526.035 411.955 526.048C412.323 526.058 411.609 526.041 411.533 526.037C411.341 526.031 411.157 526.026 410.965 526.02C410.505 526.003 410.048 525.972 409.591 525.94C408.76 525.882 407.924 525.808 407.099 525.712C405.41 525.523 403.727 525.241 402.063 524.886C401.273 524.719 400.485 524.529 399.701 524.316C399.524 524.266 399.354 524.217 399.176 524.174C398.547 524.001 399.403 524.247 399.021 524.127C398.631 524.006 398.242 523.884 397.853 523.755C396.335 523.253 394.847 522.663 393.403 521.979C392.728 521.66 392.056 521.318 391.395 520.955C391.082 520.784 390.779 520.599 390.468 520.42C390.199 520.263 390.847 520.663 390.369 520.359C390.194 520.247 390.011 520.134 389.837 520.015C388.633 519.222 387.49 518.338 386.431 517.351C386.189 517.121 385.947 516.892 385.714 516.656C385.352 516.3 385.627 516.565 385.653 516.6C385.529 516.45 385.382 516.304 385.25 516.161C384.804 515.653 384.377 515.126 383.984 514.572C383.577 514.009 383.255 513.397 382.865 512.821C382.726 512.623 382.998 513.065 382.992 513.049C382.958 512.974 382.908 512.897 382.873 512.823C382.796 512.672 382.712 512.513 382.635 512.362C382.482 512.054 382.338 511.739 382.202 511.418C381.931 510.775 381.701 510.116 381.503 509.446C381.464 509.301 381.425 509.149 381.379 508.996C381.396 509.037 381.475 509.427 381.367 508.925C381.298 508.575 381.22 508.224 381.167 507.869C381.047 507.142 380.975 506.407 380.949 505.671C380.935 505.314 380.935 504.96 380.935 504.606C380.935 505.114 380.933 504.775 380.945 504.492C380.953 504.292 380.966 504.102 380.981 503.904C381.107 502.228 381.436 500.584 381.885 498.965C381.762 499.417 381.854 499.069 381.929 498.826C382.002 498.606 382.074 498.386 382.145 498.173C382.298 497.727 382.459 497.282 382.633 496.846C382.999 495.916 383.401 495.007 383.84 494.103C384.3 493.165 384.793 492.254 385.31 491.347C385.928 490.279 385.2 488.796 384.155 488.327C382.93 487.778 381.755 488.406 381.135 489.482C377.389 495.98 375.137 503.586 377.219 511.008C378.952 517.191 383.767 521.866 389.209 524.965C395.167 528.359 402.162 530.025 408.965 530.474C416.233 530.957 423.641 530.174 430.527 527.724C436.712 525.522 442.714 521.75 446.372 516.178C446.864 515.429 447.33 514.653 447.753 513.855C448.328 512.765 447.672 511.316 446.598 510.835C445.434 510.287 444.18 510.881 443.604 511.971Z" fill="#553529"/>
<path d="M450.202 468.736C450.514 467.659 450.201 468.69 450.089 468.973C449.954 469.299 449.805 469.615 449.628 469.919C449.586 469.99 449.546 470.053 449.504 470.124C449.909 469.392 449.741 469.736 449.629 469.912C449.518 470.08 449.393 470.245 449.27 470.396C449.146 470.546 449.01 470.68 448.881 470.822C448.787 470.931 449.17 470.542 449.17 470.542C449.17 470.542 449.072 470.628 449.063 470.641C448.966 470.719 448.877 470.798 448.781 470.868C448.712 470.919 448.644 470.962 448.567 471.012C448.524 471.037 448.482 471.061 448.44 471.085C448.235 471.216 448.983 470.807 448.759 470.911C448.561 470.996 448.372 471.075 448.169 471.144C447.866 471.259 448.835 471.023 448.37 471.09C448.275 471.106 448.189 471.116 448.095 471.125C447.985 471.139 447.877 471.138 447.768 471.144C447.512 471.159 448.387 471.177 448.13 471.146C448.055 471.134 447.985 471.139 447.909 471.127C447.788 471.116 447.669 471.09 447.548 471.072C447.323 471.03 446.949 470.857 447.664 471.12C447.395 471.018 447.123 470.93 446.865 470.805C446.721 470.737 446.579 470.661 446.444 470.587C446.38 470.554 446.297 470.487 446.224 470.461C446.261 470.474 446.707 470.781 446.401 470.565C446.366 470.544 446.101 470.311 446.076 470.322C446.116 470.313 446.458 470.797 446.297 470.541C446.253 470.473 446.21 470.404 446.164 470.351C446.041 470.201 446.358 470.643 446.334 470.647C446.326 470.653 446.222 470.375 446.216 470.367C446.205 470.334 446.143 470.186 446.154 470.165C446.132 470.208 446.282 470.785 446.208 470.366C446.181 470.192 446.153 470.018 446.142 469.839C446.139 469.762 446.129 469.676 446.127 469.59C446.125 469.498 446.124 469.105 446.116 469.512C446.104 469.941 446.131 469.26 446.14 469.153C446.156 468.948 446.181 468.736 446.212 468.533C446.281 468.081 446.373 467.633 446.487 467.188C446.781 466.024 445.72 464.705 444.575 464.584C443.249 464.442 442.285 465.25 441.971 466.496C441.518 468.291 441.3 470.368 442 472.132C442.751 474.019 444.709 475.02 446.576 475.507C449.192 476.178 451.815 474.846 453.254 472.648C453.929 471.611 454.372 470.585 454.715 469.397C454.865 468.873 454.604 468.117 454.298 467.7C453.966 467.248 453.372 466.857 452.804 466.793C452.213 466.725 451.581 466.829 451.106 467.211C450.601 467.642 450.382 468.116 450.202 468.736Z" fill="#553529"/>
<path d="M456.537 484.345C456.438 484.437 456.311 484.518 456.212 484.611C455.912 484.904 456.529 484.498 456.117 484.673C455.688 484.862 455.268 485.036 454.822 485.183C453.954 485.466 453.276 485.617 452.228 485.772C451.715 485.847 451.205 485.908 450.686 485.928C450.57 485.934 449.931 485.928 450.467 485.949C450.229 485.943 449.995 485.915 449.752 485.893C448.364 485.75 446.979 485.537 445.606 485.242C443.026 484.685 440.448 483.812 438.179 482.432C436.397 481.342 434.613 479.813 433.878 478.074C432.736 475.372 428.474 477.038 429.629 479.757C432.086 485.542 438.844 488.396 444.571 489.683C447.29 490.292 450.105 490.724 452.883 490.294C454.918 489.982 457.674 489.496 459.247 488.027C460.146 487.186 460.527 485.912 459.736 484.835C459.066 483.931 457.445 483.498 456.537 484.345Z" fill="#553529"/>
<path d="M393.499 489.74C389.977 494.624 386.502 500.809 387.443 507.086C388.182 512.015 391.648 515.635 395.966 517.823C400.627 520.186 406.061 521.027 411.235 521.142C417.016 521.273 422.784 520.586 428.328 518.901C432.821 517.533 437.52 515.372 440.595 511.698C440.888 511.343 441.16 510.976 441.412 510.591C442.08 509.553 442.108 508.209 441.072 507.38C440.195 506.668 438.53 506.675 437.861 507.72C437.367 508.484 436.737 509.073 436.175 509.773C436.119 509.841 436.586 509.404 436.239 509.713C436.158 509.786 436.069 509.864 435.989 509.937C435.802 510.101 435.616 510.257 435.424 510.405C435.028 510.722 434.613 511.02 434.192 511.302C433.746 511.596 433.288 511.873 432.831 512.141C432.449 512.368 433.031 512.041 432.898 512.105C432.781 512.165 432.672 512.225 432.562 512.285C432.311 512.416 432.061 512.54 431.811 512.663C430.753 513.179 429.66 513.628 428.551 514.028C427.393 514.443 426.222 514.795 425.041 515.115C424.961 515.134 424.479 515.26 424.824 515.174C425.168 515.088 424.687 515.207 424.608 515.226C424.264 515.304 423.929 515.384 423.585 515.462C422.94 515.602 422.297 515.727 421.647 515.843C419.058 516.301 416.429 516.561 413.8 516.627C413.126 516.648 412.458 516.637 411.787 516.642C411.64 516.643 412.262 516.654 411.787 516.642C411.634 516.634 411.48 516.634 411.327 516.626C410.966 516.617 410.614 516.601 410.256 516.577C408.98 516.505 407.713 516.38 406.446 516.201C405.209 516.027 403.982 515.793 402.764 515.49C402.489 515.425 402.223 515.354 401.958 515.274C401.632 515.186 401.708 515.197 402.016 515.299C401.861 515.252 401.706 515.205 401.559 515.159C401.009 514.982 400.452 514.797 399.914 514.584C398.904 514.19 397.918 513.738 396.976 513.193C396.857 513.121 396.73 513.04 396.609 512.975C396.481 512.909 397.064 513.276 396.701 513.028C396.485 512.879 396.268 512.738 396.06 512.59C395.65 512.297 395.252 511.981 394.872 511.646C394.702 511.496 394.533 511.34 394.366 511.175C394.286 511.094 394.206 511.012 394.126 510.93C394.43 511.208 394.369 511.206 394.148 510.941C393.847 510.587 393.556 510.227 393.292 509.84C393.153 509.641 393.03 509.437 392.907 509.234C392.723 508.928 392.89 509.146 392.973 509.359C392.921 509.243 392.854 509.125 392.794 509.016C392.583 508.583 392.398 508.131 392.253 507.67C392.215 507.564 392.194 507.452 392.156 507.346C392.018 506.94 392.207 507.616 392.182 507.481C392.142 507.236 392.073 506.987 392.033 506.742C391.95 506.229 391.9 505.705 391.886 505.187C391.882 505.063 391.886 504.94 391.882 504.816C391.859 504.412 391.848 505.335 391.881 504.924C391.904 504.619 391.913 504.312 391.951 504.01C392.012 503.411 392.119 502.818 392.246 502.237C392.314 501.947 392.395 501.667 392.462 501.384C392.565 500.961 392.32 501.809 392.461 501.392C392.517 501.223 392.567 501.046 392.633 500.871C392.859 500.197 393.124 499.529 393.416 498.88C393.733 498.166 394.08 497.464 394.447 496.773C394.631 496.432 394.821 496.099 395.01 495.766C395.113 495.596 395.21 495.419 395.313 495.25C395.448 495.024 395.283 495.291 395.271 495.32C395.343 495.2 395.415 495.088 395.494 494.969C396.001 494.176 396.529 493.394 397.085 492.632C397.809 491.634 397.746 490.23 396.746 489.421C395.798 488.668 394.223 488.742 393.499 489.74Z" fill="#553529"/>
<path d="M346.916 527.26C344.602 531.851 342.659 536.638 340.814 541.432C338.099 548.489 335.667 555.659 333.494 562.899C330.923 571.426 328.683 580.058 326.905 588.791C325.106 597.66 323.761 606.637 323.23 615.678C322.725 624.152 322.847 632.753 324.399 641.119C324.578 642.063 324.772 643.009 324.982 643.951C325.252 645.155 326.2 646.11 327.517 645.957C328.646 645.83 329.793 644.634 329.524 643.422C328.645 639.558 328.107 635.631 327.811 631.68C327.659 629.608 327.57 627.522 327.534 625.444C327.499 623.212 327.524 621.49 327.602 619.375C327.945 610.453 329.121 601.573 330.773 592.812C332.417 584.097 334.541 575.47 337.018 566.952C337.184 566.369 337.167 566.428 337.341 565.846C337.497 565.33 337.654 564.808 337.81 564.292C338.107 563.313 338.411 562.335 338.715 561.357C339.305 559.467 339.918 557.581 340.544 555.705C341.697 552.261 342.907 548.841 344.176 545.438C346.08 540.352 348.106 535.277 350.466 530.385C350.67 529.962 350.872 529.546 351.082 529.131C351.636 528.03 351.024 526.595 349.927 526.111C348.76 525.586 347.47 526.158 346.916 527.26Z" fill="#553529"/>
<path d="M394.855 487.779C375.662 484.274 356.152 491.938 341.4 503.991C333.315 510.594 326.36 518.673 320.245 527.103C313.904 535.846 308.464 545.251 304.035 555.096C297.328 570 293.423 585.926 290.803 602.011C289.536 609.768 288.588 617.612 288.508 625.473C288.448 631.188 288.497 638.16 292.812 642.473C297.266 646.939 304.475 647.505 310.419 647.43C315.19 647.368 319.986 646.739 324.642 645.712C324.913 645.653 325.185 645.587 325.457 645.521C326.65 645.226 327.614 644.319 327.464 642.986C327.333 641.88 326.129 640.686 324.929 640.979C321.62 641.805 318.194 642.297 314.801 642.616C313.293 642.755 311.784 642.847 310.27 642.877C309.945 642.881 309.621 642.885 309.297 642.89C309.104 642.891 308.904 642.891 308.712 642.885C308.057 642.884 309.194 642.905 308.543 642.882C307.761 642.855 306.981 642.82 306.205 642.755C304.691 642.63 303.176 642.413 301.696 642.063C301.399 641.995 301.103 641.911 300.807 641.835C301.391 641.993 300.359 641.689 300.192 641.625C299.534 641.393 298.89 641.125 298.267 640.813C297.967 640.66 297.668 640.498 297.379 640.323C297.909 640.635 297.185 640.185 297.053 640.088C296.79 639.894 296.528 639.692 296.284 639.477C296.161 639.374 296.041 639.255 295.926 639.145C295.46 638.719 295.998 639.279 295.767 638.982C295.393 638.501 295.033 638.037 294.711 637.526C295.033 638.037 294.565 637.218 294.497 637.061C294.342 636.714 294.219 636.364 294.105 636C294.023 635.733 293.949 635.46 293.882 635.195C294.067 635.894 293.857 635.053 293.825 634.909C293.682 634.24 293.57 633.56 293.475 632.875C293.283 631.513 293.179 630.134 293.119 628.761C292.97 625.263 293.07 622.698 293.334 619.071C293.609 615.215 294.052 611.369 294.593 607.539C295.713 599.629 297.235 591.765 299.097 583.992C300.842 576.725 302.572 570.773 305.356 563.719C312.908 544.607 324.227 526.558 339.004 512.183C351.716 499.817 369.515 490.604 387.499 491.489C389.739 491.602 391.964 491.866 394.175 492.266C397.056 492.824 397.748 488.307 394.855 487.779Z" fill="#553529"/>
<path d="M429.897 476.962C426.012 479.787 422.972 485.7 426.58 489.851C429.764 493.505 434.851 494.847 439.55 494.451C443.663 494.103 447.502 492.434 450.992 490.319C452.046 489.679 452.163 488.056 451.481 487.127C450.698 486.059 449.343 485.998 448.29 486.638C445.827 488.132 443.094 489.324 440.293 489.757C439.7 489.851 439.113 489.915 438.515 489.947C437.815 489.986 437.738 489.989 437.234 489.958C436.723 489.926 436.207 489.87 435.697 489.784C435.456 489.747 435.217 489.695 434.971 489.642C434.837 489.614 434.704 489.578 434.569 489.55C434.524 489.543 434.102 489.432 434.376 489.505C434.627 489.574 434.024 489.389 433.921 489.358C433.716 489.288 433.504 489.209 433.302 489.124C432.889 488.953 432.478 488.767 432.087 488.553C431.988 488.499 431.493 488.208 431.753 488.371C432.013 488.534 431.551 488.232 431.46 488.172C431.147 487.954 430.852 487.717 430.567 487.465C430.445 487.354 430.332 487.236 430.203 487.124C429.911 486.871 430.511 487.526 430.198 487.108C430.012 486.864 429.825 486.627 429.646 486.384C429.385 486.028 429.686 486.475 429.679 486.474C429.656 486.37 429.575 486.25 429.527 486.158C429.482 486.05 429.405 485.7 429.455 485.977C429.424 485.826 429.416 485.678 429.409 485.523C429.424 485.772 429.396 485.606 429.42 485.448C429.54 484.719 429.542 484.65 429.923 483.876C430.201 483.318 430.314 483.135 430.777 482.528C431.133 482.066 431.515 481.632 431.91 481.215C432.287 480.818 431.74 481.32 432.118 481.015C432.268 480.892 432.41 480.768 432.565 480.66C434.975 478.911 432.273 475.23 429.897 476.962Z" fill="#553529"/>
<path d="M439.045 511.362C443.428 511.417 447.863 510.98 452.193 510.326C457.958 509.454 463.82 508.103 469.113 505.594C475.012 502.792 480.283 498.816 484.861 494.179C492.06 486.87 497.252 477.674 500.283 467.907C504.867 453.132 505.108 437.137 502.748 421.929C500.807 409.459 496.286 397.04 487.672 387.6C481.28 380.595 473.099 375.512 464.069 372.656C457.199 370.478 450.097 369.467 442.898 369.388C439.614 369.354 436.228 369.428 432.992 370.034C426.48 371.254 420.434 374.357 415.371 378.588C406.051 386.366 399.892 397.34 395.675 408.565C394.177 412.558 392.912 416.639 391.796 420.752C392.456 420.113 393.125 419.469 393.786 418.83C388.169 419.333 382.509 422.934 379.447 427.58C376.497 432.05 375.389 437.52 375.248 442.814C375.11 447.932 375.778 453.273 378.219 457.854C380.809 462.719 385.231 466.24 390.876 466.604C390.239 465.736 389.601 464.868 388.964 464C388.552 466.587 388.627 469.318 388.861 471.912C389.378 477.631 391.165 483.213 394.225 488.081C396.412 491.552 399.315 494.577 402.608 497.016C403.597 497.753 405.021 497.663 405.819 496.676C406.569 495.751 406.477 494.196 405.479 493.465C400.345 489.666 396.844 484.815 394.88 478.828C394.67 478.188 394.484 477.543 394.306 476.899C394.281 476.81 394.201 476.475 394.304 476.906C394.267 476.747 394.229 476.594 394.192 476.435C394.112 476.099 394.042 475.757 393.971 475.415C393.738 474.27 393.561 473.11 393.44 471.943C393.336 470.964 393.27 469.984 393.244 469.001C393.23 468.591 393.232 468.175 393.233 467.767C393.229 467.689 393.234 467.605 393.238 467.529C393.239 467.074 393.216 468.126 393.238 467.683C393.249 467.507 393.247 467.322 393.258 467.147C393.291 466.328 393.341 465.503 393.472 464.699C393.655 463.556 392.788 462.175 391.56 462.094C391.049 462.062 390.541 462.008 390.038 461.923C389.775 461.875 389.513 461.827 389.253 461.764C389.141 461.739 389.038 461.708 388.926 461.683C388.556 461.588 389.234 461.784 388.875 461.667C388.427 461.522 387.983 461.354 387.559 461.157C387.328 461.053 387.106 460.942 386.886 460.823C386.794 460.771 386.702 460.718 386.609 460.665C386.247 460.463 386.693 460.724 386.483 460.584C386.099 460.325 385.733 460.053 385.377 459.76C385.212 459.627 385.05 459.479 384.894 459.339C384.793 459.247 384.292 458.746 384.537 459.007C383.862 458.287 383.268 457.487 382.75 456.645C382.7 456.568 382.353 455.968 382.521 456.279C382.413 456.077 382.305 455.876 382.206 455.668C381.964 455.184 381.741 454.68 381.541 454.179C381.335 453.663 381.146 453.133 380.973 452.606C380.806 452.087 380.662 451.572 380.59 451.283C380.042 449.027 379.799 446.694 379.77 444.37C379.741 442.247 380 439.652 380.448 437.333C380.892 435.043 381.507 433.042 382.708 430.938C382.75 430.86 383.047 430.381 382.874 430.655C383.015 430.438 383.164 430.222 383.313 430.006C383.607 429.596 383.914 429.197 384.236 428.807C384.527 428.466 384.825 428.135 385.143 427.814C385.244 427.713 385.584 427.403 385.298 427.66C385.494 427.49 385.683 427.311 385.886 427.142C386.523 426.607 387.191 426.117 387.898 425.678C388.068 425.573 388.246 425.469 388.416 425.365C388.491 425.322 388.567 425.28 388.636 425.236C388.914 425.079 388.284 425.421 388.567 425.28C388.901 425.115 389.236 424.936 389.576 424.78C390.223 424.478 390.895 424.219 391.569 423.991C391.877 423.892 392.193 423.794 392.499 423.702C392.532 423.692 392.87 423.598 392.869 423.605C392.868 423.613 392.262 423.743 392.78 423.63C393.29 423.523 393.8 423.409 394.315 423.365C395.401 423.269 396.042 422.404 396.305 421.443C398.312 414.031 400.938 406.753 404.487 399.932C405.985 397.049 407.233 394.937 409.03 392.362C410.492 390.259 412.089 388.239 413.819 386.347C414.225 385.909 414.632 385.47 415.052 385.041C415.253 384.834 415.462 384.627 415.67 384.427C415.806 384.294 416.391 383.744 415.986 384.122C416.786 383.381 417.59 382.657 418.435 381.97C419.941 380.737 421.524 379.608 423.189 378.6C423.545 378.385 423.922 378.189 424.28 377.966C424.544 377.799 423.76 378.241 424.162 378.033C424.237 377.991 424.313 377.948 424.388 377.913C424.607 377.793 424.832 377.681 425.058 377.562C425.768 377.201 426.483 376.863 427.216 376.552C428.479 376.006 429.775 375.542 431.089 375.158C431.371 375.078 431.653 374.998 431.934 374.925C432.529 374.762 431.623 374.993 431.87 374.939C432.006 374.906 432.142 374.873 432.286 374.841C432.796 374.726 433.306 374.62 433.82 374.529C434.62 374.39 435.431 374.275 436.243 374.207C437.54 374.09 438.837 374.019 440.137 373.98C441.237 373.94 442.333 373.931 443.432 373.946C443.594 373.947 443.753 373.964 443.909 373.949C443.04 373.993 443.679 373.945 443.886 373.953C444.224 373.959 444.568 373.973 444.905 373.986C445.633 374.013 446.358 374.055 447.09 374.106C450.513 374.345 453.915 374.813 457.269 375.551C458.186 375.753 459.093 375.969 460.004 376.209C460.455 376.332 460.906 376.455 461.356 376.585C460.632 376.382 461.488 376.629 461.628 376.666C461.894 376.745 462.158 376.832 462.423 376.911C464.375 377.541 466.298 378.268 468.173 379.102C470.17 379.994 472.118 381.009 473.996 382.129C474.017 382.14 474.488 382.435 474.171 382.24C473.854 382.045 474.325 382.341 474.347 382.352C474.564 382.493 474.775 382.626 474.992 382.767C475.496 383.098 475.991 383.436 476.485 383.782C477.438 384.451 478.369 385.164 479.272 385.904C480.203 386.663 481.105 387.464 481.98 388.291C482.383 388.677 482.779 389.061 483.165 389.459C483.298 389.595 483.425 389.722 483.558 389.858C483.498 389.795 483.254 389.527 483.545 389.841C483.784 390.093 484.014 390.352 484.245 390.603C485.983 392.533 487.561 394.601 488.984 396.776C489.365 397.359 489.729 397.946 490.085 398.54C490.27 398.845 490.446 399.15 490.615 399.453C490.689 399.58 490.755 399.698 490.828 399.825C491.082 400.28 490.733 399.641 490.96 400.068C491.663 401.363 492.315 402.688 492.918 404.036C494.226 406.956 495.304 409.979 496.188 413.058C498.252 420.3 499.206 428.397 499.531 436.128C499.843 443.441 499.444 450.768 498.079 458.008C497.781 459.604 497.43 461.191 497.034 462.763C496.855 463.483 496.66 464.201 496.459 464.909C496.407 465.094 496.356 465.279 496.297 465.462C496.406 465.102 496.296 465.47 496.272 465.528C496.136 465.962 496.009 466.389 495.865 466.822C495.001 469.493 493.989 472.127 492.805 474.673C492.251 475.874 491.654 477.054 491.028 478.222C490.739 478.755 490.441 479.287 490.138 479.811C489.981 480.08 489.823 480.356 489.659 480.623C489.596 480.729 489.526 480.834 489.464 480.94C489.185 481.398 489.646 480.652 489.383 481.066C488.116 483.045 486.789 484.968 485.321 486.807C483.996 488.461 482.581 490.054 481.081 491.55C480.908 491.724 480.726 491.904 480.545 492.077C480.455 492.163 479.975 492.629 480.228 492.39C480.481 492.144 479.995 492.601 479.912 492.688C479.704 492.888 479.49 493.078 479.276 493.269C478.597 493.881 477.896 494.483 477.182 495.067C474.84 496.98 472.351 498.694 469.725 500.194C469.547 500.298 469.077 500.65 469.749 500.183C469.629 500.265 469.481 500.327 469.354 500.4C469.102 500.538 468.851 500.669 468.599 500.8C468.148 501.031 467.689 501.261 467.225 501.475C465.456 502.306 463.627 502.981 461.766 503.566C455.403 505.572 448.671 506.466 442.028 506.78C440.857 506.832 439.678 506.882 438.51 506.865C437.271 506.852 436.381 508.288 436.503 509.4C436.664 510.712 437.808 511.341 439.045 511.362Z" fill="#553529"/>
<path d="M384.289 435.449C383.071 437.212 382.268 439.231 381.743 441.299C380.738 445.244 381.444 449.381 383.774 452.728C384.455 453.711 386.025 453.974 386.965 453.217C387.949 452.428 388.181 451.069 387.455 450.026C387.304 449.802 387.153 449.579 387.011 449.349C386.949 449.255 386.895 449.154 386.84 449.061C386.95 449.247 386.938 449.222 386.813 448.987C386.641 448.599 386.46 448.224 386.32 447.825C386.25 447.63 386.195 447.436 386.133 447.242C385.972 446.732 386.166 447.525 386.085 447.05C386.009 446.638 385.933 446.233 385.896 445.819C385.857 445.42 385.849 445.018 385.842 444.617C385.851 445.211 385.85 444.61 385.858 444.511C385.869 444.336 385.881 444.16 385.9 443.986C385.979 443.266 386.113 442.547 386.298 441.844C386.442 441.303 386.3 441.829 386.3 441.829C386.292 441.827 386.419 441.454 386.443 441.396C386.542 441.103 386.648 440.811 386.769 440.529C386.956 440.065 387.165 439.604 387.396 439.154C387.56 438.832 387.769 438.525 387.919 438.202C387.551 438.993 387.697 438.545 387.846 438.329C388.52 437.346 388.551 435.887 387.506 435.118C386.573 434.42 385.012 434.397 384.289 435.449Z" fill="#553529"/>
<path d="M467.349 423.474C462.245 421.235 417.098 406.918 404.452 421.967C399.523 427.837 394.908 444.171 394.033 421.086C393.903 417.707 388.179 424.842 388.871 419.424C391.807 396.654 407.318 359.001 446.386 359.351C500.735 359.825 496.739 387.094 524.152 400.449C547.711 411.911 502.761 439.026 467.349 423.474Z" fill="white"/>
<path d="M468.284 421.391C464.992 419.954 461.415 419.012 457.964 418.052C452.165 416.431 446.267 415.103 440.316 414.168C433.801 413.146 427.113 412.552 420.522 413.082C415.015 413.524 408.997 414.836 404.694 418.529C402.664 420.267 401.259 422.394 399.908 424.675C399.294 425.714 398.709 426.764 398.102 427.811C397.986 428.017 397.862 428.221 397.745 428.427C397.652 428.582 397.151 429.391 397.559 428.737C397.275 429.187 396.991 429.629 396.679 430.059C396.463 430.357 396.207 430.626 395.977 430.914C395.655 431.311 396.453 430.525 395.98 430.899C395.535 431.239 396.069 430.867 396.086 430.861C395.879 430.953 395.727 430.891 396.437 430.784C396.193 430.816 396.177 430.721 396.834 430.806C396.592 430.777 396.613 430.688 397.215 430.934C397.012 430.849 396.947 430.724 397.515 431.134C397.078 430.821 397.875 431.552 397.606 431.248C397.56 431.195 397.53 431.137 397.492 431.085C397.317 430.819 397.723 431.69 397.556 431.171C397.482 430.952 397.384 430.737 397.311 430.51C397.269 430.38 397.236 430.244 397.194 430.114C397.384 430.737 397.217 430.218 397.191 430.083C397.032 429.311 396.904 428.537 396.801 427.751C396.507 425.402 396.555 423.029 396.291 420.677C396.085 418.858 394.584 417.588 392.742 417.899C391.666 418.081 390.793 418.702 389.812 419.121C389.597 419.212 388.851 419.406 389.673 419.223C389.585 419.241 389.491 419.25 389.405 419.259C389.529 419.255 390.364 419.437 390.22 419.369C390.622 419.562 390.911 419.837 391.087 420.249C390.935 419.887 391.204 420.745 391.126 420.448C391.097 420.335 391.108 420.214 391.095 420.096C391.176 420.725 391.118 419.946 391.138 419.764C391.292 418.462 391.506 417.162 391.741 415.881C392.25 413.062 392.895 410.264 393.672 407.51C393.71 407.362 393.981 406.448 393.81 407.007C393.921 406.639 394.03 406.278 394.139 405.917C394.368 405.182 394.603 404.448 394.847 403.715C395.353 402.221 395.889 400.739 396.475 399.273C397.671 396.251 399.042 393.287 400.59 390.427C400.954 389.759 401.317 389.098 401.703 388.441C401.912 388.08 402.121 387.727 402.338 387.367C402.36 387.324 402.719 386.74 402.461 387.163C402.606 386.923 402.757 386.692 402.9 386.459C403.755 385.104 404.66 383.778 405.612 382.491C407.615 379.779 409.826 377.213 412.259 374.866C412.764 374.382 411.936 375.164 412.448 374.687C412.601 374.541 412.762 374.397 412.914 374.258C413.174 374.021 413.441 373.784 413.709 373.548C414.403 372.938 415.118 372.346 415.845 371.772C417.195 370.708 418.604 369.707 420.063 368.783C421.642 367.784 422.518 367.294 424.143 366.496C425.759 365.703 427.422 365.003 429.117 364.4C432.736 363.106 435.99 362.387 439.932 361.952C444.344 361.465 448.794 361.585 453.214 361.846C457.666 362.105 462.113 362.594 466.5 363.429C468.372 363.785 470.24 364.21 472.075 364.707C472.289 364.763 472.511 364.828 472.725 364.884C472.762 364.897 473.471 365.098 472.992 364.955C473.339 365.055 473.692 365.163 474.036 365.277C474.911 365.55 475.774 365.852 476.636 366.161C479.451 367.194 482.186 368.453 484.783 369.953C485.087 370.13 485.39 370.315 485.702 370.494C486.218 370.796 485.295 370.231 485.793 370.554C485.941 370.646 486.088 370.738 486.236 370.83C486.812 371.196 487.384 371.584 487.941 371.97C489.026 372.729 490.082 373.531 491.101 374.373C493.045 375.965 494.869 377.685 496.629 379.473C496.829 379.673 497.029 379.881 497.22 380.087C497.327 380.196 497.432 380.312 497.539 380.421C497.918 380.811 497.195 380.052 497.566 380.448C497.99 380.898 498.414 381.349 498.83 381.798C499.662 382.703 500.494 383.609 501.317 384.521C503.077 386.463 504.838 388.389 506.669 390.265C510.431 394.123 514.537 397.541 519.157 400.322C520.426 401.087 521.721 401.786 523.053 402.445C523.654 402.745 524.239 403.05 524.812 403.385C524.282 403.072 525.14 403.605 525.279 403.703C525.571 403.909 525.862 404.124 526.142 404.359C526.326 404.511 526.51 404.67 526.693 404.836C526.794 404.929 526.893 405.037 526.994 405.129C527.352 405.461 526.671 404.725 526.96 405.101C527.276 405.504 527.585 405.898 527.868 406.319C527.975 406.474 528.074 406.828 527.82 406.226C527.865 406.334 527.934 406.437 527.972 406.543C528.062 406.757 528.154 406.963 528.228 407.183C528.266 407.289 528.287 407.4 528.332 407.507C528.483 407.884 528.273 407.043 528.285 407.315C528.295 407.547 528.374 407.791 528.399 408.026C528.417 408.159 528.508 408.574 528.436 408.694C528.539 408.525 528.48 408.1 528.431 408.524C528.421 408.638 528.412 408.744 528.403 408.858C528.381 409.048 528.352 409.236 528.316 409.423C528.291 409.534 528.266 409.646 528.242 409.758C528.135 410.35 528.409 409.368 528.253 409.737C528.081 410.149 527.947 410.576 527.753 410.985C527.641 411.214 527.514 411.441 527.394 411.67C527.319 411.805 527.053 412.187 527.432 411.622C527.331 411.776 527.239 411.923 527.131 412.076C526.465 413.053 525.669 413.924 524.832 414.759C525.243 414.344 524.698 414.885 524.546 415.016C524.296 415.239 524.048 415.456 523.792 415.663C523.255 416.104 522.704 416.528 522.141 416.935C521.545 417.36 520.934 417.775 520.304 418.164C520.006 418.349 519.709 418.527 519.404 418.711C519.268 418.791 519.124 418.876 518.981 418.955C518.871 419.022 518.754 419.082 518.643 419.149C518.87 419.03 518.862 419.029 518.635 419.156C517.166 419.94 515.677 420.659 514.138 421.301C510.771 422.711 507.232 423.779 503.966 424.48C495.931 426.191 488.013 426.426 480.008 424.975C475.866 424.201 472.177 423.089 468.284 421.391C465.584 420.214 463.719 424.389 466.412 425.564C481.895 432.314 500.51 432.001 516.022 425.442C521.393 423.176 527.18 419.95 530.596 415.057C532.036 412.998 532.997 410.703 532.963 408.155C532.931 405.7 531.727 403.505 530.051 401.777C528.023 399.678 525.349 398.575 522.834 397.188C522.223 396.855 521.622 396.501 521.022 396.147C520.937 396.096 520.423 395.778 520.916 396.085C520.768 395.993 520.613 395.9 520.466 395.8C520.123 395.578 519.779 395.356 519.443 395.135C518.319 394.377 517.225 393.578 516.158 392.744C514.096 391.118 512.157 389.342 510.308 387.486C509.868 387.041 509.427 386.596 508.996 386.145C508.889 386.036 508.784 385.92 508.67 385.81C509.101 386.261 508.729 385.873 508.643 385.783C508.431 385.558 508.219 385.333 508.007 385.108C507.134 384.165 506.263 383.215 505.399 382.266C501.92 378.427 498.437 374.565 494.457 371.228C489.868 367.388 484.652 364.324 479.062 362.196C471.315 359.259 463.04 357.906 454.802 357.367C445.886 356.778 437.057 356.935 428.496 359.759C414.644 364.331 404.018 374.951 396.999 387.465C393.734 393.282 391.264 399.498 389.396 405.899C388.569 408.731 387.874 411.606 387.33 414.504C387.084 415.806 386.868 417.114 386.69 418.427C386.462 420.064 386.29 422.041 387.765 423.176C389.074 424.185 390.686 423.77 392.029 423.098C392.43 422.897 392.826 422.673 393.247 422.491C393.486 422.389 394.168 422.262 393.353 422.407C393.599 422.36 393.753 422.461 393.072 422.379C392.905 422.361 392.264 422.071 392.003 421.715C391.894 421.567 391.67 421.271 391.73 421.08C391.7 421.175 391.766 421.701 391.765 421.709C391.796 422.407 391.827 423.113 391.866 423.812C391.934 424.978 392.017 426.147 392.139 427.306C392.314 428.981 392.544 430.696 393.084 432.296C393.905 434.733 396.332 436.292 398.662 434.561C400.383 433.284 401.437 431.081 402.469 429.274C403.098 428.184 403.729 427.087 404.366 425.998C404.637 425.539 404.082 426.44 404.367 425.991C404.448 425.864 404.521 425.737 404.601 425.618C404.755 425.372 404.914 425.135 405.075 424.89C405.382 424.444 405.697 423.999 406.038 423.581C406.218 423.362 406.406 423.145 406.6 422.935C406.719 422.807 407.423 422.137 406.922 422.592C407.413 422.151 407.917 421.728 408.453 421.348C408.92 421.018 409.404 420.723 409.895 420.436C409.336 420.766 410.212 420.277 410.363 420.2C410.704 420.036 411.044 419.873 411.391 419.725C412.001 419.465 412.629 419.237 413.255 419.025C413.579 418.921 413.903 418.816 414.233 418.721C414.346 418.692 414.459 418.655 414.564 418.625C414.676 418.596 415.429 418.411 414.837 418.551C416.315 418.208 417.813 417.936 419.319 417.759C420.857 417.579 422.405 417.477 423.952 417.437C424.757 417.414 425.551 417.412 426.359 417.421C426.428 417.424 427.104 417.435 426.559 417.421C426.766 417.429 426.966 417.429 427.173 417.438C427.649 417.449 428.131 417.469 428.605 417.495C435.258 417.814 441.865 418.889 448.363 420.324C451.24 420.958 454.096 421.673 456.935 422.455C457.541 422.625 458.146 422.795 458.751 422.972C459.408 423.158 458.383 422.862 459.024 423.052C459.34 423.147 459.665 423.243 459.981 423.338C460.976 423.637 461.968 423.951 462.957 424.28C464.115 424.665 465.275 425.043 466.393 425.538C469.113 426.741 470.978 422.566 468.284 421.391Z" fill="#553529"/>
<path d="M446.121 513.147C449.97 514.823 453.746 516.673 457.414 518.73C458.45 519.312 459.483 519.91 460.499 520.52C460.746 520.666 460.992 520.819 461.238 520.973C460.809 520.706 461.632 521.218 461.731 521.279C462.265 521.615 462.798 521.951 463.324 522.294C465.58 523.757 467.785 525.304 469.932 526.928C480.219 534.707 488.757 543.943 495.942 554.667C500.994 562.213 505.18 570.29 508.647 578.679C509.772 581.394 514.026 579.727 512.896 576.996C506.943 562.609 498.849 549.019 488.285 537.523C480.317 528.843 471.141 521.458 460.964 515.522C456.771 513.077 452.427 510.908 447.978 508.971C445.291 507.804 443.427 511.971 446.121 513.147Z" fill="#553529"/>
<path d="M453.752 567.143C458.644 566.638 463.704 567.251 468.378 568.777C470.498 569.472 472.57 570.329 474.515 571.413C475.338 571.87 475.67 572.067 476.507 572.689C476.846 572.941 477.176 573.2 477.496 573.472C477.646 573.603 477.795 573.734 477.937 573.863C478.018 573.937 478.504 574.436 478.12 574.03C478.96 574.929 480.235 575.31 481.311 574.519C482.214 573.856 482.648 572.228 481.8 571.328C478.721 568.044 474.468 565.989 470.234 564.609C464.753 562.821 458.961 562.01 453.207 562.607C450.295 562.908 450.816 567.448 453.752 567.143Z" fill="#553529"/>
<path d="M456.078 557.548C457.12 558.339 458.123 559.186 459.069 560.102C459.27 560.294 459.463 560.493 459.656 560.692C460.023 561.065 459.305 560.315 459.657 560.685C459.75 560.784 459.849 560.891 459.941 560.99C460.272 561.349 460.592 561.722 460.912 562.095C462.166 563.566 463.35 565.088 464.746 566.434C465.612 567.268 467.267 567.029 467.957 566.094C468.745 565.029 468.545 563.766 467.617 562.884C467.45 562.719 467.291 562.549 467.123 562.392C467.218 562.476 467.5 562.796 467.249 562.519C467.17 562.438 467.091 562.348 467.018 562.268C466.735 561.955 466.46 561.635 466.187 561.308C465.601 560.61 465.025 559.89 464.423 559.197C462.775 557.28 460.963 555.531 458.956 553.998C458.004 553.274 456.495 553.32 455.746 554.338C455.027 555.306 455.064 556.776 456.078 557.548Z" fill="#553529"/>
<path d="M423.817 556.115C418.618 553.947 413.26 552.109 408.425 549.172C403.189 545.989 399.361 540.51 393.172 538.814C391.212 538.282 389.034 538.318 387.207 539.278C385.331 540.262 383.989 541.928 383.16 543.866C381.242 548.34 381.049 554.073 384.379 557.928C387.965 562.075 393.46 563.673 398.565 565.048C399.756 565.37 400.997 564.258 401.169 563.136C401.373 561.804 400.456 560.854 399.257 560.532C398.827 560.42 398.399 560.3 397.97 560.181C397.756 560.125 397.549 560.062 397.336 559.999C397.24 559.969 396.901 559.87 397.365 560.011C397.239 559.976 397.115 559.934 396.989 559.899C395.973 559.589 394.97 559.251 393.981 558.868C392.999 558.486 392.033 558.053 391.101 557.548C390.888 557.431 390.675 557.313 390.463 557.189C390.824 557.398 390.281 557.068 390.176 556.998C389.723 556.69 389.287 556.369 388.871 556.012C388.694 555.862 388.518 555.704 388.343 555.538C388.249 555.447 388.148 555.354 388.055 555.255C388.121 555.327 388.316 555.565 388.05 555.239C387.741 554.845 387.437 554.467 387.163 554.04C386.884 553.597 387.16 554.109 387.013 553.763C386.905 553.515 386.787 553.274 386.695 553.021C386.646 552.89 386.48 552.364 386.526 552.517C386.593 552.782 386.49 552.35 386.483 552.295C386.448 552.12 386.422 551.939 386.395 551.765C386.358 551.505 386.343 551.249 386.328 550.992C386.323 550.876 386.318 550.76 386.319 550.652C386.325 551.015 386.317 550.613 386.325 550.56C386.365 549.996 386.422 549.427 386.508 548.863C386.579 548.404 386.656 547.953 386.764 547.5C386.817 547.254 386.885 547.01 386.946 546.765C386.817 547.254 386.976 546.669 387.042 546.487C387.177 546.107 387.327 545.737 387.498 545.37C387.59 545.176 387.704 544.986 387.803 544.793C387.945 544.514 387.573 545.081 387.912 544.633C388.136 544.328 388.371 544.048 388.629 543.772C388.796 543.589 388.466 543.932 388.467 543.924C388.545 543.867 388.61 543.8 388.688 543.742C388.835 543.634 389.006 543.529 389.147 543.412C389.375 543.231 388.729 543.571 389.255 543.359C389.411 543.298 389.565 543.245 389.722 543.177C390.177 542.977 389.404 543.19 389.779 543.155C389.976 543.131 390.175 543.084 390.378 543.069C390.613 543.044 391.071 543.075 390.553 543.034C390.751 543.049 390.943 543.056 391.138 543.086C391.343 543.109 391.546 543.14 391.747 543.187C391.866 543.213 391.984 543.246 392.105 543.265C392.54 543.339 391.886 543.185 392.165 543.274C394.658 544.095 396.51 545.435 398.524 547.122C399.787 548.179 400.931 549.363 402.205 550.399C403.301 551.291 404.472 552.094 405.676 552.834C410.798 556.007 416.416 558.009 421.949 560.313C424.66 561.422 426.531 557.256 423.817 556.115Z" fill="#553529"/>
<path d="M403.035 575.141C399.767 575.302 396.537 576.017 393.469 577.133C390.801 578.103 388.116 579.533 387.109 582.383C386.338 584.553 386.526 586.939 387.412 589.055C388.179 590.883 389.332 592.762 390.797 594.112C393.118 596.255 396.438 596.464 399.409 595.979C400.626 595.78 401.561 594.707 401.415 593.444C401.273 592.259 400.104 591.24 398.88 591.437C398.217 591.544 397.551 591.611 396.883 591.647C396.494 591.673 396.879 591.677 396.514 591.645C396.217 591.622 395.929 591.593 395.636 591.541C395.501 591.52 394.915 591.369 395.143 591.442C395.407 591.529 394.802 591.305 394.73 591.271C394.564 591.199 394.415 591.115 394.257 591.037C394.693 591.258 394.217 591 394.059 590.875C393.907 590.76 393.765 590.63 393.623 590.5C393.237 590.156 393.74 590.695 393.524 590.393C393.302 590.081 393.053 589.797 392.84 589.479C392.627 589.161 392.431 588.831 392.243 588.494C392.158 588.35 392.079 588.207 392.001 588.064C392.287 588.562 391.977 588.022 391.918 587.905C391.765 587.596 391.629 587.275 391.51 586.948C391.455 586.801 391.418 586.642 391.364 586.495C391.228 586.119 391.368 586.518 391.38 586.59C391.358 586.478 391.328 586.374 391.307 586.262C391.229 585.865 391.197 585.468 391.173 585.071C391.148 584.636 391.113 585.416 391.187 584.981C391.223 584.747 391.259 584.514 391.295 584.281C391.314 584.153 391.44 583.887 391.262 584.345C391.298 584.258 391.319 584.169 391.355 584.09C391.44 583.887 391.531 583.693 391.63 583.5C391.453 583.85 391.63 583.5 391.745 583.356C391.804 583.272 392.309 582.741 392.03 582.999C392.89 582.214 393.734 581.935 394.904 581.49C397.723 580.443 400.549 579.844 403.585 579.693C404.82 579.628 405.721 578.326 405.591 577.158C405.423 575.846 404.277 575.077 403.035 575.141Z" fill="#553529"/>
<path d="M404.564 589.533C402.663 589.827 400.782 590.186 399.099 591.161C397.577 592.044 396.4 593.443 395.656 595.024C394.092 598.344 394.477 602.262 396.536 605.267C398.551 608.203 401.671 609.459 405.116 609.656C408.072 609.824 411.055 609.557 413.94 608.882C415.274 608.571 416.63 608.224 417.868 607.636C418.84 607.176 420.103 606.476 420.442 605.365C420.808 604.188 420.513 602.895 419.287 602.345C418.264 601.887 416.635 602.308 416.268 603.5C416.149 603.874 416.538 603.141 416.424 603.285C416.386 603.333 416.906 602.95 416.568 603.145C416.459 603.205 416.329 603.301 416.232 603.379C416.04 603.526 416.621 603.207 416.109 603.429C415.325 603.771 414.521 604.041 413.691 604.276C413.642 604.291 413.202 604.401 413.442 604.345C413.657 604.294 413.289 604.384 413.282 604.382C413.011 604.441 412.739 604.507 412.469 604.558C411.897 604.671 411.326 604.776 410.744 604.856C409.538 605.033 408.327 605.141 407.113 605.17C405.303 605.216 402.868 605.12 401.365 603.873C399.519 602.342 398.931 600.149 399.414 598.004C399.628 597.058 400.246 595.943 401.082 595.316C402.221 594.467 403.719 594.296 405.084 594.081C407.997 593.626 407.485 589.079 404.564 589.533Z" fill="#553529"/>
<path d="M407.61 604.038C413.493 602.952 419.189 605.651 424.923 606.538C430.44 607.391 435.937 606.308 440.531 603.075C443.026 601.324 445.018 599.033 446.539 596.4C447.157 595.331 446.429 593.849 445.384 593.38C444.159 592.83 442.984 593.459 442.364 594.535C440.296 598.124 436.398 600.939 432.379 601.879C427.105 603.112 421.888 601.157 416.785 600.02C413.612 599.311 410.299 598.91 407.072 599.51C405.859 599.732 404.916 600.759 405.065 602.045C405.212 603.2 406.39 604.259 407.61 604.038Z" fill="#553529"/>
<path d="M449.401 589.041C451.155 584.68 451.738 579.877 451.299 575.203C451.08 572.912 450.592 570.618 449.822 568.451C449.292 566.937 448.616 565.215 447.635 563.924C447.045 563.148 446.102 562.619 445.289 562.14C443.598 561.156 441.744 560.44 439.89 559.817C436.008 558.506 432.002 557.552 427.987 556.752C425.774 556.313 423.591 555.878 421.323 555.846C419.262 555.823 417.2 556.008 415.156 556.272C411.376 556.756 407.515 557.42 403.877 558.587C399.728 559.924 395.654 561.872 392.013 564.265C390.325 565.377 388.565 566.656 387.599 568.48C386.71 570.162 386.5 572.233 386.746 574.097C387.292 578.225 390.44 582.213 395.002 581.349C396.216 581.119 397.158 580.1 397.009 578.813C396.871 577.652 395.695 576.578 394.474 576.807C394.268 576.845 394.057 576.859 393.859 576.897C393.273 577 394.129 576.947 393.795 576.911C393.643 576.895 393.488 576.856 393.335 576.848C392.839 576.818 393.656 577.067 393.239 576.818C393.155 576.766 393.002 576.705 392.922 576.677C392.462 576.514 393.179 576.963 392.831 576.617C392.771 576.554 392.641 576.449 392.556 576.397C392.375 576.223 392.38 576.239 392.58 576.447C392.501 576.358 392.422 576.269 392.344 576.172C392.16 575.921 391.981 575.677 391.83 575.408C392.079 575.846 391.668 575.005 391.625 574.883C391.57 574.744 391.334 573.868 391.432 574.337C391.353 573.948 391.281 573.559 391.249 573.169C391.235 573.005 391.254 572.076 391.212 572.601C391.238 572.282 391.264 571.962 391.313 571.646C391.341 571.458 391.392 571.28 391.428 571.093C391.32 571.601 391.388 571.203 391.448 571.066C391.507 570.928 391.559 570.79 391.619 570.653C391.666 570.544 391.72 570.445 391.775 570.338C391.624 570.569 391.595 570.611 391.693 570.472C391.88 570.207 392.077 569.976 392.305 569.749C391.967 570.09 392.693 569.423 392.8 569.331C393.479 568.773 394.202 568.275 394.938 567.795C398.111 565.747 401.684 564.099 405.335 562.894C405.708 562.774 406.088 562.655 406.468 562.544C406.612 562.505 406.757 562.465 406.894 562.424C407.579 562.229 406.439 562.532 407.071 562.375C407.855 562.187 408.637 562.014 409.417 561.848C411.271 561.462 413.131 561.139 415.004 560.887C416.885 560.628 418.78 560.425 420.682 560.378C420.884 560.37 421.084 560.37 421.277 560.369C421.377 560.369 421.884 560.377 421.47 560.368C421.823 560.376 422.181 560.4 422.531 560.43C423.573 560.521 424.594 560.747 425.62 560.935C427.859 561.355 430.091 561.82 432.306 562.353C433.13 562.556 433.96 562.768 434.782 562.986C435.151 563.089 435.528 563.193 435.898 563.296C436.599 563.496 435.471 563.161 436.148 563.373C436.346 563.434 436.545 563.496 436.744 563.557C438.751 564.18 440.761 564.889 442.631 565.861C442.888 565.993 443.143 566.14 443.391 566.278C443.866 566.544 443.141 566.101 443.258 566.189C443.356 566.258 443.462 566.32 443.566 566.39C443.804 566.55 444.012 566.751 444.241 566.917C444.567 567.152 443.954 566.573 443.969 566.629C444.066 567.098 444.51 567.575 444.736 568.056C445.684 570.066 446.27 572.12 446.585 574.287C447.222 578.63 446.83 583.192 445.227 587.168C444.766 588.315 445.221 589.671 446.382 590.188C447.478 590.68 448.94 590.188 449.401 589.041Z" fill="#553529"/>
<path d="M448.502 567.919C449.356 567.272 450.292 566.699 451.234 566.582C451.163 566.594 451.966 566.532 451.665 566.532C451.38 566.535 452.128 566.58 452.075 566.572C452.105 566.577 452.826 566.749 452.385 566.612C452.672 566.702 452.953 566.83 453.216 566.97C453.821 567.294 452.93 566.726 453.474 567.149C453.626 567.264 453.769 567.386 453.912 567.508C453.98 567.565 454.305 567.908 454.068 567.648C454.219 567.817 454.36 568.001 454.494 568.183C454.927 568.773 455.174 569.327 455.464 570.25C455.507 570.372 455.597 570.887 455.474 570.283C455.504 570.441 455.548 570.602 455.578 570.761C455.642 571.094 455.698 571.434 455.745 571.78C455.846 572.528 455.901 573.276 455.932 574.028C455.943 574.361 455.952 574.701 455.955 575.033C455.954 575.241 455.953 575.448 455.952 575.656C455.964 575.127 455.941 575.832 455.939 575.893C455.904 576.774 455.838 577.657 455.749 578.537C455.556 580.403 455.249 582.251 454.845 584.084C454.417 586.022 454.07 587.278 453.476 588.998C452.892 590.696 452.196 592.369 451.366 593.967C451.202 594.281 451.032 594.586 450.862 594.891C450.831 594.94 450.487 595.527 450.754 595.09C450.651 595.26 450.541 595.428 450.43 595.595C450.009 596.232 449.561 596.841 449.058 597.411C448.937 597.547 448.823 597.683 448.696 597.81C448.613 597.898 448.048 598.42 448.502 598.019C448.253 598.236 448.003 598.459 447.742 598.658C447.003 599.207 446.572 599.403 445.615 599.765C444.595 600.14 443.59 600.363 442.438 600.387C442.122 600.393 441.52 600.347 440.997 600.189C441.394 600.312 440.668 600.023 440.675 600.032C440.425 599.901 440.396 599.889 440.567 599.977C440.442 599.889 440.32 599.785 440.205 599.675C439.275 598.862 437.746 599.082 436.995 600.015C436.188 601.008 436.404 602.413 437.334 603.226C440.973 606.426 447.516 604.856 450.899 601.985C453.83 599.499 455.717 595.936 457.091 592.402C458.675 588.346 459.723 584.023 460.217 579.7C460.635 576.02 460.764 572.11 459.696 568.526C458.958 566.048 457.151 563.768 454.783 562.68C451.701 561.276 448.37 562.298 445.804 564.262C443.454 566.021 446.156 569.702 448.502 567.919Z" fill="#553529"/>
<path d="M513.585 590.137C513.841 590.831 514.073 591.529 514.272 592.237C514.306 592.366 514.341 592.494 514.375 592.623C514.555 593.259 514.281 592.177 514.421 592.823C514.508 593.213 514.595 593.597 514.666 593.993C514.927 595.404 515.077 596.837 515.096 598.273C515.102 598.435 515.1 598.597 515.098 598.758C515.101 599.144 515.13 598.201 515.097 598.82C515.078 599.141 515.069 599.455 515.043 599.775C514.989 600.529 514.888 601.284 514.759 602.027C514.649 602.642 514.496 603.242 514.349 603.844C514.196 604.444 514.52 603.385 514.315 603.97C514.274 604.087 514.24 604.205 514.199 604.322C514.084 604.674 513.954 605.016 513.817 605.357C513.568 605.974 513.282 606.585 512.962 607.167C512.887 607.302 512.413 608.085 512.718 607.6C512.524 607.909 512.324 608.21 512.11 608.501C511.739 609.014 511.332 609.506 510.897 609.979C510.788 610.093 510.082 610.778 510.475 610.423C510.198 610.673 509.922 610.915 509.632 611.148C509.14 611.543 508.621 611.91 508.092 612.245C507.93 612.351 507.762 612.441 507.6 612.54C507.973 612.319 507.676 612.497 507.6 612.54C507.216 612.735 506.832 612.93 506.436 613.101C505.775 613.392 505.091 613.634 504.403 613.845C504.234 613.896 504.064 613.947 503.888 613.989C503.494 614.098 504.406 613.876 503.728 614.026C503.29 614.121 502.852 614.215 502.417 614.287C499.027 614.846 496.078 614.579 492.663 613.994C490.005 613.54 487.362 612.989 484.729 612.423C477.75 610.914 470.805 609.225 463.902 607.42C461.953 606.913 460.007 606.391 458.071 605.856C457.132 605.596 456.193 605.337 455.263 605.071C454.827 604.95 454.4 604.823 453.964 604.702C453.823 604.665 453.684 604.621 453.543 604.584C453.461 604.563 452.607 604.309 453.093 604.453C450.328 603.644 447.56 602.804 444.865 601.789C443.714 601.359 442.373 601.762 441.845 602.944C441.365 604.019 441.834 605.531 443 605.964C448.866 608.158 454.984 609.758 461.04 611.365C468.242 613.278 475.481 615.058 482.755 616.658C489.016 618.034 495.615 619.762 502.062 618.963C508.573 618.159 514.287 614.605 517.331 608.716C520.541 602.505 520.237 594.885 517.864 588.458C516.816 585.694 512.561 587.368 513.585 590.137Z" fill="#553529"/>
<path d="M363.028 536.794C363.797 536.951 364.564 537.122 365.329 537.309C365.679 537.393 366.034 537.486 366.382 537.578C366.559 537.629 366.73 537.67 366.907 537.72C367.025 537.754 367.144 537.787 367.254 537.82C367.468 537.883 367.49 537.887 367.306 537.835C366.974 537.738 367.556 537.912 367.622 537.93C367.829 537.993 368.027 538.054 368.225 538.123C368.57 538.23 368.915 538.344 369.258 538.466C370.005 538.719 370.741 538.994 371.475 539.284C372.587 539.716 374.027 539.32 374.495 538.129C374.934 537.025 374.532 535.577 373.34 535.109C370.222 533.891 366.993 532.942 363.713 532.277C362.539 532.043 361.237 532.999 361.108 534.189C360.973 535.47 361.771 536.548 363.028 536.794Z" fill="#553529"/>
<path d="M370.702 522.112C371.849 524.129 373.27 525.965 374.597 527.863C374.92 528.321 375.233 528.793 375.538 529.263C375.686 529.502 375.836 529.732 375.983 529.978C376.057 530.098 376.124 530.216 376.197 530.343C376.447 530.774 376.18 530.355 376.197 530.343C376.188 530.349 376.899 531.791 376.95 531.914C377.175 532.457 377.367 533.01 377.52 533.573C377.844 534.724 379.44 535.323 380.481 534.859C381.705 534.315 382.11 533.129 381.767 531.898C380.431 527.147 376.757 523.626 374.381 519.425C373.786 518.378 372.076 518.224 371.189 518.935C370.137 519.768 370.072 520.998 370.702 522.112Z" fill="#553529"/>
<path d="M359.879 548.486C360.76 548.467 361.639 548.463 362.516 548.466C362.717 548.466 362.923 548.475 363.124 548.475C362.585 548.469 363.269 548.481 363.323 548.482C363.76 548.495 364.205 548.509 364.642 548.522C366.365 548.586 368.087 548.712 369.811 548.876C370.996 548.988 372.282 548.238 372.415 546.964C372.541 545.789 371.779 544.478 370.503 544.359C366.798 544.007 363.066 543.874 359.341 543.95C358.143 543.975 357.155 545.348 357.335 546.485C357.557 547.798 358.597 548.505 359.879 548.486Z" fill="#553529"/>
</g>
<g clip-path="url(#clip1_480_7663)">
<path d="M343.253 730.519C363.453 731.024 383.366 728.456 402.75 722.86C416.356 718.931 410.556 697.753 396.884 701.704C379.264 706.795 361.578 709.056 343.231 708.595C329.073 708.222 329.073 730.168 343.253 730.519Z" fill="#553529"/>
<path d="M370.355 699.948C368.304 718.251 364.996 758.786 339.085 757.689C326.868 757.184 323.803 776.98 336.152 779.24C353.617 782.422 371.105 777.55 387.776 772.524C401.316 768.442 395.538 747.242 381.91 751.368C372.229 754.287 362.195 757.447 352.051 758.303C347.134 758.72 344.289 758.501 341.996 758.084C341.025 765.26 340.033 772.459 339.063 779.635C380.631 781.391 388.901 730.936 392.385 699.948C393.973 685.946 371.898 686.056 370.355 699.948Z" fill="#553529"/>
<path d="M424.294 707.783C442.884 702.296 461.607 697.227 480.131 691.499C475.478 687.965 470.825 684.454 466.172 680.921C465.885 695.647 465.091 710.482 463.261 725.12C460.791 744.806 452.279 774.741 429.852 779.986C416.047 783.212 421.891 804.391 435.717 801.143C462.709 794.844 479.138 763.439 483.439 738.398C486.68 719.48 487.871 700.102 488.224 680.943C488.356 673.986 481.057 668.258 474.265 670.364C455.741 676.092 437.019 681.162 418.429 686.649C404.844 690.621 410.644 711.799 424.294 707.783Z" fill="#553529"/>
<path d="M427.36 699.026C426.169 712.128 423.368 732.363 408.88 737.52C395.627 742.26 401.338 763.461 414.746 758.676C440.172 749.612 447.185 723.343 449.412 699.026C450.691 684.959 428.639 685.046 427.36 699.026Z" fill="#553529"/>
<path d="M581.24 699.026C580.05 712.128 577.249 732.363 562.761 737.52C549.507 742.26 555.219 763.461 568.626 758.676C594.053 749.612 601.065 723.343 603.293 699.026C604.572 684.959 582.519 685.046 581.24 699.026Z" fill="#553529"/>
<path d="M512.173 740.636C527.984 741.053 542.869 738.925 558.041 734.469C571.626 730.475 565.848 709.297 552.176 713.313C538.746 717.264 526.154 719.085 512.173 718.712C497.971 718.295 497.993 740.241 512.173 740.636Z" fill="#553529"/>
<path d="M525.625 711.558C523.618 729.378 520.266 770.352 494.906 769.277C480.351 768.64 481.278 789.467 494.906 791.223C503.837 792.386 513.628 790.806 522.449 789.643C534.071 788.107 546.221 786.066 556.432 779.987C568.604 772.744 557.512 753.761 545.295 761.047C532.262 768.816 509.923 771.252 494.906 769.299C494.906 776.607 494.906 783.937 494.906 791.245C536.033 793.023 544.237 742.107 547.677 711.58C549.243 697.534 527.19 697.644 525.625 711.558Z" fill="#553529"/>
<path d="M579.101 703.152C599.036 697.271 619.06 691.74 638.907 685.595C634.254 682.062 629.601 678.55 624.948 675.017C623.559 709.231 621.111 744.126 604.197 774.741C585.32 808.933 552.286 816.9 515.436 817.054C501.257 817.119 501.213 839.066 515.436 839C557.799 838.824 597.36 828.334 620.604 790.345C641.884 755.582 645.39 714.74 647 675.017C647.287 668.016 639.701 662.376 633.041 664.439C613.194 670.584 593.171 676.114 573.235 681.996C559.673 685.99 565.451 707.168 579.101 703.152Z" fill="#553529"/>
<path d="M346.252 836.959H341.599C340.893 836.959 340.342 836.63 340.011 835.927L335.446 827.368L332.8 835.927C332.579 836.63 332.138 836.959 331.433 836.959H327.816C327.11 836.959 326.868 836.63 327.066 835.927L333.109 816.307C333.329 815.605 333.77 815.298 334.476 815.298H338.07C338.776 815.298 339.041 815.605 338.82 816.307L336.174 824.866L346.031 816.307C346.781 815.605 347.531 815.298 348.236 815.298H352.889C353.595 815.298 353.551 815.605 352.801 816.307L341.51 826.117L346.759 835.905C347.112 836.608 346.957 836.959 346.252 836.959Z" fill="#553529"/>
<path d="M356.969 817.69C357.168 817.032 357.631 816.681 358.336 816.681H361.953C362.659 816.681 362.901 817.01 362.703 817.69L362.394 818.722C362.195 819.38 361.732 819.731 361.027 819.731H357.41C356.704 819.731 356.462 819.402 356.66 818.722L356.969 817.69ZM355.734 821.728C355.955 821.048 356.396 820.719 357.101 820.719H360.718C361.424 820.719 361.688 821.026 361.468 821.728L357.079 835.928C356.859 836.63 356.418 836.959 355.712 836.959H352.096C351.39 836.959 351.147 836.63 351.346 835.928L355.734 821.728Z" fill="#553529"/>
<path d="M365.68 821.728C365.9 821.048 366.341 820.719 367.047 820.719H375.316C376.022 820.719 376.287 821.026 376.066 821.728L375.581 823.308C375.361 823.989 374.92 824.318 374.214 824.318H371.656C370.95 824.318 370.487 824.647 370.289 825.327L367.025 835.949C366.804 836.652 366.363 836.981 365.658 836.981H362.063C361.357 836.981 361.115 836.652 361.313 835.949L365.68 821.728Z" fill="#553529"/>
<path d="M393.091 835.928C392.87 836.63 392.429 836.959 391.723 836.959H379.837C377.015 836.959 376.022 835.62 376.838 832.943L380.3 821.75C380.521 821.07 380.962 820.741 381.668 820.741H385.284C385.99 820.741 386.254 821.048 386.034 821.75L382.77 832.372C382.572 833.031 382.814 833.382 383.52 833.382H387.137C387.842 833.382 388.305 833.053 388.504 832.372L391.767 821.75C391.988 821.07 392.429 820.741 393.135 820.741H396.729C397.435 820.741 397.7 821.048 397.479 821.75L393.091 835.928Z" fill="#553529"/>
<path d="M416.51 836.959H411.857C411.151 836.959 410.6 836.63 410.269 835.927L405.704 827.368L403.058 835.927C402.838 836.63 402.397 836.959 401.691 836.959H398.074C397.369 836.959 397.126 836.63 397.325 835.927L403.367 816.307C403.587 815.605 404.028 815.298 404.734 815.298H408.351C409.056 815.298 409.321 815.605 409.1 816.307L406.454 824.866L416.312 816.307C417.061 815.605 417.811 815.298 418.517 815.298H423.17C423.875 815.298 423.831 815.605 423.082 816.307L411.791 826.117L417.039 835.905C417.37 836.608 417.216 836.959 416.51 836.959Z" fill="#553529"/>
<path d="M427.227 817.69C427.426 817.032 427.889 816.681 428.595 816.681H432.189C432.895 816.681 433.137 817.01 432.939 817.69L432.63 818.722C432.432 819.38 431.969 819.731 431.263 819.731H427.668C426.963 819.731 426.72 819.402 426.919 818.722L427.227 817.69ZM425.992 821.728C426.213 821.048 426.654 820.719 427.36 820.719H430.954C431.66 820.719 431.925 821.026 431.704 821.728L427.316 835.928C427.095 836.63 426.654 836.959 425.948 836.959H422.354C421.648 836.959 421.406 836.63 421.604 835.928L425.992 821.728Z" fill="#553529"/>
<path d="M435.938 821.728C436.159 821.048 436.6 820.719 437.305 820.719H445.575C446.281 820.719 446.545 821.026 446.325 821.728L445.839 823.308C445.619 823.989 445.178 824.318 444.472 824.318H441.914C441.209 824.318 440.767 824.647 440.547 825.327L437.283 835.949C437.063 836.652 436.622 836.981 435.916 836.981H432.299C431.594 836.981 431.351 836.652 431.55 835.949L435.938 821.728Z" fill="#553529"/>
<path d="M463.349 835.928C463.129 836.63 462.688 836.959 461.982 836.959H450.096C447.273 836.959 446.281 835.62 447.097 832.943L450.559 821.75C450.779 821.07 451.22 820.741 451.926 820.741H455.543C456.248 820.741 456.513 821.048 456.292 821.75L453.029 832.372C452.83 833.031 453.073 833.382 453.779 833.382H457.395C458.101 833.382 458.564 833.053 458.762 832.372L462.026 821.75C462.247 821.07 462.688 820.741 463.393 820.741H466.988C467.693 820.741 467.958 821.048 467.738 821.75L463.349 835.928Z" fill="#553529"/>
</g>
<g clip-path="url(#clip2_480_7663)">
<path d="M115.519 842.747C116.024 822.547 113.456 802.634 107.86 783.25C103.932 769.644 82.7535 775.444 86.7038 789.116C91.7953 806.736 94.0558 824.422 93.5949 842.769C93.2219 856.927 115.168 856.927 115.519 842.747Z" fill="#553529"/>
<path d="M84.948 815.645C103.251 817.696 143.786 821.004 142.689 846.915C142.184 859.132 161.98 862.197 164.24 849.848C167.422 832.383 162.55 814.895 157.524 798.224C153.442 784.684 132.242 790.462 136.368 804.09C139.287 813.771 142.447 823.805 143.303 833.949C143.72 838.866 143.501 841.711 143.084 844.004C150.26 844.975 157.459 845.967 164.635 846.937C166.391 805.369 115.936 797.099 84.948 793.615C70.9462 792.027 71.056 814.102 84.948 815.645Z" fill="#553529"/>
<path d="M92.7829 761.706C87.2963 743.116 82.2267 724.393 76.4987 705.869C72.9653 710.522 69.4539 715.175 65.9206 719.828C80.6466 720.115 95.4823 720.909 110.12 722.739C129.806 725.209 159.741 733.721 164.986 756.148C168.212 769.953 189.391 764.109 186.143 750.283C179.844 723.291 148.439 706.862 123.398 702.561C104.48 699.32 85.1017 698.129 65.9425 697.776C58.9855 697.644 53.2575 704.943 55.3644 711.735C61.0924 730.259 66.162 748.981 71.6486 767.571C75.6208 781.156 96.7991 775.356 92.7829 761.706Z" fill="#553529"/>
<path d="M84.0263 758.64C97.1283 759.831 117.363 762.631 122.52 777.12C127.261 790.373 148.461 784.662 143.676 771.254C134.613 745.828 108.343 738.815 84.0263 736.588C69.9588 735.309 70.0465 757.361 84.0263 758.64Z" fill="#553529"/>
<path d="M84.0263 604.76C97.1283 605.95 117.363 608.751 122.52 623.239C127.261 636.493 148.461 630.781 143.676 617.374C134.613 591.947 108.343 584.935 84.0263 582.707C69.9588 581.428 70.0465 603.481 84.0263 604.76Z" fill="#553529"/>
<path d="M125.637 673.827C126.054 658.016 123.925 643.131 119.47 627.959C115.475 614.374 94.2973 620.152 98.3134 633.824C102.264 647.254 104.085 659.846 103.712 673.827C103.295 688.029 125.242 688.007 125.637 673.827Z" fill="#553529"/>
<path d="M96.5576 660.375C114.378 662.382 155.352 665.734 154.276 691.094C153.64 705.649 174.467 704.722 176.223 691.094C177.386 682.163 175.806 672.372 174.643 663.551C173.106 651.929 171.065 639.779 164.986 629.568C157.744 617.396 138.76 628.488 146.047 640.705C153.816 653.738 156.252 676.077 154.298 691.094C161.607 691.094 168.937 691.094 176.245 691.094C178.022 649.967 127.107 641.763 96.5796 638.323C82.5339 636.757 82.6437 658.81 96.5576 660.375Z" fill="#553529"/>
<path d="M88.1521 606.899C82.2705 586.964 76.74 566.94 70.5951 547.093C67.0617 551.746 63.5503 556.399 60.0169 561.052C94.2313 562.441 129.126 564.889 159.741 581.803C193.933 600.68 201.9 633.714 202.054 670.564C202.119 684.743 224.066 684.787 224 670.564C223.824 628.201 213.334 588.64 175.345 565.396C140.582 544.116 99.7398 540.61 60.0169 539C53.0161 538.713 47.3759 546.299 49.4388 552.959C55.5838 572.806 61.1143 592.829 66.9959 612.765C70.9901 626.327 92.1683 620.549 88.1521 606.899Z" fill="#553529"/>
<path d="M202.69 829.031C202.032 828.833 201.68 828.37 201.68 827.664L201.68 824.047C201.68 823.342 202.01 823.099 202.69 823.298L203.721 823.606C204.38 823.805 204.731 824.268 204.731 824.974L204.731 828.59C204.731 829.296 204.402 829.538 203.721 829.34L202.69 829.031ZM206.728 830.266C206.048 830.046 205.719 829.604 205.719 828.899L205.719 825.282C205.719 824.577 206.026 824.312 206.728 824.532L220.927 828.921C221.63 829.141 221.959 829.582 221.959 830.288L221.959 833.905C221.959 834.61 221.63 834.853 220.927 834.654L206.728 830.266Z" fill="#553529"/>
<path d="M206.728 820.32C206.048 820.1 205.719 819.659 205.719 818.953L205.719 810.684C205.719 809.978 206.026 809.713 206.728 809.934L208.308 810.419C208.988 810.639 209.318 811.08 209.318 811.786L209.318 814.344C209.318 815.05 209.647 815.513 210.327 815.711L220.949 818.975C221.652 819.196 221.981 819.637 221.981 820.342L221.981 823.937C221.981 824.643 221.652 824.885 220.949 824.687L206.728 820.32Z" fill="#553529"/>
<path d="M220.927 792.909C221.63 793.13 221.959 793.571 221.959 794.276L221.959 806.163C221.959 808.985 220.62 809.978 217.943 809.162L206.75 805.699C206.07 805.479 205.74 805.038 205.74 804.332L205.74 800.716C205.74 800.01 206.048 799.745 206.75 799.966L217.372 803.23C218.03 803.428 218.382 803.185 218.382 802.48L218.382 798.863C218.382 798.158 218.052 797.694 217.372 797.496L206.75 794.232C206.07 794.012 205.74 793.571 205.74 792.865L205.74 789.271C205.74 788.565 206.048 788.3 206.75 788.521L220.927 792.909Z" fill="#553529"/>
<path d="M221.959 769.49L221.959 774.143C221.959 774.849 221.63 775.4 220.927 775.731L212.368 780.296L220.927 782.942C221.63 783.162 221.959 783.603 221.959 784.309L221.959 787.926C221.959 788.631 221.63 788.874 220.927 788.675L201.307 782.633C200.605 782.413 200.298 781.972 200.298 781.266L200.298 777.649C200.298 776.944 200.605 776.679 201.307 776.9L209.866 779.546L201.307 769.688C200.605 768.939 200.298 768.189 200.298 767.483L200.298 762.83C200.298 762.125 200.605 762.169 201.307 762.918L211.117 774.209L220.905 768.961C221.608 768.63 221.959 768.784 221.959 769.49Z" fill="#553529"/>
<path d="M202.69 758.772C202.032 758.574 201.68 758.111 201.68 757.405L201.68 753.811C201.68 753.105 202.01 752.862 202.69 753.061L203.721 753.37C204.38 753.568 204.731 754.031 204.731 754.737L204.731 758.331C204.731 759.037 204.402 759.28 203.721 759.081L202.69 758.772ZM206.728 760.007C206.048 759.787 205.719 759.346 205.719 758.64L205.719 755.046C205.719 754.34 206.026 754.075 206.728 754.296L220.927 758.684C221.63 758.905 221.959 759.346 221.959 760.051L221.959 763.646C221.959 764.352 221.63 764.594 220.927 764.396L206.728 760.007Z" fill="#553529"/>
<path d="M206.728 750.062C206.048 749.841 205.719 749.4 205.719 748.695L205.719 740.425C205.719 739.719 206.026 739.455 206.728 739.675L208.308 740.161C208.988 740.381 209.318 740.822 209.318 741.528L209.318 744.086C209.318 744.791 209.647 745.233 210.327 745.453L220.949 748.717C221.652 748.937 221.981 749.378 221.981 750.084L221.981 753.701C221.981 754.406 221.652 754.649 220.949 754.45L206.728 750.062Z" fill="#553529"/>
<path d="M220.927 722.651C221.63 722.871 221.959 723.312 221.959 724.018L221.959 735.904C221.959 738.727 220.62 739.719 217.943 738.903L206.75 735.441C206.07 735.221 205.74 734.78 205.74 734.074L205.74 730.457C205.74 729.752 206.048 729.487 206.75 729.708L217.372 732.971C218.03 733.17 218.382 732.927 218.382 732.221L218.382 728.605C218.382 727.899 218.052 727.436 217.372 727.238L206.75 723.974C206.07 723.753 205.74 723.312 205.74 722.607L205.74 719.012C205.74 718.307 206.048 718.042 206.75 718.262L220.927 722.651Z" fill="#553529"/>
</g>
<g clip-path="url(#clip3_480_7663)">
<path d="M115.519 231.747C116.024 211.547 113.456 191.634 107.86 172.25C103.932 158.644 82.7535 164.444 86.7038 178.116C91.7953 195.736 94.0558 213.422 93.5949 231.769C93.2219 245.927 115.168 245.927 115.519 231.747Z" fill="#553529"/>
<path d="M84.948 204.645C103.251 206.696 143.786 210.004 142.689 235.915C142.184 248.132 161.98 251.197 164.24 238.848C167.422 221.383 162.55 203.895 157.524 187.224C153.442 173.684 132.242 179.462 136.368 193.09C139.287 202.771 142.447 212.805 143.303 222.949C143.72 227.866 143.501 230.711 143.084 233.004C150.26 233.975 157.459 234.967 164.635 235.937C166.391 194.369 115.936 186.099 84.948 182.615C70.9462 181.027 71.056 203.102 84.948 204.645Z" fill="#553529"/>
<path d="M92.7829 150.706C87.2963 132.116 82.2267 113.393 76.4987 94.8693C72.9653 99.5223 69.4539 104.175 65.9206 108.828C80.6466 109.115 95.4823 109.909 110.12 111.739C129.806 114.209 159.741 122.721 164.986 145.148C168.212 158.953 189.391 153.109 186.143 139.283C179.844 112.291 148.439 95.8617 123.398 91.5615C104.48 88.3198 85.1017 87.129 65.9425 86.7761C58.9855 86.6438 53.2575 93.9431 55.3644 100.735C61.0924 119.259 66.162 137.981 71.6486 156.571C75.6208 170.156 96.7991 164.356 92.7829 150.706Z" fill="#553529"/>
<path d="M84.0263 147.64C97.1283 148.831 117.363 151.631 122.52 166.12C127.261 179.373 148.461 173.662 143.676 160.254C134.613 134.828 108.343 127.815 84.0263 125.588C69.9588 124.309 70.0465 146.361 84.0263 147.64Z" fill="#553529"/>
<path d="M84.0263 -6.24036C97.1283 -5.04954 117.363 -2.24891 122.52 12.2394C127.261 25.4928 148.461 19.7813 143.676 6.37352C134.613 -19.0527 108.343 -26.0653 84.0263 -28.2926C69.9588 -29.5716 70.0465 -7.51939 84.0263 -6.24036Z" fill="#553529"/>
<path d="M125.637 62.8273C126.054 47.0158 123.925 32.1305 119.47 16.9586C115.475 3.37443 94.2973 9.15211 98.3134 22.8245C102.264 36.2543 104.085 48.8461 103.712 62.8273C103.295 77.0289 125.242 77.0068 125.637 62.8273Z" fill="#553529"/>
<path d="M96.5576 49.3754C114.378 51.3821 155.352 54.7341 154.276 80.0941C153.64 94.6486 174.467 93.7224 176.223 80.0941C177.386 71.163 175.806 61.3718 174.643 52.5509C173.106 40.9294 171.065 28.7786 164.986 18.5684C157.744 6.39557 138.76 17.4879 146.047 29.7048C153.816 42.7377 156.252 65.0766 154.298 80.0941C161.607 80.0941 168.937 80.0941 176.245 80.0941C178.022 38.9667 127.107 30.7633 96.5796 27.3232C82.5339 25.7574 82.6437 47.8097 96.5576 49.3754Z" fill="#553529"/>
<path d="M88.1521 -4.10122C82.2705 -24.0364 76.74 -44.0599 70.5951 -63.9069C67.0617 -59.2539 63.5503 -54.6008 60.0169 -49.9478C94.2313 -48.5585 129.126 -46.1107 159.741 -29.1967C193.933 -10.3199 201.9 22.7143 202.054 59.5636C202.119 73.7432 224.066 73.7873 224 59.5636C223.824 17.2012 213.334 -22.3605 175.345 -45.6035C140.582 -66.8839 99.7398 -70.3903 60.0169 -72.0001C53.0161 -72.2867 47.3759 -64.7008 49.4388 -58.041C55.5838 -38.194 61.1143 -18.1706 66.9959 1.76467C70.9901 15.3268 92.1683 9.54912 88.1521 -4.10122Z" fill="#553529"/>
<path d="M221.959 228.748L221.959 233.401C221.959 234.107 221.63 234.658 220.927 234.989L212.368 239.554L220.927 242.2C221.63 242.421 221.959 242.862 221.959 243.567L221.959 247.184C221.959 247.89 221.63 248.132 220.927 247.934L201.307 241.891C200.605 241.671 200.298 241.23 200.298 240.524L200.298 236.93C200.298 236.224 200.605 235.959 201.307 236.18L209.866 238.826L201.307 228.969C200.605 228.219 200.298 227.469 200.298 226.764L200.298 222.111C200.298 221.405 200.605 221.449 201.307 222.199L211.117 233.49L220.905 228.241C221.608 227.888 221.959 228.043 221.959 228.748Z" fill="#553529"/>
<path d="M202.69 218.031C202.032 217.833 201.68 217.37 201.68 216.664L201.68 213.047C201.68 212.342 202.01 212.099 202.69 212.298L203.721 212.606C204.38 212.805 204.731 213.268 204.731 213.974L204.731 217.59C204.731 218.296 204.402 218.538 203.721 218.34L202.69 218.031ZM206.728 219.266C206.048 219.046 205.719 218.604 205.719 217.899L205.719 214.282C205.719 213.577 206.026 213.312 206.728 213.532L220.927 217.921C221.63 218.141 221.959 218.582 221.959 219.288L221.959 222.905C221.959 223.61 221.63 223.853 220.927 223.654L206.728 219.266Z" fill="#553529"/>
<path d="M206.728 209.32C206.048 209.1 205.719 208.659 205.719 207.953L205.719 199.684C205.719 198.978 206.026 198.713 206.728 198.934L208.308 199.419C208.988 199.639 209.318 200.08 209.318 200.786L209.318 203.344C209.318 204.05 209.647 204.513 210.327 204.711L220.949 207.975C221.652 208.196 221.981 208.637 221.981 209.342L221.981 212.937C221.981 213.643 221.652 213.885 220.949 213.687L206.728 209.32Z" fill="#553529"/>
<path d="M220.927 181.909C221.63 182.13 221.959 182.571 221.959 183.276L221.959 195.163C221.959 197.985 220.62 198.978 217.943 198.162L206.75 194.699C206.07 194.479 205.74 194.038 205.74 193.332L205.74 189.716C205.74 189.01 206.048 188.745 206.75 188.966L217.372 192.23C218.03 192.428 218.382 192.185 218.382 191.48L218.382 187.863C218.382 187.158 218.052 186.694 217.372 186.496L206.75 183.232C206.07 183.012 205.74 182.571 205.74 181.865L205.74 178.271C205.74 177.565 206.048 177.3 206.75 177.521L220.927 181.909Z" fill="#553529"/>
<path d="M221.959 158.49L221.959 163.143C221.959 163.849 221.63 164.4 220.927 164.731L212.368 169.296L220.927 171.942C221.63 172.162 221.959 172.603 221.959 173.309L221.959 176.926C221.959 177.631 221.63 177.874 220.927 177.675L201.307 171.633C200.605 171.413 200.298 170.972 200.298 170.266L200.298 166.649C200.298 165.944 200.605 165.679 201.307 165.9L209.866 168.546L201.307 158.688C200.605 157.939 200.298 157.189 200.298 156.483L200.298 151.83C200.298 151.125 200.605 151.169 201.307 151.918L211.117 163.209L220.905 157.961C221.608 157.63 221.959 157.784 221.959 158.49Z" fill="#553529"/>
<path d="M202.69 147.772C202.032 147.574 201.68 147.111 201.68 146.405L201.68 142.811C201.68 142.105 202.01 141.862 202.69 142.061L203.721 142.37C204.38 142.568 204.731 143.031 204.731 143.737L204.731 147.331C204.731 148.037 204.402 148.28 203.721 148.081L202.69 147.772ZM206.728 149.007C206.048 148.787 205.719 148.346 205.719 147.64L205.719 144.046C205.719 143.34 206.026 143.075 206.728 143.296L220.927 147.684C221.63 147.905 221.959 148.346 221.959 149.051L221.959 152.646C221.959 153.352 221.63 153.594 220.927 153.396L206.728 149.007Z" fill="#553529"/>
<path d="M206.728 139.062C206.048 138.841 205.719 138.4 205.719 137.695L205.719 129.425C205.719 128.719 206.026 128.455 206.728 128.675L208.308 129.161C208.988 129.381 209.318 129.822 209.318 130.528L209.318 133.086C209.318 133.791 209.647 134.233 210.327 134.453L220.949 137.717C221.652 137.937 221.981 138.378 221.981 139.084L221.981 142.701C221.981 143.406 221.652 143.649 220.949 143.45L206.728 139.062Z" fill="#553529"/>
<path d="M220.927 111.651C221.63 111.871 221.959 112.312 221.959 113.018L221.959 124.904C221.959 127.727 220.62 128.719 217.943 127.903L206.75 124.441C206.07 124.221 205.74 123.78 205.74 123.074L205.74 119.457C205.74 118.752 206.048 118.487 206.75 118.708L217.372 121.971C218.03 122.17 218.382 121.927 218.382 121.221L218.382 117.605C218.382 116.899 218.052 116.436 217.372 116.238L206.75 112.974C206.07 112.753 205.74 112.312 205.74 111.607L205.74 108.012C205.74 107.307 206.048 107.042 206.75 107.262L220.927 111.651Z" fill="#553529"/>
</g>
<g clip-path="url(#clip4_480_7663)">
<path d="M658.079 521.007V487.981C658.079 479.094 650.859 471.881 641.964 471.881H571.232C566.775 471.881 562.745 473.688 559.825 476.61C548.212 476.61 538.167 475.644 531.889 475.644C531.889 475.644 548.927 490.608 555.117 496.798V521.007C555.117 529.9 562.33 537.106 571.232 537.106H641.957C650.859 537.106 658.079 529.9 658.079 521.007Z" fill="white"/>
<path d="M659.962 521.007C659.962 517.72 659.962 514.428 659.962 511.141C659.962 505.466 659.962 499.79 659.962 494.114C659.962 490.081 660.326 485.792 658.914 481.941C656.29 474.798 649.478 470.019 641.857 470C639.628 469.994 637.4 470 635.165 470C630.432 470 625.698 470 620.965 470C615.101 470 609.244 470 603.381 470C597.762 470 592.15 470 586.531 470C582.545 470 578.546 470 574.553 470C571.138 470 567.817 469.956 564.565 471.286C562.286 472.214 560.246 473.55 558.495 475.274C558.94 475.092 559.38 474.904 559.826 474.722C554.502 474.729 549.178 474.515 543.861 474.246C539.875 474.045 535.882 473.769 531.889 473.763C530.333 473.763 529.303 475.87 530.559 476.974C536.56 482.248 542.524 487.567 548.387 492.991C550.208 494.679 552.029 496.372 553.786 498.128C553.604 497.683 553.416 497.244 553.234 496.798C553.234 500.706 553.234 504.606 553.234 508.514C553.234 512.665 553.215 516.824 553.234 520.975C553.272 529.16 558.965 536.579 566.995 538.486C569.638 539.113 572.343 538.987 575.03 538.987C579.086 538.987 583.141 538.987 587.203 538.987C592.803 538.987 598.409 538.987 604.008 538.987C609.803 538.987 615.603 538.987 621.398 538.987C626.05 538.987 630.702 538.987 635.36 538.987C637.532 538.987 639.698 538.994 641.87 538.987C649.453 538.956 656.221 534.24 658.876 527.147C659.604 525.196 659.943 523.089 659.962 521.007C659.981 518.586 656.214 518.58 656.196 521.007C656.189 521.59 656.164 522.167 656.101 522.744C656.064 523.089 655.932 523.791 655.8 524.343C655.536 525.434 655.204 526.356 654.77 527.216C653.747 529.266 652.498 530.841 650.646 532.283C649.089 533.5 647.074 534.434 644.99 534.905C643.929 535.143 643.138 535.218 641.958 535.224C641.907 535.224 641.857 535.224 641.813 535.224C638.894 535.231 635.975 535.224 633.062 535.224C627.092 535.224 621.122 535.224 615.158 535.224C608.321 535.224 601.485 535.224 594.655 535.224C589.067 535.224 583.474 535.224 577.887 535.224C575.357 535.224 572.783 535.35 570.253 535.193C568.213 535.068 566.034 534.415 564.207 533.368C562.399 532.333 560.711 530.809 559.574 529.166C557.704 526.444 557.007 523.628 557.007 520.398C557.007 514.635 557.007 508.865 557.007 503.101C557.007 501.057 557.07 499 557.007 496.961C556.963 495.557 555.55 494.572 554.596 493.663C553.253 492.377 551.884 491.104 550.516 489.843C545.154 484.889 539.712 480.041 534.244 475.218C533.905 474.917 533.566 474.616 533.22 474.315C532.781 475.387 532.335 476.453 531.889 477.526C536.397 477.532 540.904 477.864 545.405 478.084C548.287 478.222 551.175 478.347 554.063 478.416C555.619 478.454 557.183 478.479 558.746 478.485C559.769 478.492 560.529 478.498 561.332 477.764C561.753 477.382 562.161 476.986 562.619 476.641C565.193 474.697 568.275 473.757 571.477 473.757C572.419 473.757 573.367 473.757 574.308 473.757C578.653 473.757 582.99 473.757 587.335 473.757C593.493 473.757 599.652 473.757 605.81 473.757C612.038 473.757 618.272 473.757 624.499 473.757C629.05 473.757 633.608 473.757 638.159 473.757C639.264 473.757 640.363 473.757 641.468 473.757C641.631 473.757 641.794 473.757 641.958 473.757C643.822 473.769 645.818 474.152 647.425 474.829C649.428 475.669 650.947 476.761 652.379 478.291C653.672 479.664 654.783 481.496 655.386 483.233C656.108 485.321 656.196 487.115 656.196 489.298C656.196 494.572 656.196 499.846 656.196 505.121C656.196 510.138 656.196 515.155 656.196 520.173C656.196 520.449 656.196 520.731 656.196 521.007C656.196 523.434 659.962 523.434 659.962 521.007Z" fill="#553529"/>
<path d="M596.624 498.552V499.736H600.24V498.552H596.624ZM596.048 500.408V501.592H600.352V500.408H596.048ZM598.656 506.776H602.672V507.368H598.656V506.776ZM598.656 508.296H602.672V508.888H598.656V508.296ZM598.656 505.272H602.672V505.832H598.656V505.272ZM596.912 504.072V510.088H604.496V504.072H596.912ZM601.28 510.84C602.304 511.352 603.472 512.024 604.128 512.472L605.632 511.48C604.864 511.032 603.536 510.36 602.432 509.864L601.28 510.84ZM596.4 497.64C596.272 498.44 596.048 499.272 595.648 499.88C595.936 499.992 596.432 500.248 596.656 500.392C597.04 499.768 597.344 498.792 597.52 497.848L596.4 497.64ZM596.784 501.176C596.704 502.216 596.464 502.952 595.456 503.416C595.728 503.624 596.112 504.12 596.256 504.424C597.584 503.736 597.936 502.664 598.048 501.176H596.784ZM602.928 501.08V502.472C602.928 503.208 602.976 503.464 603.184 503.688C603.36 503.864 603.68 503.96 603.984 503.96C604.128 503.96 604.368 503.96 604.512 503.96C604.704 503.96 604.928 503.928 605.072 503.848C605.232 503.784 605.376 503.64 605.472 503.48C605.552 503.304 605.616 502.92 605.632 502.52C605.36 502.456 605.024 502.28 604.816 502.104C604.8 502.392 604.8 502.616 604.752 502.712C604.72 502.808 604.704 502.856 604.656 502.872C604.624 502.904 604.56 502.92 604.512 502.92C604.448 502.92 604.384 502.92 604.336 502.92C604.288 502.92 604.224 502.904 604.224 502.84C604.192 502.808 604.192 502.696 604.192 502.52V501.08H602.928ZM597.792 497.464V501.032H599.12V497.464H597.792ZM598.496 501.08V503H599.712V501.08H598.496ZM601.152 498.552V499.736H605.104V498.552H601.152ZM600.608 500.408V501.592H605.312V500.408H600.608ZM600.944 497.656C600.848 498.456 600.688 499.256 600.352 499.88C600.624 499.992 601.12 500.232 601.36 500.392C601.696 499.752 601.92 498.776 602.064 497.864L600.944 497.656ZM601.344 501.16C601.296 502.232 601.104 502.872 600.128 503.272C600.4 503.496 600.752 503.992 600.88 504.28C602.208 503.672 602.512 502.664 602.576 501.16H601.344ZM602.304 497.464V501.096H603.664V497.464H602.304ZM598.016 502.76L598.352 503.944C599.072 503.768 599.76 503.608 600.512 503.416L600.432 502.36C599.488 502.52 598.688 502.68 598.016 502.76ZM598.72 509.912C598.048 510.44 596.704 511.08 595.536 511.4C595.904 511.688 596.432 512.184 596.72 512.504C597.888 512.168 599.312 511.48 600.16 510.792L598.72 509.912ZM591.136 502.328V503.768H595.392V502.328H591.136ZM591.232 497.912V499.368H595.344V497.912H591.232ZM591.136 504.504V505.96H595.392V504.504H591.136ZM590.464 500.072V501.592H595.792V500.072H590.464ZM592.016 506.728V508.232H593.824V510.056H592.016V511.56H595.36V506.728H592.016ZM591.088 506.728V512.232H592.592V506.728H591.088ZM617.328 497.48V500.984H619.12V497.48H617.328ZM615.408 500.104V501.768H621.28V500.104H615.408ZM615.648 502.632C616.016 504.984 616.24 508.024 616.224 509.8L617.84 509.416C617.856 507.672 617.552 504.696 617.136 502.36L615.648 502.632ZM619.264 502.2C619.152 504.472 618.784 507.592 618.4 509.496L619.856 509.832C620.288 507.976 620.736 504.984 621.024 502.52L619.264 502.2ZM614.816 510.232V511.912H621.504V510.232H614.816ZM607.92 499.032V500.744H609.424V506.488H607.92V508.2H611.024V499.032H607.92ZM606.896 499.032V509.64H608.464V499.032H606.896ZM611.264 500.568V502.248H615.12V500.568H611.264ZM610.992 505.528L611.488 507.288C612.672 506.84 614.064 506.28 615.36 505.736L615.072 504.184C613.568 504.712 612.032 505.224 610.992 505.528ZM612.416 497.464V510.504C612.416 510.696 612.352 510.76 612.176 510.76C611.984 510.76 611.488 510.76 610.96 510.744C611.184 511.224 611.408 511.976 611.456 512.424C612.384 512.44 613.024 512.36 613.456 512.072C613.92 511.8 614.064 511.32 614.064 510.504V497.464H612.416ZM625.574 499.364L625.386 507.58H623.557L623.375 499.364H625.574ZM624.472 511.125C624.127 511.125 623.831 511.004 623.585 510.761C623.343 510.519 623.222 510.223 623.222 509.875C623.222 509.534 623.343 509.242 623.585 509C623.831 508.758 624.127 508.636 624.472 508.636C624.809 508.636 625.1 508.758 625.347 509C625.597 509.242 625.722 509.534 625.722 509.875C625.722 510.106 625.663 510.316 625.545 510.506C625.432 510.695 625.28 510.847 625.091 510.96C624.905 511.07 624.699 511.125 624.472 511.125Z" fill="#553529"/>
</g>
</g>
<path d="M16 1H660V-1H16V1ZM675 16V815H677V16H675ZM660 830H16V832H660V830ZM1 815V16H-1V815H1ZM16 830C7.71573 830 1 823.284 1 815H-1C-1 824.389 6.61117 832 16 832V830ZM675 815C675 823.284 668.284 830 660 830V832C669.389 832 677 824.389 677 815H675ZM660 1C668.284 1 675 7.71573 675 16H677C677 6.61116 669.389 -1 660 -1V1ZM16 -1C6.61116 -1 -1 6.61116 -1 16H1C1 7.71573 7.71573 1 16 1V-1Z" fill="#553529"/>
<defs>
<clipPath id="clip0_480_7663">
<path d="M0 16C0 7.16344 7.16344 0 16 0H660C668.837 0 676 7.16344 676 16V815C676 823.837 668.837 831 660 831H16C7.16345 831 0 823.837 0 815V16Z" fill="white"/>
</clipPath>
<clipPath id="clip1_480_7663">
<rect width="320" height="175" fill="white" transform="translate(327 664)"/>
</clipPath>
<clipPath id="clip2_480_7663">
<rect width="320" height="175" fill="white" transform="translate(49 859) rotate(-90)"/>
</clipPath>
<clipPath id="clip3_480_7663">
<rect width="320" height="175" fill="white" transform="translate(49 248) rotate(-90)"/>
</clipPath>
<clipPath id="clip4_480_7663">
<rect width="130" height="69" fill="white" transform="translate(530 470)"/>
</clipPath>
</defs>
</svg>
