<svg width="118" height="61" viewBox="0 0 118 61" fill="none" xmlns="http://www.w3.org/2000/svg">
<path d="M72.4211 6.24257L72.4213 6.2425C72.6977 6.09537 72.9753 5.95069 73.2541 5.80852L73.0269 5.3631C73.5903 5.07574 74.1583 4.79848 74.7304 4.53169L74.9417 4.98483C75.5098 4.71988 76.0818 4.46537 76.6573 4.22167L76.4624 3.76125C77.0452 3.51443 77.6316 3.27856 78.221 3.054L78.399 3.52123C78.9849 3.29799 79.5738 3.08607 80.165 2.88582L80.0046 2.41225C80.6045 2.20906 81.2069 2.01774 81.8113 1.83866L81.9534 2.31806C82.5545 2.13995 83.1575 1.9741 83.7618 1.82089L83.6389 1.33623C84.2532 1.18049 84.8689 1.03764 85.4855 0.908061L85.5883 1.39737C86.2018 1.26846 86.8159 1.15287 87.4302 1.05096L87.3484 0.5577C87.9737 0.453969 88.5993 0.364236 89.2246 0.288899L89.2845 0.78531C89.9063 0.710396 90.5276 0.649909 91.1479 0.604237L91.1112 0.105587C91.7434 0.0590393 92.3747 0.0276738 93.0044 0.0119047L93.017 0.511748C93.3291 0.503933 93.6408 0.5 93.952 0.5C94.2981 0.5 94.6411 0.50486 94.9809 0.514504L94.995 0.0147055C95.6976 0.0346457 96.3871 0.0747653 97.0632 0.134456L97.0192 0.632519C97.7097 0.693478 98.3855 0.775123 99.0461 0.876734L99.1221 0.382545C99.8186 0.489665 100.499 0.618685 101.163 0.768849L101.052 1.25652C101.726 1.40888 102.381 1.58328 103.018 1.77885L103.165 1.30087C103.838 1.50727 104.49 1.73696 105.123 1.98901L104.937 2.45347C105.577 2.70821 106.194 2.98607 106.789 3.28598L107.014 2.83948C107.64 3.15505 108.243 3.49475 108.82 3.85748L108.555 4.28096C109.133 4.6443 109.687 5.03104 110.214 5.43996L110.52 5.04496C111.072 5.47297 111.595 5.92499 112.09 6.39973L111.744 6.7606C112.233 7.22963 112.694 7.72125 113.124 8.23414L113.507 7.91277C113.953 8.44411 114.367 8.99787 114.75 9.5727L114.334 9.84983C114.707 10.4094 115.048 10.9895 115.358 11.5888L115.802 11.3594C116.118 11.9711 116.401 12.6023 116.651 13.2515L116.184 13.431C116.424 14.0543 116.632 14.695 116.807 15.352L117.291 15.2229C117.467 15.8843 117.612 16.5615 117.723 17.2532L117.23 17.3327C117.335 17.9893 117.411 18.6599 117.454 19.3433L117.953 19.3112C117.997 19.9919 118.01 20.6845 117.992 21.3881L117.492 21.3753C117.475 22.0398 117.43 22.7148 117.355 23.3994L117.852 23.4536C117.779 24.1294 117.677 24.8139 117.547 25.5062L117.056 25.4139C116.932 26.07 116.783 26.7338 116.607 27.4045L117.091 27.5314C116.919 28.187 116.722 28.8487 116.499 29.5158L116.025 29.3576C115.918 29.6794 115.804 30.0026 115.685 30.327C115.569 30.6407 115.448 30.9533 115.323 31.2648L115.787 31.4514C115.534 32.0804 115.262 32.7046 114.971 33.3234L114.519 33.111C114.234 33.7165 113.932 34.317 113.613 34.912L114.054 35.1483C113.734 35.7452 113.397 36.3364 113.043 36.9213L112.615 36.6629C112.269 37.2359 111.908 37.803 111.531 38.3637L111.946 38.6425C111.568 39.2051 111.175 39.7612 110.768 40.3102L110.367 40.0125C109.967 40.5512 109.554 41.0832 109.128 41.608L109.516 41.9232C109.089 42.4498 108.648 42.9691 108.195 43.4806L107.821 43.1491C107.376 43.652 106.918 44.1474 106.45 44.6348L106.81 44.9814C106.34 45.4706 105.858 45.9517 105.366 46.4243L105.02 46.0637C104.535 46.5293 104.039 46.9867 103.534 47.4354L103.866 47.8092C103.358 48.2603 102.84 48.7025 102.314 49.1355L101.996 48.7493C101.476 49.1768 100.947 49.5954 100.41 50.0043L100.712 50.4022C100.171 50.814 99.6218 51.2162 99.0647 51.6084L98.7769 51.1995C98.2257 51.5875 97.6668 51.9657 97.1011 52.3335L97.3736 52.7527C96.803 53.1236 96.2254 53.4841 95.6414 53.8338L95.3845 53.4048C94.8057 53.7514 94.2205 54.0872 93.6297 54.4117L93.8705 54.85C93.2735 55.1779 92.6708 55.4945 92.063 55.7994L91.8388 55.3525C91.2353 55.6552 90.6267 55.9462 90.0137 56.225L90.2207 56.6801C89.6001 56.9624 88.9749 57.2324 88.346 57.4895L88.1568 57.0267C87.5314 57.2824 86.9024 57.5252 86.2702 57.7548L86.4409 58.2248C85.7996 58.4577 85.1551 58.6772 84.5079 58.8827L84.3566 58.4062C83.7127 58.6107 83.0664 58.8012 82.4184 58.9773L82.5495 59.4598C81.8908 59.6388 81.2301 59.8031 80.5683 59.9522L80.4584 59.4645C79.7997 59.6129 79.1399 59.746 78.4798 59.8635L78.5674 60.3558C77.895 60.4754 77.2221 60.5789 76.5494 60.6659L76.4852 60.1701C75.8158 60.2566 75.1467 60.3266 74.4787 60.3794L74.5182 60.8778C73.8373 60.9317 73.1574 60.968 72.4791 60.9862L72.4657 60.4864C72.1298 60.4954 71.7943 60.5 71.4594 60.5C71.0895 60.5 70.7231 60.4944 70.3604 60.4834L70.3452 60.9832C69.589 60.9603 68.8478 60.9139 68.1223 60.8449L68.1697 60.3471C67.428 60.2765 66.7034 60.182 65.9965 60.0643L65.9144 60.5575C65.1681 60.4333 64.4407 60.2837 63.7328 60.1096L63.8522 59.6241C63.131 59.4467 62.4311 59.2436 61.7531 59.0159L61.5939 59.4899C60.8777 59.2494 60.185 58.9817 59.5166 58.6881L59.7177 58.2304C59.0413 57.9333 58.3909 57.6093 57.7674 57.2598L57.5229 57.6959C56.8661 57.3278 56.2379 56.9317 55.6393 56.5089L55.9277 56.1005C55.6301 55.8903 55.34 55.6735 55.0578 55.4502L55.0575 55.4499C54.8168 55.2599 54.5639 55.087 54.3003 54.9312L54.0459 55.3617C53.5632 55.0763 53.0402 54.8515 52.4881 54.6865L52.6313 54.2074C52.0632 54.0377 51.4689 53.9282 50.8593 53.8772L50.8176 54.3754C50.264 54.3291 49.6944 54.3336 49.1178 54.3883L49.0706 53.8906C48.4893 53.9457 47.9025 54.0495 47.318 54.2009L47.4435 54.6849C46.9034 54.8249 46.3644 55.0077 45.8335 55.2329L45.6382 54.7726C45.368 54.8873 45.0999 55.0125 44.8347 55.1481L44.8346 55.1482C44.5125 55.313 44.1889 55.4745 43.864 55.6327L44.0828 56.0823C43.4255 56.4021 42.7626 56.7082 42.0949 56.9999L41.8947 56.5418C41.231 56.8318 40.5624 57.1075 39.89 57.3683L40.0708 57.8345C39.3887 58.0991 38.7025 58.3485 38.0131 58.5823L37.8525 58.1088C37.1663 58.3415 36.4769 58.5584 35.7852 58.7591L35.9245 59.2393C35.2213 59.4433 34.5156 59.6307 33.8082 59.8008L33.6913 59.3147C32.9869 59.4841 32.281 59.6363 31.5745 59.7706L31.6679 60.2618C30.9483 60.3986 30.2279 60.5171 29.5075 60.6167L29.439 60.1214C28.7219 60.2206 28.0052 60.3008 27.2896 60.3614L27.3318 60.8596C26.6018 60.9214 25.8729 60.9631 25.1458 60.9841L25.1314 60.4843C24.7708 60.4948 24.4108 60.5 24.0514 60.5C23.7052 60.5 23.3622 60.4951 23.0223 60.4855L23.0082 60.9853C22.3055 60.9654 21.6159 60.9253 20.9397 60.8657L20.9836 60.3676C20.2931 60.3067 19.6172 60.2251 18.9564 60.1236L18.8805 60.6178C18.1839 60.5107 17.5034 60.3818 16.8396 60.2317L16.9498 59.744C16.2762 59.5918 15.6206 59.4175 14.9834 59.222L14.8367 59.7001C14.1642 59.4938 13.5114 59.2642 12.8789 59.0123L13.0639 58.5478C12.4246 58.2932 11.8071 58.0155 11.2118 57.7157L10.9869 58.1622C10.3606 57.8468 9.75808 57.5072 9.18004 57.1446L9.44574 56.7211C8.86669 56.3578 8.31325 55.9712 7.78617 55.5624L7.47973 55.9574C6.92802 55.5295 6.40411 55.0775 5.90893 54.6029L6.25493 54.2419C5.76568 53.7729 5.30541 53.2813 4.87499 52.7685L4.49199 53.0899C4.04607 52.5585 3.63118 52.0047 3.2483 51.4299L3.66445 51.1527C3.29174 50.5931 2.95019 50.013 2.64074 49.4135L2.19645 49.6429C1.88062 49.0311 1.59738 48.3999 1.34768 47.7505L1.81437 47.5711C1.57468 46.9477 1.36662 46.3069 1.19113 45.6498L0.708063 45.7788C0.531389 45.1172 0.387001 44.4399 0.275777 43.7481L0.769438 43.6687C0.663863 43.012 0.588818 42.3414 0.545181 41.6579L0.0461966 41.6897C0.00273666 41.009 -0.0102346 40.3163 0.00802625 39.6126L0.507858 39.6256C0.525104 38.961 0.570811 38.2859 0.645723 37.6012L0.148689 37.5468C0.222629 36.871 0.324418 36.1865 0.454659 35.4941L0.946041 35.5865C1.06946 34.9304 1.21899 34.2666 1.39522 33.5958L0.911634 33.4688C1.0839 32.8131 1.28115 32.1514 1.50387 31.4843L1.97814 31.6426C2.08557 31.3208 2.19905 30.9976 2.31864 30.6731C2.4344 30.3595 2.55503 30.047 2.68044 29.7355L2.21663 29.5488C2.46988 28.9199 2.74223 28.2958 3.03287 27.677L3.48543 27.8896C3.7698 27.2841 4.07202 26.6837 4.39132 26.0888L3.95076 25.8523C4.27107 25.2555 4.60823 24.6644 4.96149 24.0795L5.38948 24.338C5.7355 23.7651 6.09725 23.1981 6.474 22.6374L6.05899 22.3585C6.43702 21.796 6.82986 21.24 7.23678 20.691L7.63847 20.9887C8.03775 20.45 8.45084 19.918 8.87702 19.3932L8.4889 19.078C8.91652 18.5515 9.3571 18.0322 9.80994 17.5207L10.1843 17.8522C10.6295 17.3493 11.0868 16.8539 11.5554 16.3665L11.195 16.02C11.6654 15.5308 12.147 15.0496 12.6392 14.577L12.9855 14.9376C13.4705 14.4719 13.9659 14.0145 14.471 13.5659L14.139 13.192C14.6469 12.741 15.1645 12.2987 15.6911 11.8657L16.0087 12.2519C16.5288 11.8243 17.0578 11.4058 17.5952 10.9967L17.2924 10.5989C17.8334 10.1871 18.3828 9.78485 18.9398 9.39265L19.2277 9.80149C19.7789 9.41342 20.3377 9.03525 20.9034 8.66742L20.6308 8.24823C21.2014 7.87726 21.779 7.51672 22.3629 7.16704L22.6198 7.596C23.1986 7.24938 23.7837 6.91354 24.3745 6.58892L24.1337 6.15072C24.7306 5.82271 25.3333 5.50605 25.941 5.20116L26.1652 5.64807C26.7688 5.3453 27.3773 5.05428 27.9903 4.77544L27.7832 4.32032C28.4038 4.03798 29.0289 3.768 29.6579 3.51082L29.8471 3.97362C30.4724 3.71794 31.1014 3.47506 31.7335 3.24544L31.5628 2.77548C32.2041 2.54252 32.8486 2.32303 33.4957 2.11747L33.6471 2.59401C34.2909 2.38948 34.9372 2.19893 35.5853 2.0228L35.4541 1.5403C36.1128 1.36127 36.7734 1.19696 37.4353 1.04783L37.5452 1.5356C38.2039 1.38718 38.8636 1.25401 39.5238 1.13654L39.4362 0.644272C40.1085 0.52463 40.7814 0.421066 41.4541 0.334073L41.5182 0.829944C42.1876 0.743375 42.8567 0.673437 43.5247 0.620611L43.4852 0.122167C44.1661 0.0683228 44.846 0.0320188 45.5242 0.0137693L45.5377 0.513588C45.8736 0.50455 46.209 0.5 46.5439 0.5C46.8498 0.5 47.1533 0.503796 47.4543 0.511336L47.4668 0.0114926C48.0909 0.0271263 48.7048 0.0586406 49.3081 0.105608L49.2693 0.6041C49.8826 0.651842 50.4846 0.715766 51.0748 0.795373L51.1417 0.29986C51.7605 0.38332 52.367 0.483794 52.9609 0.600763L52.8643 1.09134C53.4665 1.20995 54.0551 1.34574 54.6298 1.49812L54.7579 1.01482C55.3612 1.17478 55.9497 1.35279 56.5231 1.54823L56.3618 2.02149C56.9405 2.21878 57.5032 2.43404 58.0492 2.66657L58.2451 2.20654C58.8184 2.45065 59.3741 2.71356 59.9119 2.99454L59.6803 3.43769C60.2198 3.71956 60.7403 4.01983 61.2415 4.33769L61.5093 3.91545C62.0339 4.2482 62.5382 4.59998 63.0214 4.96997L62.7174 5.36697C62.9565 5.55003 63.1903 5.73761 63.4186 5.92959L63.4191 5.92999C63.7321 6.19244 64.0705 6.41975 64.4291 6.61234L64.6657 6.17186C65.3082 6.51699 66.0255 6.7432 66.785 6.85148L66.7144 7.34647C67.4787 7.45542 68.2781 7.45203 69.0838 7.33982L69.0148 6.8446C69.732 6.74471 70.4584 6.55317 71.1715 6.27065L71.3556 6.7355C71.7152 6.59304 72.0712 6.42869 72.4211 6.24257Z" stroke="#553529" stroke-dasharray="2 2"/>
<path d="M58.6058 18.3125V10.4489H60.3899V18.3125H58.6058ZM55.5661 15.2727V13.4886H63.4297V15.2727H55.5661ZM37.02 32.712V34.488H42.988V32.712H37.02ZM28.348 29V30.568H35.548V29H28.348ZM28.188 35.368V36.984H35.532V35.368H28.188ZM28.14 32.568V34.152H35.676V32.568H28.14ZM39.612 33.48V42.36H41.468V33.48H39.612ZM31.02 27.544V29.704H32.892V27.544H31.02ZM31.02 34.056V42.424H32.892V34.056H31.02ZM36.156 28.68V34.264C36.156 36.456 35.98 39.192 34.124 41.16C34.556 41.4 35.26 42.056 35.5 42.472C37.676 40.216 37.98 36.68 37.98 34.296V29.592C38.268 29.544 38.38 29.464 38.396 29.304L36.156 28.68ZM41.388 27.576C40.252 28.184 38.364 28.76 36.652 29.144C36.876 29.512 37.148 30.184 37.244 30.6C39.116 30.248 41.292 29.704 42.924 28.968L41.388 27.576ZM32.748 37.048L31.724 37.88C32.316 38.408 33.532 39.608 34.06 40.248L35.164 38.872C34.78 38.552 33.244 37.352 32.748 37.048ZM29.148 30.808C29.404 31.416 29.612 32.232 29.644 32.76L31.212 32.344C31.132 31.816 30.908 31.032 30.62 30.456L29.148 30.808ZM33.132 30.424C32.988 30.984 32.716 31.8 32.492 32.344L34.012 32.664C34.252 32.168 34.524 31.48 34.828 30.744L33.132 30.424ZM31.036 36.312C30.332 37.72 29.004 39.272 27.74 40.088C28.14 40.392 28.7 41.032 29.004 41.448C30.284 40.408 31.612 38.568 32.396 36.808L31.036 36.312ZM44.06 31.304V33.112H48.604V31.304H44.06ZM45.532 27.656V38.296H47.404V27.656H45.532ZM43.788 38.2L44.428 40.12C45.868 39.464 47.628 38.616 49.26 37.816L48.78 36.088C46.972 36.888 45.052 37.72 43.788 38.2ZM50.06 36.456V42.456H51.884V37.832H55.58V42.408H57.484V36.456H50.06ZM51.004 40.536V41.944H56.732V40.536H51.004ZM50.988 38.552V39.8H56.7V38.552H50.988ZM52.924 31.576V35.176H54.284V31.576H52.924ZM50.924 32.184H56.444V34.52H50.924V32.184ZM49.452 30.824V35.896H58.028V30.824H49.452ZM51.1 32.744C51.324 33.24 51.516 33.912 51.596 34.328L52.7 33.976C52.636 33.576 52.396 32.92 52.172 32.456L51.1 32.744ZM54.972 32.44C54.876 32.872 54.668 33.528 54.476 34.008L55.452 34.296C55.692 33.896 55.964 33.336 56.268 32.744L54.972 32.44ZM52.092 27.736V29.352H55.708V27.736H52.092ZM50.652 28.264C50.108 29.416 49.116 30.552 48.108 31.288C48.476 31.592 49.084 32.28 49.34 32.632C50.46 31.72 51.644 30.232 52.332 28.776L50.652 28.264ZM54.156 27.736V28.6H54.54C55.324 29.992 56.652 31.448 57.996 32.424C58.268 31.96 58.828 31.272 59.196 30.92C57.948 30.232 56.668 28.968 55.964 27.736H54.156ZM66.06 27.912V29.288H68.06V31.832H66.06V33.208H69.516V27.912H66.06ZM65.196 27.912V42.472H66.812V27.912H65.196ZM73.98 27.912H70.076V33.208H73.98V31.832H71.532V29.288H73.98V27.912ZM65.964 29.944V31.128H68.716V29.944H65.964ZM70.844 29.944V31.128H73.628V29.944H70.844ZM67.212 34.072V35.064H72.46V34.072H67.212ZM69.132 33.4V35.96H70.428V33.4H69.132ZM72.844 27.912V40.648C72.844 40.824 72.796 40.872 72.636 40.888C72.508 40.888 72.108 40.888 71.724 40.856C71.932 41.288 72.14 42.04 72.204 42.488C73.004 42.488 73.564 42.424 73.996 42.152C74.428 41.88 74.54 41.416 74.54 40.68V27.912H72.844ZM68.492 37.656H71.132V38.088H68.492V37.656ZM68.492 36.36H71.132V36.792H68.492V36.36ZM67.404 35.48V38.984H72.252V35.48H67.404ZM69.084 38.504C68.572 39.384 67.564 40.328 66.652 40.792C66.956 41.032 67.372 41.512 67.596 41.832C68.54 41.192 69.548 39.992 70.092 38.888L69.084 38.504ZM60.204 30.728V32.488H64.956V30.728H60.204ZM61.916 27.416V42.44H63.628V27.416H61.916ZM61.884 31.944C61.548 33.976 60.748 36.504 59.82 37.88C60.092 38.312 60.476 39.032 60.636 39.512C61.676 37.88 62.492 34.792 62.876 32.28L61.884 31.944ZM63.548 33.192L62.844 33.896C63.244 34.648 64.124 36.536 64.444 37.48L65.356 36.152C65.116 35.688 63.868 33.64 63.548 33.192ZM70.652 38.616L69.74 39C70.204 39.96 71.068 41.128 71.804 41.736C72.028 41.432 72.46 40.984 72.748 40.744C71.996 40.28 71.132 39.384 70.652 38.616ZM69.276 35.832V38.568H69.116V42.152H70.492V38.568H70.332V35.832H69.276ZM84.78 27.624V31.384H86.716V27.624H84.78ZM81.004 30.312V32.12H90.748V30.312H81.004ZM82.108 33.16C82.62 35.224 83.02 37.88 83.084 39.448L84.972 39.048C84.876 37.48 84.38 34.888 83.836 32.856L82.108 33.16ZM87.516 32.76C87.212 35.096 86.54 38.216 85.9 40.184L87.628 40.552C88.284 38.664 89.068 35.688 89.596 33.096L87.516 32.76ZM80.668 39.944V41.768H91.068V39.944H80.668ZM79.564 27.448C78.7 29.72 77.212 31.976 75.692 33.384C76.012 33.864 76.54 34.92 76.7 35.384C78.508 33.592 80.284 30.744 81.372 28.04L79.564 27.448ZM78.028 31.88V42.392H79.852V30.072L79.836 30.056L78.028 31.88Z" fill="#553529"/>
</svg>
