<svg width="160" height="160" viewBox="0 0 160 160" fill="none" xmlns="http://www.w3.org/2000/svg">
<path d="M153.95 74.9995H108.05C105.817 74.9995 104 73.1824 104 70.9495V25.05C104 22.8171 105.817 21 108.05 21H153.95C156.183 21 158 22.8171 158 25.05V70.9495C158 73.1824 156.183 74.9995 153.95 74.9995ZM108.05 22.8003C106.81 22.8003 105.8 23.809 105.8 25.0502V70.9497C105.8 72.1908 106.81 73.1996 108.05 73.1996H153.95C155.191 73.1996 156.2 72.1908 156.2 70.9497V25.0502C156.2 23.809 155.19 22.8003 153.95 22.8003H108.05Z" fill="#553529"/>
<path d="M112.1 29.9998H108.5C108.004 29.9998 107.6 29.5975 107.6 29.0999L107.6 25.5001C107.6 25.0025 108.003 24.6002 108.5 24.6002H112.1C112.597 24.6002 113 25.0025 113 25.5001V29.0999C113 29.5975 112.597 29.9998 112.1 29.9998ZM109.4 28.2001H111.2V26.3999H109.4V28.2001Z" fill="#553529"/>
<path d="M119.3 29.9998H115.701C115.204 29.9998 114.801 29.5975 114.801 29.0999L114.8 25.5001C114.8 25.0025 115.203 24.6002 115.7 24.6002H119.3C119.797 24.6002 120.2 25.0025 120.2 25.5001V29.0999C120.2 29.5975 119.797 29.9998 119.3 29.9998ZM116.6 28.2001H118.401L118.4 26.3999H116.6L116.6 28.2001Z" fill="#553529"/>
<path d="M126.5 29.9998H122.9C122.403 29.9998 122 29.5975 122 29.0999V25.5001C122 25.0025 122.403 24.6002 122.9 24.6002H126.5C126.996 24.6002 127.399 25.0025 127.399 25.5001V29.0999C127.4 29.5975 126.996 29.9998 126.5 29.9998ZM123.8 28.2001H125.6V26.3999H123.8V28.2001Z" fill="#553529"/>
<path d="M157.1 33.6003H104.9C104.403 33.6003 104 33.198 104 32.7005V25.0503C104 22.8174 105.817 21.0003 108.05 21.0003H153.95C156.182 21.0003 157.999 22.8174 157.999 25.0503V32.7001C157.999 33.198 157.596 33.6003 157.1 33.6003L157.1 33.6003ZM105.8 31.8002H156.2L156.2 25.0503C156.2 23.8091 155.19 22.8004 153.95 22.8004H108.051C106.81 22.8004 105.801 23.8091 105.801 25.0503L105.8 31.8002Z" fill="#553529"/>
<path d="M154.122 74.9995H131C130.503 74.9995 130.1 74.5972 130.1 74.0996V32.6994C130.1 32.2018 130.503 31.7995 131 31.7995H157.1C157.597 31.7995 158 32.2018 158 32.6994V71.1219C158 73.2595 156.26 74.9994 154.123 74.9994L154.122 74.9995ZM131.9 73.1994H154.122C155.268 73.1994 156.2 72.2679 156.2 71.1224V33.6005H131.9L131.9 73.1994Z" fill="#553529"/>
<path d="M124.7 39.8998H109.4C108.903 39.8998 108.5 39.4975 108.5 38.9999C108.5 38.5023 108.903 38.1 109.4 38.1H124.7C125.197 38.1 125.6 38.5023 125.6 38.9999C125.6 39.4975 125.197 39.8998 124.7 39.8998Z" fill="#553529"/>
<path d="M126.5 43.4994H109.4C108.903 43.4994 108.5 43.0971 108.5 42.5996C108.5 42.102 108.903 41.6997 109.4 41.6997H126.5C126.996 41.6997 127.399 42.102 127.399 42.5996C127.4 43.0972 126.996 43.4994 126.5 43.4994Z" fill="#553529"/>
<path d="M126.5 47.1001H109.4C108.903 47.1001 108.5 46.6978 108.5 46.2002C108.5 45.7026 108.903 45.3004 109.4 45.3004H126.5C126.996 45.3004 127.399 45.7026 127.399 46.2002C127.4 46.6978 126.996 47.1001 126.5 47.1001Z" fill="#553529"/>
<path d="M126.5 50.6998H109.4C108.903 50.6998 108.5 50.2975 108.5 49.7999C108.5 49.3023 108.903 48.9 109.4 48.9H126.5C126.996 48.9 127.399 49.3023 127.399 49.7999C127.4 50.2975 126.996 50.6998 126.5 50.6998Z" fill="#553529"/>
<path d="M126.5 54.2994H109.4C108.903 54.2994 108.5 53.8971 108.5 53.3996C108.5 52.902 108.903 52.4997 109.4 52.4997H126.5C126.996 52.4997 127.399 52.902 127.399 53.3996C127.4 53.8971 126.996 54.2994 126.5 54.2994Z" fill="#553529"/>
<path d="M126.5 57.9H109.4C108.903 57.9 108.5 57.4977 108.5 57.0001C108.5 56.5026 108.903 56.1003 109.4 56.1003H126.5C126.996 56.1003 127.399 56.5026 127.399 57.0001C127.4 57.4977 126.996 57.9 126.5 57.9Z" fill="#553529"/>
<path d="M126.5 61.4996H109.4C108.903 61.4996 108.5 61.0973 108.5 60.5997C108.5 60.1021 108.903 59.6998 109.4 59.6998H126.5C126.996 59.6998 127.399 60.1021 127.399 60.5997C127.4 61.0973 126.996 61.4996 126.5 61.4996Z" fill="#553529"/>
<path d="M126.5 65.0993H109.4C108.903 65.0993 108.5 64.6971 108.5 64.1995C108.5 63.7019 108.903 63.2996 109.4 63.2996H126.5C126.996 63.2996 127.399 63.7019 127.399 64.1995C127.4 64.6971 126.996 65.0993 126.5 65.0993Z" fill="#553529"/>
<path d="M126.5 68.6998H109.4C108.903 68.6998 108.5 68.2975 108.5 67.7999C108.5 67.3024 108.903 66.9001 109.4 66.9001H126.5C126.996 66.9001 127.399 67.3024 127.399 67.7999C127.4 68.2975 126.996 68.6998 126.5 68.6998Z" fill="#553529"/>
<path d="M150.799 39.8998H135.5C135.003 39.8998 134.6 39.4975 134.6 38.9999C134.6 38.5023 135.003 38.1 135.5 38.1H150.8C151.297 38.1 151.7 38.5023 151.7 38.9999C151.7 39.4975 151.297 39.8998 150.8 39.8998H150.799Z" fill="#553529"/>
<path d="M152.6 43.4994H135.5C135.003 43.4994 134.6 43.0971 134.6 42.5996C134.6 42.102 135.003 41.6997 135.5 41.6997H152.6C153.097 41.6997 153.5 42.102 153.5 42.5996C153.5 43.0971 153.097 43.4994 152.6 43.4994Z" fill="#553529"/>
<path d="M152.6 47.1001H135.5C135.003 47.1001 134.6 46.6978 134.6 46.2002C134.6 45.7026 135.003 45.3004 135.5 45.3004H152.6C153.097 45.3004 153.5 45.7026 153.5 46.2002C153.5 46.6978 153.097 47.1001 152.6 47.1001Z" fill="#553529"/>
<path d="M152.6 50.6998H135.5C135.003 50.6998 134.6 50.2975 134.6 49.7999C134.6 49.3023 135.003 48.9 135.5 48.9H152.6C153.097 48.9 153.5 49.3023 153.5 49.7999C153.5 50.2975 153.097 50.6998 152.6 50.6998Z" fill="#553529"/>
<path d="M152.6 54.2994H135.5C135.003 54.2994 134.6 53.8971 134.6 53.3996C134.6 52.902 135.003 52.4997 135.5 52.4997H152.6C153.097 52.4997 153.5 52.902 153.5 53.3996C153.5 53.8971 153.097 54.2994 152.6 54.2994Z" fill="#553529"/>
<path d="M152.6 57.9H135.5C135.003 57.9 134.6 57.4977 134.6 57.0001C134.6 56.5026 135.003 56.1003 135.5 56.1003H152.6C153.097 56.1003 153.5 56.5026 153.5 57.0001C153.5 57.4977 153.097 57.9 152.6 57.9Z" fill="#553529"/>
<path d="M152.6 61.4996H135.5C135.003 61.4996 134.6 61.0973 134.6 60.5997C134.6 60.1021 135.003 59.6998 135.5 59.6998H152.6C153.097 59.6998 153.5 60.1021 153.5 60.5997C153.5 61.0973 153.097 61.4996 152.6 61.4996Z" fill="#553529"/>
<path d="M152.6 65.0993H135.5C135.003 65.0993 134.6 64.6971 134.6 64.1995C134.6 63.7019 135.003 63.2996 135.5 63.2996H152.6C153.097 63.2996 153.5 63.7019 153.5 64.1995C153.5 64.6971 153.097 65.0993 152.6 65.0993Z" fill="#553529"/>
<path d="M152.6 68.6998H135.5C135.003 68.6998 134.6 68.2975 134.6 67.7999C134.6 67.3024 135.003 66.9001 135.5 66.9001H152.6C153.097 66.9001 153.5 67.3024 153.5 67.7999C153.5 68.2975 153.097 68.6998 152.6 68.6998Z" fill="#553529"/>
<path d="M54.6163 88.428C54.5356 88.3845 54.4673 88.3472 54.6163 88.428V88.428Z" fill="#553529"/>
<path d="M56.0135 88.7756C55.9824 88.757 56.0073 88.7508 56.1315 88.8005C56.1253 88.8005 56.1253 88.8005 56.119 88.8005C56.088 88.7881 56.0507 88.7881 56.0135 88.7756Z" fill="#553529"/>
<path d="M58.5906 87.8877C58.5409 87.7201 58.5906 87.8008 58.5906 87.8877V87.8877Z" fill="#553529"/>
<path d="M58.5659 87.7138C58.5659 87.7262 58.5721 87.7448 58.5721 87.7573C58.5472 87.7386 58.541 87.6889 58.541 87.6579C58.5472 87.6703 58.5534 87.6827 58.5659 87.7014C58.5596 87.7014 58.5596 87.7076 58.5659 87.7138Z" fill="#553529"/>
<path d="M58.3734 87.4715C58.3485 87.4653 58.3237 87.4591 58.3113 87.4467C58.3361 87.4591 58.3547 87.4653 58.3734 87.4715Z" fill="#553529"/>
<path d="M58.5844 88.2045C58.5844 88.2107 58.5782 88.2231 58.5782 88.2293C58.5658 88.1486 58.5844 88.1051 58.5968 88.1237V88.1299C58.5968 88.1486 58.5906 88.1796 58.5844 88.2045Z" fill="#553529"/>
<path d="M58.5658 88.2915C58.572 88.2728 58.5782 88.2542 58.5844 88.2294C58.5844 88.2418 58.5844 88.248 58.5906 88.2604C58.572 88.2728 58.572 88.279 58.5658 88.2915Z" fill="#553529"/>
<path d="M68.3339 58.0805C75.8292 60.3843 76.3508 64.4456 74.6183 63.2719C72.8857 62.0983 68.5637 60.8997 68.0048 60.5644C67.3776 60.1918 67.2969 57.7638 68.3339 58.0805Z" fill="#553529"/>
<path d="M50.611 60.2911C47.8228 60.1731 45.5375 61.7691 43.9292 62.6509C42.9045 63.216 42.7741 58.2295 51.4493 57.1986C52.654 57.0496 53.1446 60.3967 50.611 60.2911Z" fill="#553529"/>
<path d="M70.0292 64.9672C71.8612 65.3026 72.8113 68.4758 72.153 72.0465C71.4948 75.6172 69.4766 78.2377 67.6447 77.9024C65.8127 77.5671 64.8626 74.3938 65.5209 70.8232C66.1791 67.2463 68.1973 64.6257 70.0292 64.9672Z" fill="#553529"/>
<path d="M52.9342 70.2997C53.9025 66.7992 53.2324 63.559 51.4375 63.0625C49.6426 62.5661 47.4027 65.0013 46.4344 68.5018C45.4661 72.0023 46.1362 75.2424 47.931 75.7389C49.7259 76.2354 51.9659 73.8002 52.9342 70.2997Z" fill="#553529"/>
<path d="M28.1622 89.6513C24.1568 90.7443 20.4433 87.7138 18.5927 84.3046C16.351 80.1688 15.7362 74.7228 17.8351 70.4007C18.7045 68.6185 20.1142 67.0784 21.9709 66.3519C22.269 56.1863 26.2433 45.9897 34.1609 39.3638C41.5941 33.1415 51.7783 31.3965 60.8882 34.6257C70.1781 37.9169 77.2946 45.7227 81.1323 54.6401C85.3054 64.3399 85.7835 75.6605 82.0949 85.5839C78.8285 94.3646 72.0162 101.959 62.9126 104.779C61.7886 105.126 60.6398 105.387 59.4847 105.592C58.4104 105.785 58.3111 104.083 59.3854 103.891C68.2779 102.301 75.3944 95.9171 79.2507 87.925C83.579 78.9517 83.9268 68.3328 80.9088 58.9C78.0336 49.9268 71.9231 41.767 63.3845 37.5257C55.2807 33.5017 45.6119 33.7687 37.9489 38.6931C29.6898 43.9964 24.9827 53.4291 23.896 62.9923C23.7469 64.2902 23.6724 65.5943 23.6538 66.9046C23.6476 67.271 23.4551 67.656 23.0763 67.7615C19.605 68.7551 18.3133 72.8474 18.276 76.089C18.2326 80.0447 19.7167 84.4474 22.9583 86.9066C24.517 88.0864 26.4172 88.5397 28.2677 87.8256C28.5968 87.6952 29.0626 87.8442 29.2489 88.1547C30.7951 90.7505 32.4904 93.2903 34.6453 95.4203C36.6883 97.4323 39.0667 98.9847 41.6376 100.233C42.6249 100.711 41.8735 102.245 40.8862 101.761C38.1911 100.45 35.6637 98.8171 33.5275 96.7057C33.0369 96.2214 32.5712 95.7122 32.1178 95.1967C32.124 95.1967 29.044 91.0982 28.1622 89.6513Z" fill="#553529"/>
<path d="M23.7284 82.1746C23.7159 82.1622 23.7097 82.156 23.7035 82.1436C23.7097 82.1498 23.7159 82.156 23.7159 82.1622C23.7718 82.2181 23.8277 82.2802 23.8836 82.3361C23.9333 82.3858 23.983 82.4292 24.0326 82.4789C24.8586 83.2055 23.7408 84.4909 22.9149 83.7706C22.1138 83.0626 21.499 82.1187 21.0333 81.1686C20.0521 79.1442 20.0521 76.9149 20.8159 74.8221C20.9712 74.3874 21.5735 74.2446 21.9586 74.4309C22.4119 74.6545 22.505 75.1388 22.3498 75.5735C22.0144 76.4926 21.884 77.4675 21.9896 78.4363C22.0331 78.8461 22.12 79.2373 22.2504 79.6348C22.3063 79.8149 22.3746 79.995 22.4491 80.1688C22.4864 80.262 22.5299 80.3489 22.5671 80.4421C22.6168 80.5476 22.6168 80.5476 22.6354 80.5787C22.9149 81.1127 23.2564 81.6033 23.6352 82.069C23.6414 82.0753 23.6476 82.0815 23.6538 82.0877C23.6601 82.1001 23.6787 82.1187 23.6973 82.1374C23.7035 82.1498 23.7159 82.1622 23.7284 82.1746Z" fill="#553529"/>
<path d="M23.7035 82.1437C23.6973 82.1375 23.6972 82.1375 23.691 82.1313C23.6786 82.1126 23.6662 82.1002 23.6476 82.0816C23.6414 82.0692 23.6476 82.0816 23.7035 82.1437Z" fill="#553529"/>
<path d="M58.7768 79.0697C58.7768 79.2126 58.7706 79.3492 58.752 79.492C58.7396 79.579 58.7023 79.7342 58.7644 79.3927C58.7582 79.4299 58.752 79.4734 58.7458 79.5169C58.7333 79.6038 58.7147 79.6969 58.6899 79.7839C58.6713 79.8708 58.6464 79.9578 58.6154 80.0447C58.5967 80.0944 58.5843 80.1441 58.5657 80.1937C58.5595 80.2186 58.5471 80.2372 58.5408 80.2558C58.4974 80.3862 58.634 80.0509 58.5905 80.1441C58.5036 80.3241 58.4042 80.4794 58.3049 80.6471C58.4601 80.3925 58.398 80.5291 58.3359 80.5974C58.3049 80.6346 58.2738 80.6657 58.2366 80.7029C58.1993 80.734 58.162 80.765 58.131 80.8023C58.0378 80.8892 58.2366 80.7216 58.2366 80.7216C58.2055 80.734 58.1745 80.765 58.1434 80.7837C58.0999 80.8085 58.0565 80.8333 58.013 80.8582C57.9136 80.9079 57.8019 80.9079 58.0627 80.8458C57.9509 80.8706 57.8453 80.9141 57.7336 80.9389C57.5348 80.9886 57.9695 80.9203 57.7646 80.9389C57.7025 80.9451 57.6404 80.9451 57.5783 80.9451C57.51 80.9451 57.4479 80.9451 57.3796 80.9389C57.3423 80.9389 57.3113 80.9327 57.274 80.9327C57.1126 80.9203 57.2864 80.9141 57.3361 80.9389C57.2119 80.8768 57.0132 80.8768 56.8766 80.8334C56.8331 80.8209 56.5413 80.7278 56.7214 80.7899C56.8952 80.8458 56.7524 80.7899 56.7338 80.7837C56.7151 80.7713 56.6965 80.7588 56.6779 80.7464C56.7151 80.7775 56.7524 80.8023 56.7959 80.8334C56.7897 80.8147 56.74 80.7837 56.7276 80.765C56.6406 80.6719 56.6903 80.6533 56.7462 80.8023C56.7214 80.734 56.653 80.6657 56.622 80.5974C56.6034 80.5663 56.5909 80.5291 56.5723 80.498C56.5164 80.4049 56.6406 80.6905 56.5847 80.5353C56.5475 80.4359 56.5164 80.3428 56.4854 80.2434C56.4357 80.0633 56.3612 79.846 56.3612 79.6535C56.3612 79.8584 56.3736 79.7528 56.3674 79.6907C56.3612 79.6224 56.355 79.5479 56.3488 79.4796C56.3425 79.3616 56.3363 79.2374 56.3301 79.1194C56.3177 78.6351 55.9141 78.1631 55.3986 78.1879C54.9081 78.2128 54.4547 78.5978 54.4672 79.1194C54.492 80.0633 54.641 81.1066 55.2372 81.8766C55.7774 82.5783 56.7648 82.8267 57.628 82.8019C58.3483 82.7833 59.0376 82.5224 59.5593 82.0132C59.9753 81.6034 60.2548 81.0631 60.4224 80.5166C60.5653 80.0509 60.6398 79.5541 60.6398 79.0697C60.6398 78.5854 60.2113 78.1134 59.7083 78.1383C59.1991 78.1569 58.7768 78.5481 58.7768 79.0697Z" fill="#553529"/>
<path d="M64.5396 53.7769C56.2556 51.8332 31.9129 53.2863 27.597 62.241C25.9142 65.7371 25.9204 74.2198 22.1013 63.2345C21.5424 61.6262 19.6298 65.8365 19.2013 63.1352C17.388 51.7897 23.2439 30.9246 43.7924 27.5154C60.913 24.6712 70.0539 32.9117 86.1251 35.6006C99.9296 37.9045 84.672 58.4964 64.5396 53.7769Z" fill="#EDEDEB"/>
<path d="M64.7881 52.8767C62.3538 52.3116 59.814 52.1563 57.3238 52.1004C54.0512 52.0321 50.7724 52.1998 47.5247 52.5786C44.1838 52.9698 40.8553 53.5598 37.6323 54.5347C34.8317 55.3855 32.0248 56.5281 29.7023 58.3414C27.7711 59.8504 26.6285 61.7195 25.964 64.0606C25.6721 65.0853 25.4486 66.1347 25.0884 67.1345C24.989 67.414 25.0201 67.3519 24.927 67.5258C24.8835 67.6003 24.8462 67.681 24.8028 67.7555C24.7158 67.8983 24.7469 67.6996 24.7593 67.8176C24.7655 67.9046 24.7469 67.8176 24.7593 67.8114C24.809 67.8052 25.107 67.7307 25.0077 67.7369C25.1878 67.7307 25.312 67.8859 25.1505 67.7245C24.188 66.7433 23.598 64.663 23.1012 63.272C22.8653 62.6075 22.5361 61.9307 21.7227 61.9244C21.1451 61.9182 20.6856 62.3032 20.2633 62.6572C20.1453 62.7566 19.8721 62.9988 19.8535 63.0112C19.779 63.0671 19.6548 63.1726 19.661 63.1478C19.6858 63.0484 19.6858 63.2099 19.6299 63.154C19.5927 63.1105 20.2199 63.2534 20.1578 63.2844C20.2261 63.2534 20.1453 63.3589 20.1453 63.1354C20.1453 62.9801 20.0832 62.8 20.0584 62.651C20.0212 62.4026 19.9901 62.1542 19.9653 61.9058C19.8349 60.6763 19.7976 59.4343 19.8286 58.1923C19.9777 52.3861 21.6481 46.5488 24.6289 41.5623C28.1064 35.7498 33.4966 31.3533 39.9983 29.3599C44.221 28.0682 48.7542 27.6646 53.1508 27.9316C57.3052 28.1862 61.354 29.186 65.3097 30.4466C69.2654 31.7134 73.1466 33.1976 77.1271 34.4023C79.2881 35.0606 81.4802 35.6319 83.6909 36.0852C85.1813 36.3895 86.7959 36.495 88.1807 37.1595C89.0314 37.5631 89.6648 38.0723 90.0809 38.8175C90.4411 39.4696 90.5466 40.1589 90.4721 41.0158C90.41 41.7672 90.0436 42.8229 89.6338 43.6053C89.0873 44.6486 88.3856 45.5925 87.597 46.4557C83.2811 51.1441 76.7235 53.5722 70.4267 53.5473C68.5264 53.5349 66.6386 53.3051 64.7881 52.8767C63.6206 52.6096 63.1239 54.4043 64.2913 54.6713C71.4699 56.3231 79.2447 55.0812 85.3366 50.846C87.6156 49.2563 89.7331 47.2567 91.0993 44.81C92.1115 42.9968 92.7884 40.7177 92.0494 38.6809C91.2359 36.4329 89.0377 35.2344 86.8083 34.7811C84.5417 34.3154 82.2875 33.9117 80.052 33.3094C77.8537 32.7132 75.6864 32.0177 73.5316 31.285C69.5014 29.9126 65.5022 28.4098 61.3665 27.3727C56.9885 26.2798 52.4677 25.7768 47.9594 26.0935C43.6435 26.3916 39.3959 27.2796 35.4713 29.1301C32.2732 30.6391 29.3732 32.7815 26.9638 35.3648C22.5486 40.103 19.7293 46.2507 18.568 52.5972C18.065 55.3606 17.8353 58.1923 18.0278 60.9992C18.1023 62.0983 18.0216 64.1476 19.0835 64.8058C19.6113 65.1287 20.2199 65.0045 20.7167 64.6878C20.9526 64.5326 21.17 64.3401 21.3811 64.16C21.5426 64.0234 21.791 63.9116 21.8531 63.7812C21.8841 63.7191 21.8469 63.7936 21.8406 63.7812C21.8344 63.7688 21.5053 63.7315 21.3997 63.7067C21.3811 63.7005 21.1824 63.5204 21.201 63.4893C21.1762 63.5204 21.3314 63.8681 21.3501 63.9178C21.5674 64.5326 21.7972 65.1474 22.0394 65.7559C22.3685 66.5694 22.7038 67.3953 23.1571 68.1529C23.6663 68.9975 24.5668 70.0159 25.6535 69.457C26.4608 69.041 26.7775 68.0163 27.0259 67.209C27.3736 66.1037 27.6158 64.9735 27.9636 63.8681C29.6465 58.5711 36.4028 56.6212 41.3024 55.5097C47.7048 54.0565 54.5294 53.5598 61.0746 54.187C62.1551 54.2925 63.2294 54.4416 64.2851 54.6837C65.4588 54.9446 65.9556 53.1499 64.7881 52.8767Z" fill="#553529"/>
<path d="M35.5707 100.103C34.5398 103.692 35.5148 107.679 38.0298 110.43C39.458 111.994 41.2154 112.696 43.2461 113.118C47.6923 114.05 53.157 114.019 57.1313 111.541C59.5407 110.038 60.9318 107.666 61.1864 104.853C61.2981 103.661 59.429 103.667 59.3234 104.853C58.9198 109.275 54.7529 111.2 50.8035 111.64C48.7542 111.87 46.6491 111.821 44.6184 111.485C43.7615 111.342 42.9107 111.156 42.0786 110.889C41.4452 110.684 41.0664 110.566 40.4889 110.163C37.5516 108.107 36.4028 103.946 37.3653 100.599C37.7006 99.4443 35.8998 98.9475 35.5707 100.103Z" fill="#553529"/>
<path d="M28.6776 101.941C26.765 107.25 29.6588 113.106 34.3783 115.838C36.4337 117.031 38.9922 117.521 41.3085 117.881C47.8909 118.906 55.8147 118.738 61.2856 114.429C64.7631 111.69 66.2411 107.48 66.2597 103.152C66.2659 101.953 64.403 101.953 64.3968 103.152C64.3781 106.611 63.3846 109.983 60.8013 112.398C58.5347 114.522 55.4794 115.584 52.4738 116.112C49.3316 116.664 46.0714 116.621 42.9106 116.242C41.5941 116.087 40.2901 115.851 39.0046 115.534C38.4333 115.398 37.862 115.236 37.3031 115.062C37.0733 114.988 36.8374 114.907 36.6076 114.826C36.4958 114.783 36.384 114.739 36.2723 114.696C36.2226 114.677 36.1791 114.659 36.1294 114.64C35.8935 114.547 36.3033 114.721 36.0798 114.621C31.559 112.609 28.7583 107.201 30.4723 102.444C30.8821 101.307 29.0812 100.823 28.6776 101.941Z" fill="#553529"/>
<path d="M18.2689 124.445C17.635 128.505 17.0115 132.579 16.7725 136.711C16.5283 140.837 16.7517 144.943 17.2142 149.036C17.3545 150.267 18.8561 149.742 18.7158 148.518C18.2741 144.606 18.0975 140.656 18.3313 136.711C18.5651 132.754 19.1678 128.849 19.7757 124.963C19.9628 123.739 18.4612 123.214 18.2689 124.445Z" fill="#553529"/>
<path d="M35.9431 98.9724C27.9758 99.7486 20.9028 104.089 15.6369 109.982C10.079 116.199 7.45739 121.482 5.23425 129.462C3.92397 134.144 3.4396 135.181 3.4396 139.363C3.24709 140.537 5.04175 141.04 5.23425 139.86C5.23425 134.661 5.9805 130.599 9.49529 123.054C12.8176 115.919 17.4688 109.368 24.1816 105.07C27.7275 102.798 31.739 101.251 35.9431 100.842C37.123 100.717 37.1354 98.8544 35.9431 98.9724Z" fill="#553529"/>
<path d="M64.2549 88.5725C63.6662 89.1514 62.2974 89.3888 61.4438 89.5373C60.1265 89.7599 58.7357 89.5373 57.4331 89.2775C54.7765 88.7506 51.4134 87.6078 50.1623 84.9436C49.5515 83.6523 47.6529 84.7803 48.2563 86.0642C49.787 89.322 53.8419 90.8731 57.124 91.4742C58.7577 91.7785 60.3841 91.9714 62.0325 91.682C63.3056 91.4593 64.8584 91.0809 65.8151 90.1458C66.838 89.1439 65.2705 87.5706 64.2549 88.5725Z" fill="#553529"/>
<path d="M48.2423 84.6798C47.1362 85.5467 46.183 86.9481 45.8046 88.2918C45.4262 89.6354 45.7828 90.8996 46.7069 91.911C48.4824 93.8615 51.4658 94.5333 54.0126 94.2443C56.4212 93.9698 58.6551 93.009 60.678 91.7015C61.8496 90.943 60.7581 89.0647 59.5793 89.8305C56.6832 91.7015 52.732 93.0813 49.5448 91.3547C48.9772 91.0441 48.7662 90.9069 48.3442 90.4734C48.1404 90.2639 47.9076 90.0183 47.8566 89.6932C47.6383 88.4218 48.839 86.9481 49.7922 86.2113C50.2579 85.8501 50.1706 85.0554 49.7922 84.6798C49.3265 84.2247 48.708 84.3186 48.2423 84.6798Z" fill="#553529"/>
<path d="M65.2105 106.151C76.233 109.076 86.0322 115.664 93.6082 124.11C96.7007 127.556 99.4144 131.313 101.811 135.269C102.432 136.294 104.041 135.356 103.42 134.331C96.1915 122.415 85.8396 112.317 72.8983 106.84C70.5572 105.847 68.1602 105.008 65.701 104.356C64.546 104.046 64.0492 105.84 65.2105 106.151Z" fill="#553529"/>
<path d="M51.6959 126.186C48.281 123.403 43.8986 120.546 40.6463 120.055C38.9446 119.797 37.7033 120.53 36.8296 121.393C35.9065 122.316 35.3002 123.593 35.2361 125.201C35.1754 126.674 35.6921 128.529 37.3038 130.311C38.309 131.422 39.1686 130.562 38.1688 129.457C37.1855 128.369 37.063 127.132 37.0851 126.278C37.1276 124.965 37.652 123.921 38.3743 123.153C39.0909 122.391 40.1033 121.709 41.5424 121.909C42.9422 122.104 44.6501 122.991 46.2112 123.903C47.9246 124.905 49.6468 126.107 51.2951 127.447C52.448 128.39 52.8433 127.123 51.6959 126.186Z" fill="#553529"/>
<path d="M39.1515 136.118C37.3222 137.657 36.3662 139.968 36.7907 142.351C37.1876 144.59 38.8207 146.713 40.9768 147.51C41.4468 147.686 41.9854 147.58 42.2268 147.097C42.4346 146.688 42.2836 146.023 41.8137 145.847C40.215 145.257 38.9705 143.8 38.6293 142.125C38.3064 140.513 38.9049 138.746 40.1708 137.685C40.5533 137.362 40.7416 136.854 40.4436 136.396C40.1896 136.006 39.5392 135.792 39.1515 136.118Z" fill="#553529"/>
<path d="M44.9576 144.731C43.1381 145.302 41.5484 146.146 40.9523 148.084C40.412 149.829 42.3022 153.626 43.5318 154.961C45.8667 157.513 49.8659 156.557 52.6851 155.414C53.5856 155.048 55.3989 154.414 55.5789 153.265C55.6597 152.769 55.4485 152.266 54.9269 152.117C54.486 151.992 53.8588 152.266 53.7781 152.769C53.7595 152.856 53.7781 152.824 53.834 152.669C53.8215 152.7 53.8029 152.731 53.7843 152.756C53.8712 152.644 53.8837 152.626 53.8091 152.707C53.7781 152.738 53.7408 152.775 53.7036 152.806C53.6166 152.874 53.747 152.793 53.5483 152.911C53.4303 152.986 53.3185 153.054 53.2006 153.123C52.6603 153.427 52.089 153.669 51.5053 153.874C50.1018 154.371 48.599 154.743 47.0963 154.706C44.5916 154.961 42.7718 151.537 42.5979 149.972C42.5172 149.214 42.6724 148.394 43.1319 147.773C43.6722 147.047 44.6099 146.78 45.4296 146.525C46.597 146.165 46.1065 144.364 44.9576 144.731Z" fill="#553529"/>
<path d="M48.9777 153.408C52.8526 152.086 56.9822 153.905 60.9379 153.054C64.3781 152.309 67.185 149.751 68.458 146.509C68.8989 145.391 67.0981 144.907 66.6634 146.012C65.4959 148.974 62.6021 151.135 59.4351 151.409C55.7713 151.725 52.0764 150.384 48.4809 151.614C47.3507 151.999 47.835 153.793 48.9777 153.408Z" fill="#553529"/>
<path d="M69.3649 142.448C70.2218 138.716 69.6133 134.493 67.5827 131.227C67.179 130.574 66.7567 129.823 66.0426 129.488C65.4092 129.196 64.751 128.948 64.0927 128.73C61.2796 127.805 58.3051 127.345 55.3616 127.085C52.9895 126.873 50.6111 126.849 48.2389 126.668C46.0468 126.501 43.8858 126.582 41.8241 127.407C39.7811 128.227 37.9429 129.662 37.0549 131.717C36.198 133.704 36.2477 136.083 37.5207 137.884C38.21 138.852 39.8245 137.927 39.129 136.946C38.1417 135.555 38.1106 133.754 38.8558 132.239C39.6258 130.68 41.1534 129.6 42.7618 129.034C44.6993 128.351 46.6616 128.407 48.6798 128.569C50.7353 128.736 52.7907 128.743 54.8462 128.91C57.5848 129.128 60.3295 129.544 62.9625 130.339C63.6208 130.537 64.279 130.761 64.9124 131.028C64.6764 130.928 65.1422 131.115 65.2229 131.171C65.2912 131.214 65.3595 131.301 65.3347 131.276C65.9495 131.854 66.3779 132.835 66.7133 133.592C67.0921 134.449 67.3653 135.356 67.564 136.269C67.9677 138.138 67.9863 140.107 67.5578 141.97C67.297 143.118 69.0916 143.615 69.3649 142.448Z" fill="#553529"/>
<path d="M67.2782 131.394C67.9985 130.662 68.9424 130.034 69.9919 130.481C70.7184 130.792 71.24 131.456 71.5505 132.158C72.1529 133.555 72.3144 135.176 72.3765 136.673C72.5193 140.014 72.215 143.963 70.439 146.894C70.0353 147.565 69.5385 148.099 68.8617 148.502C67.9426 149.055 66.5516 149.633 65.5456 149.012C64.521 148.384 63.5833 149.993 64.6079 150.62C66.6882 151.899 69.7559 150.632 71.2338 148.943C72.5503 147.453 73.221 145.441 73.6433 143.528C74.1401 141.287 74.3326 138.958 74.2332 136.666C74.1525 134.766 73.9289 132.717 73.0533 131.003C72.4696 129.86 71.4139 128.892 70.1595 128.569C68.5512 128.159 67.067 128.935 65.9617 130.065C65.1171 130.935 66.4336 132.251 67.2782 131.394Z" fill="#553529"/>
<path d="M71.861 131.407C74.3139 130.773 76.9283 130.693 79.4309 131.102C81.2441 131.4 83.3307 131.885 84.8148 133.04C85.2122 133.35 85.7401 133.425 86.1313 133.04C86.4542 132.723 86.5287 132.034 86.1313 131.723C84.3615 130.345 82.1073 129.668 79.9277 129.308C77.0835 128.836 74.1649 128.885 71.3705 129.612C70.2092 129.91 70.6998 131.711 71.861 131.407Z" fill="#553529"/>
<path d="M72.4696 126.445C73.0534 126.762 73.6185 127.109 74.1649 127.494C74.2767 127.575 74.3947 127.662 74.5065 127.743C74.7052 127.892 74.3574 127.625 74.5499 127.774C74.6058 127.817 74.6617 127.861 74.7176 127.904C74.9101 128.06 75.1026 128.221 75.2889 128.382C76.0155 129.01 76.711 129.674 77.4934 130.227C77.8909 130.506 78.5491 130.314 78.7665 129.891C79.0211 129.413 78.8596 128.916 78.4311 128.618C78.369 128.575 78.2138 128.407 78.1455 128.407C78.1951 128.407 78.3069 128.538 78.1703 128.426C78.1268 128.389 78.0771 128.351 78.0337 128.314C77.866 128.177 77.7046 128.041 77.5431 127.898C77.1954 127.594 76.8538 127.277 76.4998 126.973C75.5435 126.153 74.5127 125.427 73.4073 124.824C72.9788 124.588 72.3703 124.706 72.1343 125.159C71.9045 125.607 72.0101 126.197 72.4696 126.445Z" fill="#553529"/>
<path d="M103.389 137.827C104.748 140.293 105.419 143.267 104.73 146.043C104.022 148.887 101.898 150.918 99.1223 151.769C96.1106 152.694 92.7945 152.334 89.6958 152.141C85.9947 151.911 82.2936 151.589 78.6049 151.21C75.1336 150.85 71.625 150.502 68.2034 149.794C67.0359 149.552 66.5329 151.346 67.7066 151.589C70.9233 152.259 74.227 152.601 77.4872 152.955C81.4304 153.383 85.3799 153.731 89.3356 153.986C92.6889 154.197 96.2596 154.569 99.5322 153.601C102.699 152.657 105.264 150.427 106.32 147.26C107.462 143.832 106.705 139.995 104.997 136.896C104.419 135.834 102.811 136.772 103.389 137.827Z" fill="#553529"/>
</svg>
