<svg width="73" height="50" viewBox="0 0 73 50" fill="none" xmlns="http://www.w3.org/2000/svg">
<path d="M57.8285 0.654663C53.3549 0.654663 48.7292 2.37335 44.5471 5.28477C42.7433 6.53962 40.6734 6.48578 39.3934 5.08184C36.8588 2.29466 33.2723 0.654663 28.9001 0.654663C17.6295 0.654663 5.42111 11.5549 1.62763 24.9979C-2.16162 38.4451 3.90034 49.3412 15.1752 49.3412C19.484 49.3412 23.9322 47.7467 27.9961 45.0258C30.0576 43.6467 32.4148 43.684 33.906 45.2246C36.4195 47.8254 39.9003 49.3412 44.1036 49.3412C55.3742 49.3412 67.5868 38.441 71.376 24.9979C75.161 11.5549 69.0991 0.654663 57.8285 0.654663Z" fill="white"/>
<path d="M9.05787 20.96C12.9274 21.0553 16.742 20.5707 20.4552 19.5147C23.0616 18.7734 21.9506 14.7769 19.3315 15.5223C15.9562 16.4831 12.5683 16.9097 9.05364 16.8227C6.33738 16.7523 6.3416 20.8938 9.05787 20.96Z" fill="#FFB11B"/>
<path d="M14.2454 15.1911C13.8526 18.645 13.2189 26.2942 8.25528 26.0871C5.91498 25.9919 5.32779 29.7275 7.69344 30.154C11.0391 30.7545 14.389 29.8351 17.5827 28.8867C20.1764 28.1164 19.0696 24.1158 16.459 24.8944C14.6045 25.4452 12.6824 26.0416 10.7392 26.2031C9.79717 26.2818 9.25222 26.2404 8.81289 26.1617C8.62702 27.5159 8.43692 28.8743 8.25105 30.2286C16.214 30.5599 17.7981 21.0388 18.4656 15.1911C18.7739 12.5488 14.5453 12.5696 14.2454 15.1911Z" fill="#FFB11B"/>
<path d="M24.5832 16.6695C28.1443 15.6342 31.7308 14.6775 35.2793 13.5966C34.388 12.9298 33.4966 12.2672 32.6053 11.6004C32.5504 14.3793 32.3983 17.1789 32.0477 19.9412C31.5745 23.6561 29.9439 29.305 25.6477 30.2948C23.0033 30.9036 24.1228 34.9 26.7714 34.2871C31.942 33.0985 35.0892 27.1722 35.9129 22.4468C36.5339 18.8769 36.7578 15.2159 36.8296 11.6004C36.855 10.2876 35.4567 9.20668 34.1556 9.60426C30.6071 10.6852 27.0207 11.6418 23.4595 12.6772C20.8573 13.4309 21.9641 17.4274 24.5832 16.6695Z" fill="#FFB11B"/>
<path d="M25.1657 15.0171C24.9375 17.4896 24.4011 21.3079 21.6256 22.2812C19.0868 23.1757 20.1809 27.1763 22.7493 26.2735C27.62 24.5631 28.9634 19.6058 29.39 15.0171C29.6393 12.3625 25.4107 12.379 25.1657 15.0171Z" fill="#FFB11B"/>
<path d="M54.6432 15.0171C54.4151 17.4896 53.8786 21.3079 51.1032 22.2812C48.5643 23.1757 49.6585 27.1763 52.2269 26.2735C57.0976 24.5631 58.4409 19.6058 58.8676 15.0171C59.1168 12.3625 54.8882 12.379 54.6432 15.0171Z" fill="#FFB11B"/>
<path d="M41.4173 22.8651C44.4462 22.9438 47.2976 22.5421 50.204 21.7013C52.8062 20.9476 51.6994 16.9511 49.0803 17.709C46.5077 18.4545 44.0956 18.7982 41.4173 18.7278C38.6968 18.6533 38.6968 22.7947 41.4173 22.8651Z" fill="#FFB11B"/>
<path d="M43.9936 17.3818C43.6092 20.7447 42.9671 28.4767 38.1091 28.2738C35.321 28.1537 35.4984 32.0839 38.1091 32.4152C39.8199 32.6347 41.6955 32.3365 43.3853 32.117C45.6115 31.8271 47.9391 31.4419 49.895 30.2948C52.2269 28.9281 50.102 25.3458 47.7617 26.7207C45.2651 28.1868 40.9858 28.6465 38.1091 28.2779C38.1091 29.657 38.1091 31.0402 38.1091 32.4193C45.9875 32.7548 47.5589 23.1467 48.2179 17.386C48.5179 14.7355 44.2935 14.7562 43.9936 17.3818Z" fill="#FFB11B"/>
<path d="M54.238 15.7916C58.0569 14.6817 61.8926 13.638 65.6945 12.4784C64.8032 11.8117 63.9118 11.149 63.0205 10.4823C62.7543 16.9388 62.2854 23.5236 59.0454 29.3009C55.4293 35.7532 49.1012 37.2565 42.0423 37.2855C39.3261 37.298 39.3176 41.4394 42.0423 41.427C50.1573 41.3938 57.7358 39.4142 62.1883 32.2454C66.2648 25.6854 66.9365 17.9782 67.2448 10.4823C67.2997 9.16117 65.8466 8.09682 64.5708 8.48612C60.7689 9.64571 56.9332 10.6894 53.1144 11.7993C50.5164 12.5571 51.6232 16.5536 54.238 15.7916Z" fill="#FFB11B"/>
<path d="M9.63231 41.0418H8.73675C8.60157 41.0418 8.49596 40.9797 8.4326 40.8472L7.55815 39.232L7.05123 40.8472C7.00899 40.9797 6.9245 41.0418 6.78932 41.0418H6.10075C5.96557 41.0418 5.9191 40.9797 5.95712 40.8472L7.11459 37.1447C7.15684 37.0122 7.24133 36.9542 7.37651 36.9542H8.06508C8.20026 36.9542 8.25095 37.0122 8.2087 37.1447L7.70178 38.7599L9.59007 37.1447C9.7337 37.0122 9.87733 36.9542 10.0125 36.9542H10.9038C11.039 36.9542 11.0306 37.0122 10.8869 37.1447L8.72408 38.996L9.72947 40.843C9.79706 40.9797 9.76749 41.0418 9.63231 41.0418Z" fill="#FFB11B"/>
<path d="M11.6857 37.4097C11.7237 37.2855 11.8124 37.2192 11.9476 37.2192H12.6404C12.7756 37.2192 12.8221 37.2814 12.784 37.4097L12.7249 37.6044C12.6869 37.7286 12.5982 37.7949 12.463 37.7949H11.7702C11.635 37.7949 11.5885 37.7328 11.6266 37.6044L11.6857 37.4097ZM11.4491 38.1718C11.4914 38.0434 11.5759 37.9813 11.711 37.9813H12.4038C12.539 37.9813 12.5897 38.0392 12.5475 38.1718L11.7068 40.8513C11.6646 40.9838 11.5801 41.0459 11.4449 41.0459H10.7521C10.6169 41.0459 10.5705 40.9838 10.6085 40.8513L11.4491 38.1718Z" fill="#FFB11B"/>
<path d="M13.3541 38.1718C13.3963 38.0434 13.4808 37.9813 13.616 37.9813H15.2001C15.3353 37.9813 15.386 38.0392 15.3438 38.1718L15.2508 38.47C15.2086 38.5983 15.1241 38.6605 14.9889 38.6605H14.4989C14.3637 38.6605 14.275 38.7226 14.237 38.851L13.6118 40.8554C13.5695 40.9879 13.485 41.0501 13.3499 41.0501H12.6613C12.5261 41.0501 12.4796 40.9879 12.5177 40.8554L13.3541 38.1718Z" fill="#FFB11B"/>
<path d="M18.6047 40.8513C18.5624 40.9838 18.4779 41.0459 18.3428 41.0459H16.0658C15.5251 41.0459 15.335 40.7933 15.4913 40.288L16.1545 38.1759C16.1968 38.0475 16.2813 37.9854 16.4165 37.9854H17.1093C17.2444 37.9854 17.2951 38.0434 17.2529 38.1759L16.6277 40.1804C16.5897 40.3046 16.6361 40.3709 16.7713 40.3709H17.4641C17.5993 40.3709 17.688 40.3088 17.726 40.1804L18.3512 38.1759C18.3935 38.0475 18.4779 37.9854 18.6131 37.9854H19.3017C19.4369 37.9854 19.4876 38.0434 19.4453 38.1759L18.6047 40.8513Z" fill="#FFB11B"/>
<path d="M23.0913 41.0418H22.2C22.0648 41.0418 21.9592 40.9797 21.8958 40.8471L21.0214 39.232L20.5144 40.8471C20.4722 40.9797 20.3877 41.0418 20.2525 41.0418H19.5597C19.4246 41.0418 19.3781 40.9797 19.4161 40.8471L20.5736 37.1447C20.6158 37.0122 20.7003 36.9542 20.8355 36.9542H21.5283C21.6635 36.9542 21.7142 37.0122 21.6719 37.1447L21.165 38.7599L23.0533 37.1447C23.1969 37.0122 23.3405 36.9542 23.4757 36.9542H24.3671C24.5022 36.9542 24.4938 37.0122 24.3502 37.1447L22.1873 38.9959L23.1927 40.843C23.256 40.9797 23.2265 41.0418 23.0913 41.0418Z" fill="#FFB11B"/>
<path d="M25.1437 37.4097C25.1817 37.2855 25.2704 37.2192 25.4056 37.2192H26.0942C26.2294 37.2192 26.2758 37.2814 26.2378 37.4097L26.1787 37.6044C26.1407 37.7286 26.0519 37.7949 25.9168 37.7949H25.2282C25.093 37.7949 25.0465 37.7328 25.0846 37.6044L25.1437 37.4097ZM24.9071 38.1718C24.9494 38.0434 25.0339 37.9813 25.1691 37.9813H25.8576C25.9928 37.9813 26.0435 38.0392 26.0012 38.1718L25.1606 40.8513C25.1184 40.9838 25.0339 41.0459 24.8987 41.0459H24.2101C24.0749 41.0459 24.0285 40.9838 24.0665 40.8513L24.9071 38.1718Z" fill="#FFB11B"/>
<path d="M26.8124 38.1718C26.8547 38.0434 26.9392 37.9813 27.0743 37.9813H28.6585C28.7937 37.9813 28.8443 38.0392 28.8021 38.1718L28.7092 38.47C28.6669 38.5983 28.5824 38.6605 28.4473 38.6605H27.9572C27.822 38.6605 27.7376 38.7226 27.6953 38.851L27.0701 40.8554C27.0279 40.9879 26.9434 41.0501 26.8082 41.0501H26.1154C25.9802 41.0501 25.9337 40.9879 25.9718 40.8554L26.8124 38.1718Z" fill="#FFB11B"/>
<path d="M32.0637 40.8513C32.0214 40.9838 31.9369 41.0459 31.8017 41.0459H29.5248C28.9841 41.0459 28.794 40.7933 28.9503 40.288L29.6135 38.1759C29.6558 38.0475 29.7403 37.9854 29.8754 37.9854H30.5682C30.7034 37.9854 30.7541 38.0434 30.7119 38.1759L30.0867 40.1804C30.0486 40.3046 30.0951 40.3709 30.2303 40.3709H30.9231C31.0583 40.3709 31.147 40.3088 31.185 40.1804L31.8102 38.1759C31.8524 38.0475 31.9369 37.9854 32.0721 37.9854H32.7607C32.8959 37.9854 32.9465 38.0434 32.9043 38.1759L32.0637 40.8513Z" fill="#FFB11B"/>
</svg>
