<svg width="676" height="831" viewBox="0 0 676 831" fill="none" xmlns="http://www.w3.org/2000/svg">
<g clip-path="url(#clip0_480_7663)">
<path d="M561.391 534.498L560.842 547.733L555.786 556.578L541.885 560.367L518.248 555.263L500.523 549.579L495.926 584.393L490.268 611.646C490.268 611.646 413.598 598.612 382.874 592.962C374.245 591.372 379.282 584.634 378.291 584.867C343.761 592.893 343.64 574.374 343.64 574.374C343.64 574.374 351.739 501.61 380.394 466.887C395.172 448.98 409.908 440.805 429.746 436.898L433.324 438.564L431.956 446.568L429.402 453.576L430.906 458.247L447.874 473.791L475.346 474.25L490.348 466.22L495.632 458.542L508.198 466.404L526.5 477.349L537.35 488.632L550.596 508.423L557.055 524.213L561.391 534.498Z" fill="white"/>
<path d="M539.776 374.1L546.708 379.566L548.274 388.656L547.047 404.866L541.405 421.976L535.726 432.908L525.196 445.501L511.468 452.802L498.203 455.771L493.387 456.535L489.682 456.566L484.305 462.246L469.487 467.87L454.805 467.1L443.791 461.711L439.226 452.871L441.781 445.863L444.837 440.412L443.554 434.295L442.04 416.851L441.043 413.22L435.549 411.549L431.032 408.533L427.53 394.01L429.455 381.792L436.462 374.268L442.846 372.449L443.718 377.186L445.768 382.399L456.141 368.22L477.139 358.822L525.786 370.697L539.776 374.1Z" fill="white"/>
<path d="M522.67 381.468C536.298 387.42 536.41 395.185 533.403 392.6C530.394 390.022 522.499 386.829 521.519 386.079C520.413 385.236 520.777 380.637 522.67 381.468Z" fill="#553529"/>
<path d="M486.902 378.359C481.678 377.536 477.022 380.056 473.793 381.374C471.733 382.213 472.564 372.787 489.144 372.709C491.448 372.692 491.664 379.104 486.902 378.359Z" fill="#553529"/>
<path d="M522.511 391.337C525.891 392.365 527.001 398.544 524.992 405.133C522.982 411.722 518.613 416.232 515.234 415.203C511.854 414.174 510.744 407.996 512.753 401.407C514.763 394.818 519.132 390.308 522.511 391.337Z" fill="#553529"/>
<path d="M489.137 397.713C491.713 391.321 491.144 385.068 487.866 383.747C484.588 382.425 479.841 386.536 477.265 392.927C474.688 399.319 475.257 405.572 478.535 406.893C481.814 408.215 486.56 404.104 489.137 397.713Z" fill="#553529"/>
<path d="M433.324 438.566C411.187 476.723 479.487 486.528 493.302 460.178L493.875 458.468L486.221 458.39L484.168 462.611L477.067 466.066L467.948 467.628L457.493 468.245L447.704 464.524L441.139 459.078L439.244 452.128L443.516 439.951L433.324 438.566Z" fill="white"/>
<path d="M491.302 459.276C491.134 459.598 490.947 459.902 490.773 460.216C490.587 460.557 491.051 459.8 490.753 460.25C490.646 460.418 490.538 460.587 490.424 460.754C490.022 461.351 489.594 461.922 489.132 462.473C488.687 463.011 488.216 463.524 487.719 464.017C487.606 464.126 487.492 464.241 487.379 464.35C487.833 463.901 487.405 464.324 487.286 464.424C487.019 464.672 486.738 464.91 486.459 465.141C485.314 466.09 484.095 466.947 482.817 467.706C482.678 467.788 482.533 467.869 482.386 467.958C482.305 468.005 482.224 468.051 482.135 468.097C481.883 468.243 482.514 467.896 482.249 468.033C481.911 468.21 481.571 468.395 481.235 468.566C480.545 468.911 479.837 469.232 479.125 469.537C477.686 470.138 476.208 470.651 474.713 471.088C474.349 471.195 473.987 471.288 473.624 471.387C473.085 471.527 473.9 471.326 473.516 471.415C473.27 471.474 473.025 471.532 472.772 471.59C471.997 471.767 471.219 471.922 470.443 472.054C468.839 472.334 467.226 472.53 465.601 472.651C464.77 472.716 463.942 472.76 463.11 472.78C462.716 472.794 462.33 472.801 461.938 472.8C461.752 472.801 461.575 472.804 461.39 472.798C461.273 472.794 460.579 472.784 460.902 472.797C461.256 472.807 460.57 472.79 460.497 472.786C460.313 472.78 460.136 472.775 459.952 472.769C459.51 472.754 459.071 472.723 458.632 472.693C457.833 472.637 457.03 472.566 456.238 472.474C454.616 472.292 452.999 472.022 451.402 471.681C450.642 471.52 449.885 471.337 449.132 471.133C448.962 471.085 448.799 471.037 448.628 470.996C448.024 470.83 448.847 471.067 448.479 470.951C448.105 470.835 447.731 470.718 447.358 470.594C445.9 470.112 444.47 469.545 443.083 468.888C442.434 468.582 441.789 468.253 441.154 467.905C440.854 467.74 440.563 467.562 440.264 467.391C440.006 467.24 440.628 467.624 440.169 467.332C440.001 467.224 439.825 467.116 439.657 467.002C438.501 466.24 437.403 465.391 436.387 464.443C436.154 464.222 435.922 464.002 435.697 463.775C435.35 463.433 435.614 463.688 435.639 463.722C435.52 463.578 435.379 463.438 435.252 463.3C434.824 462.812 434.413 462.305 434.036 461.774C433.645 461.233 433.336 460.645 432.962 460.092C432.828 459.902 433.089 460.326 433.083 460.311C433.05 460.239 433.002 460.165 432.969 460.093C432.895 459.949 432.815 459.796 432.741 459.651C432.594 459.355 432.455 459.053 432.325 458.744C432.064 458.127 431.843 457.494 431.653 456.85C431.615 456.711 431.578 456.565 431.534 456.418C431.55 456.457 431.626 456.831 431.523 456.349C431.456 456.013 431.382 455.676 431.33 455.336C431.215 454.637 431.146 453.931 431.121 453.224C431.107 452.882 431.107 452.541 431.108 452.201C431.107 452.689 431.105 452.363 431.117 452.091C431.124 451.9 431.138 451.717 431.152 451.527C431.273 449.917 431.589 448.338 432.02 446.783C431.902 447.217 431.99 446.882 432.062 446.649C432.132 446.438 432.201 446.227 432.27 446.022C432.417 445.594 432.571 445.166 432.739 444.748C433.09 443.854 433.476 442.981 433.897 442.113C434.339 441.212 434.814 440.337 435.31 439.466C435.904 438.44 435.204 437.015 434.2 436.565C433.023 436.037 431.895 436.641 431.3 437.675C427.701 443.916 425.538 451.221 427.538 458.351C429.203 464.289 433.828 468.779 439.054 471.756C444.778 475.016 451.496 476.616 458.03 477.048C465.012 477.511 472.127 476.76 478.741 474.407C484.682 472.291 490.447 468.668 493.961 463.316C494.433 462.597 494.881 461.852 495.287 461.085C495.84 460.038 495.209 458.646 494.178 458.185C493.059 457.658 491.855 458.228 491.302 459.276Z" fill="#553529"/>
<path d="M497.639 417.748C497.938 416.713 497.639 417.703 497.53 417.975C497.401 418.289 497.258 418.592 497.088 418.884C497.048 418.952 497.009 419.013 496.969 419.081C497.358 418.378 497.196 418.709 497.089 418.877C496.983 419.038 496.862 419.198 496.744 419.342C496.625 419.487 496.495 419.615 496.37 419.751C496.28 419.856 496.648 419.483 496.648 419.483C496.648 419.483 496.554 419.565 496.545 419.578C496.452 419.653 496.366 419.728 496.274 419.796C496.208 419.845 496.142 419.886 496.068 419.934C496.028 419.958 495.987 419.981 495.946 420.004C495.75 420.13 496.469 419.737 496.253 419.837C496.063 419.919 495.881 419.994 495.686 420.061C495.395 420.171 496.326 419.944 495.879 420.009C495.788 420.024 495.705 420.034 495.615 420.042C495.509 420.056 495.406 420.055 495.301 420.061C495.055 420.075 495.896 420.093 495.649 420.062C495.577 420.051 495.509 420.056 495.437 420.045C495.32 420.034 495.206 420.009 495.09 419.991C494.874 419.951 494.515 419.785 495.201 420.038C494.943 419.939 494.682 419.855 494.434 419.735C494.296 419.67 494.159 419.597 494.029 419.525C493.968 419.494 493.889 419.43 493.818 419.404C493.854 419.417 494.282 419.712 493.988 419.504C493.954 419.484 493.7 419.26 493.676 419.271C493.714 419.263 494.043 419.727 493.888 419.482C493.846 419.416 493.805 419.35 493.761 419.299C493.642 419.155 493.947 419.579 493.924 419.583C493.916 419.589 493.816 419.323 493.81 419.314C493.8 419.283 493.74 419.141 493.751 419.12C493.73 419.161 493.874 419.716 493.803 419.313C493.777 419.146 493.75 418.98 493.74 418.808C493.736 418.733 493.727 418.65 493.725 418.569C493.723 418.48 493.722 418.102 493.714 418.493C493.703 418.906 493.729 418.251 493.737 418.149C493.753 417.951 493.776 417.748 493.806 417.553C493.873 417.119 493.961 416.688 494.071 416.261C494.353 415.143 493.334 413.876 492.234 413.76C490.96 413.623 490.035 414.399 489.733 415.596C489.298 417.32 489.089 419.316 489.761 421.01C490.483 422.822 492.363 423.784 494.156 424.251C496.669 424.896 499.189 423.617 500.571 421.505C501.219 420.509 501.644 419.524 501.974 418.383C502.118 417.88 501.867 417.153 501.573 416.753C501.255 416.319 500.683 415.943 500.138 415.881C499.571 415.817 498.963 415.916 498.508 416.283C498.022 416.697 497.812 417.153 497.639 417.748Z" fill="#553529"/>
<path d="M503.725 432.739C503.63 432.828 503.507 432.906 503.412 432.995C503.124 433.276 503.717 432.886 503.321 433.055C502.909 433.236 502.506 433.403 502.077 433.545C501.243 433.817 500.592 433.961 499.585 434.11C499.093 434.183 498.603 434.241 498.104 434.26C497.993 434.266 497.379 434.26 497.894 434.28C497.666 434.275 497.44 434.247 497.207 434.226C495.874 434.089 494.543 433.885 493.225 433.601C490.747 433.066 488.271 432.228 486.091 430.902C484.38 429.855 482.666 428.386 481.96 426.716C480.863 424.121 476.77 425.721 477.879 428.333C480.239 433.89 486.73 436.631 492.231 437.867C494.842 438.452 497.546 438.866 500.214 438.454C502.169 438.154 504.816 437.687 506.328 436.276C507.191 435.469 507.557 434.244 506.797 433.21C506.154 432.342 504.597 431.926 503.725 432.739Z" fill="#553529"/>
<path d="M443.175 437.923C439.792 442.614 436.454 448.555 437.358 454.583C438.068 459.317 441.397 462.795 445.545 464.896C450.022 467.166 455.24 467.973 460.211 468.084C465.764 468.21 471.304 467.55 476.628 465.932C480.944 464.618 485.458 462.542 488.411 459.014C488.693 458.672 488.954 458.32 489.196 457.95C489.837 456.953 489.865 455.662 488.87 454.866C488.027 454.182 486.428 454.188 485.786 455.192C485.311 455.926 484.706 456.492 484.166 457.164C484.112 457.23 484.561 456.81 484.227 457.107C484.15 457.176 484.064 457.252 483.987 457.322C483.807 457.479 483.629 457.629 483.444 457.771C483.065 458.076 482.665 458.362 482.261 458.633C481.833 458.915 481.393 459.181 480.954 459.439C480.587 459.657 481.146 459.343 481.018 459.405C480.906 459.461 480.801 459.519 480.696 459.577C480.454 459.703 480.214 459.822 479.974 459.94C478.958 460.436 477.908 460.867 476.843 461.251C475.731 461.65 474.606 461.988 473.471 462.295C473.394 462.313 472.932 462.435 473.263 462.352C473.593 462.27 473.132 462.384 473.055 462.402C472.725 462.477 472.403 462.553 472.073 462.629C471.453 462.763 470.835 462.883 470.212 462.994C467.724 463.435 465.2 463.684 462.674 463.748C462.027 463.767 461.385 463.758 460.74 463.762C460.6 463.763 461.197 463.773 460.74 463.762C460.594 463.755 460.446 463.754 460.299 463.747C459.952 463.738 459.614 463.723 459.27 463.7C458.045 463.63 456.827 463.51 455.611 463.339C454.423 463.171 453.244 462.946 452.075 462.656C451.81 462.593 451.554 462.524 451.3 462.448C450.987 462.363 451.059 462.374 451.355 462.472C451.207 462.427 451.058 462.382 450.917 462.338C450.388 462.168 449.853 461.99 449.337 461.785C448.366 461.407 447.419 460.973 446.515 460.449C446.4 460.38 446.279 460.302 446.162 460.24C446.039 460.177 446.599 460.529 446.251 460.291C446.043 460.148 445.835 460.012 445.634 459.87C445.241 459.588 444.858 459.285 444.493 458.963C444.33 458.82 444.168 458.669 444.008 458.511C443.931 458.433 443.854 458.354 443.777 458.276C444.069 458.543 444.01 458.541 443.798 458.286C443.51 457.946 443.23 457.6 442.976 457.228C442.842 457.037 442.724 456.842 442.606 456.646C442.429 456.353 442.59 456.562 442.669 456.767C442.62 456.655 442.556 456.542 442.498 456.437C442.295 456.021 442.118 455.587 441.978 455.144C441.942 455.042 441.921 454.935 441.885 454.834C441.753 454.443 441.934 455.093 441.91 454.963C441.872 454.728 441.805 454.488 441.767 454.253C441.687 453.76 441.639 453.257 441.626 452.759C441.622 452.64 441.625 452.522 441.621 452.403C441.6 452.015 441.589 452.901 441.62 452.506C441.643 452.214 441.651 451.919 441.688 451.629C441.747 451.053 441.849 450.484 441.972 449.926C442.037 449.647 442.115 449.378 442.179 449.107C442.278 448.7 442.042 449.515 442.178 449.114C442.232 448.952 442.28 448.782 442.343 448.614C442.561 447.966 442.814 447.324 443.095 446.701C443.4 446.016 443.733 445.341 444.086 444.678C444.262 444.35 444.444 444.03 444.627 443.71C444.725 443.547 444.818 443.377 444.917 443.214C445.047 442.997 444.889 443.254 444.877 443.282C444.947 443.167 445.015 443.059 445.092 442.945C445.578 442.183 446.086 441.432 446.62 440.7C447.314 439.741 447.255 438.393 446.293 437.616C445.383 436.892 443.87 436.964 443.175 437.923Z" fill="#553529"/>
<path d="M498.336 549.994C496.769 556.547 496.304 563.395 495.569 570.075C494.638 578.509 493.697 586.963 492.037 595.285C491.6 597.46 491.12 599.622 490.548 601.761C490.252 602.87 490.129 603.288 489.814 604.283C489.511 605.243 489.181 606.191 488.822 607.135C488.401 608.24 488.802 609.53 489.931 610.036C490.97 610.499 492.408 610.046 492.831 608.927C495.707 601.368 497.035 593.239 498.154 585.264C499.296 577.092 500.045 568.874 501.055 560.689C501.466 557.334 501.897 553.944 502.683 550.653C502.956 549.496 501.952 548.321 500.846 548.151C499.587 547.966 498.617 548.838 498.336 549.994Z" fill="#553529"/>
<path d="M398.432 473.961C396.209 478.371 394.342 482.969 392.571 487.574C389.963 494.352 387.627 501.238 385.54 508.192C383.07 516.383 380.919 524.674 379.211 533.063C377.483 541.581 376.191 550.204 375.681 558.887C375.195 567.027 375.313 575.288 376.804 583.324C376.976 584.231 377.162 585.14 377.364 586.044C377.623 587.201 378.533 588.118 379.799 587.971C380.883 587.849 381.984 586.701 381.726 585.536C380.882 581.825 380.365 578.053 380.081 574.258C379.935 572.267 379.85 570.264 379.815 568.268C379.781 566.124 379.805 564.47 379.88 562.439C380.21 553.869 381.339 545.34 382.926 536.925C384.505 528.554 386.545 520.268 388.924 512.086C389.084 511.525 389.068 511.582 389.235 511.023C389.385 510.528 389.536 510.026 389.686 509.531C389.97 508.59 390.262 507.651 390.554 506.712C391.121 504.897 391.71 503.085 392.312 501.283C393.418 497.975 394.58 494.69 395.799 491.421C397.628 486.536 399.575 481.662 401.841 476.963C402.037 476.556 402.231 476.157 402.433 475.758C402.965 474.7 402.377 473.323 401.324 472.858C400.202 472.353 398.964 472.903 398.432 473.961Z" fill="#553529"/>
<path d="M444.478 436.038C426.043 432.671 407.303 440.032 393.133 451.609C385.368 457.952 378.687 465.711 372.813 473.809C366.723 482.207 361.498 491.24 357.244 500.696C350.802 515.012 347.05 530.31 344.534 545.76C343.318 553.21 342.407 560.744 342.33 568.295C342.273 573.784 342.319 580.481 346.464 584.624C350.742 588.913 357.667 589.457 363.376 589.385C367.958 589.325 372.564 588.721 377.037 587.735C377.298 587.678 377.559 587.615 377.82 587.551C378.966 587.268 379.892 586.396 379.747 585.116C379.622 584.054 378.466 582.907 377.312 583.189C374.135 583.982 370.843 584.454 367.585 584.761C366.136 584.894 364.687 584.983 363.232 585.011C362.921 585.016 362.609 585.02 362.298 585.024C362.113 585.025 361.92 585.025 361.736 585.019C361.107 585.019 362.199 585.038 361.574 585.016C360.823 584.99 360.073 584.956 359.328 584.894C357.874 584.775 356.418 584.566 354.997 584.23C354.712 584.164 354.428 584.084 354.143 584.01C354.704 584.163 353.713 583.87 353.552 583.809C352.921 583.586 352.301 583.328 351.704 583.029C351.415 582.882 351.128 582.727 350.851 582.558C351.36 582.858 350.664 582.426 350.538 582.333C350.285 582.146 350.034 581.952 349.799 581.746C349.681 581.646 349.565 581.532 349.455 581.427C349.008 581.018 349.524 581.556 349.302 581.27C348.943 580.808 348.597 580.363 348.288 579.872C348.597 580.363 348.148 579.576 348.082 579.426C347.934 579.092 347.815 578.756 347.706 578.406C347.627 578.15 347.556 577.887 347.491 577.633C347.67 578.304 347.468 577.496 347.437 577.358C347.299 576.716 347.192 576.063 347.1 575.405C346.916 574.097 346.816 572.771 346.759 571.453C346.616 568.093 346.712 565.629 346.965 562.146C347.229 558.442 347.655 554.748 348.175 551.068C349.251 543.471 350.712 535.918 352.5 528.452C354.177 521.471 355.838 515.754 358.512 508.979C365.766 490.622 376.638 473.286 390.832 459.478C403.042 447.601 420.138 438.752 437.412 439.602C439.564 439.71 441.701 439.963 443.825 440.348C446.592 440.883 447.257 436.545 444.478 436.038Z" fill="#553529"/>
<path d="M478.136 425.648C474.405 428.362 471.484 434.041 474.95 438.028C478.009 441.538 482.895 442.828 487.408 442.447C491.359 442.112 495.045 440.509 498.398 438.478C499.41 437.863 499.523 436.305 498.868 435.412C498.115 434.387 496.814 434.328 495.803 434.942C493.437 436.378 490.812 437.522 488.121 437.938C487.552 438.029 486.988 438.09 486.413 438.121C485.742 438.158 485.667 438.162 485.183 438.132C484.692 438.101 484.197 438.047 483.707 437.965C483.475 437.929 483.246 437.879 483.01 437.828C482.881 437.801 482.753 437.767 482.624 437.739C482.58 437.733 482.175 437.626 482.438 437.696C482.68 437.763 482.1 437.585 482.001 437.555C481.804 437.488 481.601 437.412 481.406 437.331C481.01 437.166 480.615 436.987 480.24 436.782C480.144 436.73 479.669 436.45 479.919 436.607C480.169 436.764 479.725 436.474 479.637 436.416C479.336 436.207 479.053 435.978 478.78 435.737C478.663 435.63 478.554 435.517 478.43 435.409C478.149 435.166 478.726 435.795 478.425 435.394C478.246 435.159 478.067 434.932 477.895 434.698C477.644 434.356 477.934 434.786 477.927 434.784C477.905 434.685 477.826 434.569 477.781 434.481C477.737 434.378 477.663 434.041 477.711 434.307C477.682 434.162 477.674 434.021 477.667 433.871C477.682 434.111 477.655 433.951 477.678 433.799C477.793 433.099 477.795 433.033 478.161 432.29C478.428 431.753 478.537 431.578 478.981 430.995C479.323 430.551 479.69 430.134 480.07 429.733C480.432 429.352 479.906 429.834 480.269 429.542C480.413 429.423 480.55 429.304 480.699 429.201C483.014 427.521 480.418 423.985 478.136 425.648Z" fill="#553529"/>
<path d="M486.923 458.689C491.132 458.742 495.393 458.322 499.551 457.695C505.089 456.856 510.72 455.559 515.803 453.149C521.469 450.458 526.532 446.639 530.929 442.185C537.844 435.164 542.832 426.331 545.742 416.95C550.145 402.759 550.377 387.395 548.11 372.788C546.246 360.81 541.903 348.882 533.629 339.814C527.49 333.086 519.632 328.204 510.958 325.46C504.36 323.369 497.538 322.397 490.624 322.321C487.469 322.289 484.217 322.36 481.108 322.941C474.853 324.114 469.046 327.094 464.183 331.158C455.231 338.629 449.316 349.169 445.265 359.952C443.826 363.786 442.611 367.707 441.539 371.657C442.174 371.044 442.816 370.424 443.45 369.811C438.056 370.294 432.619 373.753 429.678 378.215C426.844 382.509 425.78 387.763 425.644 392.848C425.512 397.764 426.154 402.894 428.499 407.294C430.986 411.967 435.233 415.349 440.656 415.699C440.043 414.865 439.431 414.031 438.819 413.197C438.423 415.682 438.495 418.305 438.72 420.797C439.217 426.29 440.933 431.651 443.872 436.327C445.973 439.661 448.761 442.567 451.924 444.91C452.874 445.618 454.242 445.531 455.008 444.583C455.729 443.695 455.64 442.201 454.682 441.499C449.751 437.85 446.388 433.19 444.502 427.44C444.3 426.825 444.121 426.205 443.95 425.587C443.926 425.502 443.849 425.179 443.949 425.594C443.913 425.441 443.876 425.295 443.84 425.141C443.764 424.819 443.696 424.49 443.628 424.161C443.404 423.061 443.235 421.948 443.118 420.827C443.018 419.887 442.955 418.945 442.93 418.001C442.916 417.607 442.918 417.208 442.919 416.816C442.916 416.741 442.921 416.66 442.924 416.587C442.925 416.15 442.903 417.161 442.924 416.735C442.935 416.566 442.933 416.388 442.944 416.22C442.976 415.433 443.023 414.641 443.149 413.869C443.324 412.771 442.492 411.444 441.312 411.367C440.821 411.336 440.334 411.284 439.85 411.202C439.598 411.156 439.346 411.11 439.097 411.05C438.989 411.026 438.89 410.996 438.783 410.972C438.427 410.88 439.079 411.069 438.733 410.957C438.303 410.817 437.877 410.655 437.469 410.467C437.248 410.367 437.035 410.26 436.823 410.146C436.734 410.095 436.646 410.045 436.557 409.994C436.21 409.8 436.638 410.051 436.436 409.917C436.067 409.668 435.715 409.406 435.374 409.125C435.216 408.997 435.06 408.855 434.91 408.721C434.813 408.632 434.331 408.151 434.567 408.402C433.918 407.71 433.348 406.942 432.85 406.133C432.802 406.059 432.469 405.483 432.63 405.781C432.527 405.588 432.423 405.394 432.328 405.195C432.096 404.73 431.881 404.246 431.689 403.765C431.491 403.268 431.31 402.759 431.144 402.253C430.983 401.755 430.844 401.26 430.776 400.983C430.25 398.815 430.016 396.574 429.988 394.343C429.96 392.304 430.209 389.811 430.64 387.583C431.066 385.384 431.656 383.462 432.81 381.441C432.851 381.366 433.136 380.906 432.97 381.169C433.105 380.961 433.248 380.753 433.391 380.546C433.673 380.152 433.969 379.768 434.278 379.394C434.557 379.067 434.843 378.748 435.149 378.44C435.245 378.344 435.572 378.046 435.298 378.292C435.486 378.129 435.667 377.957 435.862 377.794C436.474 377.281 437.116 376.81 437.795 376.389C437.958 376.288 438.129 376.188 438.292 376.087C438.365 376.047 438.438 376.006 438.504 375.964C438.771 375.813 438.166 376.142 438.438 376.006C438.758 375.848 439.081 375.676 439.407 375.526C440.029 375.236 440.674 374.987 441.321 374.768C441.617 374.673 441.92 374.579 442.215 374.491C442.246 374.481 442.571 374.39 442.57 374.397C442.568 374.405 441.987 374.53 442.485 374.421C442.974 374.319 443.464 374.209 443.959 374.166C445.002 374.075 445.618 373.244 445.87 372.321C447.798 365.202 450.32 358.211 453.729 351.659C455.167 348.89 456.367 346.861 458.092 344.388C459.497 342.368 461.031 340.428 462.693 338.611C463.083 338.19 463.473 337.768 463.877 337.357C464.07 337.157 464.271 336.958 464.47 336.767C464.601 336.639 465.163 336.111 464.774 336.473C465.542 335.762 466.315 335.066 467.126 334.406C468.573 333.222 470.093 332.138 471.692 331.17C472.035 330.963 472.397 330.774 472.74 330.561C472.994 330.4 472.241 330.825 472.627 330.625C472.7 330.584 472.773 330.543 472.844 330.51C473.054 330.394 473.271 330.287 473.488 330.172C474.17 329.825 474.856 329.501 475.561 329.202C476.773 328.678 478.018 328.232 479.281 327.863C479.552 327.787 479.822 327.71 480.092 327.64C480.664 327.483 479.794 327.705 480.031 327.653C480.162 327.621 480.292 327.589 480.43 327.559C480.921 327.449 481.41 327.346 481.904 327.259C482.672 327.125 483.451 327.015 484.231 326.95C485.477 326.837 486.723 326.77 487.972 326.732C489.028 326.694 490.08 326.685 491.136 326.699C491.292 326.7 491.445 326.716 491.595 326.702C490.759 326.745 491.373 326.698 491.572 326.706C491.897 326.712 492.228 326.725 492.551 326.738C493.25 326.764 493.947 326.804 494.65 326.853C497.937 327.083 501.206 327.532 504.427 328.241C505.308 328.435 506.179 328.642 507.053 328.873C507.487 328.991 507.92 329.109 508.352 329.234C507.657 329.039 508.479 329.276 508.614 329.312C508.869 329.388 509.122 329.471 509.377 329.547C511.253 330.153 513.099 330.85 514.901 331.652C516.819 332.508 518.69 333.483 520.493 334.559C520.514 334.569 520.966 334.853 520.662 334.666C520.357 334.479 520.81 334.763 520.83 334.773C521.039 334.909 521.241 335.036 521.45 335.172C521.934 335.49 522.41 335.815 522.884 336.146C523.799 336.79 524.693 337.475 525.561 338.185C526.456 338.914 527.322 339.683 528.162 340.478C528.549 340.848 528.929 341.217 529.3 341.6C529.428 341.73 529.55 341.852 529.678 341.983C529.621 341.922 529.386 341.665 529.666 341.966C529.895 342.209 530.116 342.457 530.338 342.698C532.007 344.553 533.523 346.539 534.89 348.628C535.256 349.187 535.606 349.752 535.947 350.322C536.124 350.615 536.294 350.908 536.457 351.199C536.527 351.321 536.591 351.434 536.661 351.556C536.905 351.993 536.57 351.379 536.788 351.79C537.463 353.033 538.089 354.306 538.668 355.601C539.925 358.406 540.96 361.31 541.809 364.267C543.791 371.223 544.708 379 545.02 386.426C545.319 393.45 544.936 400.488 543.626 407.442C543.339 408.975 543.002 410.499 542.622 412.01C542.45 412.701 542.263 413.39 542.069 414.071C542.02 414.248 541.971 414.426 541.914 414.602C542.019 414.256 541.913 414.609 541.89 414.665C541.759 415.082 541.637 415.492 541.499 415.907C540.669 418.474 539.697 421.003 538.56 423.449C538.028 424.603 537.454 425.736 536.853 426.857C536.575 427.37 536.289 427.881 535.998 428.384C535.847 428.642 535.695 428.907 535.538 429.164C535.478 429.266 535.41 429.367 535.35 429.469C535.083 429.909 535.526 429.192 535.273 429.59C534.056 431.49 532.781 433.337 531.371 435.104C530.099 436.692 528.739 438.223 527.298 439.66C527.132 439.827 526.958 440 526.784 440.165C526.697 440.248 526.237 440.696 526.479 440.466C526.722 440.23 526.256 440.669 526.176 440.753C525.976 440.944 525.771 441.128 525.565 441.311C524.913 441.899 524.239 442.476 523.554 443.037C521.304 444.875 518.913 446.522 516.391 447.963C516.22 448.062 515.769 448.4 516.415 447.951C516.299 448.03 516.157 448.09 516.035 448.16C515.792 448.293 515.551 448.418 515.31 448.544C514.876 448.766 514.435 448.987 513.989 449.193C512.291 449.991 510.534 450.639 508.746 451.201C502.634 453.128 496.168 453.986 489.788 454.288C488.663 454.338 487.53 454.386 486.408 454.37C485.219 454.358 484.364 455.736 484.481 456.805C484.636 458.064 485.734 458.669 486.923 458.689Z" fill="#553529"/>
<path d="M434.329 385.775C433.159 387.468 432.388 389.407 431.884 391.394C430.918 395.183 431.596 399.157 433.834 402.371C434.489 403.315 435.996 403.569 436.9 402.841C437.845 402.083 438.067 400.778 437.37 399.776C437.225 399.561 437.08 399.347 436.944 399.126C436.884 399.035 436.832 398.938 436.779 398.849C436.885 399.028 436.874 399.004 436.753 398.778C436.588 398.405 436.414 398.046 436.28 397.663C436.213 397.475 436.16 397.289 436.1 397.102C435.945 396.612 436.132 397.373 436.054 396.917C435.981 396.522 435.908 396.133 435.873 395.735C435.835 395.352 435.828 394.966 435.82 394.58C435.829 395.151 435.829 394.574 435.836 394.479C435.847 394.311 435.858 394.142 435.876 393.975C435.952 393.283 436.081 392.593 436.258 391.917C436.397 391.398 436.26 391.902 436.26 391.902C436.253 391.901 436.375 391.542 436.398 391.487C436.493 391.205 436.595 390.925 436.711 390.654C436.89 390.208 437.091 389.765 437.313 389.333C437.471 389.024 437.672 388.73 437.816 388.419C437.462 389.178 437.602 388.749 437.745 388.541C438.393 387.597 438.423 386.196 437.419 385.457C436.522 384.787 435.024 384.764 434.329 385.775Z" fill="#553529"/>
<path d="M514.109 374.272C509.207 372.122 465.842 358.37 453.696 372.825C448.961 378.463 444.528 394.152 443.688 371.979C443.564 368.733 438.066 375.587 438.73 370.383C441.55 348.512 456.448 312.346 493.973 312.682C546.177 313.137 542.339 339.329 568.67 352.156C591.298 363.166 548.123 389.21 514.109 374.272Z" fill="white"/>
<path d="M515.007 372.271C511.845 370.891 508.409 369.987 505.095 369.064C499.525 367.507 493.859 366.232 488.144 365.333C481.886 364.352 475.461 363.781 469.13 364.291C463.841 364.715 458.061 365.975 453.928 369.523C451.978 371.192 450.628 373.235 449.331 375.426C448.741 376.423 448.179 377.432 447.596 378.438C447.484 378.636 447.365 378.832 447.254 379.03C447.164 379.179 446.683 379.956 447.075 379.328C446.801 379.759 446.529 380.184 446.229 380.597C446.022 380.883 445.776 381.141 445.556 381.418C445.245 381.8 446.012 381.044 445.558 381.404C445.13 381.731 445.644 381.373 445.659 381.368C445.461 381.456 445.315 381.396 445.996 381.294C445.762 381.324 445.747 381.233 446.378 381.315C446.145 381.287 446.166 381.201 446.744 381.438C446.549 381.356 446.486 381.235 447.033 381.63C446.613 381.329 447.378 382.031 447.119 381.74C447.076 381.688 447.047 381.632 447.01 381.582C446.842 381.327 447.232 382.164 447.072 381.666C447 381.455 446.906 381.248 446.836 381.03C446.796 380.906 446.764 380.775 446.724 380.65C446.906 381.248 446.746 380.75 446.721 380.62C446.568 379.879 446.446 379.135 446.347 378.38C446.064 376.124 446.11 373.844 445.857 371.586C445.658 369.838 444.217 368.619 442.447 368.917C441.414 369.092 440.575 369.688 439.633 370.091C439.427 370.178 438.711 370.364 439.5 370.189C439.416 370.206 439.326 370.214 439.243 370.224C439.362 370.22 440.164 370.395 440.026 370.329C440.412 370.514 440.69 370.779 440.858 371.175C440.712 370.827 440.97 371.651 440.896 371.365C440.868 371.257 440.878 371.141 440.866 371.028C440.944 371.632 440.888 370.883 440.907 370.709C441.055 369.458 441.261 368.21 441.487 366.979C441.976 364.272 442.595 361.584 443.341 358.938C443.378 358.796 443.638 357.918 443.474 358.456C443.58 358.102 443.685 357.755 443.79 357.409C444.009 356.702 444.236 355.997 444.47 355.293C444.956 353.858 445.47 352.435 446.034 351.026C447.182 348.124 448.499 345.277 449.985 342.53C450.335 341.888 450.684 341.254 451.055 340.622C451.256 340.276 451.456 339.936 451.664 339.591C451.686 339.55 452.031 338.988 451.783 339.394C451.922 339.164 452.067 338.942 452.205 338.719C453.026 337.417 453.895 336.144 454.81 334.908C456.733 332.302 458.858 329.838 461.194 327.584C461.679 327.118 460.884 327.869 461.375 327.412C461.523 327.272 461.677 327.133 461.823 327C462.073 326.771 462.33 326.544 462.587 326.317C463.254 325.731 463.94 325.163 464.639 324.612C465.935 323.59 467.289 322.628 468.69 321.74C470.206 320.781 471.048 320.311 472.609 319.544C474.161 318.783 475.759 318.11 477.387 317.531C480.863 316.288 483.988 315.598 487.774 315.179C492.012 314.711 496.286 314.826 500.532 315.078C504.808 315.326 509.08 315.796 513.294 316.598C515.091 316.94 516.886 317.348 518.648 317.825C518.854 317.879 519.067 317.941 519.273 317.995C519.308 318.008 519.989 318.201 519.529 318.064C519.862 318.16 520.201 318.263 520.532 318.373C521.373 318.635 522.201 318.925 523.029 319.222C525.733 320.214 528.36 321.423 530.855 322.864C531.147 323.035 531.438 323.212 531.737 323.384C532.233 323.675 531.347 323.132 531.824 323.442C531.966 323.53 532.108 323.619 532.25 323.707C532.803 324.058 533.353 324.431 533.888 324.802C534.93 325.531 535.945 326.301 536.923 327.109C538.79 328.639 540.542 330.291 542.233 332.008C542.425 332.2 542.617 332.4 542.801 332.598C542.903 332.703 543.004 332.815 543.107 332.919C543.471 333.293 542.776 332.565 543.132 332.945C543.54 333.378 543.947 333.81 544.347 334.241C545.146 335.111 545.945 335.981 546.736 336.857C548.426 338.722 550.118 340.573 551.877 342.374C555.489 346.08 559.433 349.364 563.871 352.034C565.09 352.769 566.334 353.441 567.613 354.073C568.191 354.362 568.753 354.655 569.303 354.976C568.794 354.676 569.618 355.187 569.752 355.282C570.032 355.48 570.311 355.686 570.58 355.912C570.758 356.058 570.934 356.21 571.109 356.37C571.207 356.459 571.302 356.563 571.399 356.652C571.742 356.971 571.089 356.264 571.366 356.624C571.67 357.011 571.967 357.39 572.238 357.794C572.341 357.943 572.437 358.283 572.192 357.706C572.236 357.808 572.302 357.907 572.338 358.009C572.425 358.215 572.513 358.413 572.584 358.624C572.62 358.726 572.641 358.833 572.684 358.935C572.829 359.298 572.627 358.49 572.639 358.751C572.649 358.974 572.724 359.208 572.749 359.434C572.766 359.562 572.853 359.96 572.783 360.075C572.882 359.913 572.826 359.505 572.779 359.912C572.769 360.022 572.761 360.124 572.752 360.233C572.731 360.415 572.704 360.596 572.669 360.776C572.645 360.883 572.621 360.99 572.597 361.098C572.495 361.667 572.758 360.723 572.608 361.077C572.443 361.474 572.314 361.883 572.128 362.276C572.02 362.497 571.898 362.715 571.783 362.934C571.711 363.063 571.455 363.431 571.819 362.888C571.723 363.036 571.634 363.177 571.531 363.324C570.891 364.262 570.126 365.1 569.322 365.901C569.717 365.503 569.193 366.022 569.048 366.148C568.808 366.363 568.569 366.57 568.324 366.769C567.807 367.193 567.279 367.601 566.738 367.992C566.165 368.399 565.578 368.798 564.973 369.171C564.687 369.35 564.402 369.52 564.108 369.697C563.978 369.774 563.84 369.856 563.702 369.931C563.596 369.996 563.484 370.053 563.378 370.118C563.595 370.004 563.588 370.002 563.369 370.124C561.959 370.877 560.528 371.568 559.05 372.185C555.816 373.539 552.417 374.565 549.28 375.238C541.562 376.882 533.957 377.107 526.268 375.714C522.289 374.971 518.746 373.902 515.007 372.271C512.413 371.141 510.622 375.151 513.209 376.28C528.08 382.763 545.96 382.462 560.86 376.163C566.018 373.986 571.577 370.887 574.858 366.188C576.242 364.209 577.164 362.005 577.132 359.558C577.102 357.2 575.945 355.092 574.335 353.431C572.387 351.416 569.819 350.356 567.403 349.024C566.816 348.705 566.239 348.365 565.662 348.024C565.581 347.975 565.088 347.67 565.56 347.964C565.419 347.876 565.269 347.787 565.129 347.691C564.799 347.478 564.469 347.264 564.146 347.052C563.066 346.324 562.015 345.556 560.991 344.755C559.01 343.194 557.148 341.487 555.371 339.706C554.949 339.278 554.526 338.851 554.111 338.417C554.009 338.313 553.908 338.201 553.798 338.095C554.212 338.529 553.855 338.156 553.772 338.069C553.569 337.853 553.365 337.637 553.161 337.421C552.323 336.515 551.487 335.602 550.657 334.691C547.315 331.004 543.969 327.294 540.146 324.089C535.739 320.401 530.729 317.458 525.359 315.413C517.918 312.593 509.97 311.293 502.058 310.776C493.494 310.21 485.013 310.36 476.79 313.073C463.485 317.464 453.278 327.665 446.537 339.685C443.401 345.272 441.028 351.243 439.234 357.391C438.44 360.111 437.772 362.872 437.249 365.656C437.013 366.907 436.806 368.163 436.635 369.424C436.416 370.997 436.251 372.895 437.667 373.986C438.924 374.955 440.473 374.556 441.763 373.911C442.148 373.718 442.529 373.503 442.933 373.328C443.163 373.23 443.818 373.108 443.034 373.247C443.271 373.202 443.419 373.299 442.765 373.221C442.604 373.203 441.989 372.924 441.738 372.582C441.634 372.44 441.418 372.156 441.476 371.972C441.447 372.064 441.51 372.569 441.509 372.577C441.539 373.247 441.569 373.925 441.606 374.597C441.671 375.717 441.751 376.839 441.869 377.952C442.037 379.562 442.258 381.209 442.777 382.746C443.565 385.087 445.896 386.584 448.134 384.922C449.787 383.695 450.8 381.579 451.791 379.843C452.395 378.797 453.001 377.742 453.613 376.697C453.873 376.255 453.34 377.121 453.614 376.689C453.692 376.568 453.762 376.446 453.839 376.332C453.986 376.095 454.139 375.867 454.294 375.632C454.589 375.204 454.891 374.776 455.219 374.375C455.392 374.165 455.572 373.956 455.758 373.755C455.873 373.632 456.549 372.988 456.068 373.425C456.54 373.001 457.024 372.595 457.539 372.23C457.987 371.913 458.452 371.63 458.923 371.354C458.386 371.671 459.228 371.201 459.373 371.127C459.7 370.97 460.028 370.813 460.36 370.672C460.946 370.421 461.549 370.203 462.15 369.999C462.462 369.899 462.773 369.798 463.091 369.706C463.199 369.678 463.307 369.643 463.408 369.614C463.516 369.587 464.239 369.409 463.671 369.544C465.09 369.214 466.529 368.953 467.976 368.783C469.452 368.61 470.94 368.512 472.426 368.474C473.199 368.451 473.961 368.45 474.737 368.458C474.803 368.461 475.453 368.471 474.93 368.458C475.128 368.466 475.32 368.466 475.519 368.474C475.976 368.485 476.439 368.504 476.894 368.53C483.285 368.836 489.632 369.868 495.873 371.247C498.636 371.855 501.38 372.542 504.106 373.293C504.688 373.456 505.27 373.62 505.85 373.79C506.482 373.968 505.497 373.684 506.112 373.867C506.416 373.958 506.728 374.05 507.032 374.141C507.987 374.428 508.94 374.73 509.89 375.046C511.003 375.416 512.116 375.779 513.191 376.255C515.803 377.41 517.595 373.4 515.007 372.271Z" fill="#553529"/>
<path d="M493.719 460.403C497.416 462.014 501.044 463.791 504.567 465.766C505.561 466.326 506.554 466.9 507.529 467.486C507.767 467.626 508.003 467.773 508.24 467.92C507.828 467.665 508.618 468.156 508.713 468.215C509.225 468.538 509.738 468.86 510.243 469.189C512.41 470.595 514.528 472.081 516.591 473.64C526.471 481.112 534.672 489.984 541.573 500.284C546.426 507.533 550.446 515.29 553.777 523.349C554.857 525.956 558.943 524.355 557.857 521.732C552.139 507.913 544.365 494.859 534.218 483.817C526.565 475.48 517.751 468.387 507.977 462.685C503.949 460.336 499.776 458.254 495.503 456.392C492.922 455.271 491.132 459.274 493.719 460.403Z" fill="#553529"/>
<path d="M501.049 512.268C505.748 511.782 510.608 512.372 515.097 513.837C517.133 514.504 519.124 515.327 520.992 516.369C521.783 516.808 522.101 516.997 522.905 517.594C523.231 517.837 523.548 518.085 523.855 518.347C523.999 518.472 524.143 518.598 524.279 518.722C524.357 518.794 524.824 519.272 524.454 518.883C525.262 519.746 526.486 520.112 527.52 519.352C528.387 518.716 528.804 517.152 527.99 516.287C525.032 513.133 520.947 511.159 516.88 509.833C511.616 508.116 506.052 507.337 500.525 507.91C497.728 508.199 498.229 512.561 501.049 512.268Z" fill="#553529"/>
<path d="M503.283 503.052C504.284 503.812 505.247 504.625 506.155 505.505C506.349 505.69 506.534 505.881 506.72 506.072C507.072 506.43 506.383 505.71 506.721 506.065C506.81 506.16 506.905 506.263 506.994 506.358C507.311 506.703 507.619 507.061 507.926 507.419C509.131 508.832 510.268 510.294 511.609 511.587C512.441 512.388 514.03 512.158 514.693 511.261C515.449 510.237 515.258 509.024 514.367 508.177C514.206 508.019 514.053 507.855 513.891 507.704C513.983 507.785 514.254 508.093 514.013 507.827C513.937 507.748 513.861 507.663 513.791 507.585C513.519 507.285 513.255 506.978 512.993 506.664C512.43 505.993 511.877 505.301 511.298 504.636C509.716 502.795 507.975 501.114 506.048 499.642C505.133 498.947 503.683 498.991 502.964 499.969C502.274 500.899 502.309 502.31 503.283 503.052Z" fill="#553529"/>
<path d="M472.296 501.676C467.302 499.594 462.156 497.828 457.512 495.007C452.483 491.95 448.805 486.687 442.861 485.058C440.979 484.547 438.887 484.582 437.132 485.504C435.33 486.449 434.041 488.049 433.245 489.91C431.402 494.208 431.217 499.715 434.416 503.417C437.86 507.401 443.138 508.935 448.041 510.257C449.185 510.565 450.377 509.498 450.543 508.42C450.739 507.141 449.857 506.228 448.706 505.919C448.293 505.811 447.882 505.696 447.47 505.581C447.264 505.527 447.066 505.467 446.861 505.406C446.769 505.378 446.443 505.283 446.888 505.418C446.768 505.385 446.648 505.344 446.527 505.311C445.552 505.013 444.588 504.688 443.638 504.32C442.695 503.954 441.767 503.538 440.872 503.053C440.668 502.94 440.463 502.827 440.259 502.707C440.606 502.908 440.085 502.592 439.984 502.524C439.548 502.228 439.129 501.92 438.731 501.577C438.56 501.433 438.391 501.281 438.223 501.122C438.133 501.034 438.036 500.946 437.947 500.85C438.01 500.919 438.197 501.148 437.942 500.835C437.644 500.456 437.352 500.093 437.09 499.683C436.822 499.257 437.087 499.749 436.945 499.417C436.841 499.179 436.729 498.947 436.64 498.704C436.593 498.578 436.434 498.073 436.478 498.22C436.542 498.474 436.443 498.06 436.436 498.007C436.403 497.839 436.378 497.665 436.352 497.498C436.316 497.248 436.302 497.002 436.288 496.756C436.283 496.644 436.278 496.532 436.279 496.429C436.284 496.777 436.277 496.391 436.285 496.341C436.323 495.799 436.378 495.252 436.461 494.71C436.528 494.269 436.602 493.836 436.706 493.401C436.757 493.165 436.822 492.93 436.881 492.695C436.757 493.165 436.91 492.603 436.973 492.428C437.103 492.063 437.247 491.708 437.412 491.356C437.499 491.169 437.609 490.986 437.704 490.801C437.841 490.534 437.484 491.078 437.809 490.647C438.024 490.354 438.25 490.086 438.498 489.82C438.658 489.645 438.341 489.974 438.342 489.967C438.417 489.912 438.479 489.847 438.554 489.792C438.696 489.688 438.859 489.587 438.995 489.475C439.214 489.301 438.594 489.628 439.099 489.424C439.248 489.366 439.397 489.314 439.548 489.249C439.984 489.057 439.242 489.261 439.603 489.228C439.791 489.205 439.983 489.16 440.178 489.145C440.403 489.121 440.843 489.151 440.346 489.112C440.536 489.126 440.72 489.132 440.908 489.161C441.104 489.184 441.299 489.214 441.492 489.258C441.607 489.283 441.72 489.315 441.836 489.333C442.254 489.405 441.626 489.256 441.894 489.342C444.289 490.131 446.067 491.417 448.002 493.039C449.215 494.053 450.314 495.191 451.538 496.185C452.59 497.042 453.715 497.814 454.872 498.524C459.791 501.572 465.187 503.495 470.501 505.708C473.106 506.773 474.903 502.772 472.296 501.676Z" fill="#553529"/>
<path d="M452.335 519.951C449.196 520.106 446.093 520.793 443.147 521.865C440.584 522.797 438.006 524.17 437.038 526.908C436.297 528.992 436.478 531.284 437.329 533.316C438.066 535.072 439.173 536.877 440.58 538.173C442.81 540.232 445.998 540.432 448.852 539.967C450.021 539.776 450.919 538.745 450.779 537.532C450.643 536.393 449.52 535.415 448.344 535.604C447.707 535.707 447.068 535.771 446.426 535.806C446.052 535.83 446.422 535.835 446.071 535.804C445.786 535.782 445.509 535.754 445.228 535.704C445.098 535.684 444.536 535.539 444.754 535.609C445.008 535.692 444.427 535.478 444.358 535.445C444.198 535.376 444.055 535.295 443.904 535.22C444.323 535.432 443.865 535.184 443.713 535.065C443.567 534.954 443.431 534.829 443.295 534.705C442.924 534.374 443.407 534.892 443.2 534.601C442.986 534.302 442.747 534.029 442.542 533.723C442.337 533.418 442.149 533.101 441.97 532.777C441.887 532.639 441.812 532.502 441.737 532.364C442.011 532.843 441.714 532.324 441.657 532.211C441.51 531.915 441.379 531.606 441.265 531.293C441.212 531.152 441.177 530.998 441.124 530.857C440.995 530.497 441.128 530.88 441.14 530.948C441.119 530.841 441.09 530.741 441.07 530.634C440.995 530.252 440.965 529.87 440.942 529.49C440.917 529.071 440.884 529.821 440.955 529.403C440.989 529.179 441.024 528.955 441.058 528.73C441.077 528.607 441.198 528.352 441.027 528.792C441.062 528.709 441.082 528.623 441.116 528.547C441.198 528.352 441.285 528.166 441.38 527.981C441.21 528.317 441.38 527.981 441.49 527.842C441.547 527.762 442.032 527.252 441.765 527.499C442.591 526.745 443.402 526.477 444.525 526.05C447.232 525.045 449.948 524.469 452.863 524.324C454.049 524.262 454.914 523.011 454.79 521.889C454.628 520.629 453.528 519.89 452.335 519.951Z" fill="#553529"/>
<path d="M453.804 533.774C451.977 534.056 450.171 534.401 448.555 535.337C447.092 536.186 445.962 537.529 445.248 539.048C443.745 542.236 444.115 546 446.093 548.886C448.028 551.706 451.025 552.913 454.334 553.102C457.173 553.263 460.039 553.007 462.809 552.359C464.091 552.06 465.393 551.726 466.582 551.161C467.515 550.72 468.729 550.048 469.055 548.98C469.406 547.85 469.123 546.608 467.946 546.08C466.962 545.64 465.398 546.044 465.045 547.189C464.931 547.549 465.305 546.844 465.195 546.982C465.158 547.029 465.659 546.661 465.334 546.848C465.229 546.906 465.104 546.998 465.011 547.073C464.826 547.215 465.384 546.908 464.893 547.121C464.139 547.45 463.367 547.709 462.57 547.934C462.523 547.949 462.1 548.055 462.331 548.001C462.538 547.951 462.184 548.038 462.177 548.037C461.917 548.093 461.656 548.157 461.396 548.206C460.847 548.314 460.299 548.415 459.739 548.492C458.581 548.662 457.418 548.765 456.252 548.793C454.514 548.838 452.175 548.746 450.73 547.547C448.958 546.077 448.393 543.97 448.857 541.91C449.063 541.002 449.656 539.931 450.459 539.329C451.553 538.512 452.992 538.348 454.303 538.142C457.101 537.705 456.609 533.338 453.804 533.774Z" fill="#553529"/>
<path d="M456.729 547.706C462.38 546.664 467.851 549.256 473.359 550.108C478.657 550.928 483.938 549.887 488.35 546.782C490.747 545.1 492.66 542.899 494.121 540.371C494.715 539.344 494.016 537.92 493.012 537.47C491.835 536.942 490.706 537.546 490.111 538.579C488.125 542.026 484.38 544.731 480.52 545.634C475.454 546.818 470.444 544.94 465.542 543.848C462.494 543.166 459.312 542.782 456.212 543.357C455.047 543.571 454.141 544.557 454.285 545.793C454.426 546.902 455.557 547.919 456.729 547.706Z" fill="#553529"/>
<path d="M496.87 533.302C498.555 529.113 499.114 524.5 498.693 520.01C498.483 517.81 498.014 515.606 497.275 513.525C496.765 512.07 496.116 510.417 495.174 509.177C494.607 508.432 493.701 507.923 492.92 507.463C491.297 506.518 489.515 505.831 487.735 505.232C484.006 503.972 480.158 503.057 476.302 502.288C474.176 501.866 472.079 501.448 469.901 501.418C467.921 501.395 465.941 501.573 463.978 501.827C460.347 502.291 456.638 502.929 453.144 504.051C449.158 505.334 445.245 507.206 441.748 509.504C440.126 510.573 438.436 511.801 437.509 513.553C436.654 515.168 436.453 517.158 436.689 518.948C437.213 522.913 440.237 526.744 444.619 525.913C445.785 525.692 446.69 524.714 446.547 523.478C446.414 522.363 445.285 521.331 444.112 521.551C443.914 521.587 443.712 521.601 443.521 521.638C442.958 521.737 443.78 521.685 443.46 521.651C443.314 521.636 443.165 521.598 443.018 521.59C442.541 521.562 443.326 521.8 442.926 521.562C442.845 521.512 442.699 521.453 442.621 521.426C442.179 521.269 442.868 521.701 442.534 521.368C442.477 521.308 442.351 521.207 442.27 521.158C442.096 520.99 442.101 521.006 442.292 521.205C442.217 521.12 442.141 521.034 442.067 520.941C441.889 520.7 441.718 520.466 441.572 520.207C441.811 520.628 441.417 519.821 441.376 519.703C441.322 519.569 441.096 518.728 441.19 519.179C441.114 518.805 441.045 518.432 441.014 518.057C441.001 517.899 441.019 517.007 440.979 517.511C441.004 517.204 441.029 516.897 441.075 516.594C441.103 516.413 441.151 516.243 441.186 516.063C441.082 516.55 441.148 516.168 441.205 516.036C441.262 515.905 441.312 515.772 441.37 515.64C441.415 515.536 441.467 515.44 441.52 515.337C441.375 515.559 441.346 515.599 441.441 515.466C441.62 515.212 441.81 514.989 442.028 514.771C441.704 515.099 442.402 514.459 442.504 514.371C443.156 513.834 443.851 513.356 444.558 512.895C447.605 510.927 451.037 509.345 454.544 508.188C454.902 508.072 455.268 507.958 455.632 507.851C455.771 507.813 455.91 507.775 456.042 507.736C456.7 507.549 455.604 507.84 456.212 507.688C456.965 507.508 457.715 507.342 458.465 507.183C460.246 506.812 462.033 506.501 463.831 506.259C465.638 506.011 467.458 505.816 469.286 505.771C469.479 505.763 469.671 505.763 469.857 505.762C469.953 505.762 470.44 505.77 470.042 505.761C470.381 505.769 470.725 505.792 471.061 505.821C472.062 505.908 473.042 506.125 474.028 506.305C476.179 506.709 478.323 507.156 480.45 507.667C481.241 507.863 482.039 508.066 482.828 508.276C483.183 508.375 483.545 508.475 483.9 508.574C484.573 508.766 483.49 508.444 484.14 508.647C484.331 508.706 484.522 508.765 484.712 508.824C486.641 509.423 488.571 510.104 490.367 511.038C490.614 511.164 490.859 511.305 491.097 511.438C491.554 511.693 490.857 511.268 490.97 511.352C491.063 511.418 491.165 511.478 491.266 511.545C491.494 511.699 491.694 511.892 491.914 512.052C492.227 512.277 491.639 511.721 491.653 511.775C491.746 512.226 492.172 512.683 492.39 513.146C493.3 515.076 493.863 517.05 494.166 519.131C494.777 523.302 494.401 527.684 492.861 531.503C492.418 532.605 492.855 533.907 493.97 534.404C495.023 534.876 496.427 534.403 496.87 533.302Z" fill="#553529"/>
<path d="M496.006 513.014C496.827 512.393 497.725 511.842 498.631 511.73C498.562 511.741 499.333 511.682 499.045 511.682C498.771 511.684 499.489 511.728 499.439 511.72C499.468 511.725 500.16 511.89 499.736 511.758C500.011 511.845 500.281 511.968 500.534 512.103C501.116 512.414 500.26 511.868 500.782 512.274C500.928 512.385 501.065 512.502 501.203 512.62C501.268 512.674 501.58 513.003 501.352 512.754C501.497 512.916 501.633 513.093 501.762 513.268C502.178 513.835 502.415 514.367 502.693 515.253C502.734 515.37 502.821 515.865 502.703 515.284C502.732 515.437 502.775 515.591 502.803 515.744C502.865 516.064 502.918 516.39 502.964 516.723C503.061 517.441 503.113 518.159 503.143 518.882C503.153 519.201 503.163 519.528 503.166 519.847C503.165 520.047 503.163 520.246 503.162 520.446C503.174 519.937 503.151 520.614 503.15 520.673C503.116 521.519 503.053 522.368 502.968 523.213C502.782 525.005 502.487 526.78 502.099 528.541C501.688 530.402 501.355 531.609 500.784 533.26C500.223 534.891 499.555 536.498 498.757 538.033C498.6 538.335 498.436 538.628 498.273 538.921C498.244 538.969 497.913 539.532 498.17 539.113C498.071 539.275 497.965 539.436 497.858 539.598C497.454 540.209 497.024 540.794 496.54 541.342C496.424 541.472 496.315 541.603 496.193 541.725C496.113 541.809 495.57 542.31 496.007 541.926C495.768 542.134 495.528 542.348 495.276 542.539C494.566 543.067 494.153 543.255 493.234 543.602C492.254 543.963 491.288 544.177 490.182 544.2C489.878 544.205 489.3 544.161 488.798 544.01C489.179 544.128 488.482 543.851 488.488 543.859C488.248 543.734 488.22 543.722 488.385 543.806C488.265 543.721 488.147 543.622 488.037 543.516C487.143 542.735 485.675 542.947 484.953 543.843C484.178 544.797 484.386 546.146 485.28 546.927C488.775 550.001 495.059 548.492 498.309 545.735C501.124 543.347 502.936 539.925 504.256 536.531C505.778 532.635 506.785 528.482 507.259 524.33C507.66 520.795 507.784 517.04 506.758 513.597C506.05 511.217 504.314 509.027 502.039 507.982C499.079 506.633 495.88 507.615 493.415 509.502C491.158 511.191 493.753 514.726 496.006 513.014Z" fill="#553529"/>
<path d="M558.519 534.355C558.765 535.022 558.988 535.692 559.179 536.373C559.212 536.496 559.245 536.62 559.278 536.743C559.451 537.354 559.188 536.315 559.323 536.935C559.406 537.31 559.49 537.679 559.557 538.059C559.808 539.415 559.952 540.791 559.97 542.17C559.976 542.326 559.974 542.481 559.973 542.637C559.975 543.007 560.003 542.101 559.971 542.695C559.954 543.004 559.944 543.306 559.919 543.613C559.868 544.337 559.771 545.062 559.647 545.776C559.542 546.367 559.394 546.943 559.254 547.521C559.106 548.098 559.417 547.08 559.22 547.642C559.181 547.754 559.149 547.868 559.109 547.98C558.998 548.318 558.874 548.647 558.742 548.975C558.503 549.567 558.228 550.154 557.921 550.713C557.849 550.843 557.393 551.595 557.687 551.129C557.501 551.426 557.308 551.715 557.103 551.994C556.746 552.487 556.355 552.96 555.938 553.414C555.832 553.523 555.154 554.182 555.532 553.84C555.266 554.08 555.001 554.314 554.722 554.537C554.25 554.916 553.752 555.269 553.244 555.591C553.087 555.693 552.926 555.779 552.771 555.873C553.129 555.662 552.844 555.833 552.771 555.873C552.402 556.061 552.033 556.249 551.652 556.412C551.018 556.692 550.36 556.925 549.7 557.127C549.537 557.176 549.375 557.225 549.205 557.266C548.827 557.37 549.703 557.157 549.052 557.301C548.631 557.392 548.21 557.483 547.793 557.552C544.536 558.089 541.704 557.832 538.423 557.27C535.87 556.834 533.332 556.305 530.803 555.762C524.099 554.312 517.429 552.69 510.798 550.956C508.926 550.469 507.057 549.968 505.197 549.453C504.296 549.204 503.394 548.955 502.501 548.7C502.082 548.584 501.671 548.461 501.253 548.345C501.117 548.31 500.983 548.267 500.848 548.232C500.77 548.212 499.949 547.968 500.416 548.106C497.76 547.329 495.102 546.522 492.513 545.548C491.407 545.134 490.119 545.521 489.612 546.657C489.151 547.689 489.601 549.142 490.722 549.558C496.356 551.665 502.232 553.202 508.049 554.745C514.967 556.583 521.92 558.292 528.907 559.829C534.92 561.151 541.259 562.811 547.452 562.044C553.705 561.271 559.194 557.857 562.118 552.2C565.201 546.235 564.909 538.916 562.629 532.743C561.623 530.088 557.536 531.696 558.519 534.355Z" fill="#553529"/>
<path d="M413.907 483.117C414.646 483.267 415.383 483.432 416.118 483.611C416.453 483.692 416.795 483.782 417.129 483.87C417.299 483.918 417.463 483.958 417.634 484.006C417.747 484.039 417.86 484.071 417.967 484.102C418.172 484.163 418.194 484.166 418.016 484.117C417.698 484.024 418.257 484.191 418.32 484.208C418.518 484.268 418.709 484.327 418.899 484.393C419.231 484.495 419.562 484.605 419.892 484.723C420.609 484.966 421.316 485.23 422.021 485.508C423.089 485.923 424.472 485.543 424.922 484.399C425.343 483.338 424.957 481.947 423.812 481.498C420.817 480.328 417.716 479.416 414.565 478.778C413.438 478.553 412.187 479.471 412.063 480.614C411.934 481.845 412.7 482.88 413.907 483.117Z" fill="#553529"/>
<path d="M421.279 469.014C422.38 470.951 423.745 472.714 425.02 474.538C425.33 474.977 425.63 475.431 425.924 475.882C426.066 476.112 426.21 476.333 426.351 476.57C426.422 476.684 426.486 476.798 426.557 476.919C426.796 477.333 426.54 476.932 426.557 476.919C426.548 476.925 427.231 478.31 427.28 478.429C427.496 478.95 427.681 479.482 427.827 480.022C428.139 481.128 429.671 481.703 430.672 481.258C431.847 480.735 432.236 479.596 431.907 478.413C430.623 473.85 427.094 470.468 424.812 466.433C424.241 465.427 422.599 465.279 421.747 465.963C420.736 466.762 420.673 467.944 421.279 469.014Z" fill="#553529"/>
<path d="M410.882 494.348C411.729 494.329 412.573 494.326 413.416 494.329C413.608 494.329 413.807 494.337 413.999 494.337C413.482 494.332 414.139 494.344 414.191 494.344C414.61 494.357 415.038 494.37 415.457 494.383C417.113 494.444 418.767 494.565 420.423 494.722C421.56 494.83 422.796 494.109 422.924 492.886C423.045 491.758 422.313 490.498 421.088 490.384C417.528 490.046 413.944 489.918 410.366 489.991C409.216 490.015 408.266 491.334 408.439 492.426C408.653 493.688 409.651 494.366 410.882 494.348Z" fill="#553529"/>
<path fill-rule="evenodd" clip-rule="evenodd" d="M-179.216 329.036C-129.903 238.911 -60.6557 103.976 43.9998 110.5C252.5 73 290 150.5 334 303C360.582 395.132 316 515 381 544C644 604.5 727.332 708.687 682.5 808.715C636.121 912.195 337.376 922.393 222 914C119.925 906.575 49.4255 884.046 -21.0563 808.715C-74.3605 751.744 -106.177 686.387 -130.384 612.971C-161.783 517.739 -226.418 415.305 -179.216 329.036Z" fill="#FFB11B"/>
<path fill-rule="evenodd" clip-rule="evenodd" d="M410.413 10.3581C401.425 -30.0708 425.176 -73.4626 457.081 -99.3717C485.222 -122.224 524.591 -114.587 560.6 -111.605C588.734 -109.276 612.284 -97.2205 637.539 -84.4295C676.611 -64.6413 732.414 -60.3215 745.249 -18.0878C758.526 25.6031 730.065 75.0802 694.583 103.28C663.191 128.228 619.491 117.497 579.721 113.466C549.643 110.417 523.61 99.104 497.697 83.323C464.084 62.8528 419.017 49.0571 410.413 10.3581Z" fill="#FFB11B"/>
<g clip-path="url(#clip1_480_7663)">
<path d="M343.253 730.519C363.453 731.024 383.366 728.456 402.75 722.86C416.356 718.931 410.556 697.753 396.884 701.704C379.264 706.795 361.578 709.056 343.231 708.595C329.073 708.222 329.073 730.168 343.253 730.519Z" fill="#553529"/>
<path d="M370.355 699.948C368.304 718.251 364.996 758.786 339.085 757.689C326.868 757.184 323.803 776.98 336.152 779.24C353.617 782.422 371.105 777.55 387.776 772.524C401.316 768.442 395.538 747.242 381.91 751.368C372.229 754.287 362.195 757.447 352.051 758.303C347.134 758.72 344.289 758.501 341.996 758.084C341.025 765.26 340.033 772.459 339.063 779.635C380.631 781.391 388.901 730.936 392.385 699.948C393.973 685.946 371.898 686.056 370.355 699.948Z" fill="#553529"/>
<path d="M424.294 707.783C442.884 702.296 461.607 697.227 480.131 691.499C475.478 687.965 470.825 684.454 466.172 680.921C465.885 695.647 465.091 710.482 463.261 725.12C460.791 744.806 452.279 774.741 429.852 779.986C416.047 783.212 421.891 804.391 435.717 801.143C462.709 794.844 479.138 763.439 483.439 738.398C486.68 719.48 487.871 700.102 488.224 680.943C488.356 673.986 481.057 668.258 474.265 670.364C455.741 676.092 437.019 681.162 418.429 686.649C404.844 690.621 410.644 711.799 424.294 707.783Z" fill="#553529"/>
<path d="M427.36 699.026C426.169 712.128 423.368 732.363 408.88 737.52C395.627 742.26 401.338 763.461 414.746 758.676C440.172 749.612 447.185 723.343 449.412 699.026C450.691 684.959 428.639 685.046 427.36 699.026Z" fill="#553529"/>
<path d="M581.24 699.026C580.05 712.128 577.249 732.363 562.761 737.52C549.507 742.26 555.219 763.461 568.626 758.676C594.053 749.612 601.065 723.343 603.293 699.026C604.572 684.959 582.519 685.046 581.24 699.026Z" fill="#553529"/>
<path d="M512.173 740.636C527.984 741.053 542.869 738.925 558.041 734.469C571.626 730.475 565.848 709.297 552.176 713.313C538.746 717.264 526.154 719.085 512.173 718.712C497.971 718.295 497.993 740.241 512.173 740.636Z" fill="#553529"/>
<path d="M525.625 711.558C523.618 729.378 520.266 770.352 494.906 769.277C480.351 768.64 481.278 789.467 494.906 791.223C503.837 792.386 513.628 790.806 522.449 789.643C534.071 788.107 546.221 786.066 556.432 779.987C568.604 772.744 557.512 753.761 545.295 761.047C532.262 768.816 509.923 771.252 494.906 769.299C494.906 776.607 494.906 783.937 494.906 791.245C536.033 793.023 544.237 742.107 547.677 711.58C549.243 697.534 527.19 697.644 525.625 711.558Z" fill="#553529"/>
<path d="M579.101 703.152C599.036 697.271 619.06 691.74 638.907 685.595C634.254 682.062 629.601 678.55 624.948 675.017C623.559 709.231 621.111 744.126 604.197 774.741C585.32 808.933 552.286 816.9 515.436 817.054C501.257 817.119 501.213 839.066 515.436 839C557.799 838.824 597.36 828.334 620.604 790.345C641.884 755.582 645.39 714.74 647 675.017C647.287 668.016 639.701 662.376 633.041 664.439C613.194 670.584 593.171 676.114 573.235 681.996C559.673 685.99 565.451 707.168 579.101 703.152Z" fill="#553529"/>
<path d="M346.252 836.959H341.599C340.893 836.959 340.342 836.63 340.011 835.927L335.446 827.368L332.8 835.927C332.579 836.63 332.138 836.959 331.433 836.959H327.816C327.11 836.959 326.868 836.63 327.066 835.927L333.109 816.307C333.329 815.605 333.77 815.298 334.476 815.298H338.07C338.776 815.298 339.041 815.605 338.82 816.307L336.174 824.866L346.031 816.307C346.781 815.605 347.531 815.298 348.236 815.298H352.889C353.595 815.298 353.551 815.605 352.801 816.307L341.51 826.117L346.759 835.905C347.112 836.608 346.957 836.959 346.252 836.959Z" fill="#553529"/>
<path d="M356.969 817.69C357.168 817.032 357.631 816.681 358.336 816.681H361.953C362.659 816.681 362.901 817.01 362.703 817.69L362.394 818.722C362.195 819.38 361.732 819.731 361.027 819.731H357.41C356.704 819.731 356.462 819.402 356.66 818.722L356.969 817.69ZM355.734 821.728C355.955 821.048 356.396 820.719 357.101 820.719H360.718C361.424 820.719 361.688 821.026 361.468 821.728L357.079 835.928C356.859 836.63 356.418 836.959 355.712 836.959H352.096C351.39 836.959 351.147 836.63 351.346 835.928L355.734 821.728Z" fill="#553529"/>
<path d="M365.68 821.728C365.9 821.048 366.341 820.719 367.047 820.719H375.316C376.022 820.719 376.287 821.026 376.066 821.728L375.581 823.308C375.361 823.989 374.92 824.318 374.214 824.318H371.656C370.95 824.318 370.487 824.647 370.289 825.327L367.025 835.949C366.804 836.652 366.363 836.981 365.658 836.981H362.063C361.357 836.981 361.115 836.652 361.313 835.949L365.68 821.728Z" fill="#553529"/>
<path d="M393.091 835.928C392.87 836.63 392.429 836.959 391.723 836.959H379.837C377.015 836.959 376.022 835.62 376.838 832.943L380.3 821.75C380.521 821.07 380.962 820.741 381.668 820.741H385.284C385.99 820.741 386.254 821.048 386.034 821.75L382.77 832.372C382.572 833.031 382.814 833.382 383.52 833.382H387.137C387.842 833.382 388.305 833.053 388.504 832.372L391.767 821.75C391.988 821.07 392.429 820.741 393.135 820.741H396.729C397.435 820.741 397.7 821.048 397.479 821.75L393.091 835.928Z" fill="#553529"/>
<path d="M416.51 836.959H411.857C411.151 836.959 410.6 836.63 410.269 835.927L405.704 827.368L403.058 835.927C402.838 836.63 402.397 836.959 401.691 836.959H398.074C397.369 836.959 397.126 836.63 397.325 835.927L403.367 816.307C403.587 815.605 404.028 815.298 404.734 815.298H408.351C409.056 815.298 409.321 815.605 409.1 816.307L406.454 824.866L416.312 816.307C417.061 815.605 417.811 815.298 418.517 815.298H423.17C423.875 815.298 423.831 815.605 423.082 816.307L411.791 826.117L417.039 835.905C417.37 836.608 417.216 836.959 416.51 836.959Z" fill="#553529"/>
<path d="M427.227 817.69C427.426 817.032 427.889 816.681 428.595 816.681H432.189C432.895 816.681 433.137 817.01 432.939 817.69L432.63 818.722C432.432 819.38 431.969 819.731 431.263 819.731H427.668C426.963 819.731 426.72 819.402 426.919 818.722L427.227 817.69ZM425.992 821.728C426.213 821.048 426.654 820.719 427.36 820.719H430.954C431.66 820.719 431.925 821.026 431.704 821.728L427.316 835.928C427.095 836.63 426.654 836.959 425.948 836.959H422.354C421.648 836.959 421.406 836.63 421.604 835.928L425.992 821.728Z" fill="#553529"/>
<path d="M435.938 821.728C436.159 821.048 436.6 820.719 437.305 820.719H445.575C446.281 820.719 446.545 821.026 446.325 821.728L445.839 823.308C445.619 823.989 445.178 824.318 444.472 824.318H441.914C441.209 824.318 440.767 824.647 440.547 825.327L437.283 835.949C437.063 836.652 436.622 836.981 435.916 836.981H432.299C431.594 836.981 431.351 836.652 431.55 835.949L435.938 821.728Z" fill="#553529"/>
<path d="M463.349 835.928C463.129 836.63 462.688 836.959 461.982 836.959H450.096C447.273 836.959 446.281 835.62 447.097 832.943L450.559 821.75C450.779 821.07 451.22 820.741 451.926 820.741H455.543C456.248 820.741 456.513 821.048 456.292 821.75L453.029 832.372C452.83 833.031 453.073 833.382 453.779 833.382H457.395C458.101 833.382 458.564 833.053 458.762 832.372L462.026 821.75C462.247 821.07 462.688 820.741 463.393 820.741H466.988C467.693 820.741 467.958 821.048 467.738 821.75L463.349 835.928Z" fill="#553529"/>
</g>
<g clip-path="url(#clip2_480_7663)">
<path d="M115.519 842.747C116.024 822.547 113.456 802.634 107.86 783.25C103.932 769.644 82.7535 775.444 86.7038 789.116C91.7953 806.736 94.0558 824.422 93.5949 842.769C93.2219 856.927 115.168 856.927 115.519 842.747Z" fill="#553529"/>
<path d="M84.948 815.645C103.251 817.696 143.786 821.004 142.689 846.915C142.184 859.132 161.98 862.197 164.24 849.848C167.422 832.383 162.55 814.895 157.524 798.224C153.442 784.684 132.242 790.462 136.368 804.09C139.287 813.771 142.447 823.805 143.303 833.949C143.72 838.866 143.501 841.711 143.084 844.004C150.26 844.975 157.459 845.967 164.635 846.937C166.391 805.369 115.936 797.099 84.948 793.615C70.9462 792.027 71.056 814.102 84.948 815.645Z" fill="#553529"/>
<path d="M92.7829 761.706C87.2963 743.116 82.2267 724.393 76.4987 705.869C72.9653 710.522 69.4539 715.175 65.9206 719.828C80.6466 720.115 95.4823 720.909 110.12 722.739C129.806 725.209 159.741 733.721 164.986 756.148C168.212 769.953 189.391 764.109 186.143 750.283C179.844 723.291 148.439 706.862 123.398 702.561C104.48 699.32 85.1017 698.129 65.9425 697.776C58.9855 697.644 53.2575 704.943 55.3644 711.735C61.0924 730.259 66.162 748.981 71.6486 767.571C75.6208 781.156 96.7991 775.356 92.7829 761.706Z" fill="#553529"/>
<path d="M84.0263 758.64C97.1283 759.831 117.363 762.631 122.52 777.12C127.261 790.373 148.461 784.662 143.676 771.254C134.613 745.828 108.343 738.815 84.0263 736.588C69.9588 735.309 70.0465 757.361 84.0263 758.64Z" fill="#553529"/>
<path d="M84.0263 604.76C97.1283 605.95 117.363 608.751 122.52 623.239C127.261 636.493 148.461 630.781 143.676 617.374C134.613 591.947 108.343 584.935 84.0263 582.707C69.9588 581.428 70.0465 603.481 84.0263 604.76Z" fill="#553529"/>
<path d="M125.637 673.827C126.054 658.016 123.925 643.131 119.47 627.959C115.475 614.374 94.2973 620.152 98.3134 633.824C102.264 647.254 104.085 659.846 103.712 673.827C103.295 688.029 125.242 688.007 125.637 673.827Z" fill="#553529"/>
<path d="M96.5576 660.375C114.378 662.382 155.352 665.734 154.276 691.094C153.64 705.649 174.467 704.722 176.223 691.094C177.386 682.163 175.806 672.372 174.643 663.551C173.106 651.929 171.065 639.779 164.986 629.568C157.744 617.396 138.76 628.488 146.047 640.705C153.816 653.738 156.252 676.077 154.298 691.094C161.607 691.094 168.937 691.094 176.245 691.094C178.022 649.967 127.107 641.763 96.5796 638.323C82.5339 636.757 82.6437 658.81 96.5576 660.375Z" fill="#553529"/>
<path d="M88.1521 606.899C82.2705 586.964 76.74 566.94 70.5951 547.093C67.0617 551.746 63.5503 556.399 60.0169 561.052C94.2313 562.441 129.126 564.889 159.741 581.803C193.933 600.68 201.9 633.714 202.054 670.564C202.119 684.743 224.066 684.787 224 670.564C223.824 628.201 213.334 588.64 175.345 565.396C140.582 544.116 99.7398 540.61 60.0169 539C53.0161 538.713 47.3759 546.299 49.4388 552.959C55.5838 572.806 61.1143 592.829 66.9959 612.765C70.9901 626.327 92.1683 620.549 88.1521 606.899Z" fill="#553529"/>
<path d="M202.69 829.031C202.032 828.833 201.68 828.37 201.68 827.664L201.68 824.047C201.68 823.342 202.01 823.099 202.69 823.298L203.721 823.606C204.38 823.805 204.731 824.268 204.731 824.974L204.731 828.59C204.731 829.296 204.402 829.538 203.721 829.34L202.69 829.031ZM206.728 830.266C206.048 830.046 205.719 829.604 205.719 828.899L205.719 825.282C205.719 824.577 206.026 824.312 206.728 824.532L220.927 828.921C221.63 829.141 221.959 829.582 221.959 830.288L221.959 833.905C221.959 834.61 221.63 834.853 220.927 834.654L206.728 830.266Z" fill="#553529"/>
<path d="M206.728 820.32C206.048 820.1 205.719 819.659 205.719 818.953L205.719 810.684C205.719 809.978 206.026 809.713 206.728 809.934L208.308 810.419C208.988 810.639 209.318 811.08 209.318 811.786L209.318 814.344C209.318 815.05 209.647 815.513 210.327 815.711L220.949 818.975C221.652 819.196 221.981 819.637 221.981 820.342L221.981 823.937C221.981 824.643 221.652 824.885 220.949 824.687L206.728 820.32Z" fill="#553529"/>
<path d="M220.927 792.909C221.63 793.13 221.959 793.571 221.959 794.276L221.959 806.163C221.959 808.985 220.62 809.978 217.943 809.162L206.75 805.699C206.07 805.479 205.74 805.038 205.74 804.332L205.74 800.716C205.74 800.01 206.048 799.745 206.75 799.966L217.372 803.23C218.03 803.428 218.382 803.185 218.382 802.48L218.382 798.863C218.382 798.158 218.052 797.694 217.372 797.496L206.75 794.232C206.07 794.012 205.74 793.571 205.74 792.865L205.74 789.271C205.74 788.565 206.048 788.3 206.75 788.521L220.927 792.909Z" fill="#553529"/>
<path d="M221.959 769.49L221.959 774.143C221.959 774.849 221.63 775.4 220.927 775.731L212.368 780.296L220.927 782.942C221.63 783.162 221.959 783.603 221.959 784.309L221.959 787.926C221.959 788.631 221.63 788.874 220.927 788.675L201.307 782.633C200.605 782.413 200.298 781.972 200.298 781.266L200.298 777.649C200.298 776.944 200.605 776.679 201.307 776.9L209.866 779.546L201.307 769.688C200.605 768.939 200.298 768.189 200.298 767.483L200.298 762.83C200.298 762.125 200.605 762.169 201.307 762.918L211.117 774.209L220.905 768.961C221.608 768.63 221.959 768.784 221.959 769.49Z" fill="#553529"/>
<path d="M202.69 758.772C202.032 758.574 201.68 758.111 201.68 757.405L201.68 753.811C201.68 753.105 202.01 752.862 202.69 753.061L203.721 753.37C204.38 753.568 204.731 754.031 204.731 754.737L204.731 758.331C204.731 759.037 204.402 759.28 203.721 759.081L202.69 758.772ZM206.728 760.007C206.048 759.787 205.719 759.346 205.719 758.64L205.719 755.046C205.719 754.34 206.026 754.075 206.728 754.296L220.927 758.684C221.63 758.905 221.959 759.346 221.959 760.051L221.959 763.646C221.959 764.352 221.63 764.594 220.927 764.396L206.728 760.007Z" fill="#553529"/>
<path d="M206.728 750.062C206.048 749.841 205.719 749.4 205.719 748.695L205.719 740.425C205.719 739.719 206.026 739.455 206.728 739.675L208.308 740.161C208.988 740.381 209.318 740.822 209.318 741.528L209.318 744.086C209.318 744.791 209.647 745.233 210.327 745.453L220.949 748.717C221.652 748.937 221.981 749.378 221.981 750.084L221.981 753.701C221.981 754.406 221.652 754.649 220.949 754.45L206.728 750.062Z" fill="#553529"/>
<path d="M220.927 722.651C221.63 722.871 221.959 723.312 221.959 724.018L221.959 735.904C221.959 738.727 220.62 739.719 217.943 738.903L206.75 735.441C206.07 735.221 205.74 734.78 205.74 734.074L205.74 730.457C205.74 729.752 206.048 729.487 206.75 729.708L217.372 732.971C218.03 733.17 218.382 732.927 218.382 732.221L218.382 728.605C218.382 727.899 218.052 727.436 217.372 727.238L206.75 723.974C206.07 723.753 205.74 723.312 205.74 722.607L205.74 719.012C205.74 718.307 206.048 718.042 206.75 718.262L220.927 722.651Z" fill="#553529"/>
</g>
<g clip-path="url(#clip3_480_7663)">
<path d="M115.519 231.747C116.024 211.547 113.456 191.634 107.86 172.25C103.932 158.644 82.7535 164.444 86.7038 178.116C91.7953 195.736 94.0558 213.422 93.5949 231.769C93.2219 245.927 115.168 245.927 115.519 231.747Z" fill="#553529"/>
<path d="M84.948 204.645C103.251 206.696 143.786 210.004 142.689 235.915C142.184 248.132 161.98 251.197 164.24 238.848C167.422 221.383 162.55 203.895 157.524 187.224C153.442 173.684 132.242 179.462 136.368 193.09C139.287 202.771 142.447 212.805 143.303 222.949C143.72 227.866 143.501 230.711 143.084 233.004C150.26 233.975 157.459 234.967 164.635 235.937C166.391 194.369 115.936 186.099 84.948 182.615C70.9462 181.027 71.056 203.102 84.948 204.645Z" fill="#553529"/>
<path d="M92.7829 150.706C87.2963 132.116 82.2267 113.393 76.4987 94.8693C72.9653 99.5223 69.4539 104.175 65.9206 108.828C80.6466 109.115 95.4823 109.909 110.12 111.739C129.806 114.209 159.741 122.721 164.986 145.148C168.212 158.953 189.391 153.109 186.143 139.283C179.844 112.291 148.439 95.8617 123.398 91.5615C104.48 88.3198 85.1017 87.129 65.9425 86.7761C58.9855 86.6438 53.2575 93.9431 55.3644 100.735C61.0924 119.259 66.162 137.981 71.6486 156.571C75.6208 170.156 96.7991 164.356 92.7829 150.706Z" fill="#553529"/>
<path d="M84.0263 147.64C97.1283 148.831 117.363 151.631 122.52 166.12C127.261 179.373 148.461 173.662 143.676 160.254C134.613 134.828 108.343 127.815 84.0263 125.588C69.9588 124.309 70.0465 146.361 84.0263 147.64Z" fill="#553529"/>
<path d="M84.0263 -6.24036C97.1283 -5.04954 117.363 -2.24891 122.52 12.2394C127.261 25.4928 148.461 19.7813 143.676 6.37352C134.613 -19.0527 108.343 -26.0653 84.0263 -28.2926C69.9588 -29.5716 70.0465 -7.51939 84.0263 -6.24036Z" fill="#553529"/>
<path d="M125.637 62.8273C126.054 47.0158 123.925 32.1305 119.47 16.9586C115.475 3.37443 94.2973 9.15211 98.3134 22.8245C102.264 36.2543 104.085 48.8461 103.712 62.8273C103.295 77.0289 125.242 77.0068 125.637 62.8273Z" fill="#553529"/>
<path d="M96.5576 49.3754C114.378 51.3821 155.352 54.7341 154.276 80.0941C153.64 94.6486 174.467 93.7224 176.223 80.0941C177.386 71.163 175.806 61.3718 174.643 52.5509C173.106 40.9294 171.065 28.7786 164.986 18.5684C157.744 6.39557 138.76 17.4879 146.047 29.7048C153.816 42.7377 156.252 65.0766 154.298 80.0941C161.607 80.0941 168.937 80.0941 176.245 80.0941C178.022 38.9667 127.107 30.7633 96.5796 27.3232C82.5339 25.7574 82.6437 47.8097 96.5576 49.3754Z" fill="#553529"/>
<path d="M88.1521 -4.10122C82.2705 -24.0364 76.74 -44.0599 70.5951 -63.9069C67.0617 -59.2539 63.5503 -54.6008 60.0169 -49.9478C94.2313 -48.5585 129.126 -46.1107 159.741 -29.1967C193.933 -10.3199 201.9 22.7143 202.054 59.5636C202.119 73.7432 224.066 73.7873 224 59.5636C223.824 17.2012 213.334 -22.3605 175.345 -45.6035C140.582 -66.8839 99.7398 -70.3903 60.0169 -72.0001C53.0161 -72.2867 47.3759 -64.7008 49.4388 -58.041C55.5838 -38.194 61.1143 -18.1706 66.9959 1.76467C70.9901 15.3268 92.1683 9.54912 88.1521 -4.10122Z" fill="#553529"/>
<path d="M221.959 228.748L221.959 233.401C221.959 234.107 221.63 234.658 220.927 234.989L212.368 239.554L220.927 242.2C221.63 242.421 221.959 242.862 221.959 243.567L221.959 247.184C221.959 247.89 221.63 248.132 220.927 247.934L201.307 241.891C200.605 241.671 200.298 241.23 200.298 240.524L200.298 236.93C200.298 236.224 200.605 235.959 201.307 236.18L209.866 238.826L201.307 228.969C200.605 228.219 200.298 227.469 200.298 226.764L200.298 222.111C200.298 221.405 200.605 221.449 201.307 222.199L211.117 233.49L220.905 228.241C221.608 227.888 221.959 228.043 221.959 228.748Z" fill="#553529"/>
<path d="M202.69 218.031C202.032 217.833 201.68 217.37 201.68 216.664L201.68 213.047C201.68 212.342 202.01 212.099 202.69 212.298L203.721 212.606C204.38 212.805 204.731 213.268 204.731 213.974L204.731 217.59C204.731 218.296 204.402 218.538 203.721 218.34L202.69 218.031ZM206.728 219.266C206.048 219.046 205.719 218.604 205.719 217.899L205.719 214.282C205.719 213.577 206.026 213.312 206.728 213.532L220.927 217.921C221.63 218.141 221.959 218.582 221.959 219.288L221.959 222.905C221.959 223.61 221.63 223.853 220.927 223.654L206.728 219.266Z" fill="#553529"/>
<path d="M206.728 209.32C206.048 209.1 205.719 208.659 205.719 207.953L205.719 199.684C205.719 198.978 206.026 198.713 206.728 198.934L208.308 199.419C208.988 199.639 209.318 200.08 209.318 200.786L209.318 203.344C209.318 204.05 209.647 204.513 210.327 204.711L220.949 207.975C221.652 208.196 221.981 208.637 221.981 209.342L221.981 212.937C221.981 213.643 221.652 213.885 220.949 213.687L206.728 209.32Z" fill="#553529"/>
<path d="M220.927 181.909C221.63 182.13 221.959 182.571 221.959 183.276L221.959 195.163C221.959 197.985 220.62 198.978 217.943 198.162L206.75 194.699C206.07 194.479 205.74 194.038 205.74 193.332L205.74 189.716C205.74 189.01 206.048 188.745 206.75 188.966L217.372 192.23C218.03 192.428 218.382 192.185 218.382 191.48L218.382 187.863C218.382 187.158 218.052 186.694 217.372 186.496L206.75 183.232C206.07 183.012 205.74 182.571 205.74 181.865L205.74 178.271C205.74 177.565 206.048 177.3 206.75 177.521L220.927 181.909Z" fill="#553529"/>
<path d="M221.959 158.49L221.959 163.143C221.959 163.849 221.63 164.4 220.927 164.731L212.368 169.296L220.927 171.942C221.63 172.162 221.959 172.603 221.959 173.309L221.959 176.926C221.959 177.631 221.63 177.874 220.927 177.675L201.307 171.633C200.605 171.413 200.298 170.972 200.298 170.266L200.298 166.649C200.298 165.944 200.605 165.679 201.307 165.9L209.866 168.546L201.307 158.688C200.605 157.939 200.298 157.189 200.298 156.483L200.298 151.83C200.298 151.125 200.605 151.169 201.307 151.918L211.117 163.209L220.905 157.961C221.608 157.63 221.959 157.784 221.959 158.49Z" fill="#553529"/>
<path d="M202.69 147.772C202.032 147.574 201.68 147.111 201.68 146.405L201.68 142.811C201.68 142.105 202.01 141.862 202.69 142.061L203.721 142.37C204.38 142.568 204.731 143.031 204.731 143.737L204.731 147.331C204.731 148.037 204.402 148.28 203.721 148.081L202.69 147.772ZM206.728 149.007C206.048 148.787 205.719 148.346 205.719 147.64L205.719 144.046C205.719 143.34 206.026 143.075 206.728 143.296L220.927 147.684C221.63 147.905 221.959 148.346 221.959 149.051L221.959 152.646C221.959 153.352 221.63 153.594 220.927 153.396L206.728 149.007Z" fill="#553529"/>
<path d="M206.728 139.062C206.048 138.841 205.719 138.4 205.719 137.695L205.719 129.425C205.719 128.719 206.026 128.455 206.728 128.675L208.308 129.161C208.988 129.381 209.318 129.822 209.318 130.528L209.318 133.086C209.318 133.791 209.647 134.233 210.327 134.453L220.949 137.717C221.652 137.937 221.981 138.378 221.981 139.084L221.981 142.701C221.981 143.406 221.652 143.649 220.949 143.45L206.728 139.062Z" fill="#553529"/>
<path d="M220.927 111.651C221.63 111.871 221.959 112.312 221.959 113.018L221.959 124.904C221.959 127.727 220.62 128.719 217.943 127.903L206.75 124.441C206.07 124.221 205.74 123.78 205.74 123.074L205.74 119.457C205.74 118.752 206.048 118.487 206.75 118.708L217.372 121.971C218.03 122.17 218.382 121.927 218.382 121.221L218.382 117.605C218.382 116.899 218.052 116.436 217.372 116.238L206.75 112.974C206.07 112.753 205.74 112.312 205.74 111.607L205.74 108.012C205.74 107.307 206.048 107.042 206.75 107.262L220.927 111.651Z" fill="#553529"/>
</g>
<g clip-path="url(#clip4_480_7663)">
<path d="M673.079 514.007V480.981C673.079 472.094 665.859 464.881 656.964 464.881H586.232C581.775 464.881 577.745 466.688 574.825 469.61C563.212 469.61 553.167 468.644 546.889 468.644C546.889 468.644 563.927 483.608 570.117 489.798V514.007C570.117 522.9 577.33 530.106 586.232 530.106H656.957C665.859 530.106 673.079 522.9 673.079 514.007Z" fill="white"/>
<path d="M674.962 514.007C674.962 510.72 674.962 507.428 674.962 504.141C674.962 498.466 674.962 492.79 674.962 487.114C674.962 483.081 675.326 478.792 673.914 474.941C671.29 467.798 664.478 463.019 656.857 463C654.628 462.994 652.4 463 650.165 463C645.432 463 640.698 463 635.965 463C630.101 463 624.244 463 618.381 463C612.762 463 607.15 463 601.531 463C597.545 463 593.546 463 589.553 463C586.138 463 582.817 462.956 579.565 464.286C577.286 465.214 575.246 466.55 573.495 468.274C573.94 468.092 574.38 467.904 574.826 467.722C569.502 467.729 564.178 467.515 558.861 467.246C554.875 467.045 550.882 466.769 546.889 466.763C545.333 466.763 544.303 468.87 545.559 469.974C551.56 475.248 557.524 480.567 563.387 485.991C565.208 487.679 567.029 489.372 568.786 491.128C568.604 490.683 568.416 490.244 568.234 489.798C568.234 493.706 568.234 497.606 568.234 501.514C568.234 505.665 568.215 509.824 568.234 513.975C568.272 522.16 573.965 529.579 581.995 531.486C584.638 532.113 587.343 531.987 590.03 531.987C594.086 531.987 598.141 531.987 602.203 531.987C607.803 531.987 613.409 531.987 619.008 531.987C624.803 531.987 630.603 531.987 636.398 531.987C641.05 531.987 645.702 531.987 650.36 531.987C652.532 531.987 654.698 531.994 656.87 531.987C664.453 531.956 671.221 527.24 673.876 520.147C674.604 518.196 674.943 516.089 674.962 514.007C674.981 511.586 671.214 511.58 671.196 514.007C671.189 514.59 671.164 515.167 671.101 515.744C671.064 516.089 670.932 516.791 670.8 517.343C670.536 518.434 670.204 519.356 669.77 520.216C668.747 522.266 667.498 523.841 665.646 525.283C664.089 526.5 662.074 527.434 659.99 527.905C658.929 528.143 658.138 528.218 656.958 528.224C656.907 528.224 656.857 528.224 656.813 528.224C653.894 528.231 650.975 528.224 648.062 528.224C642.092 528.224 636.122 528.224 630.158 528.224C623.321 528.224 616.485 528.224 609.655 528.224C604.067 528.224 598.474 528.224 592.887 528.224C590.357 528.224 587.783 528.35 585.253 528.193C583.213 528.068 581.034 527.415 579.207 526.368C577.399 525.333 575.711 523.809 574.574 522.166C572.704 519.444 572.007 516.628 572.007 513.398C572.007 507.635 572.007 501.865 572.007 496.101C572.007 494.057 572.07 492 572.007 489.961C571.963 488.557 570.55 487.572 569.596 486.663C568.253 485.377 566.884 484.104 565.516 482.843C560.154 477.889 554.712 473.041 549.244 468.218C548.905 467.917 548.566 467.616 548.22 467.315C547.781 468.387 547.335 469.453 546.889 470.526C551.397 470.532 555.904 470.864 560.405 471.084C563.287 471.222 566.175 471.347 569.063 471.416C570.619 471.454 572.183 471.479 573.746 471.485C574.769 471.492 575.529 471.498 576.332 470.764C576.753 470.382 577.161 469.986 577.619 469.641C580.193 467.697 583.275 466.757 586.477 466.757C587.419 466.757 588.367 466.757 589.308 466.757C593.653 466.757 597.99 466.757 602.335 466.757C608.493 466.757 614.652 466.757 620.81 466.757C627.038 466.757 633.272 466.757 639.499 466.757C644.05 466.757 648.608 466.757 653.159 466.757C654.264 466.757 655.363 466.757 656.468 466.757C656.631 466.757 656.794 466.757 656.958 466.757C658.822 466.769 660.818 467.152 662.425 467.829C664.428 468.669 665.947 469.761 667.379 471.291C668.672 472.664 669.783 474.496 670.386 476.233C671.108 478.321 671.196 480.115 671.196 482.298C671.196 487.572 671.196 492.846 671.196 498.121C671.196 503.138 671.196 508.155 671.196 513.173C671.196 513.449 671.196 513.731 671.196 514.007C671.196 516.434 674.962 516.434 674.962 514.007Z" fill="#553529"/>
<path d="M611.624 491.552V492.736H615.24V491.552H611.624ZM611.048 493.408V494.592H615.352V493.408H611.048ZM613.656 499.776H617.672V500.368H613.656V499.776ZM613.656 501.296H617.672V501.888H613.656V501.296ZM613.656 498.272H617.672V498.832H613.656V498.272ZM611.912 497.072V503.088H619.496V497.072H611.912ZM616.28 503.84C617.304 504.352 618.472 505.024 619.128 505.472L620.632 504.48C619.864 504.032 618.536 503.36 617.432 502.864L616.28 503.84ZM611.4 490.64C611.272 491.44 611.048 492.272 610.648 492.88C610.936 492.992 611.432 493.248 611.656 493.392C612.04 492.768 612.344 491.792 612.52 490.848L611.4 490.64ZM611.784 494.176C611.704 495.216 611.464 495.952 610.456 496.416C610.728 496.624 611.112 497.12 611.256 497.424C612.584 496.736 612.936 495.664 613.048 494.176H611.784ZM617.928 494.08V495.472C617.928 496.208 617.976 496.464 618.184 496.688C618.36 496.864 618.68 496.96 618.984 496.96C619.128 496.96 619.368 496.96 619.512 496.96C619.704 496.96 619.928 496.928 620.072 496.848C620.232 496.784 620.376 496.64 620.472 496.48C620.552 496.304 620.616 495.92 620.632 495.52C620.36 495.456 620.024 495.28 619.816 495.104C619.8 495.392 619.8 495.616 619.752 495.712C619.72 495.808 619.704 495.856 619.656 495.872C619.624 495.904 619.56 495.92 619.512 495.92C619.448 495.92 619.384 495.92 619.336 495.92C619.288 495.92 619.224 495.904 619.224 495.84C619.192 495.808 619.192 495.696 619.192 495.52V494.08H617.928ZM612.792 490.464V494.032H614.12V490.464H612.792ZM613.496 494.08V496H614.712V494.08H613.496ZM616.152 491.552V492.736H620.104V491.552H616.152ZM615.608 493.408V494.592H620.312V493.408H615.608ZM615.944 490.656C615.848 491.456 615.688 492.256 615.352 492.88C615.624 492.992 616.12 493.232 616.36 493.392C616.696 492.752 616.92 491.776 617.064 490.864L615.944 490.656ZM616.344 494.16C616.296 495.232 616.104 495.872 615.128 496.272C615.4 496.496 615.752 496.992 615.88 497.28C617.208 496.672 617.512 495.664 617.576 494.16H616.344ZM617.304 490.464V494.096H618.664V490.464H617.304ZM613.016 495.76L613.352 496.944C614.072 496.768 614.76 496.608 615.512 496.416L615.432 495.36C614.488 495.52 613.688 495.68 613.016 495.76ZM613.72 502.912C613.048 503.44 611.704 504.08 610.536 504.4C610.904 504.688 611.432 505.184 611.72 505.504C612.888 505.168 614.312 504.48 615.16 503.792L613.72 502.912ZM606.136 495.328V496.768H610.392V495.328H606.136ZM606.232 490.912V492.368H610.344V490.912H606.232ZM606.136 497.504V498.96H610.392V497.504H606.136ZM605.464 493.072V494.592H610.792V493.072H605.464ZM607.016 499.728V501.232H608.824V503.056H607.016V504.56H610.36V499.728H607.016ZM606.088 499.728V505.232H607.592V499.728H606.088ZM632.328 490.48V493.984H634.12V490.48H632.328ZM630.408 493.104V494.768H636.28V493.104H630.408ZM630.648 495.632C631.016 497.984 631.24 501.024 631.224 502.8L632.84 502.416C632.856 500.672 632.552 497.696 632.136 495.36L630.648 495.632ZM634.264 495.2C634.152 497.472 633.784 500.592 633.4 502.496L634.856 502.832C635.288 500.976 635.736 497.984 636.024 495.52L634.264 495.2ZM629.816 503.232V504.912H636.504V503.232H629.816ZM622.92 492.032V493.744H624.424V499.488H622.92V501.2H626.024V492.032H622.92ZM621.896 492.032V502.64H623.464V492.032H621.896ZM626.264 493.568V495.248H630.12V493.568H626.264ZM625.992 498.528L626.488 500.288C627.672 499.84 629.064 499.28 630.36 498.736L630.072 497.184C628.568 497.712 627.032 498.224 625.992 498.528ZM627.416 490.464V503.504C627.416 503.696 627.352 503.76 627.176 503.76C626.984 503.76 626.488 503.76 625.96 503.744C626.184 504.224 626.408 504.976 626.456 505.424C627.384 505.44 628.024 505.36 628.456 505.072C628.92 504.8 629.064 504.32 629.064 503.504V490.464H627.416ZM640.574 492.364L640.386 500.58H638.557L638.375 492.364H640.574ZM639.472 504.125C639.127 504.125 638.831 504.004 638.585 503.761C638.343 503.519 638.222 503.223 638.222 502.875C638.222 502.534 638.343 502.242 638.585 502C638.831 501.758 639.127 501.636 639.472 501.636C639.809 501.636 640.1 501.758 640.347 502C640.597 502.242 640.722 502.534 640.722 502.875C640.722 503.106 640.663 503.316 640.545 503.506C640.432 503.695 640.28 503.847 640.091 503.96C639.905 504.07 639.699 504.125 639.472 504.125Z" fill="#553529"/>
</g>
</g>
<path d="M16 1H660V-1H16V1ZM675 16V815H677V16H675ZM660 830H16V832H660V830ZM1 815V16H-1V815H1ZM16 830C7.71573 830 1 823.284 1 815H-1C-1 824.389 6.61117 832 16 832V830ZM675 815C675 823.284 668.284 830 660 830V832C669.389 832 677 824.389 677 815H675ZM660 1C668.284 1 675 7.71573 675 16H677C677 6.61116 669.389 -1 660 -1V1ZM16 -1C6.61116 -1 -1 6.61116 -1 16H1C1 7.71573 7.71573 1 16 1V-1Z" fill="#553529"/>
<defs>
<clipPath id="clip0_480_7663">
<path d="M0 16C0 7.16344 7.16344 0 16 0H660C668.837 0 676 7.16344 676 16V815C676 823.837 668.837 831 660 831H16C7.16345 831 0 823.837 0 815V16Z" fill="white"/>
</clipPath>
<clipPath id="clip1_480_7663">
<rect width="320" height="175" fill="white" transform="translate(327 664)"/>
</clipPath>
<clipPath id="clip2_480_7663">
<rect width="320" height="175" fill="white" transform="translate(49 859) rotate(-90)"/>
</clipPath>
<clipPath id="clip3_480_7663">
<rect width="320" height="175" fill="white" transform="translate(49 248) rotate(-90)"/>
</clipPath>
<clipPath id="clip4_480_7663">
<rect width="130" height="69" fill="white" transform="translate(545 463)"/>
</clipPath>
</defs>
</svg>
