<svg width="676" height="831" viewBox="0 0 676 831" fill="none" xmlns="http://www.w3.org/2000/svg">
<g clip-path="url(#clip0_480_6651)">
<path fill-rule="evenodd" clip-rule="evenodd" d="M-179.386 328.909C-128.755 239.767 -17.5683 195.18 78.9861 195.668C164.15 196.099 218.704 270.564 275.13 331.207C319.216 378.588 339.64 437.094 361.768 499.58C395.999 596.25 483.935 689.668 436.907 788.06C388.256 889.847 259.129 938.577 152.75 936.887C58.6349 935.392 1.75546 848.531 -59.3612 780.177C-105.583 728.482 -131.444 667.563 -149.814 598.495C-173.643 508.903 -227.851 414.237 -179.386 328.909Z" fill="#FFB11B"/>
<path fill-rule="evenodd" clip-rule="evenodd" d="M410.413 10.3581C401.425 -30.0708 425.176 -73.4626 457.081 -99.3717C485.222 -122.224 524.591 -114.587 560.6 -111.605C588.734 -109.276 612.284 -97.2205 637.539 -84.4295C676.611 -64.6413 732.414 -60.3215 745.249 -18.0878C758.526 25.6031 730.065 75.0802 694.583 103.28C663.191 128.228 619.491 117.497 579.721 113.466C549.643 110.417 523.61 99.104 497.697 83.323C464.084 62.8528 419.017 49.0571 410.413 10.3581Z" fill="#FFB11B"/>
<path d="M642 598H332V281.42C332 206.081 401.401 145 487 145C572.599 145 642 206.081 642 281.42V598Z" fill="#FFB11B"/>
<mask id="mask0_480_6651" style="mask-type:alpha" maskUnits="userSpaceOnUse" x="332" y="145" width="310" height="453">
<path d="M642 598H332V281.42C332 206.081 401.401 145 487 145C572.599 145 642 206.081 642 281.42V598Z" fill="#FFB11B"/>
</mask>
<g mask="url(#mask0_480_6651)">
<path d="M397 296.5C335 296.5 314 385 314 450.5V606.5H711C713.167 541.167 716.2 407 711 393C704.5 375.5 671.5 235 590.5 235C509.5 235 485.026 329.746 483.5 343C475.5 412.5 466 296.5 397 296.5Z" fill="#989F0C"/>
<path d="M422.5 260C400.685 260 383 241.644 383 219C383 196.356 400.685 178 422.5 178C444.315 178 462 196.356 462 219C462 241.644 444.315 260 422.5 260Z" fill="#F26A2F"/>
<g clip-path="url(#clip1_480_6651)">
<path d="M513.779 579.746L513.761 592.677L509.176 601.501L495.766 605.74L472.512 601.687L455.003 596.836L451.88 630.972L447.428 657.773C447.428 657.773 372.139 648.059 341.952 643.75C333.474 642.537 338.122 635.768 337.166 636.034C303.801 645.212 302.959 627.155 302.959 627.155C302.959 627.155 308.012 555.869 334.603 520.882C348.315 502.839 362.368 494.289 381.565 489.703L385.119 491.187L384.098 499.048L381.881 505.983L383.531 510.48L400.688 524.976L427.5 524.35L441.818 515.931L446.672 508.236L459.235 515.412L477.514 525.372L488.537 535.953L502.23 554.737L509.148 569.885L513.779 579.746Z" fill="white"/>
<path d="M486.424 424.149L493.399 429.209L495.282 438.014L494.719 453.872L489.885 470.78L484.774 481.664L474.997 494.359L461.892 502.017L449.071 505.431L444.404 506.364L440.791 506.54L435.769 512.29L421.536 518.355L407.186 518.177L396.233 513.353L391.436 504.909L393.653 497.974L396.42 492.538L394.93 486.622L392.771 469.667L391.656 466.165L386.233 464.75L381.709 461.985L377.726 447.958L379.126 435.966L385.665 428.353L391.821 426.329L392.857 430.915L395.06 435.919L404.622 421.684L424.735 411.697L472.647 421.377L486.424 424.149Z" fill="white"/>
<path d="M470.028 432.004C483.553 437.276 483.966 444.845 480.932 442.442C477.896 440.045 470.071 437.239 469.086 436.547C467.974 435.768 468.15 431.268 470.028 432.004Z" fill="#553529"/>
<path d="M435.021 430.371C429.894 429.773 425.451 432.413 422.353 433.824C420.377 434.723 420.819 425.497 436.987 424.773C439.234 424.666 439.695 430.912 435.021 430.371Z" fill="#553529"/>
<path d="M470.259 441.636C473.596 442.507 474.92 448.49 473.218 454.995C471.516 461.5 467.431 466.07 464.095 465.198C460.759 464.327 459.434 458.344 461.136 451.839C462.838 445.335 466.923 440.765 470.259 441.636Z" fill="#553529"/>
<path d="M437.957 449.159C440.22 442.824 439.421 436.748 436.172 435.587C432.923 434.427 428.454 438.621 426.191 444.956C423.928 451.291 424.728 457.367 427.977 458.528C431.226 459.689 435.694 455.494 437.957 449.159Z" fill="#553529"/>
<path d="M385.119 491.187C365.021 529.269 432.02 536.16 444.463 509.921L444.955 508.23L437.487 508.453L435.649 512.651L428.859 516.298L420.026 518.178L409.853 519.189L400.16 515.943L393.544 510.888L391.424 504.183L395.114 492.139L385.119 491.187Z" fill="white"/>
<path d="M442.477 509.122C442.326 509.443 442.155 509.747 441.998 510.06C441.83 510.4 442.253 509.643 441.98 510.094C441.882 510.262 441.784 510.431 441.678 510.599C441.309 511.197 440.914 511.77 440.485 512.325C440.072 512.868 439.633 513.386 439.167 513.887C439.062 513.997 438.955 514.115 438.849 514.225C439.274 513.77 438.874 514.199 438.762 514.301C438.51 514.553 438.246 514.797 437.982 515.033C436.903 516.003 435.748 516.886 434.531 517.676C434.399 517.762 434.26 517.847 434.12 517.939C434.043 517.988 433.966 518.037 433.881 518.085C433.641 518.237 434.243 517.874 433.989 518.018C433.667 518.204 433.343 518.398 433.021 518.577C432.362 518.941 431.685 519.282 431.001 519.607C429.621 520.249 428.201 520.808 426.759 521.292C426.408 521.411 426.059 521.515 425.709 521.627C425.188 521.784 425.975 521.556 425.605 521.658C425.367 521.725 425.13 521.792 424.885 521.858C424.137 522.061 423.383 522.242 422.633 522.402C421.079 522.737 419.513 522.992 417.933 523.173C417.125 523.269 416.319 523.344 415.508 523.396C415.124 523.425 414.748 523.447 414.366 523.462C414.185 523.47 414.012 523.479 413.832 523.481C413.717 523.482 413.04 523.499 413.356 523.499C413.701 523.495 413.032 523.505 412.96 523.505C412.78 523.506 412.607 523.508 412.428 523.509C411.996 523.511 411.567 523.499 411.137 523.486C410.356 523.463 409.57 523.425 408.794 523.366C407.205 523.252 405.618 523.052 404.046 522.782C403.299 522.655 402.554 522.506 401.811 522.336C401.643 522.296 401.483 522.256 401.314 522.223C400.719 522.084 401.53 522.283 401.167 522.185C400.798 522.086 400.428 521.987 400.059 521.881C398.618 521.467 397.201 520.97 395.823 520.384C395.179 520.11 394.536 519.815 393.904 519.5C393.604 519.351 393.314 519.189 393.015 519.033C392.757 518.896 393.379 519.247 392.92 518.979C392.752 518.881 392.576 518.783 392.408 518.678C391.251 517.98 390.147 517.194 389.118 516.31C388.883 516.104 388.647 515.898 388.42 515.685C388.068 515.366 388.336 515.604 388.361 515.636C388.24 515.5 388.096 515.369 387.967 515.239C387.53 514.781 387.11 514.302 386.721 513.799C386.319 513.286 385.994 512.725 385.607 512.2C385.47 512.02 385.74 512.424 385.735 512.409C385.7 512.34 385.65 512.27 385.615 512.201C385.537 512.063 385.453 511.917 385.375 511.779C385.22 511.496 385.073 511.206 384.934 510.91C384.655 510.319 384.415 509.71 384.204 509.09C384.162 508.955 384.12 508.814 384.072 508.672C384.089 508.71 384.178 509.072 384.058 508.606C383.979 508.281 383.894 507.955 383.83 507.625C383.691 506.948 383.596 506.262 383.544 505.574C383.517 505.24 383.504 504.908 383.491 504.576C383.509 505.052 383.495 504.735 383.496 504.469C383.495 504.282 383.501 504.103 383.508 503.917C383.563 502.343 383.809 500.79 384.168 499.257C384.07 499.684 384.143 499.354 384.205 499.124C384.264 498.915 384.324 498.707 384.382 498.505C384.509 498.081 384.643 497.658 384.79 497.243C385.098 496.358 385.44 495.491 385.817 494.628C386.213 493.732 386.641 492.86 387.091 491.991C387.63 490.967 386.892 489.605 385.896 489.205C384.727 488.736 383.65 489.37 383.11 490.401C379.844 496.629 378.02 503.839 380.25 510.714C382.106 516.441 386.792 520.639 392.006 523.338C397.716 526.294 404.331 527.592 410.721 527.758C417.548 527.937 424.459 526.925 430.817 524.371C436.529 522.076 442.01 518.317 445.228 512.96C445.661 512.24 446.068 511.495 446.434 510.732C446.932 509.688 446.263 508.356 445.239 507.946C444.128 507.476 442.975 508.079 442.477 509.122Z" fill="#553529"/>
<path d="M447.034 468.365C447.285 467.344 447.032 468.322 446.937 468.591C446.823 468.902 446.695 469.204 446.54 469.495C446.504 469.563 446.468 469.624 446.432 469.691C446.784 468.991 446.639 469.319 446.541 469.488C446.444 469.65 446.333 469.809 446.223 469.955C446.113 470.101 445.991 470.231 445.874 470.369C445.791 470.474 446.135 470.096 446.135 470.096C446.135 470.096 446.047 470.18 446.038 470.193C445.95 470.269 445.87 470.347 445.783 470.416C445.72 470.466 445.657 470.509 445.587 470.559C445.548 470.583 445.51 470.608 445.471 470.632C445.284 470.762 445.97 470.351 445.764 470.457C445.582 470.544 445.407 470.625 445.22 470.697C444.94 470.817 445.839 470.559 445.406 470.639C445.317 470.658 445.237 470.67 445.149 470.682C445.047 470.699 444.946 470.702 444.844 470.713C444.604 470.736 445.425 470.72 445.183 470.7C445.112 470.692 445.047 470.699 444.976 470.691C444.862 470.686 444.749 470.666 444.635 470.653C444.423 470.622 444.066 470.474 444.746 470.694C444.49 470.608 444.232 470.536 443.985 470.429C443.848 470.37 443.712 470.305 443.583 470.24C443.521 470.212 443.442 470.152 443.372 470.13C443.407 470.141 443.836 470.412 443.542 470.221C443.508 470.203 443.251 469.994 443.228 470.006C443.265 469.996 443.604 470.436 443.443 470.203C443.4 470.14 443.356 470.078 443.312 470.03C443.19 469.894 443.504 470.296 443.482 470.301C443.474 470.307 443.367 470.051 443.36 470.043C443.349 470.013 443.286 469.876 443.295 469.856C443.276 469.897 443.439 470.432 443.353 470.042C443.321 469.88 443.289 469.718 443.272 469.551C443.266 469.479 443.253 469.398 443.248 469.319C443.243 469.232 443.227 468.864 443.235 469.245C443.24 469.648 443.24 469.009 443.244 468.909C443.251 468.715 443.266 468.516 443.288 468.324C443.336 467.899 443.405 467.475 443.496 467.055C443.727 465.953 442.683 464.757 441.607 464.687C440.358 464.604 439.486 465.396 439.239 466.576C438.882 468.274 438.756 470.229 439.478 471.855C440.252 473.594 442.124 474.459 443.891 474.844C446.367 475.374 448.775 474.029 450.04 471.915C450.634 470.918 451.009 469.94 451.287 468.815C451.408 468.318 451.134 467.619 450.832 467.241C450.504 466.83 449.932 466.486 449.398 466.447C448.842 466.406 448.254 466.527 447.824 466.902C447.366 467.325 447.179 467.778 447.034 468.365Z" fill="#553529"/>
<path d="M453.556 482.75C453.466 482.841 453.35 482.921 453.26 483.012C452.991 483.298 453.554 482.894 453.174 483.074C452.779 483.267 452.392 483.446 451.98 483.601C451.178 483.898 450.548 484.065 449.572 484.249C449.095 484.339 448.619 484.415 448.133 484.454C448.025 484.463 447.426 484.482 447.929 484.481C447.706 484.485 447.485 484.467 447.257 484.456C445.951 484.374 444.646 484.227 443.349 484.002C440.911 483.577 438.463 482.856 436.285 481.648C434.575 480.694 432.846 479.328 432.092 477.727C430.921 475.239 426.991 476.959 428.175 479.464C430.694 484.791 437.132 487.211 442.546 488.201C445.116 488.669 447.769 488.968 450.355 488.462C452.25 488.093 454.814 487.533 456.233 486.098C457.043 485.277 457.352 484.068 456.571 483.09C455.909 482.268 454.374 481.923 453.556 482.75Z" fill="#553529"/>
<path d="M394.703 490.175C391.587 494.882 388.563 500.807 389.68 506.652C390.558 511.241 393.941 514.503 398.069 516.39C402.524 518.429 407.646 519.012 412.498 518.926C417.919 518.832 423.296 517.971 428.426 516.185C432.584 514.734 436.905 512.533 439.648 508.976C439.909 508.632 440.15 508.278 440.372 507.908C440.958 506.911 440.935 505.651 439.933 504.913C439.084 504.279 437.525 504.347 436.938 505.352C436.503 506.086 435.935 506.662 435.435 507.338C435.385 507.405 435.806 506.978 435.492 507.28C435.419 507.351 435.339 507.428 435.266 507.499C435.097 507.66 434.929 507.813 434.755 507.959C434.396 508.27 434.018 508.566 433.635 508.846C433.228 509.138 432.809 509.414 432.391 509.683C432.042 509.91 432.575 509.581 432.452 509.647C432.345 509.707 432.245 509.767 432.145 509.828C431.914 509.96 431.685 510.085 431.455 510.21C430.484 510.733 429.476 511.194 428.452 511.611C427.383 512.044 426.299 512.418 425.204 512.761C425.13 512.782 424.684 512.918 425.003 512.825C425.323 512.732 424.877 512.861 424.803 512.881C424.484 512.968 424.173 513.055 423.854 513.141C423.255 513.296 422.657 513.437 422.053 513.571C419.644 514.097 417.191 514.439 414.73 514.6C414.1 514.645 413.474 514.66 412.845 514.69C412.708 514.696 413.291 514.683 412.845 514.69C412.702 514.688 412.557 514.694 412.414 514.692C412.076 514.697 411.745 514.696 411.409 514.687C410.211 514.667 409.019 514.597 407.825 514.477C406.66 514.361 405.501 514.187 404.35 513.95C404.09 513.899 403.837 513.842 403.586 513.778C403.278 513.707 403.349 513.715 403.641 513.798C403.495 513.76 403.348 513.722 403.208 513.685C402.686 513.54 402.157 513.387 401.646 513.207C400.684 512.876 399.743 512.49 398.841 512.015C398.726 511.952 398.605 511.881 398.489 511.825C398.366 511.768 398.926 512.089 398.577 511.87C398.369 511.739 398.16 511.615 397.96 511.485C397.565 511.225 397.18 510.944 396.811 510.644C396.647 510.511 396.483 510.37 396.32 510.223C396.242 510.149 396.164 510.076 396.086 510.002C396.381 510.251 396.324 510.252 396.106 510.012C395.812 509.691 395.525 509.364 395.263 509.012C395.126 508.831 395.003 508.645 394.88 508.458C394.696 508.179 394.861 508.377 394.946 508.574C394.893 508.467 394.827 508.359 394.766 508.259C394.552 507.861 394.362 507.445 394.209 507.018C394.169 506.92 394.145 506.817 394.106 506.719C393.961 506.343 394.164 506.97 394.135 506.844C394.089 506.616 394.014 506.385 393.968 506.157C393.871 505.679 393.804 505.19 393.772 504.705C393.763 504.59 393.762 504.474 393.754 504.358C393.717 503.981 393.742 504.846 393.757 504.459C393.767 504.173 393.764 503.885 393.789 503.601C393.823 503.037 393.9 502.478 393.998 501.929C394.051 501.654 394.116 501.389 394.168 501.122C394.249 500.721 394.051 501.525 394.167 501.129C394.214 500.969 394.254 500.801 394.309 500.635C394.496 499.995 394.718 499.359 394.968 498.74C395.238 498.059 395.536 497.389 395.855 496.728C396.014 496.401 396.179 496.081 396.345 495.762C396.435 495.6 396.518 495.43 396.609 495.268C396.726 495.051 396.582 495.308 396.572 495.335C396.635 495.22 396.698 495.112 396.768 494.998C397.213 494.236 397.679 493.484 398.171 492.749C398.811 491.786 398.7 490.474 397.732 489.754C396.816 489.083 395.343 489.212 394.703 490.175Z" fill="#553529"/>
<path d="M452.886 597.323C451.614 603.776 451.428 610.473 450.972 617.017C450.394 625.279 449.807 633.562 448.513 641.744C448.172 643.882 447.789 646.009 447.314 648.118C447.069 649.211 446.965 649.624 446.696 650.606C446.439 651.555 446.154 652.492 445.84 653.427C445.473 654.521 445.915 655.763 447.036 656.213C448.067 656.623 449.452 656.125 449.821 655.017C452.33 647.533 453.307 639.553 454.087 631.73C454.881 623.715 455.29 615.671 455.956 607.648C456.225 604.359 456.513 601.036 457.151 597.796C457.372 596.657 456.347 595.55 455.262 595.428C454.026 595.296 453.114 596.185 452.886 597.323Z" fill="#553529"/>
<path d="M352.472 527.073C350.476 531.462 348.836 536.019 347.288 540.58C345.009 547.292 343 554.1 341.236 560.965C339.148 569.05 337.374 577.22 336.036 585.469C334.684 593.845 333.761 602.306 333.604 610.795C333.448 618.752 333.886 626.805 335.655 634.584C335.858 635.462 336.075 636.342 336.307 637.216C336.605 638.334 337.529 639.192 338.757 639C339.81 638.838 340.839 637.675 340.542 636.55C339.573 632.963 338.921 629.305 338.496 625.614C338.276 623.678 338.114 621.727 338.003 619.782C337.886 617.692 337.845 616.078 337.838 614.095C337.824 605.723 338.593 597.36 339.811 589.091C341.024 580.864 342.689 572.703 344.69 564.629C344.824 564.077 344.81 564.133 344.951 563.581C345.078 563.092 345.206 562.597 345.332 562.108C345.573 561.18 345.822 560.252 346.07 559.324C346.551 557.532 347.055 555.742 347.571 553.961C348.521 550.691 349.526 547.441 350.587 544.206C352.18 539.37 353.888 534.54 355.915 529.868C356.09 529.464 356.264 529.066 356.445 528.67C356.923 527.617 356.295 526.297 355.249 525.884C354.136 525.436 352.949 526.021 352.472 527.073Z" fill="#553529"/>
<path d="M395.9 488.283C377.788 485.721 359.798 493.633 346.431 505.479C339.105 511.968 332.893 519.798 327.48 527.926C321.869 536.354 317.126 545.369 313.346 554.758C307.623 568.973 304.563 584.04 302.712 599.207C301.817 606.521 301.224 613.905 301.444 621.273C301.603 626.629 301.91 633.158 306.115 637.037C310.455 641.053 317.23 641.313 322.795 641.019C327.262 640.782 331.732 640.013 336.055 638.876C336.307 638.811 336.559 638.738 336.812 638.666C337.918 638.345 338.787 637.459 338.596 636.216C338.432 635.184 337.26 634.111 336.146 634.431C333.078 635.329 329.886 635.918 326.72 636.345C325.312 636.532 323.902 636.675 322.484 636.759C322.181 636.776 321.877 636.792 321.574 636.808C321.393 636.816 321.205 636.824 321.026 636.825C320.412 636.85 321.478 636.826 320.867 636.829C320.134 636.833 319.401 636.829 318.672 636.798C317.249 636.738 315.821 636.592 314.422 636.319C314.141 636.266 313.861 636.199 313.58 636.138C314.134 636.265 313.156 636.019 312.996 635.965C312.371 635.773 311.757 635.545 311.163 635.277C310.876 635.144 310.59 635.004 310.312 634.851C310.821 635.124 310.125 634.729 309.998 634.643C309.744 634.471 309.492 634.292 309.255 634.1C309.136 634.007 309.018 633.901 308.907 633.802C308.454 633.421 308.98 633.925 308.751 633.655C308.384 633.219 308.029 632.798 307.708 632.331C308.029 632.798 307.56 632.048 307.49 631.904C307.332 631.584 307.203 631.261 307.083 630.924C306.996 630.677 306.916 630.424 306.843 630.179C307.044 630.826 306.815 630.046 306.78 629.913C306.62 629.291 306.49 628.659 306.375 628.021C306.144 626.752 305.994 625.463 305.887 624.18C305.616 620.909 305.614 618.501 305.724 615.094C305.837 611.471 306.108 607.852 306.471 604.243C307.223 596.79 308.353 589.366 309.805 582.014C311.168 575.141 312.564 569.5 314.907 562.787C321.265 544.599 331.19 527.265 344.494 513.243C355.938 501.181 372.267 491.882 389.148 492.036C391.251 492.057 393.345 492.22 395.431 492.513C398.151 492.926 398.63 488.669 395.9 488.283Z" fill="#553529"/>
<path d="M428.32 476.836C424.787 479.628 422.161 485.282 425.697 489.035C428.817 492.339 433.633 493.405 438.02 492.857C441.861 492.377 445.394 490.669 448.584 488.557C449.547 487.918 449.596 486.393 448.923 485.548C448.148 484.577 446.877 484.571 445.914 485.21C443.663 486.702 441.148 487.921 438.539 488.432C437.988 488.543 437.44 488.625 436.881 488.677C436.227 488.74 436.155 488.746 435.682 488.736C435.202 488.725 434.717 488.692 434.235 488.63C434.008 488.605 433.783 488.565 433.55 488.525C433.423 488.503 433.297 488.475 433.17 488.453C433.128 488.448 432.728 488.36 432.987 488.418C433.225 488.474 432.653 488.323 432.555 488.298C432.361 488.24 432.16 488.174 431.967 488.102C431.573 487.957 431.182 487.798 430.807 487.613C430.712 487.566 430.238 487.311 430.488 487.454C430.737 487.597 430.293 487.332 430.206 487.279C429.904 487.087 429.619 486.875 429.342 486.65C429.224 486.551 429.114 486.445 428.989 486.345C428.705 486.119 429.292 486.709 428.983 486.33C428.8 486.108 428.616 485.893 428.439 485.672C428.181 485.348 428.48 485.756 428.473 485.755C428.448 485.659 428.367 485.549 428.319 485.464C428.273 485.366 428.187 485.04 428.244 485.298C428.21 485.158 428.197 485.02 428.184 484.875C428.208 485.107 428.175 484.953 428.192 484.804C428.277 484.116 428.277 484.051 428.604 483.312C428.844 482.779 428.943 482.603 429.353 482.017C429.669 481.571 430.011 481.15 430.366 480.744C430.704 480.359 430.211 480.849 430.553 480.55C430.689 480.429 430.818 480.307 430.959 480.2C433.151 478.471 430.481 475.124 428.32 476.836Z" fill="#553529"/>
<path d="M438.183 508.718C442.291 508.605 446.429 508.029 450.461 507.254C455.829 506.22 461.27 504.734 466.134 502.185C471.555 499.339 476.343 495.416 480.458 490.9C486.928 483.782 491.447 474.972 493.919 465.709C497.659 451.695 497.284 436.701 494.501 422.543C492.215 410.934 487.513 399.469 479.088 390.949C472.837 384.627 464.982 380.172 456.415 377.836C449.898 376.054 443.206 375.373 436.459 375.569C433.381 375.661 430.212 375.858 427.203 376.547C421.148 377.934 415.601 381.068 411.017 385.222C402.577 392.859 397.22 403.371 393.691 414.046C392.438 417.842 391.406 421.713 390.515 425.608C391.11 424.985 391.712 424.356 392.307 423.733C387.064 424.415 381.897 428.001 379.203 432.468C376.607 436.767 375.774 441.933 375.841 446.898C375.904 451.697 376.731 456.676 379.19 460.875C381.799 465.336 386.073 468.468 391.376 468.598C390.746 467.809 390.116 467.019 389.487 466.23C389.198 468.669 389.37 471.225 389.687 473.646C390.387 478.984 392.27 484.146 395.319 488.592C397.499 491.761 400.332 494.487 403.509 496.648C404.463 497.301 405.793 497.163 406.504 496.209C407.172 495.314 407.027 493.86 406.065 493.213C401.113 489.847 397.65 485.434 395.586 479.899C395.365 479.307 395.167 478.71 394.975 478.113C394.948 478.031 394.861 477.72 394.974 478.12C394.934 477.972 394.892 477.831 394.851 477.683C394.764 477.371 394.685 477.053 394.606 476.735C394.345 475.671 394.136 474.592 393.978 473.503C393.843 472.59 393.745 471.674 393.684 470.754C393.655 470.37 393.641 469.981 393.627 469.598C393.621 469.526 393.622 469.447 393.623 469.375C393.606 468.95 393.625 469.936 393.629 469.52C393.633 469.355 393.624 469.181 393.628 469.017C393.628 468.248 393.643 467.474 393.736 466.715C393.864 465.638 393 464.376 391.847 464.347C391.367 464.336 390.889 464.304 390.414 464.244C390.167 464.208 389.919 464.173 389.673 464.124C389.568 464.105 389.47 464.08 389.364 464.061C389.014 463.985 389.657 464.144 389.315 464.048C388.891 463.928 388.468 463.787 388.063 463.62C387.843 463.53 387.631 463.435 387.42 463.332C387.332 463.286 387.244 463.24 387.155 463.194C386.809 463.019 387.236 463.246 387.034 463.123C386.665 462.895 386.311 462.654 385.967 462.392C385.808 462.274 385.65 462.141 385.499 462.016C385.401 461.933 384.912 461.483 385.152 461.719C384.492 461.07 383.905 460.343 383.388 459.573C383.339 459.503 382.991 458.954 383.16 459.239C383.052 459.054 382.943 458.869 382.843 458.678C382.598 458.234 382.37 457.77 382.163 457.309C381.951 456.832 381.755 456.343 381.572 455.855C381.396 455.376 381.242 454.899 381.164 454.631C380.566 452.538 380.251 450.361 380.136 448.186C380.029 446.198 380.175 443.757 380.507 441.567C380.837 439.406 381.338 437.508 382.384 435.492C382.421 435.417 382.681 434.957 382.529 435.221C382.653 435.012 382.784 434.804 382.915 434.596C383.175 434.201 383.449 433.815 383.735 433.438C383.995 433.108 384.261 432.786 384.548 432.473C384.638 432.376 384.945 432.072 384.687 432.324C384.864 432.157 385.034 431.982 385.218 431.816C385.795 431.291 386.402 430.807 387.048 430.369C387.204 430.265 387.366 430.161 387.522 430.056C387.591 430.014 387.66 429.971 387.723 429.928C387.978 429.77 387.4 430.114 387.66 429.971C387.967 429.804 388.274 429.623 388.587 429.465C389.182 429.158 389.801 428.89 390.424 428.651C390.709 428.547 391.001 428.443 391.285 428.346C391.315 428.335 391.628 428.233 391.627 428.24C391.626 428.247 391.064 428.393 391.545 428.267C392.018 428.148 392.492 428.022 392.973 427.961C393.987 427.83 394.555 426.996 394.765 426.086C396.367 419.067 398.553 412.15 401.622 405.626C402.917 402.869 404.007 400.844 405.594 398.364C406.885 396.339 408.304 394.387 409.855 392.549C410.219 392.123 410.583 391.697 410.96 391.28C411.141 391.078 411.329 390.876 411.516 390.681C411.638 390.552 412.166 390.015 411.801 390.383C412.522 389.659 413.248 388.951 414.014 388.275C415.379 387.064 416.819 385.947 418.341 384.94C418.667 384.725 419.013 384.527 419.339 384.305C419.581 384.138 418.863 384.582 419.231 384.372C419.301 384.329 419.37 384.287 419.439 384.252C419.639 384.13 419.846 384.017 420.053 383.897C420.705 383.532 421.362 383.189 422.037 382.87C423.199 382.311 424.396 381.828 425.613 381.419C425.874 381.333 426.135 381.247 426.396 381.169C426.947 380.994 426.107 381.244 426.336 381.184C426.463 381.148 426.589 381.112 426.722 381.076C427.196 380.95 427.669 380.831 428.148 380.727C428.892 380.566 429.647 380.428 430.405 380.334C431.616 380.176 432.829 380.061 434.045 379.975C435.074 379.897 436.1 379.847 437.131 379.819C437.282 379.814 437.432 379.824 437.578 379.805C436.765 379.878 437.362 379.809 437.556 379.809C437.873 379.802 438.196 379.802 438.512 379.802C439.195 379.8 439.876 379.812 440.564 379.832C443.779 379.928 446.984 380.238 450.154 380.803C451.02 380.958 451.878 381.126 452.74 381.317C453.167 381.415 453.595 381.513 454.021 381.619C453.335 381.455 454.146 381.654 454.279 381.684C454.531 381.748 454.782 381.819 455.033 381.884C456.886 382.401 458.714 383.009 460.502 383.72C462.407 384.481 464.27 385.359 466.071 386.337C466.091 386.347 466.543 386.606 466.239 386.435C465.935 386.264 466.387 386.524 466.408 386.533C466.617 386.657 466.819 386.773 467.028 386.897C467.512 387.189 467.989 387.487 468.465 387.792C469.382 388.384 470.281 389.017 471.155 389.675C472.057 390.352 472.932 391.068 473.782 391.81C474.174 392.156 474.559 392.501 474.936 392.86C475.066 392.982 475.189 393.097 475.319 393.219C475.261 393.162 475.022 392.92 475.307 393.203C475.54 393.431 475.765 393.664 475.991 393.891C477.691 395.634 479.248 397.512 480.662 399.496C481.041 400.027 481.405 400.564 481.76 401.107C481.944 401.386 482.121 401.665 482.291 401.943C482.364 402.059 482.431 402.167 482.504 402.283C482.759 402.699 482.408 402.114 482.637 402.506C483.344 403.692 484.005 404.909 484.62 406.149C485.956 408.836 487.079 411.628 488.022 414.478C490.228 421.186 491.426 428.735 492.021 435.965C492.588 442.804 492.489 449.684 491.483 456.518C491.263 458.024 490.994 459.524 490.683 461.012C490.541 461.693 490.386 462.373 490.224 463.044C490.183 463.219 490.142 463.394 490.093 463.568C490.182 463.226 490.093 463.575 490.072 463.63C489.961 464.042 489.858 464.447 489.74 464.858C489.031 467.393 488.181 469.898 487.168 472.328C486.694 473.474 486.179 474.602 485.637 475.719C485.385 476.23 485.127 476.74 484.862 477.241C484.725 477.499 484.588 477.764 484.444 478.021C484.389 478.122 484.328 478.223 484.273 478.325C484.03 478.764 484.433 478.048 484.202 478.446C483.09 480.347 481.919 482.198 480.612 483.977C479.434 485.576 478.168 487.122 476.818 488.579C476.663 488.749 476.499 488.924 476.336 489.093C476.255 489.177 475.823 489.631 476.051 489.398C476.279 489.158 475.841 489.604 475.766 489.69C475.579 489.884 475.386 490.071 475.192 490.257C474.579 490.856 473.945 491.446 473.298 492.02C471.176 493.901 468.908 495.6 466.504 497.104C466.342 497.208 465.915 497.555 466.527 497.092C466.417 497.173 466.281 497.237 466.165 497.31C465.934 497.449 465.703 497.581 465.473 497.714C465.059 497.947 464.637 498.18 464.21 498.398C462.585 499.242 460.897 499.943 459.175 500.561C453.289 502.68 447.016 503.77 440.805 504.314C439.71 504.407 438.607 504.498 437.512 504.526C436.351 504.56 435.571 505.938 435.727 506.976C435.928 508.198 437.023 508.746 438.183 508.718Z" fill="#553529"/>
<path d="M384.034 439.658C382.96 441.354 382.284 443.276 381.869 445.234C381.076 448.967 381.893 452.816 384.201 455.864C384.876 456.759 386.357 456.947 387.209 456.202C388.101 455.426 388.267 454.144 387.548 453.194C387.398 452.99 387.249 452.787 387.107 452.577C387.045 452.491 386.991 452.398 386.935 452.313C387.046 452.484 387.034 452.461 386.907 452.245C386.732 451.888 386.548 451.544 386.402 451.175C386.329 450.995 386.271 450.816 386.205 450.636C386.035 450.164 386.247 450.899 386.153 450.458C386.067 450.074 385.98 449.698 385.93 449.312C385.878 448.939 385.856 448.563 385.833 448.187C385.864 448.744 385.841 448.181 385.845 448.088C385.849 447.923 385.853 447.758 385.864 447.594C385.912 446.917 386.01 446.238 386.156 445.572C386.271 445.061 386.158 445.558 386.158 445.558C386.151 445.557 386.255 445.203 386.276 445.148C386.358 444.869 386.446 444.592 386.548 444.323C386.706 443.881 386.885 443.441 387.084 443.011C387.226 442.704 387.41 442.408 387.539 442.1C387.224 442.854 387.343 442.43 387.475 442.222C388.07 441.276 388.044 439.908 387.036 439.226C386.135 438.608 384.673 438.644 384.034 439.658Z" fill="#553529"/>
<path d="M461.397 425.32C456.532 423.415 413.699 411.698 402.418 426.272C398.02 431.956 394.31 447.431 392.623 425.838C392.375 422.677 387.281 429.576 387.726 424.475C389.621 403.033 402.737 367.176 439.35 366.037C490.283 364.439 487.564 390.135 513.747 401.616C536.248 411.469 495.156 438.56 461.397 425.32Z" fill="white"/>
<path d="M462.195 423.334C459.057 422.111 455.67 421.364 452.402 420.594C446.908 419.293 441.333 418.271 435.723 417.618C429.581 416.905 423.293 416.6 417.138 417.345C411.995 417.966 406.407 419.421 402.515 423.042C400.678 424.747 399.442 426.792 398.262 428.98C397.726 429.975 397.217 430.982 396.688 431.985C396.587 432.182 396.478 432.379 396.377 432.575C396.296 432.724 395.856 433.501 396.214 432.873C395.965 433.305 395.716 433.73 395.439 434.144C395.249 434.432 395.018 434.693 394.814 434.972C394.527 435.356 395.245 434.589 394.816 434.958C394.412 435.293 394.899 434.924 394.914 434.918C394.724 435.012 394.579 434.96 395.239 434.833C395.012 434.872 394.993 434.784 395.612 434.839C395.385 434.82 395.401 434.736 395.974 434.944C395.781 434.872 395.715 434.757 396.263 435.12C395.842 434.843 396.616 435.498 396.352 435.224C396.307 435.176 396.277 435.122 396.24 435.075C396.066 434.832 396.479 435.633 396.303 435.154C396.225 434.951 396.125 434.753 396.048 434.543C396.004 434.423 395.968 434.297 395.924 434.177C396.125 434.753 395.949 434.273 395.92 434.148C395.742 433.431 395.593 432.71 395.467 431.977C395.103 429.788 395.059 427.563 394.723 425.37C394.462 423.674 393.009 422.54 391.294 422.9C390.293 423.111 389.498 423.726 388.595 424.156C388.398 424.249 387.706 424.458 388.469 424.257C388.387 424.276 388.3 424.288 388.219 424.3C388.335 424.292 389.124 424.431 388.987 424.372C389.371 424.538 389.652 424.785 389.832 425.164C389.676 424.831 389.96 425.624 389.876 425.349C389.845 425.245 389.85 425.131 389.834 425.021C389.933 425.607 389.85 424.879 389.862 424.708C389.957 423.483 390.109 422.257 390.281 421.048C390.652 418.388 391.151 415.743 391.775 413.133C391.805 412.993 392.025 412.126 391.886 412.657C391.976 412.308 392.065 411.966 392.153 411.624C392.34 410.926 392.533 410.229 392.733 409.533C393.152 408.115 393.597 406.706 394.092 405.311C395.098 402.435 396.272 399.607 397.614 396.87C397.93 396.23 398.246 395.597 398.583 394.967C398.765 394.621 398.947 394.282 399.137 393.937C399.156 393.896 399.47 393.335 399.245 393.741C399.372 393.511 399.504 393.289 399.63 393.066C400.38 391.763 401.177 390.488 402.021 389.247C403.796 386.63 405.771 384.143 407.961 381.854C408.417 381.38 407.67 382.144 408.132 381.679C408.27 381.536 408.415 381.395 408.553 381.259C408.787 381.027 409.029 380.795 409.27 380.564C409.898 379.966 410.545 379.385 411.205 378.82C412.43 377.772 413.712 376.782 415.044 375.861C416.486 374.866 417.288 374.375 418.78 373.565C420.264 372.762 421.797 372.044 423.362 371.415C426.704 370.067 429.724 369.272 433.401 368.715C437.516 368.094 441.689 368.039 445.84 368.118C450.021 368.193 454.206 368.484 458.346 369.101C460.113 369.364 461.879 369.692 463.617 370.089C463.82 370.133 464.03 370.186 464.233 370.23C464.268 370.241 464.939 370.403 464.485 370.287C464.814 370.367 465.149 370.455 465.476 370.55C466.306 370.772 467.126 371.023 467.944 371.28C470.621 372.142 473.23 373.218 475.72 374.526C476.011 374.681 476.302 374.843 476.6 374.999C477.095 375.263 476.21 374.768 476.688 375.052C476.83 375.132 476.972 375.213 477.113 375.293C477.666 375.614 478.217 375.957 478.753 376.297C479.799 376.968 480.818 377.679 481.804 378.429C483.685 379.848 485.459 381.391 487.174 383C487.37 383.18 487.564 383.367 487.752 383.553C487.855 383.651 487.959 383.756 488.063 383.854C488.433 384.205 487.726 383.522 488.089 383.878C488.503 384.284 488.917 384.69 489.324 385.095C490.137 385.912 490.951 386.73 491.756 387.553C493.477 389.306 495.2 391.044 496.986 392.733C500.654 396.206 504.63 399.254 509.062 401.686C510.28 402.354 511.519 402.961 512.792 403.528C513.366 403.787 513.926 404.051 514.475 404.342C513.967 404.07 514.791 404.536 514.925 404.623C515.206 404.805 515.486 404.995 515.757 405.205C515.936 405.34 516.114 405.482 516.291 405.632C516.39 405.715 516.487 405.812 516.585 405.895C516.932 406.192 516.267 405.528 516.552 405.869C516.863 406.235 517.168 406.592 517.448 406.976C517.554 407.117 517.661 407.445 517.4 406.892C517.446 406.99 517.515 407.084 517.554 407.182C517.647 407.379 517.74 407.569 517.818 407.772C517.857 407.87 517.882 407.973 517.928 408.072C518.083 408.42 517.854 407.64 517.876 407.894C517.895 408.111 517.977 408.336 518.01 408.555C518.032 408.68 518.132 409.065 518.069 409.18C518.159 409.017 518.089 408.622 518.058 409.021C518.053 409.128 518.049 409.228 518.044 409.335C518.032 409.513 518.012 409.691 517.985 409.867C517.966 409.973 517.946 410.078 517.927 410.184C517.85 410.743 518.07 409.812 517.937 410.164C517.792 410.557 517.682 410.961 517.516 411.352C517.419 411.571 517.309 411.789 517.205 412.007C517.14 412.136 516.905 412.505 517.239 411.96C517.15 412.108 517.07 412.25 516.974 412.398C516.387 413.337 515.674 414.184 514.921 414.997C515.29 414.593 514.8 415.12 514.663 415.249C514.437 415.467 514.212 415.679 513.981 415.883C513.494 416.317 512.994 416.735 512.482 417.137C511.939 417.557 511.383 417.969 510.807 418.357C510.535 418.542 510.264 418.72 509.984 418.904C509.86 418.983 509.729 419.069 509.598 419.148C509.497 419.215 509.389 419.275 509.288 419.343C509.496 419.222 509.489 419.221 509.28 419.349C507.934 420.139 506.566 420.868 505.148 421.528C502.047 422.975 498.772 424.108 495.739 424.888C488.275 426.793 480.867 427.31 473.312 426.252C469.403 425.682 465.905 424.779 462.195 423.334C459.621 422.333 458.03 426.314 460.598 427.314C475.356 433.056 492.783 432.064 507.069 425.337C512.015 423.012 517.316 419.772 520.332 415.06C521.604 413.077 522.417 410.89 522.291 408.505C522.169 406.207 520.958 404.195 519.322 402.639C517.344 400.749 514.797 399.816 512.39 398.611C511.804 398.323 511.228 398.014 510.652 397.705C510.571 397.66 510.078 397.381 510.551 397.65C510.409 397.569 510.26 397.488 510.119 397.4C509.789 397.205 509.459 397.01 509.136 396.815C508.054 396.148 506.999 395.44 505.968 394.699C503.976 393.253 502.093 391.662 500.29 389.993C499.861 389.593 499.432 389.193 499.011 388.786C498.907 388.688 498.803 388.583 498.692 388.484C499.114 388.891 498.751 388.541 498.666 388.46C498.459 388.257 498.252 388.054 498.045 387.851C497.192 387.001 496.341 386.143 495.496 385.287C492.092 381.821 488.684 378.334 484.83 375.357C480.387 371.933 475.386 369.258 470.068 367.474C462.7 365.014 454.898 364.057 447.16 363.862C438.785 363.645 430.519 364.123 422.605 367.091C409.8 371.894 400.244 382.243 394.139 394.23C391.299 399.802 389.218 405.718 387.709 411.784C387.041 414.468 386.498 417.188 386.097 419.923C385.915 421.153 385.762 422.386 385.644 423.623C385.493 425.165 385.406 427.023 386.83 428.031C388.094 428.928 389.589 428.478 390.822 427.798C391.19 427.595 391.553 427.37 391.94 427.183C392.16 427.079 392.794 426.935 392.036 427.101C392.264 427.047 392.412 427.136 391.772 427.085C391.615 427.075 391.003 426.827 390.745 426.503C390.638 426.369 390.417 426.1 390.466 425.918C390.441 426.009 390.523 426.499 390.522 426.507C390.578 427.159 390.633 427.819 390.696 428.473C390.803 429.563 390.924 430.654 391.083 431.736C391.31 433.299 391.59 434.896 392.156 436.376C393.016 438.628 395.348 439.997 397.466 438.288C399.03 437.027 399.935 434.923 400.834 433.192C401.383 432.147 401.932 431.095 402.488 430.051C402.724 429.611 402.239 430.476 402.489 430.044C402.56 429.923 402.624 429.801 402.694 429.687C402.829 429.45 402.969 429.222 403.111 428.986C403.382 428.557 403.66 428.128 403.964 427.724C404.124 427.513 404.292 427.301 404.466 427.098C404.573 426.974 405.207 426.32 404.755 426.764C405.198 426.333 405.655 425.917 406.142 425.541C406.567 425.215 407.01 424.92 407.459 424.633C406.947 424.963 407.75 424.472 407.888 424.394C408.201 424.228 408.515 424.062 408.833 423.911C409.395 423.644 409.975 423.407 410.553 423.185C410.853 423.075 411.153 422.965 411.459 422.863C411.563 422.832 411.668 422.793 411.765 422.761C411.869 422.729 412.567 422.528 412.018 422.682C413.39 422.304 414.783 421.994 416.187 421.771C417.621 421.545 419.068 421.391 420.516 421.295C421.269 421.244 422.012 421.212 422.769 421.19C422.834 421.19 423.468 421.175 422.957 421.182C423.151 421.182 423.338 421.175 423.532 421.175C423.979 421.168 424.431 421.168 424.876 421.175C431.121 421.224 437.351 421.983 443.493 423.083C446.211 423.569 448.914 424.132 451.603 424.757C452.177 424.894 452.75 425.03 453.323 425.174C453.946 425.323 452.974 425.084 453.582 425.239C453.882 425.316 454.19 425.393 454.49 425.47C455.433 425.713 456.374 425.969 457.313 426.24C458.413 426.558 459.513 426.869 460.579 427.29C463.172 428.315 464.763 424.334 462.195 423.334Z" fill="#553529"/>
<path d="M444.879 510.125C448.548 511.551 452.155 513.143 455.668 514.932C456.66 515.439 457.651 515.96 458.625 516.493C458.862 516.62 459.099 516.755 459.335 516.889C458.923 516.656 459.713 517.104 459.808 517.158C460.321 517.453 460.833 517.747 461.338 518.049C463.507 519.334 465.631 520.701 467.703 522.142C477.632 529.043 485.978 537.375 493.111 547.151C498.128 554.031 502.353 561.44 505.916 569.169C507.072 571.67 510.994 569.949 509.833 567.433C503.716 554.178 495.623 541.751 485.294 531.378C477.504 523.546 468.63 516.972 458.874 511.793C454.853 509.66 450.702 507.792 446.462 506.144C443.901 505.151 442.311 509.125 444.879 510.125Z" fill="#553529"/>
<path d="M400.676 557.005C396.087 557.056 391.842 559.28 389.56 563.341C387.432 567.118 387.238 572.226 389.449 576.017C390.033 577.017 391.137 577.615 392.271 577.11C393.239 576.68 393.949 575.287 393.365 574.288C391.841 571.673 391.727 568.284 393.206 565.547C394.578 562.993 397.47 561.3 400.197 561.269C401.355 561.255 402.424 560.628 402.565 559.38C402.683 558.33 401.842 556.992 400.676 557.005Z" fill="#553529"/>
<path d="M401.062 568.651C398.06 569.147 395.384 570.52 392.796 572.061C391.525 572.823 390.203 573.529 389.149 574.589C387.942 575.804 387.26 577.337 386.998 579.024C386.578 581.794 387.454 584.615 389.038 586.877C390.668 589.187 393.06 590.663 395.772 591.335C396.898 591.612 398.023 590.489 398.14 589.446C398.284 588.169 397.376 587.362 396.251 587.078C394.832 586.724 393.352 585.573 392.386 584.2C391.426 582.835 390.89 580.957 391.302 579.214C391.759 577.254 393.843 576.36 395.442 575.434C397.416 574.298 399.46 573.249 401.728 572.879C404.444 572.43 403.793 568.197 401.062 568.651Z" fill="#553529"/>
<path d="M403.901 582.306C402.021 582.669 400.175 583.108 398.554 584.169C397.142 585.095 396.068 586.533 395.441 588.086C394.114 591.386 394.668 595.148 396.839 597.943C398.954 600.667 402.008 601.686 405.344 601.724C408.207 601.758 411.074 601.377 413.834 600.602C415.095 600.249 416.388 599.87 417.549 599.253C418.451 598.773 419.629 598.072 419.908 596.997C420.206 595.881 419.881 594.68 418.713 594.211C417.744 593.822 416.227 594.276 415.927 595.406C415.838 595.755 416.125 595.112 416.065 595.199C415.859 595.499 416.459 594.956 416.17 595.096C416.072 595.142 415.937 595.256 415.857 595.327C415.691 595.466 416.065 595.206 416.057 595.213C415.95 595.265 415.85 595.326 415.751 595.379C415.005 595.748 414.232 596.042 413.441 596.298C413.397 596.314 412.988 596.434 413.21 596.372C413.411 596.316 413.069 596.414 413.062 596.413C412.81 596.485 412.558 596.55 412.307 596.608C411.738 596.753 411.164 596.875 410.591 596.983C409.468 597.194 408.33 597.346 407.193 597.427C405.397 597.555 402.92 597.6 401.363 596.433C400.474 595.773 399.799 594.878 399.375 593.86C398.951 592.835 398.917 591.861 399.115 590.741C399.282 589.769 399.826 588.637 400.596 587.984C401.708 587.045 403.194 586.803 404.575 586.535C407.263 586.011 406.612 581.77 403.901 582.306Z" fill="#553529"/>
<path d="M407.408 596.15C413.005 594.876 418.586 597.193 424.106 597.871C429.584 598.545 434.966 597.333 439.39 593.965C441.755 592.162 443.617 589.857 444.989 587.238C445.528 586.214 444.791 584.852 443.794 584.452C442.625 583.983 441.548 584.616 441.008 585.648C439.105 589.277 435.362 592.219 431.399 593.274C426.289 594.632 421.156 592.934 416.12 592.029C413.029 591.473 409.824 591.22 406.735 591.922C405.607 592.176 404.762 593.173 404.95 594.372C405.123 595.455 406.273 596.411 407.408 596.15Z" fill="#553529"/>
<path d="M447.49 579.954C449.873 573.267 449.619 565.378 446.661 558.902C446.01 557.478 445.303 555.775 443.918 554.936C442.794 554.257 441.619 553.65 440.431 553.1C435.492 550.827 430.174 549.374 424.865 548.281C420.743 547.429 416.564 546.959 412.438 546.15C408.304 545.34 404.144 544.836 400.003 545.878C395.958 546.896 391.997 549.087 389.782 552.747C387.576 556.386 386.939 561.156 389.096 564.977C389.665 565.982 390.792 566.569 391.918 566.071C392.901 565.635 393.581 564.26 393.012 563.248C391.586 560.724 391.802 557.781 393.215 555.317C394.707 552.719 397.446 551.044 400.261 550.226C403.87 549.18 407.471 549.557 411.101 550.245C415.032 550.997 418.999 551.5 422.931 552.252C427.967 553.214 432.885 554.521 437.705 556.58C438.411 556.882 439.108 557.197 439.795 557.541C440.068 557.672 440.332 557.809 440.596 557.954C440.833 558.081 441.502 558.588 440.82 558.073C441.065 558.258 441.366 558.393 441.628 558.552C441.682 558.586 441.742 558.629 441.795 558.664C441.93 558.744 441.509 558.208 441.724 558.727C442 559.398 442.511 560.16 442.831 560.885C443.187 561.687 443.496 562.512 443.754 563.353C444.226 564.901 444.534 566.696 444.683 568.379C444.982 571.718 444.598 575.26 443.494 578.369C443.105 579.46 443.582 580.714 444.689 581.154C445.75 581.561 447.101 581.052 447.49 579.954Z" fill="#553529"/>
<path d="M445.812 559.36C446.573 558.734 447.519 558.115 448.342 557.949C448.938 557.829 448.886 557.838 449.362 557.891C449.39 557.894 450.07 558.043 449.653 557.924C449.925 557.998 450.192 558.107 450.445 558.229C451.024 558.509 450.167 558.011 450.694 558.379C450.867 558.499 451.039 558.626 451.203 558.767C451.71 559.183 450.976 558.49 451.431 558.979C451.527 559.083 451.622 559.195 451.71 559.305C452.26 559.978 452.462 560.417 452.819 561.391C452.864 561.504 452.975 561.984 452.83 561.421C452.871 561.57 452.912 561.718 452.945 561.865C453.018 562.175 453.09 562.492 453.14 562.814C453.264 563.503 453.35 564.203 453.408 564.906C453.437 565.283 453.46 565.659 453.482 566.035C453.489 566.23 453.496 566.425 453.502 566.62C453.494 566.123 453.505 566.792 453.499 566.842C453.506 567.741 453.469 568.642 453.411 569.541C453.189 573.044 452.545 576.664 451.643 579.695C451.136 581.391 450.532 583.055 449.777 584.658C449.607 585.02 449.431 585.374 449.248 585.72C449.185 585.835 449.129 585.951 449.066 586.058C449.292 585.646 448.987 586.186 448.96 586.233C448.562 586.9 448.13 587.548 447.645 588.155C447.537 588.286 447.436 588.418 447.321 588.542C447.255 588.621 446.75 589.153 447.147 588.752C446.888 589.011 446.622 589.261 446.338 589.488C445.651 590.042 445.255 590.242 444.365 590.616C443.339 591.047 442.279 591.337 441.11 591.385C440.317 591.411 439.539 591.237 438.953 590.755C438.058 590.029 436.627 590.292 435.958 591.194C435.239 592.155 435.495 593.462 436.397 594.189C438.451 595.857 441.383 595.921 443.847 595.278C445.912 594.742 447.973 593.86 449.548 592.378C452.288 589.805 453.973 586.251 455.167 582.736C456.51 578.777 457.346 574.603 457.65 570.434C457.918 566.836 457.894 563.026 456.709 559.58C455.897 557.218 454.068 555.08 451.74 554.121C448.711 552.882 445.538 554.012 443.129 556.004C441.019 557.772 443.688 561.126 445.812 559.36Z" fill="#553529"/>
<path d="M454.056 560.424C458.62 559.766 463.384 560.152 467.819 561.405C469.831 561.976 471.805 562.701 473.667 563.644C474.456 564.041 474.774 564.214 475.582 564.764C475.909 564.988 476.228 565.218 476.538 565.461C476.683 565.578 476.828 565.695 476.966 565.811C477.044 565.877 477.518 566.326 477.143 565.96C477.964 566.771 479.172 567.08 480.151 566.299C480.972 565.644 481.318 564.102 480.489 563.29C477.482 560.33 473.42 558.565 469.402 557.43C464.2 555.961 458.743 555.419 453.375 556.195C450.658 556.586 451.317 560.82 454.056 560.424Z" fill="#553529"/>
<path d="M455.875 551.346C456.881 552.048 457.852 552.804 458.772 553.626C458.968 553.799 459.157 553.979 459.345 554.158C459.702 554.493 459.002 553.818 459.346 554.151C459.436 554.24 459.533 554.337 459.623 554.426C459.946 554.75 460.26 555.087 460.575 555.424C461.804 556.755 462.971 558.137 464.329 559.346C465.172 560.094 466.713 559.808 467.324 558.907C468.022 557.879 467.788 556.703 466.885 555.912C466.722 555.764 466.567 555.61 466.404 555.469C466.496 555.544 466.772 555.834 466.527 555.584C466.449 555.51 466.372 555.43 466.301 555.357C466.024 555.075 465.755 554.786 465.486 554.49C464.911 553.857 464.345 553.204 463.754 552.578C462.139 550.844 460.376 549.273 458.438 547.913C457.519 547.271 456.107 547.37 455.443 548.352C454.806 549.286 454.896 550.661 455.875 551.346Z" fill="#553529"/>
<path d="M510.261 578.51C510.549 579.21 510.814 579.916 511.049 580.639C511.043 580.624 511.229 581.212 511.133 580.914C511.045 580.61 511.215 581.204 511.21 581.189C511.327 581.612 511.431 582.033 511.526 582.46C511.831 583.838 512.018 585.246 512.082 586.654C512.087 586.734 512.091 587.345 512.094 586.806C512.095 586.986 512.096 587.166 512.098 587.345C512.092 587.647 512.088 587.941 512.069 588.24C512.032 589.012 511.954 589.772 511.825 590.534C511.778 590.823 511.724 591.111 511.663 591.399C511.63 591.568 511.588 591.743 511.548 591.911C511.427 592.479 511.691 591.474 511.513 592.029C511.31 592.689 511.113 593.349 510.854 593.995C510.623 594.58 510.337 595.137 510.058 595.702C509.807 596.212 510.301 595.334 509.996 595.81C509.908 595.951 509.819 596.099 509.731 596.247C509.548 596.535 509.358 596.816 509.154 597.095C508.747 597.652 508.307 598.178 507.834 598.678C508.176 598.321 507.568 598.928 507.466 599.01C507.162 599.284 506.845 599.551 506.522 599.802C506.286 599.983 506.043 600.157 505.801 600.331C505.653 600.437 505.498 600.534 505.351 600.633C504.853 600.965 505.725 600.438 505.189 600.729C504.523 601.093 503.851 601.441 503.151 601.729C501.622 602.354 500.506 602.631 498.668 602.877C495.735 603.272 492.802 603.029 489.716 602.552C486.947 602.126 484.198 601.594 481.452 601.033C474.435 599.604 467.455 597.971 460.501 596.24C458.956 595.858 457.008 595.359 455.165 594.878C453.435 594.425 451.711 593.972 449.99 593.498C447.292 592.757 444.59 592 441.929 591.126C440.835 590.765 439.594 591.193 439.144 592.321C438.734 593.345 439.23 594.745 440.339 595.107C446.034 596.983 451.876 598.445 457.681 599.91C465.004 601.755 472.358 603.502 479.751 605.038C485.838 606.304 492.185 607.809 498.439 607.205C505.136 606.558 511.106 603.055 514.197 596.979C517.369 590.748 516.796 583.075 514.172 576.766C513.12 574.233 509.204 575.962 510.261 578.51Z" fill="#553529"/>
<path d="M524.744 445.105C531.321 445.105 536.423 443.219 538.517 436.415C541.807 425.722 541.316 413.818 541.316 402.756C541.316 397 541.022 390.727 543.267 385.301C545.451 380.025 555.24 377.888 560.097 376.39C568.591 373.769 577.404 371.619 586.169 370.129C593.402 368.9 600.39 369.612 607.638 370.129C609.31 370.249 611.566 369.793 613.198 370.35C617.841 371.936 621.453 376.697 623.62 380.772C632.13 396.781 636.365 414.591 641.406 431.848" stroke="#989F0C" stroke-width="3" stroke-linecap="round"/>
<path d="M524.744 434.499C534.975 434.027 551.393 432.94 557.592 423.305C561.283 417.568 563.32 409.849 565.178 403.345" stroke="#989F0C" stroke-width="3" stroke-linecap="round"/>
</g>
</g>
<g clip-path="url(#clip2_480_6651)">
<path d="M343.252 730.519C363.452 731.024 383.365 728.456 402.749 722.86C416.356 718.931 410.556 697.753 396.883 701.704C379.264 706.795 361.578 709.056 343.23 708.595C329.073 708.222 329.073 730.168 343.252 730.519Z" fill="#553529"/>
<path d="M370.355 699.948C368.304 718.251 364.996 758.786 339.085 757.689C326.868 757.184 323.802 776.98 336.152 779.24C353.617 782.422 371.104 777.55 387.776 772.524C401.316 768.442 395.538 747.242 381.91 751.368C372.229 754.287 362.195 757.447 352.051 758.303C347.134 758.72 344.289 758.501 341.995 758.084C341.025 765.26 340.033 772.459 339.063 779.635C380.631 781.391 388.901 730.936 392.385 699.948C393.973 685.946 371.898 686.056 370.355 699.948Z" fill="#553529"/>
<path d="M424.294 707.783C442.884 702.296 461.607 697.227 480.131 691.499C475.478 687.965 470.825 684.454 466.172 680.921C465.885 695.647 465.091 710.482 463.261 725.12C460.791 744.806 452.279 774.741 429.852 779.986C416.047 783.212 421.891 804.391 435.717 801.143C462.709 794.844 479.138 763.439 483.439 738.398C486.68 719.48 487.871 700.102 488.224 680.943C488.356 673.986 481.057 668.258 474.265 670.364C455.741 676.092 437.019 681.162 418.429 686.649C404.844 690.621 410.644 711.799 424.294 707.783Z" fill="#553529"/>
<path d="M427.36 699.026C426.169 712.128 423.368 732.363 408.88 737.52C395.627 742.26 401.338 763.461 414.746 758.676C440.172 749.612 447.185 723.343 449.412 699.026C450.691 684.959 428.639 685.046 427.36 699.026Z" fill="#553529"/>
<path d="M581.24 699.026C580.049 712.128 577.249 732.363 562.76 737.52C549.507 742.26 555.219 763.461 568.626 758.676C594.053 749.612 601.065 723.343 603.292 699.026C604.572 684.959 582.519 685.046 581.24 699.026Z" fill="#553529"/>
<path d="M512.173 740.636C527.984 741.053 542.869 738.925 558.041 734.469C571.625 730.475 565.848 709.297 552.175 713.313C538.746 717.264 526.154 719.085 512.173 718.712C497.971 718.295 497.993 740.241 512.173 740.636Z" fill="#553529"/>
<path d="M525.624 711.558C523.618 729.378 520.266 770.352 494.906 769.277C480.351 768.64 481.277 789.467 494.906 791.223C503.837 792.386 513.628 790.806 522.449 789.643C534.07 788.107 546.221 786.066 556.431 779.987C568.604 772.744 557.512 753.761 545.295 761.047C532.262 768.816 509.923 771.252 494.906 769.299C494.906 776.607 494.906 783.937 494.906 791.245C536.033 793.023 544.236 742.107 547.677 711.58C549.242 697.534 527.19 697.644 525.624 711.558Z" fill="#553529"/>
<path d="M579.101 703.152C599.036 697.271 619.06 691.74 638.907 685.595C634.254 682.062 629.601 678.55 624.948 675.017C623.558 709.231 621.111 744.126 604.197 774.741C585.32 808.933 552.286 816.9 515.436 817.054C501.257 817.119 501.213 839.066 515.436 839C557.799 838.824 597.36 828.334 620.603 790.345C641.884 755.582 645.39 714.74 647 675.017C647.287 668.016 639.701 662.376 633.041 664.439C613.194 670.584 593.17 676.114 573.235 681.996C559.673 685.99 565.451 707.168 579.101 703.152Z" fill="#553529"/>
<path d="M346.252 836.959H341.599C340.893 836.959 340.342 836.63 340.011 835.927L335.446 827.368L332.8 835.927C332.579 836.63 332.138 836.959 331.432 836.959H327.816C327.11 836.959 326.868 836.63 327.066 835.927L333.108 816.307C333.329 815.605 333.77 815.298 334.476 815.298H338.07C338.776 815.298 339.04 815.605 338.82 816.307L336.174 824.866L346.031 816.307C346.781 815.605 347.531 815.298 348.236 815.298H352.889C353.595 815.298 353.551 815.605 352.801 816.307L341.51 826.117L346.759 835.905C347.112 836.608 346.957 836.959 346.252 836.959Z" fill="#553529"/>
<path d="M356.969 817.69C357.167 817.032 357.631 816.681 358.336 816.681H361.953C362.658 816.681 362.901 817.01 362.703 817.69L362.394 818.722C362.195 819.38 361.732 819.731 361.027 819.731H357.41C356.704 819.731 356.462 819.402 356.66 818.722L356.969 817.69ZM355.734 821.728C355.955 821.048 356.396 820.719 357.101 820.719H360.718C361.424 820.719 361.688 821.026 361.468 821.728L357.079 835.928C356.859 836.63 356.418 836.959 355.712 836.959H352.095C351.39 836.959 351.147 836.63 351.346 835.928L355.734 821.728Z" fill="#553529"/>
<path d="M365.68 821.728C365.9 821.048 366.341 820.719 367.047 820.719H375.316C376.022 820.719 376.287 821.026 376.066 821.728L375.581 823.308C375.36 823.989 374.919 824.318 374.214 824.318H371.656C370.95 824.318 370.487 824.647 370.288 825.327L367.025 835.949C366.804 836.652 366.363 836.981 365.657 836.981H362.063C361.357 836.981 361.115 836.652 361.313 835.949L365.68 821.728Z" fill="#553529"/>
<path d="M393.09 835.928C392.87 836.63 392.429 836.959 391.723 836.959H379.837C377.014 836.959 376.022 835.62 376.838 832.943L380.3 821.75C380.521 821.07 380.962 820.741 381.667 820.741H385.284C385.99 820.741 386.254 821.048 386.034 821.75L382.77 832.372C382.572 833.031 382.814 833.382 383.52 833.382H387.136C387.842 833.382 388.305 833.053 388.504 832.372L391.767 821.75C391.988 821.07 392.429 820.741 393.135 820.741H396.729C397.435 820.741 397.699 821.048 397.479 821.75L393.09 835.928Z" fill="#553529"/>
<path d="M416.51 836.959H411.857C411.151 836.959 410.6 836.63 410.269 835.927L405.704 827.368L403.058 835.927C402.838 836.63 402.397 836.959 401.691 836.959H398.074C397.369 836.959 397.126 836.63 397.325 835.927L403.367 816.307C403.587 815.605 404.028 815.298 404.734 815.298H408.351C409.056 815.298 409.321 815.605 409.1 816.307L406.454 824.866L416.312 816.307C417.061 815.605 417.811 815.298 418.517 815.298H423.17C423.875 815.298 423.831 815.605 423.082 816.307L411.791 826.117L417.039 835.905C417.37 836.608 417.216 836.959 416.51 836.959Z" fill="#553529"/>
<path d="M427.227 817.69C427.426 817.032 427.889 816.681 428.595 816.681H432.189C432.895 816.681 433.137 817.01 432.939 817.69L432.63 818.722C432.432 819.38 431.969 819.731 431.263 819.731H427.668C426.963 819.731 426.72 819.402 426.919 818.722L427.227 817.69ZM425.992 821.728C426.213 821.048 426.654 820.719 427.36 820.719H430.954C431.66 820.719 431.925 821.026 431.704 821.728L427.316 835.928C427.095 836.63 426.654 836.959 425.948 836.959H422.354C421.648 836.959 421.406 836.63 421.604 835.928L425.992 821.728Z" fill="#553529"/>
<path d="M435.938 821.728C436.159 821.048 436.6 820.719 437.305 820.719H445.575C446.281 820.719 446.545 821.026 446.325 821.728L445.839 823.308C445.619 823.989 445.178 824.318 444.472 824.318H441.914C441.209 824.318 440.767 824.647 440.547 825.327L437.283 835.949C437.063 836.652 436.622 836.981 435.916 836.981H432.299C431.594 836.981 431.351 836.652 431.55 835.949L435.938 821.728Z" fill="#553529"/>
<path d="M463.349 835.928C463.128 836.63 462.687 836.959 461.982 836.959H450.096C447.273 836.959 446.28 835.62 447.096 832.943L450.559 821.75C450.779 821.07 451.22 820.741 451.926 820.741H455.542C456.248 820.741 456.513 821.048 456.292 821.75L453.028 832.372C452.83 833.031 453.073 833.382 453.778 833.382H457.395C458.101 833.382 458.564 833.053 458.762 832.372L462.026 821.75C462.246 821.07 462.687 820.741 463.393 820.741H466.988C467.693 820.741 467.958 821.048 467.737 821.75L463.349 835.928Z" fill="#553529"/>
</g>
<g clip-path="url(#clip3_480_6651)">
<path d="M115.519 842.747C116.024 822.547 113.456 802.634 107.86 783.25C103.932 769.644 82.7535 775.444 86.7038 789.116C91.7953 806.736 94.0558 824.422 93.5949 842.769C93.2219 856.927 115.168 856.927 115.519 842.747Z" fill="#553529"/>
<path d="M84.948 815.645C103.251 817.696 143.786 821.004 142.689 846.915C142.184 859.132 161.98 862.197 164.24 849.848C167.422 832.383 162.55 814.895 157.524 798.224C153.442 784.684 132.242 790.462 136.368 804.09C139.287 813.771 142.447 823.805 143.303 833.949C143.72 838.866 143.501 841.711 143.084 844.004C150.26 844.975 157.459 845.967 164.635 846.937C166.391 805.369 115.936 797.099 84.948 793.615C70.9462 792.027 71.056 814.102 84.948 815.645Z" fill="#553529"/>
<path d="M92.7829 761.706C87.2963 743.116 82.2267 724.393 76.4987 705.869C72.9653 710.522 69.4539 715.175 65.9206 719.828C80.6466 720.115 95.4823 720.909 110.12 722.739C129.806 725.209 159.741 733.721 164.986 756.148C168.212 769.953 189.391 764.109 186.143 750.283C179.844 723.291 148.439 706.862 123.398 702.561C104.48 699.32 85.1017 698.129 65.9425 697.776C58.9855 697.644 53.2575 704.943 55.3644 711.735C61.0924 730.259 66.162 748.981 71.6486 767.571C75.6208 781.156 96.7991 775.356 92.7829 761.706Z" fill="#553529"/>
<path d="M84.0263 758.64C97.1283 759.831 117.363 762.631 122.52 777.12C127.261 790.373 148.461 784.662 143.676 771.254C134.613 745.828 108.343 738.815 84.0263 736.588C69.9588 735.309 70.0465 757.361 84.0263 758.64Z" fill="#553529"/>
<path d="M84.0263 604.76C97.1283 605.95 117.363 608.751 122.52 623.239C127.261 636.493 148.461 630.781 143.676 617.374C134.613 591.947 108.343 584.935 84.0263 582.707C69.9588 581.428 70.0465 603.481 84.0263 604.76Z" fill="#553529"/>
<path d="M125.636 673.827C126.053 658.016 123.925 643.131 119.47 627.959C115.475 614.374 94.2971 620.152 98.3133 633.824C102.264 647.254 104.085 659.846 103.712 673.827C103.295 688.029 125.241 688.007 125.636 673.827Z" fill="#553529"/>
<path d="M96.5576 660.375C114.378 662.382 155.352 665.734 154.276 691.094C153.64 705.649 174.467 704.722 176.223 691.094C177.386 682.163 175.806 672.372 174.643 663.551C173.106 651.929 171.065 639.779 164.986 629.568C157.744 617.396 138.76 628.488 146.047 640.705C153.816 653.738 156.252 676.077 154.298 691.094C161.607 691.094 168.937 691.094 176.245 691.094C178.022 649.967 127.107 641.763 96.5796 638.323C82.5339 636.757 82.6437 658.81 96.5576 660.375Z" fill="#553529"/>
<path d="M88.1523 606.899C82.2706 586.964 76.7402 566.94 70.5952 547.093C67.0618 551.746 63.5504 556.399 60.0171 561.052C94.2314 562.441 129.126 564.889 159.741 581.803C193.934 600.68 201.9 633.714 202.054 670.564C202.12 684.743 224.066 684.787 224 670.564C223.824 628.201 213.334 588.64 175.345 565.396C140.582 544.116 99.7399 540.61 60.0171 539C53.0162 538.713 47.376 546.299 49.4389 552.959C55.5839 572.806 61.1144 592.829 66.996 612.765C70.9902 626.327 92.1684 620.549 88.1523 606.899Z" fill="#553529"/>
<path d="M202.69 829.031C202.032 828.833 201.681 828.37 201.681 827.664L201.681 824.047C201.681 823.342 202.01 823.099 202.69 823.298L203.722 823.606C204.38 823.805 204.731 824.268 204.731 824.974L204.731 828.59C204.731 829.296 204.402 829.538 203.722 829.34L202.69 829.031ZM206.728 830.266C206.048 830.046 205.719 829.604 205.719 828.899L205.719 825.282C205.719 824.577 206.026 824.312 206.728 824.532L220.927 828.921C221.63 829.141 221.959 829.582 221.959 830.288L221.959 833.905C221.959 834.61 221.63 834.853 220.927 834.654L206.728 830.266Z" fill="#553529"/>
<path d="M206.728 820.32C206.048 820.1 205.719 819.659 205.719 818.953L205.719 810.684C205.719 809.978 206.026 809.713 206.728 809.934L208.308 810.419C208.989 810.639 209.318 811.08 209.318 811.786L209.318 814.344C209.318 815.05 209.647 815.513 210.327 815.711L220.949 818.975C221.652 819.196 221.981 819.637 221.981 820.342L221.981 823.937C221.981 824.643 221.652 824.885 220.949 824.687L206.728 820.32Z" fill="#553529"/>
<path d="M220.927 792.909C221.63 793.13 221.959 793.571 221.959 794.276L221.959 806.163C221.959 808.985 220.62 809.978 217.943 809.162L206.75 805.699C206.07 805.479 205.741 805.038 205.741 804.332L205.741 800.716C205.741 800.01 206.048 799.745 206.75 799.966L217.372 803.23C218.031 803.428 218.382 803.185 218.382 802.48L218.382 798.863C218.382 798.158 218.052 797.694 217.372 797.496L206.75 794.232C206.07 794.012 205.741 793.571 205.741 792.865L205.741 789.271C205.741 788.565 206.048 788.3 206.75 788.521L220.927 792.909Z" fill="#553529"/>
<path d="M221.959 769.49L221.959 774.143C221.959 774.849 221.63 775.4 220.928 775.731L212.368 780.296L220.928 782.942C221.63 783.162 221.959 783.603 221.959 784.309L221.959 787.926C221.959 788.631 221.63 788.874 220.928 788.675L201.308 782.633C200.605 782.413 200.298 781.972 200.298 781.266L200.298 777.649C200.298 776.944 200.605 776.679 201.308 776.9L209.867 779.546L201.308 769.688C200.605 768.939 200.298 768.189 200.298 767.483L200.298 762.83C200.298 762.125 200.605 762.169 201.308 762.918L211.118 774.209L220.906 768.961C221.608 768.63 221.959 768.784 221.959 769.49Z" fill="#553529"/>
<path d="M202.69 758.772C202.032 758.574 201.681 758.111 201.681 757.405L201.681 753.811C201.681 753.105 202.01 752.862 202.69 753.061L203.722 753.37C204.38 753.568 204.731 754.031 204.731 754.737L204.731 758.331C204.731 759.037 204.402 759.28 203.722 759.081L202.69 758.772ZM206.728 760.007C206.048 759.787 205.719 759.346 205.719 758.64L205.719 755.046C205.719 754.34 206.026 754.075 206.728 754.296L220.927 758.684C221.63 758.905 221.959 759.346 221.959 760.051L221.959 763.646C221.959 764.352 221.63 764.594 220.927 764.396L206.728 760.007Z" fill="#553529"/>
<path d="M206.728 750.062C206.048 749.841 205.719 749.4 205.719 748.695L205.719 740.425C205.719 739.719 206.026 739.455 206.728 739.675L208.308 740.161C208.989 740.381 209.318 740.822 209.318 741.528L209.318 744.086C209.318 744.791 209.647 745.233 210.327 745.453L220.949 748.717C221.652 748.937 221.981 749.378 221.981 750.084L221.981 753.701C221.981 754.406 221.652 754.649 220.949 754.45L206.728 750.062Z" fill="#553529"/>
<path d="M220.927 722.651C221.63 722.871 221.959 723.312 221.959 724.018L221.959 735.904C221.959 738.727 220.62 739.719 217.943 738.903L206.75 735.441C206.07 735.221 205.741 734.78 205.741 734.074L205.741 730.457C205.741 729.752 206.048 729.487 206.75 729.708L217.372 732.971C218.031 733.17 218.382 732.927 218.382 732.221L218.382 728.605C218.382 727.899 218.052 727.436 217.372 727.238L206.75 723.974C206.07 723.753 205.741 723.312 205.741 722.607L205.741 719.012C205.741 718.307 206.048 718.042 206.75 718.262L220.927 722.651Z" fill="#553529"/>
</g>
<g clip-path="url(#clip4_480_6651)">
<path d="M115.519 231.747C116.024 211.547 113.456 191.634 107.86 172.25C103.932 158.644 82.7535 164.444 86.7038 178.116C91.7953 195.736 94.0558 213.422 93.5949 231.769C93.2219 245.927 115.168 245.927 115.519 231.747Z" fill="#553529"/>
<path d="M84.948 204.645C103.251 206.696 143.786 210.004 142.689 235.915C142.184 248.132 161.98 251.197 164.24 238.848C167.422 221.383 162.55 203.895 157.524 187.224C153.442 173.684 132.242 179.462 136.368 193.09C139.287 202.771 142.447 212.805 143.303 222.949C143.72 227.866 143.501 230.711 143.084 233.004C150.26 233.975 157.459 234.967 164.635 235.937C166.391 194.369 115.936 186.099 84.948 182.615C70.9462 181.027 71.056 203.102 84.948 204.645Z" fill="#553529"/>
<path d="M92.7829 150.706C87.2963 132.116 82.2267 113.393 76.4987 94.8693C72.9653 99.5223 69.4539 104.175 65.9206 108.828C80.6466 109.115 95.4823 109.909 110.12 111.739C129.806 114.209 159.741 122.721 164.986 145.148C168.212 158.953 189.391 153.109 186.143 139.283C179.844 112.291 148.439 95.8617 123.398 91.5615C104.48 88.3198 85.1017 87.129 65.9425 86.7761C58.9855 86.6438 53.2575 93.9431 55.3644 100.735C61.0924 119.259 66.162 137.981 71.6486 156.571C75.6208 170.156 96.7991 164.356 92.7829 150.706Z" fill="#553529"/>
<path d="M84.0263 147.64C97.1283 148.831 117.363 151.631 122.52 166.12C127.261 179.373 148.461 173.662 143.676 160.254C134.613 134.828 108.343 127.815 84.0263 125.588C69.9588 124.309 70.0465 146.361 84.0263 147.64Z" fill="#553529"/>
<path d="M84.0263 -6.24036C97.1283 -5.04954 117.363 -2.24891 122.52 12.2394C127.261 25.4928 148.461 19.7813 143.676 6.37352C134.613 -19.0527 108.343 -26.0653 84.0263 -28.2926C69.9588 -29.5716 70.0465 -7.51939 84.0263 -6.24036Z" fill="#553529"/>
<path d="M125.636 62.8273C126.053 47.0158 123.925 32.1305 119.47 16.9586C115.475 3.37443 94.2971 9.15211 98.3133 22.8245C102.264 36.2543 104.085 48.8461 103.712 62.8273C103.295 77.0289 125.241 77.0068 125.636 62.8273Z" fill="#553529"/>
<path d="M96.5576 49.3754C114.378 51.3821 155.352 54.7341 154.276 80.0941C153.64 94.6486 174.467 93.7224 176.223 80.0941C177.386 71.163 175.806 61.3718 174.643 52.5509C173.106 40.9294 171.065 28.7786 164.986 18.5684C157.744 6.39557 138.76 17.4879 146.047 29.7048C153.816 42.7377 156.252 65.0766 154.298 80.0941C161.607 80.0941 168.937 80.0941 176.245 80.0941C178.022 38.9667 127.107 30.7633 96.5796 27.3232C82.5339 25.7574 82.6437 47.8097 96.5576 49.3754Z" fill="#553529"/>
<path d="M88.1523 -4.10122C82.2706 -24.0364 76.7402 -44.0599 70.5952 -63.9069C67.0618 -59.2539 63.5504 -54.6008 60.0171 -49.9478C94.2314 -48.5585 129.126 -46.1107 159.741 -29.1967C193.934 -10.3199 201.9 22.7143 202.054 59.5636C202.12 73.7432 224.066 73.7873 224 59.5636C223.824 17.2012 213.334 -22.3605 175.345 -45.6035C140.582 -66.8839 99.7399 -70.3903 60.0171 -72.0001C53.0162 -72.2867 47.376 -64.7008 49.4389 -58.041C55.5839 -38.194 61.1144 -18.1706 66.996 1.76467C70.9902 15.3268 92.1684 9.54912 88.1523 -4.10122Z" fill="#553529"/>
<path d="M221.959 228.748L221.959 233.401C221.959 234.107 221.63 234.658 220.928 234.989L212.368 239.554L220.928 242.2C221.63 242.421 221.959 242.862 221.959 243.567L221.959 247.184C221.959 247.89 221.63 248.132 220.928 247.934L201.308 241.891C200.605 241.671 200.298 241.23 200.298 240.524L200.298 236.93C200.298 236.224 200.605 235.959 201.308 236.18L209.867 238.826L201.308 228.969C200.605 228.219 200.298 227.469 200.298 226.764L200.298 222.111C200.298 221.405 200.605 221.449 201.308 222.199L211.118 233.49L220.906 228.241C221.608 227.888 221.959 228.043 221.959 228.748Z" fill="#553529"/>
<path d="M202.69 218.031C202.032 217.833 201.681 217.37 201.681 216.664L201.681 213.047C201.681 212.342 202.01 212.099 202.69 212.298L203.722 212.606C204.38 212.805 204.731 213.268 204.731 213.974L204.731 217.59C204.731 218.296 204.402 218.538 203.722 218.34L202.69 218.031ZM206.728 219.266C206.048 219.046 205.719 218.604 205.719 217.899L205.719 214.282C205.719 213.577 206.026 213.312 206.728 213.532L220.927 217.921C221.63 218.141 221.959 218.582 221.959 219.288L221.959 222.905C221.959 223.61 221.63 223.853 220.927 223.654L206.728 219.266Z" fill="#553529"/>
<path d="M206.728 209.32C206.048 209.1 205.719 208.659 205.719 207.953L205.719 199.684C205.719 198.978 206.026 198.713 206.728 198.934L208.308 199.419C208.989 199.639 209.318 200.08 209.318 200.786L209.318 203.344C209.318 204.05 209.647 204.513 210.327 204.711L220.949 207.975C221.652 208.196 221.981 208.637 221.981 209.342L221.981 212.937C221.981 213.643 221.652 213.885 220.949 213.687L206.728 209.32Z" fill="#553529"/>
<path d="M220.927 181.909C221.63 182.13 221.959 182.571 221.959 183.276L221.959 195.163C221.959 197.985 220.62 198.978 217.943 198.162L206.75 194.699C206.07 194.479 205.741 194.038 205.741 193.332L205.741 189.716C205.741 189.01 206.048 188.745 206.75 188.966L217.372 192.23C218.031 192.428 218.382 192.185 218.382 191.48L218.382 187.863C218.382 187.158 218.052 186.694 217.372 186.496L206.75 183.232C206.07 183.012 205.741 182.571 205.741 181.865L205.741 178.271C205.741 177.565 206.048 177.3 206.75 177.521L220.927 181.909Z" fill="#553529"/>
<path d="M221.959 158.49L221.959 163.143C221.959 163.849 221.63 164.4 220.928 164.731L212.368 169.296L220.928 171.942C221.63 172.162 221.959 172.603 221.959 173.309L221.959 176.926C221.959 177.631 221.63 177.874 220.928 177.675L201.308 171.633C200.605 171.413 200.298 170.972 200.298 170.266L200.298 166.649C200.298 165.944 200.605 165.679 201.308 165.9L209.867 168.546L201.308 158.688C200.605 157.939 200.298 157.189 200.298 156.483L200.298 151.83C200.298 151.125 200.605 151.169 201.308 151.918L211.118 163.209L220.906 157.961C221.608 157.63 221.959 157.784 221.959 158.49Z" fill="#553529"/>
<path d="M202.69 147.772C202.032 147.574 201.681 147.111 201.681 146.405L201.681 142.811C201.681 142.105 202.01 141.862 202.69 142.061L203.722 142.37C204.38 142.568 204.731 143.031 204.731 143.737L204.731 147.331C204.731 148.037 204.402 148.28 203.722 148.081L202.69 147.772ZM206.728 149.007C206.048 148.787 205.719 148.346 205.719 147.64L205.719 144.046C205.719 143.34 206.026 143.075 206.728 143.296L220.927 147.684C221.63 147.905 221.959 148.346 221.959 149.051L221.959 152.646C221.959 153.352 221.63 153.594 220.927 153.396L206.728 149.007Z" fill="#553529"/>
<path d="M206.728 139.062C206.048 138.841 205.719 138.4 205.719 137.695L205.719 129.425C205.719 128.719 206.026 128.455 206.728 128.675L208.308 129.161C208.989 129.381 209.318 129.822 209.318 130.528L209.318 133.086C209.318 133.791 209.647 134.233 210.327 134.453L220.949 137.717C221.652 137.937 221.981 138.378 221.981 139.084L221.981 142.701C221.981 143.406 221.652 143.649 220.949 143.45L206.728 139.062Z" fill="#553529"/>
<path d="M220.927 111.651C221.63 111.871 221.959 112.312 221.959 113.018L221.959 124.904C221.959 127.727 220.62 128.719 217.943 127.903L206.75 124.441C206.07 124.221 205.741 123.78 205.741 123.074L205.741 119.457C205.741 118.752 206.048 118.487 206.75 118.708L217.372 121.971C218.031 122.17 218.382 121.927 218.382 121.221L218.382 117.605C218.382 116.899 218.052 116.436 217.372 116.238L206.75 112.974C206.07 112.753 205.741 112.312 205.741 111.607L205.741 108.012C205.741 107.307 206.048 107.042 206.75 107.262L220.927 111.651Z" fill="#553529"/>
</g>
<g clip-path="url(#clip5_480_6651)">
<path d="M658.079 521.007V487.981C658.079 479.094 650.86 471.881 641.964 471.881H571.232C566.775 471.881 562.745 473.688 559.826 476.61C548.212 476.61 538.167 475.644 531.89 475.644C531.89 475.644 548.928 490.608 555.117 496.798V521.007C555.117 529.9 562.331 537.106 571.232 537.106H641.958C650.86 537.106 658.079 529.9 658.079 521.007Z" fill="white"/>
<path d="M659.962 521.007C659.962 517.72 659.962 514.428 659.962 511.141C659.962 505.466 659.962 499.79 659.962 494.114C659.962 490.081 660.326 485.792 658.914 481.941C656.29 474.798 649.478 470.019 641.857 470C639.629 469.994 637.4 470 635.165 470C630.432 470 625.698 470 620.965 470C615.101 470 609.244 470 603.381 470C597.762 470 592.15 470 586.531 470C582.545 470 578.546 470 574.553 470C571.138 470 567.817 469.956 564.565 471.286C562.287 472.214 560.246 473.55 558.495 475.274C558.94 475.092 559.38 474.904 559.826 474.722C554.502 474.729 549.179 474.515 543.861 474.246C539.875 474.045 535.882 473.769 531.89 473.763C530.333 473.763 529.303 475.87 530.559 476.974C536.56 482.248 542.524 487.567 548.388 492.991C550.208 494.679 552.029 496.372 553.786 498.128C553.604 497.683 553.416 497.244 553.234 496.798C553.234 500.706 553.234 504.606 553.234 508.514C553.234 512.665 553.215 516.824 553.234 520.975C553.272 529.16 558.966 536.579 566.995 538.486C569.638 539.113 572.344 538.987 575.03 538.987C579.086 538.987 583.141 538.987 587.203 538.987C592.803 538.987 598.409 538.987 604.009 538.987C609.803 538.987 615.604 538.987 621.398 538.987C626.05 538.987 630.702 538.987 635.36 538.987C637.532 538.987 639.698 538.994 641.87 538.987C649.453 538.956 656.221 534.24 658.876 527.147C659.604 525.196 659.943 523.089 659.962 521.007C659.981 518.586 656.214 518.58 656.196 521.007C656.189 521.59 656.164 522.167 656.101 522.744C656.064 523.089 655.932 523.791 655.8 524.343C655.536 525.434 655.204 526.356 654.771 527.216C653.747 529.266 652.498 530.841 650.646 532.283C649.089 533.5 647.074 534.434 644.99 534.905C643.929 535.143 643.138 535.218 641.958 535.224C641.907 535.224 641.857 535.224 641.813 535.224C638.894 535.231 635.975 535.224 633.062 535.224C627.092 535.224 621.122 535.224 615.158 535.224C608.321 535.224 601.485 535.224 594.655 535.224C589.067 535.224 583.474 535.224 577.887 535.224C575.357 535.224 572.783 535.35 570.253 535.193C568.213 535.068 566.034 534.415 564.208 533.368C562.4 532.333 560.711 530.809 559.575 529.166C557.704 526.444 557.007 523.628 557.007 520.398C557.007 514.635 557.007 508.865 557.007 503.101C557.007 501.057 557.07 499 557.007 496.961C556.963 495.557 555.55 494.572 554.596 493.663C553.253 492.377 551.884 491.104 550.516 489.843C545.155 484.889 539.712 480.041 534.244 475.218C533.905 474.917 533.566 474.616 533.22 474.315C532.781 475.387 532.335 476.453 531.89 477.526C536.397 477.532 540.904 477.864 545.406 478.084C548.287 478.222 551.175 478.347 554.063 478.416C555.62 478.454 557.183 478.479 558.746 478.485C559.769 478.492 560.529 478.498 561.332 477.764C561.753 477.382 562.161 476.986 562.619 476.641C565.193 474.697 568.276 473.757 571.477 473.757C572.419 473.757 573.367 473.757 574.308 473.757C578.653 473.757 582.991 473.757 587.335 473.757C593.493 473.757 599.652 473.757 605.81 473.757C612.038 473.757 618.272 473.757 624.499 473.757C629.051 473.757 633.608 473.757 638.16 473.757C639.265 473.757 640.363 473.757 641.468 473.757C641.631 473.757 641.794 473.757 641.958 473.757C643.822 473.769 645.818 474.152 647.426 474.829C649.428 475.669 650.947 476.761 652.379 478.291C653.672 479.664 654.783 481.496 655.386 483.233C656.108 485.321 656.196 487.115 656.196 489.298C656.196 494.572 656.196 499.846 656.196 505.121C656.196 510.138 656.196 515.155 656.196 520.173C656.196 520.449 656.196 520.731 656.196 521.007C656.196 523.434 659.962 523.434 659.962 521.007Z" fill="#553529"/>
<path d="M581.568 498.536V500.088H591.28V498.536H581.568ZM581.072 507.88V509.48H591.52V507.88H581.072ZM585.456 497.416V501.576H587.328V497.416H585.456ZM584.48 503.704H588.336V504.328H584.48V503.704ZM584.48 505.432H588.336V506.056H584.48V505.432ZM584.48 501.992H588.336V502.6H584.48V501.992ZM582.736 500.824V507.24H590.16V500.824H582.736ZM586.976 510.296C588.048 510.952 589.232 511.848 589.872 512.44L591.648 511.56C590.864 510.936 589.488 510.04 588.304 509.368L586.976 510.296ZM584 509.448C583.248 510.12 581.888 510.744 580.576 511.128C580.992 511.432 581.68 512.104 582 512.472C583.312 511.928 584.864 511.032 585.808 510.056L584 509.448ZM576.704 501.24V503.048H581.552V501.24H576.704ZM578.32 497.656V508.28H580.112V497.656H578.32ZM576.352 508.12L577.072 510.056C578.528 509.416 580.352 508.616 582.016 507.816L581.568 506.04C579.664 506.84 577.664 507.656 576.352 508.12ZM595.088 513.208C597.072 512.616 598.256 511.144 598.256 509.336C598.256 507.992 597.648 507.128 596.528 507.128C595.664 507.128 594.944 507.672 594.944 508.568C594.944 509.496 595.68 510.008 596.48 510.008C596.832 510.008 597.168 509.896 597.424 509.656L596.544 508.216L596.656 509.8C596.656 510.712 595.92 511.496 594.576 511.928L595.088 513.208ZM609.28 499.112V500.76H614.816V499.112H609.28ZM611.2 510.024V511.576H615.216V510.024H611.2ZM611.2 507.464V508.92H615.264V507.464H611.2ZM608.592 502.072V503.736H616.784V502.072H608.592ZM611.392 497.544V503.176H613.168V497.544H611.392ZM615.6 498.12C614.208 501.896 611.616 504.776 608.176 506.408C608.512 506.792 609.072 507.592 609.28 508.008C612.896 506.056 615.696 502.808 617.328 498.616L615.6 498.12ZM611.808 504.92H611.12L610.08 506.024V512.408H611.808V506.456H615.184V504.92H611.808ZM614.416 504.92V512.184H616.24V504.92H614.416ZM617.296 498.312V512.424H619.184V500.104H622V498.312H617.296ZM621.552 498.312V498.968C621.2 500.12 620.448 502.552 619.792 504.12C621.104 505.352 621.472 506.536 621.472 507.416C621.472 507.96 621.36 508.328 621.056 508.504C620.88 508.6 620.64 508.648 620.4 508.648C620.112 508.664 619.792 508.648 619.376 508.616C619.68 509.128 619.872 509.96 619.888 510.472C620.384 510.504 620.896 510.488 621.28 510.44C621.712 510.392 622.096 510.248 622.416 510.024C623.04 509.608 623.312 508.824 623.312 507.624C623.312 506.568 623.024 505.304 621.68 503.88C622.32 502.456 623.04 500.632 623.6 499.096L622.208 498.232L621.92 498.312H621.552ZM629.568 498.536V500.088H639.28V498.536H629.568ZM629.072 507.88V509.48H639.52V507.88H629.072ZM633.456 497.416V501.576H635.328V497.416H633.456ZM632.48 503.704H636.336V504.328H632.48V503.704ZM632.48 505.432H636.336V506.056H632.48V505.432ZM632.48 501.992H636.336V502.6H632.48V501.992ZM630.736 500.824V507.24H638.16V500.824H630.736ZM634.976 510.296C636.048 510.952 637.232 511.848 637.872 512.44L639.648 511.56C638.864 510.936 637.488 510.04 636.304 509.368L634.976 510.296ZM632 509.448C631.248 510.12 629.888 510.744 628.576 511.128C628.992 511.432 629.68 512.104 630 512.472C631.312 511.928 632.864 511.032 633.808 510.056L632 509.448ZM624.704 501.24V503.048H629.552V501.24H624.704ZM626.32 497.656V508.28H628.112V497.656H626.32ZM624.352 508.12L625.072 510.056C626.528 509.416 628.352 508.616 630.016 507.816L629.568 506.04C627.664 506.84 625.664 507.656 624.352 508.12Z" fill="#553529"/>
</g>
</g>
<path d="M16 1H660V-1H16V1ZM675 16V815H677V16H675ZM660 830H16V832H660V830ZM1 815V16H-1V815H1ZM16 830C7.71573 830 1 823.284 1 815H-1C-1 824.389 6.61117 832 16 832V830ZM675 815C675 823.284 668.284 830 660 830V832C669.389 832 677 824.389 677 815H675ZM660 1C668.284 1 675 7.71573 675 16H677C677 6.61116 669.389 -1 660 -1V1ZM16 -1C6.61116 -1 -1 6.61116 -1 16H1C1 7.71573 7.71573 1 16 1V-1Z" fill="black"/>
<defs>
<clipPath id="clip0_480_6651">
<path d="M0 16C0 7.16344 7.16344 0 16 0H660C668.837 0 676 7.16344 676 16V815C676 823.837 668.837 831 660 831H16C7.16345 831 0 823.837 0 815V16Z" fill="white"/>
</clipPath>
<clipPath id="clip1_480_6651">
<rect width="211.173" height="292.431" fill="white" transform="translate(330.697 350.363) rotate(6.41971)"/>
</clipPath>
<clipPath id="clip2_480_6651">
<rect width="320" height="175" fill="white" transform="translate(327 664)"/>
</clipPath>
<clipPath id="clip3_480_6651">
<rect width="320" height="175" fill="white" transform="translate(49 859) rotate(-90)"/>
</clipPath>
<clipPath id="clip4_480_6651">
<rect width="320" height="175" fill="white" transform="translate(49 248) rotate(-90)"/>
</clipPath>
<clipPath id="clip5_480_6651">
<rect width="130" height="69" fill="white" transform="translate(530 470)"/>
</clipPath>
</defs>
</svg>
