<svg width="164" height="108" viewBox="0 0 164 108" fill="none" xmlns="http://www.w3.org/2000/svg">
<path d="M97.8812 24.3829L97.8813 24.3829C105.953 20.0496 114.866 17.5 123.468 17.5C134.302 17.5 142.559 21.536 147.211 27.9839C151.862 34.4295 152.974 43.3741 149.34 53.3283C145.699 63.2898 137.997 72.3373 128.467 78.8968C118.938 85.4559 107.62 89.5 96.7824 89.5C88.7016 89.5 82.0496 87.2534 77.2666 83.4368L77.2663 83.4366C74.1683 80.9685 69.361 80.9565 65.2346 83.0853L65.2345 83.0853C57.3914 87.1349 48.8206 89.5 40.5355 89.5C29.6981 89.5 21.439 85.4655 16.7867 79.0184C12.1362 72.5737 11.0255 63.6291 14.664 53.6716C18.3093 43.7101 26.011 34.6626 35.5397 28.1032C45.068 21.5441 56.3838 17.5 67.2216 17.5C75.627 17.5 82.479 19.9305 87.3008 24.0194L87.3013 24.0198C89.9916 26.2954 94.2512 26.3303 97.8812 24.3829Z" stroke="#553529"/>
<path d="M81.1058 43.3125V35.4489H82.8899V43.3125H81.1058ZM78.0661 40.2727V38.4886H85.9297V40.2727H78.0661ZM57.536 57.216V59.152H64.192V57.216H57.536ZM50.688 64.72V66.656H65.312V64.72H50.688ZM56.448 52.608V65.792H58.512V52.608H56.448ZM73.568 58.208H79.04V58.864H73.568V58.208ZM73.568 56.544H79.04V57.2H73.568V56.544ZM71.824 55.504V59.92H80.88V55.504H71.824ZM71.152 60.608L71.312 62.048C73.68 62 77.088 61.904 80.32 61.808L80.368 60.496C77.024 60.56 73.456 60.608 71.152 60.608ZM78.208 60C78.992 60.704 79.92 61.712 80.336 62.352L81.696 61.584C81.248 60.928 80.272 59.968 79.472 59.312L78.208 60ZM75.36 52.544V61.392L77.216 61.2V52.544H75.36ZM70.816 62.576V64.048H81.504V62.576H70.816ZM77.616 61.392V65.632C77.616 65.824 77.536 65.888 77.312 65.888C77.072 65.904 76.256 65.904 75.52 65.872C75.744 66.32 75.968 66.992 76.048 67.472C77.216 67.472 78.064 67.472 78.672 67.216C79.296 66.976 79.472 66.544 79.472 65.68V61.392H77.616ZM72.24 64.544C72.928 65.2 73.76 66.144 74.112 66.752L75.632 65.776C75.216 65.168 74.352 64.288 73.648 63.68L72.24 64.544ZM71.168 53.504V54.896H81.36V53.504H71.168ZM69.792 52.48C68.976 54.768 67.584 57.04 66.128 58.496C66.464 58.96 66.976 60.016 67.152 60.48C68.896 58.656 70.56 55.776 71.6 53.04L69.792 52.48ZM68.24 56.896V67.424H70.08V55.088L70.064 55.072L68.24 56.896ZM85.888 59.968V61.44H94.08V59.968H85.888ZM85.888 62.48V63.936H94.08V62.48H85.888ZM85.888 65.024V66.688H94.096V65.024H85.888ZM82.768 54.56V56.336H97.28V54.56H82.768ZM84.336 57.328V67.44H86.256V58.992H93.568V67.44H95.568V57.328H84.336ZM89.008 55.616C88.88 56.368 88.608 57.392 88.32 58.128L90.192 58.352C90.56 57.664 91.072 56.704 91.44 55.68L89.008 55.616ZM92.752 52.368C92.432 53.104 91.872 54.096 91.376 54.768L93.088 55.248C93.632 54.656 94.336 53.776 94.96 52.848L92.752 52.368ZM85.264 53.056C85.84 53.68 86.496 54.56 86.768 55.12L88.56 54.192C88.224 53.648 87.584 52.864 86.976 52.304L85.264 53.056ZM104.272 56H107.568V56.64H104.272V56ZM102.752 55.04V57.6H109.184V55.04H102.752ZM103.664 60.64H108.192V63.712H103.664V60.64ZM102.208 59.6V64.768H109.744V59.6H102.208ZM105.344 61.904H106.48V62.448H105.344V61.904ZM104.32 61.104V63.248H107.584V61.104H104.32ZM101.456 58.08V59.12H110.56V58.08H101.456ZM105.104 56.976V58.544H106.72V56.976H105.104ZM99.136 52.96V67.44H100.928V54.528H111.04V67.44H112.912V52.96H99.136ZM100.272 65.296V66.88H111.984V65.296H100.272Z" fill="#553529"/>
</svg>
