<svg width="298" height="165" viewBox="0 0 298 165" fill="none" xmlns="http://www.w3.org/2000/svg">
<g clip-path="url(#clip0_376_2646)">
<path fill-rule="evenodd" clip-rule="evenodd" d="M99.4929 40.3915C113.645 29.1963 132.923 35.9681 150.881 37.7513C170.563 39.7057 193.578 35.3226 205.716 50.9395C218.922 67.9291 218.926 93.2548 208.762 112.22C199.644 129.234 178.542 133.247 159.604 136.984C144.037 140.056 128.579 138.614 114.79 130.764C99.365 121.983 84.547 110.068 81.5849 92.5683C78.3561 73.493 84.3204 52.3939 99.4929 40.3915Z" fill="white" stroke="#553529" stroke-width="4"/>
<path d="M133.896 49.3282C128.611 50.7315 128.139 53.5472 129.377 52.7768C130.615 52.0064 133.66 51.2887 134.059 51.0686C134.508 50.8255 134.63 49.1333 133.896 49.3282Z" fill="#553529"/>
<path d="M147.069 50.1928C149.016 50.1859 150.566 51.3599 151.664 52.0179C152.366 52.4375 152.588 48.966 146.567 48.0122C145.732 47.8815 145.299 50.1996 147.069 50.1928Z" fill="#553529"/>
<path d="M133.405 52.926C132.119 53.1117 131.371 55.2946 131.733 57.8031C132.096 60.3093 133.433 62.1918 134.719 62.006C136.005 61.8203 136.753 59.6374 136.39 57.1289C136.028 54.6228 134.691 52.7402 133.405 52.926Z" fill="#553529"/>
<path d="M148.519 61.031C149.784 60.7335 150.338 58.4927 149.758 56.0261C149.178 53.5595 147.682 51.8012 146.417 52.0987C145.153 52.3963 144.598 54.637 145.178 57.1036C145.758 59.5702 147.254 61.3285 148.519 61.031Z" fill="#553529"/>
<path d="M139.479 63.9091C139.569 64.6108 139.81 65.3583 140.355 65.8421C140.731 66.1769 141.199 66.3695 141.708 66.3672C141.981 66.3649 142.263 66.3144 142.52 66.225C142.825 66.1195 143.148 65.9934 143.361 65.7389C143.857 65.1496 143.912 64.315 143.843 63.579C143.808 63.2213 143.552 62.8727 143.155 62.8911C142.811 62.9071 142.43 63.196 142.467 63.579C142.492 63.8449 142.501 64.1132 142.476 64.3792C142.476 64.3723 142.467 64.4732 142.467 64.4709C142.458 64.4709 142.492 64.315 142.472 64.4228C142.46 64.4801 142.449 64.5374 142.435 64.5924C142.421 64.6452 142.405 64.6979 142.387 64.7484C142.364 64.8149 142.341 64.7759 142.412 64.691C142.394 64.7117 142.385 64.7484 142.371 64.7736C142.359 64.7942 142.343 64.8126 142.334 64.8355C142.311 64.8905 142.387 64.769 142.391 64.7667C142.364 64.7873 142.32 64.8332 142.3 64.8607C142.387 64.7438 142.417 64.7828 142.362 64.8103C142.343 64.8194 142.325 64.8309 142.304 64.8401C142.3 64.8424 142.233 64.8814 142.219 64.8791C142.263 64.8836 142.35 64.8263 142.238 64.8699C142.137 64.9089 142.031 64.941 141.926 64.9662C141.885 64.9754 141.841 64.9822 141.798 64.9914C141.69 65.0143 141.871 64.9799 141.876 64.9822C141.843 64.9799 141.807 64.9891 141.775 64.9891C141.738 64.9914 141.699 64.9914 141.662 64.9914C141.632 64.9914 141.472 64.9731 141.616 64.9937C141.761 65.0143 141.607 64.9891 141.577 64.9822C141.536 64.9731 141.497 64.9593 141.456 64.9478C141.444 64.9433 141.412 64.9364 141.405 64.9295C141.399 64.9226 141.582 65.0143 141.495 64.9662C141.467 64.9501 141.44 64.9387 141.412 64.9226C141.383 64.9043 141.353 64.8859 141.323 64.8676C141.22 64.8034 141.461 64.9891 141.348 64.8882C141.298 64.8424 141.247 64.7942 141.201 64.7438C141.178 64.7186 141.107 64.6291 141.19 64.7346C141.277 64.847 141.188 64.7277 141.169 64.7002C141.133 64.6429 141.096 64.5856 141.064 64.5259C141.048 64.4961 141.032 64.4663 141.018 64.4365C141.004 64.4067 140.945 64.2714 141.002 64.4067C141.057 64.5397 141.004 64.409 140.99 64.3769C140.979 64.3448 140.965 64.3104 140.956 64.276C140.935 64.2118 140.917 64.1476 140.899 64.0834C140.883 64.0238 140.869 63.9665 140.857 63.9069C140.841 63.8289 140.814 63.6019 140.853 63.9137C140.828 63.7234 140.793 63.5675 140.651 63.4276C140.532 63.3084 140.337 63.219 140.165 63.2258C139.833 63.2373 139.429 63.5262 139.479 63.9091Z" fill="#553529"/>
<path d="M155.021 74.8259C155.151 75.0804 155.275 75.3372 155.39 75.5986C155.406 75.6353 155.463 75.7706 155.417 75.6628C155.44 75.7201 155.463 75.7751 155.486 75.8325C155.532 75.9517 155.578 76.0709 155.622 76.1925C155.773 76.6189 155.894 77.0546 155.972 77.4994C155.982 77.5476 155.988 77.5957 155.995 77.6439C156 77.6668 156.002 77.692 156.007 77.715C156.02 77.8113 155.991 77.5774 156 77.6714C156.009 77.77 156.02 77.8686 156.027 77.9672C156.039 78.1483 156.043 78.3272 156.037 78.5083C156.034 78.5978 156.027 78.6872 156.018 78.7766C156.014 78.8156 156.007 78.8569 156.004 78.8958C156.014 78.7766 156.02 78.7904 156.002 78.889C155.975 79.0449 155.94 79.2008 155.894 79.3544C155.871 79.4324 155.846 79.5081 155.819 79.5814C155.807 79.6158 155.789 79.6479 155.78 79.6846C155.775 79.6984 155.846 79.5447 155.784 79.6709C155.716 79.8107 155.647 79.946 155.564 80.079C155.527 80.1386 155.486 80.1959 155.445 80.2556C155.424 80.2854 155.401 80.3106 155.383 80.3404C155.443 80.2533 155.459 80.2487 155.392 80.3243C155.291 80.4413 155.188 80.5536 155.078 80.6591C155.025 80.7073 154.973 80.7554 154.918 80.8013C154.89 80.8242 154.863 80.8471 154.835 80.8701C154.725 80.9641 154.934 80.8013 154.846 80.8632C154.716 80.9526 154.587 81.0466 154.452 81.1292C154.317 81.2094 154.179 81.2851 154.039 81.3539C153.964 81.3906 153.888 81.4227 153.812 81.4594C153.702 81.5121 153.948 81.4066 153.833 81.4502C153.789 81.4662 153.748 81.4846 153.705 81.5006C153.384 81.6244 153.053 81.7207 152.719 81.7987C152.542 81.84 152.363 81.8767 152.182 81.9065C152.097 81.9202 152.012 81.9317 151.928 81.9455C151.799 81.9661 152.07 81.9294 151.939 81.9432C151.889 81.9477 151.838 81.9546 151.788 81.9615C151.029 82.0463 150.261 82.0532 149.499 82.0005C149.3 81.9867 149.1 81.9684 148.903 81.9455C148.811 81.9363 148.72 81.9225 148.628 81.9111C148.584 81.9065 148.77 81.9317 148.628 81.9111C148.566 81.9019 148.506 81.8927 148.445 81.8835C148.059 81.8239 147.674 81.7483 147.294 81.6565C146.92 81.5671 146.551 81.4639 146.186 81.3447C146.012 81.2874 145.838 81.2278 145.666 81.1636C145.578 81.1315 145.489 81.0971 145.402 81.0627C145.363 81.0466 145.322 81.0306 145.283 81.0145C145.212 80.987 145.351 81.0443 145.349 81.042C145.324 81.0306 145.296 81.0191 145.271 81.0076C144.645 80.7325 144.051 80.4069 143.499 80.0056C143.416 79.946 143.457 79.9689 143.519 80.024C143.492 80.001 143.462 79.9781 143.435 79.9552C143.37 79.9024 143.306 79.8474 143.242 79.7924C143.134 79.6961 143.029 79.5952 142.928 79.492C142.877 79.4393 142.827 79.3842 142.781 79.3292C142.751 79.2948 142.611 79.1251 142.689 79.2214C142.767 79.32 142.643 79.1572 142.618 79.1228C142.579 79.0655 142.543 79.0082 142.506 78.9509C142.437 78.8362 142.375 78.7193 142.32 78.5955C142.169 78.2561 141.676 78.1759 141.38 78.3478C141.031 78.5519 140.981 78.9486 141.132 79.2879C141.69 80.5307 142.935 81.402 144.12 81.9821C145.64 82.7274 147.294 83.147 148.974 83.3258C150.556 83.4955 152.23 83.4336 153.75 82.9337C155.122 82.4843 156.419 81.6267 157.013 80.2647C157.772 78.5221 157.314 76.6052 156.587 74.9336C156.47 74.6631 156.341 74.3948 156.206 74.1311C156.037 73.8009 155.573 73.7046 155.266 73.8835C154.931 74.0807 154.851 74.4934 155.021 74.8259Z" fill="#553529"/>
<path d="M158.568 74.9818C158.795 75.562 158.986 76.1558 159.121 76.7658C159.148 76.8873 159.171 77.0088 159.194 77.1326C159.206 77.2014 159.217 77.2702 159.229 77.3367C159.233 77.3711 159.238 77.4055 159.245 77.4376C159.265 77.5706 159.233 77.3436 159.245 77.4307C159.272 77.6806 159.295 77.9306 159.302 78.1851C159.309 78.4304 159.304 78.6758 159.284 78.9188C159.279 78.9784 159.275 79.0358 159.268 79.0954C159.263 79.1275 159.245 79.2926 159.258 79.1779C159.275 79.0541 159.247 79.2559 159.242 79.2788C159.231 79.3407 159.219 79.4049 159.208 79.4668C159.167 79.6778 159.112 79.8865 159.048 80.0905C159.015 80.1868 158.983 80.2831 158.947 80.3771C158.915 80.4574 158.882 80.5308 158.94 80.3978C158.915 80.4528 158.892 80.5078 158.866 80.5606C158.779 80.744 158.683 80.9252 158.577 81.0994C158.522 81.1888 158.465 81.276 158.405 81.3608C158.38 81.3975 158.353 81.4342 158.325 81.4709C158.215 81.6245 158.353 81.4434 158.302 81.503C158.036 81.8217 157.757 82.1175 157.436 82.3835C157.399 82.4133 157.362 82.4408 157.328 82.4706C157.259 82.5302 157.445 82.3858 157.309 82.4844C157.222 82.5486 157.135 82.6105 157.048 82.6724C156.867 82.7939 156.681 82.9086 156.491 83.0163C156.296 83.1241 156.096 83.225 155.895 83.319C155.849 83.3396 155.805 83.3603 155.759 83.3786C155.734 83.3901 155.707 83.4015 155.681 83.413C155.599 83.4497 155.812 83.3603 155.727 83.3924C155.62 83.4336 155.514 83.4772 155.406 83.5185C154.971 83.679 154.524 83.8097 154.072 83.9152C153.836 83.9702 153.597 84.016 153.356 84.0573C153.242 84.0757 153.129 84.094 153.015 84.1101C152.838 84.1353 153.145 84.094 152.967 84.1169C152.898 84.1261 152.827 84.133 152.758 84.1422C151.756 84.2522 150.745 84.2568 149.74 84.1697C149.619 84.1582 149.497 84.1467 149.376 84.1353C149.319 84.1284 149.264 84.1238 149.206 84.1169C149.17 84.1123 148.954 84.0848 149.055 84.0986C149.165 84.1123 148.952 84.0848 148.929 84.0802C148.871 84.0711 148.816 84.0642 148.759 84.055C148.621 84.0344 148.486 84.0092 148.349 83.9862C147.844 83.8945 147.344 83.7776 146.851 83.6377C146.363 83.5001 145.884 83.3373 145.411 83.1516C145.352 83.1287 145.294 83.1035 145.235 83.0805C145.088 83.0209 145.315 83.1172 145.203 83.0668C145.079 83.014 144.957 82.959 144.836 82.904C144.616 82.8031 144.4 82.6953 144.185 82.5807C143.76 82.3537 143.348 82.1037 142.956 81.824C142.864 81.7598 142.774 81.691 142.683 81.6245C142.609 81.5718 142.777 81.7002 142.646 81.5947C142.593 81.5534 142.543 81.5121 142.49 81.4686C142.316 81.3241 142.144 81.1728 141.981 81.0146C141.814 80.8541 141.653 80.689 141.502 80.5147C141.431 80.4345 141.362 80.3519 141.293 80.2694C141.279 80.251 141.156 80.0974 141.227 80.1891C141.293 80.2763 141.172 80.1157 141.153 80.0882C140.892 79.7305 140.663 79.3476 140.475 78.9463C140.454 78.9028 140.433 78.8569 140.413 78.8111C140.337 78.6437 140.436 78.8776 140.399 78.7812C140.36 78.6758 140.319 78.5703 140.28 78.4648C140.158 78.114 139.807 77.8824 139.434 77.9833C139.092 78.0773 138.831 78.4763 138.952 78.8294C139.629 80.7761 141.078 82.2986 142.807 83.374C144.664 84.5274 146.803 85.1763 148.961 85.4606C151.031 85.7335 153.203 85.6486 155.209 85.0341C157.034 84.4746 158.775 83.4268 159.781 81.7598C160.919 79.8773 160.843 77.5729 160.212 75.5321C160.116 75.2226 160.008 74.9176 159.891 74.6173C159.756 74.271 159.43 74.0303 159.045 74.1357C158.717 74.2252 158.433 74.6333 158.568 74.9818Z" fill="#553529"/>
<path d="M142.985 77.9464C141.495 77.7378 140.013 77.3617 138.576 76.9215C136.698 76.3437 134.829 75.6008 133.192 74.4978C133.04 74.3947 132.891 74.2915 132.742 74.1837C132.662 74.1241 132.582 74.0645 132.502 74.0049C132.465 73.9773 132.426 73.9521 132.394 73.9223C132.591 74.0966 132.408 73.9315 132.355 73.8902C131.967 73.583 131.594 73.2597 131.231 72.9226C130.805 72.5236 130.394 72.104 130.005 71.6684C129.782 71.4184 129.564 71.1639 129.356 70.9048C129.31 70.8475 129.264 70.7924 129.22 70.7351C129.193 70.7007 129.165 70.6663 129.14 70.6319C129.044 70.5104 129.234 70.7581 129.14 70.6319C129.032 70.4875 128.922 70.3453 128.817 70.1986C127.895 68.926 127.125 67.5479 126.508 66.1034C126.572 66.2524 126.446 65.952 126.428 65.9039C126.393 65.8168 126.357 65.7273 126.322 65.6402C126.23 65.4063 126.143 65.1701 126.061 64.934C125.907 64.4983 125.77 64.0604 125.643 63.6178C125.366 62.6433 125.153 61.6505 124.999 60.6485C124.981 60.5361 124.965 60.4237 124.949 60.3091C124.917 60.0844 124.965 60.4444 124.937 60.2174C124.928 60.1486 124.919 60.0798 124.912 60.011C124.878 59.729 124.848 59.4492 124.823 59.1672C124.772 58.6054 124.74 58.0414 124.722 57.4773C124.685 56.2254 124.726 54.9688 124.836 53.7215C125.086 50.8782 125.689 48.0258 126.545 45.2834C127.255 43.0042 128.184 40.8695 129.509 38.8517C129.789 38.4252 130.083 38.0102 130.392 37.6066C130.307 37.7167 130.438 37.5493 130.443 37.5424C130.482 37.492 130.523 37.4416 130.562 37.3911C130.628 37.3086 130.695 37.226 130.764 37.1458C130.924 36.9532 131.087 36.7651 131.254 36.5794C131.876 35.8892 132.55 35.2472 133.272 34.6625C133.359 34.5914 133.449 34.5203 133.538 34.4516C133.416 34.5456 133.634 34.3782 133.666 34.3553C133.845 34.2223 134.024 34.0916 134.208 33.9677C134.565 33.7224 134.932 33.4885 135.308 33.2707C135.657 33.0666 136.014 32.8763 136.377 32.6975C136.546 32.6149 136.718 32.5324 136.89 32.4544C136.984 32.4131 137.078 32.3719 137.172 32.3306C137.202 32.3168 137.363 32.2503 137.195 32.3214C137.241 32.3031 137.289 32.2824 137.335 32.2641C138.732 31.6931 140.199 31.301 141.689 31.0695C141.765 31.058 141.838 31.0465 141.914 31.0351C141.96 31.0282 142.004 31.0236 142.049 31.0167C142.21 30.9938 141.884 31.0374 142.045 31.0167C142.221 30.9961 142.398 30.9732 142.575 30.9548C142.905 30.9204 143.235 30.8929 143.567 30.8723C144.205 30.8333 144.842 30.8218 145.48 30.8333C146.051 30.8448 146.622 30.8746 147.193 30.9227C147.442 30.9433 147.692 30.9686 147.942 30.9984C148.055 31.0121 148.167 31.0259 148.277 31.0397C148.307 31.0442 148.337 31.0465 148.366 31.0511C148.49 31.0672 148.178 31.0259 148.3 31.0419C148.362 31.0511 148.424 31.058 148.486 31.0672C149.598 31.2277 150.737 31.4272 151.804 31.794C151.985 31.8559 152.161 31.9224 152.34 31.9935C152.379 32.0096 152.42 32.0256 152.459 32.0417C152.567 32.0852 152.287 31.966 152.393 32.0142C152.418 32.0256 152.443 32.0348 152.466 32.0463C152.567 32.0921 152.67 32.138 152.771 32.1838C153.221 32.3971 153.656 32.6378 154.076 32.9038C154.31 33.0529 154.539 33.2088 154.764 33.3739C154.826 33.4197 154.885 33.4656 154.947 33.5092C155.089 33.6169 154.849 33.4289 154.993 33.5435C155.119 33.6421 155.243 33.743 155.367 33.8462C155.897 34.2933 156.392 34.7794 156.853 35.2954C156.972 35.4283 157.087 35.5613 157.201 35.6989C157.265 35.7746 157.327 35.8525 157.389 35.9305C157.421 35.9695 157.451 36.0085 157.483 36.0497C157.508 36.0795 157.605 36.2057 157.502 36.0727C157.761 36.412 158.011 36.7583 158.245 37.116C158.749 37.8818 159.198 38.682 159.597 39.5075C160.074 40.4912 160.418 41.3579 160.781 42.4448C161.186 43.6577 161.512 44.8959 161.778 46.1456C162.069 47.5145 162.285 48.8971 162.443 50.2866C162.477 50.5847 162.633 50.8713 162.947 50.9493C163.092 50.9837 163.232 51.0341 163.369 51.0869C163.436 51.1121 163.5 51.1396 163.566 51.1648C163.644 51.1946 163.401 51.0915 163.548 51.158C163.596 51.1786 163.642 51.2015 163.69 51.2222C163.883 51.3116 164.069 51.4102 164.252 51.5179C164.474 51.6486 164.683 51.7954 164.894 51.9444C164.993 52.0132 164.812 51.8756 164.935 51.9765C164.988 52.0201 165.043 52.0637 165.096 52.1095C165.213 52.2081 165.325 52.3113 165.433 52.4191C165.534 52.5177 165.63 52.6209 165.724 52.7263C165.775 52.7837 165.825 52.8433 165.875 52.9029C165.887 52.9166 165.965 53.0152 165.914 52.9487C165.859 52.88 165.96 53.0107 165.969 53.0221C166.169 53.295 166.345 53.5839 166.499 53.8866C166.653 54.1915 166.749 54.4346 166.861 54.8313C166.976 55.2279 167.056 55.6544 167.088 56.0121C167.171 56.8903 167.159 57.78 167.063 58.6582C166.9 60.1578 166.43 61.733 165.545 63.0056C165.52 63.0446 165.493 63.0813 165.465 63.118C165.465 63.118 165.337 63.2876 165.408 63.1982C165.353 63.2693 165.293 63.3381 165.236 63.4069C165.105 63.5582 164.967 63.7027 164.821 63.8379C164.74 63.9113 164.658 63.9824 164.575 64.0535C164.562 64.0649 164.474 64.1337 164.562 64.0672C164.518 64.0993 164.474 64.1314 164.431 64.1635C164.275 64.2736 164.11 64.3768 163.94 64.4662C163.855 64.5121 163.768 64.5533 163.681 64.5923C163.796 64.5396 163.548 64.6428 163.518 64.6542C163.335 64.7184 163.147 64.7712 162.957 64.8079C162.913 64.817 162.869 64.8239 162.826 64.8308C162.801 64.8354 162.654 64.8514 162.778 64.8377C162.677 64.8491 162.576 64.856 162.473 64.8606C162.248 64.8698 162.026 64.8629 161.803 64.8423C161.585 64.8216 161.301 64.9821 161.209 65.1839C160.764 66.1446 160.253 67.0802 159.721 67.9973C159.219 68.8618 158.687 69.7079 158.109 70.5242C157.541 71.3267 156.986 72.0329 156.245 72.7758C156.052 72.9707 155.853 73.1565 155.647 73.3353C155.548 73.4225 155.445 73.505 155.342 73.5876C155.25 73.6609 155.47 73.4958 155.316 73.6059C155.255 73.6517 155.19 73.6976 155.126 73.7435C154.927 73.8833 154.72 74.0117 154.507 74.1241C154.413 74.1745 154.317 74.2181 154.22 74.264C154.062 74.3396 154.358 74.2227 154.193 74.2731C154.129 74.2938 154.064 74.319 154 74.3419C153.647 74.4589 153.418 74.8166 153.519 75.188C153.613 75.532 154.012 75.7865 154.365 75.6695C156.307 75.0252 157.752 73.3032 158.935 71.7165C160.054 70.2169 161.014 68.5958 161.874 66.9357C162.055 66.5872 162.234 66.2341 162.399 65.8787C162.202 65.9933 162.003 66.1057 161.805 66.2203C163.472 66.3717 165.061 65.6769 166.164 64.4318C167.341 63.1042 168.003 61.3707 168.304 59.6396C168.62 57.819 168.687 55.7782 168.042 54.0196C167.529 52.6163 166.602 51.4446 165.371 50.5985C164.759 50.1766 164.041 49.8005 163.314 49.6217C163.482 49.8418 163.651 50.0642 163.819 50.2843C163.273 45.4508 162.122 40.4522 159.384 36.3501C157.891 34.1122 155.894 32.1357 153.436 30.9823C152.317 30.4572 151.157 30.1477 149.949 29.9207C147.807 29.5194 145.61 29.3589 143.437 29.5034C140.295 29.712 137.188 30.5467 134.471 32.1609C130.94 34.2589 128.312 37.5493 126.613 41.2547C125.416 43.8641 124.623 46.6477 124.068 49.4589C123.543 52.1187 123.256 54.8404 123.344 57.553C123.474 61.5542 124.43 65.5439 126.428 69.0338C127.707 71.2694 129.399 73.3055 131.426 74.9014C134.281 77.1462 137.856 78.3408 141.38 79.0539C141.79 79.1365 142.203 79.2167 142.616 79.2741C142.983 79.3268 143.354 79.1846 143.462 78.7925C143.554 78.4692 143.354 77.9992 142.985 77.9464Z" fill="#553529"/>
<path d="M137.408 47.1936C139.309 46.6845 155.839 44.1027 159.446 50.0322C160.854 52.3458 161.59 58.296 163.131 50.2822C163.355 49.1105 164.974 51.9079 165.02 49.9772C165.215 41.8716 161.815 27.8961 148.158 25.9265C129.161 23.1864 129.097 32.92 118.81 36.1141C109.976 38.8564 124.217 50.727 137.408 47.1936Z" fill="white"/>
<path d="M137.592 47.8562C138.028 47.7392 138.477 47.6659 138.92 47.5925C139.282 47.5306 139.647 47.4756 140.011 47.4228C140.103 47.4091 140.197 47.3976 140.289 47.3838C140.385 47.3701 140.431 47.3655 140.305 47.3815C140.365 47.3747 140.424 47.3655 140.486 47.3586C140.715 47.3288 140.942 47.3013 141.172 47.2738C143.355 47.017 145.558 46.8725 147.757 46.8863C148.949 46.8932 150.142 46.9482 151.329 47.0766C151.472 47.0926 151.616 47.1087 151.758 47.127C151.829 47.1362 151.9 47.1454 151.971 47.1545C151.832 47.1362 152.043 47.1637 152.091 47.1706C152.368 47.2119 152.646 47.2554 152.923 47.3059C153.476 47.4068 154.026 47.5283 154.567 47.6796C155.069 47.8195 155.56 47.9892 156.041 48.1841C156.115 48.2139 156.002 48.168 155.998 48.1657C156.03 48.1795 156.062 48.1933 156.094 48.207C156.142 48.2276 156.19 48.2483 156.236 48.2712C156.353 48.3239 156.468 48.3813 156.583 48.4386C156.798 48.5487 157.009 48.6656 157.213 48.794C157.403 48.9132 157.589 49.0416 157.768 49.1769C157.624 49.0669 157.763 49.1746 157.796 49.2021C157.837 49.2365 157.88 49.2732 157.922 49.3076C158.009 49.3833 158.096 49.4613 158.178 49.5438C158.332 49.6928 158.467 49.8556 158.607 50.0184C158.667 50.0872 158.529 49.913 158.582 49.9863C158.596 50.0047 158.61 50.023 158.623 50.0414C158.653 50.0849 158.685 50.1262 158.715 50.1698C158.777 50.2592 158.834 50.3509 158.889 50.4449C158.986 50.61 159.073 50.7797 159.155 50.9517C159.199 51.0434 159.242 51.1351 159.284 51.2291C159.304 51.2773 159.325 51.3254 159.346 51.3713C159.41 51.5157 159.304 51.2681 159.364 51.4148C159.527 51.8184 159.683 52.2243 159.839 52.6278C160.102 53.3088 160.348 54.1297 160.875 54.6639C161.152 54.946 161.551 55.0973 161.941 54.9735C162.34 54.8474 162.606 54.4874 162.783 54.1274C163.044 53.5908 163.214 53.0107 163.361 52.4329C163.466 52.0248 163.558 51.6143 163.643 51.2016C163.695 50.954 163.748 50.7086 163.792 50.4587C163.805 50.3807 163.86 50.3417 163.798 50.4014C163.759 50.4403 163.741 50.5068 163.679 50.5527C163.624 50.5917 163.569 50.6284 163.503 50.6467C163.303 50.7017 163.324 50.6605 163.386 50.6628C163.326 50.6605 163.191 50.6146 163.312 50.6582C163.326 50.6628 163.15 50.5687 163.269 50.6398C163.305 50.6628 163.347 50.6834 163.383 50.7063C163.532 50.798 163.668 50.9081 163.812 51.009C164.204 51.2841 164.709 51.502 165.165 51.2268C165.713 50.8989 165.708 50.1927 165.715 49.6309C165.72 49.154 165.713 48.6771 165.695 48.2024C165.61 46.0012 165.303 43.7977 164.775 41.6561C164.204 39.331 163.358 37.0564 162.196 34.9607C160.994 32.7938 159.426 30.8013 157.504 29.226C155.383 27.4879 152.896 26.2635 150.229 25.6169C148.544 25.2088 146.799 25.0184 145.074 24.8786C143.522 24.7525 141.96 24.7089 140.406 24.7937C138.019 24.9244 135.637 25.3555 133.422 26.275C131.642 27.0133 130.023 28.0199 128.496 29.1893C127.76 29.7511 127.043 30.3358 126.325 30.9182C125.981 31.1956 125.639 31.4731 125.291 31.746C125.206 31.8124 125.119 31.8812 125.034 31.9477C124.933 32.028 125.128 31.8766 125.025 31.9546C124.974 31.9936 124.926 32.0303 124.876 32.0693C124.695 32.2068 124.513 32.3444 124.328 32.4774C123.585 33.0208 122.814 33.5299 122.012 33.9816C121.588 34.22 121.157 34.4425 120.714 34.6465C120.602 34.6993 120.489 34.7497 120.377 34.7979C120.32 34.8231 120.262 34.8483 120.205 34.8712C120.134 34.901 120.242 34.8552 120.246 34.8529C120.205 34.8689 120.164 34.8873 120.122 34.9033C119.877 35.0042 119.629 35.0982 119.38 35.1877C118.387 35.5431 117.398 35.8159 116.564 36.4901C115.917 37.0151 115.502 37.7466 115.404 38.5743C115.193 40.3376 116.49 41.9931 117.687 43.1281C119.531 44.8777 121.833 46.1227 124.197 47.0147C126.978 48.0648 129.989 48.6014 132.963 48.512C134.524 48.4776 136.084 48.2552 137.592 47.8562C138.448 47.6292 138.085 46.3016 137.226 46.5286C134.373 47.2852 131.303 47.3311 128.446 46.79C125.77 46.2832 123.33 45.3821 121.042 43.9674C120.549 43.6624 120.067 43.3345 119.609 42.9814C119.701 43.0525 119.595 42.9699 119.561 42.9424C119.508 42.9011 119.455 42.8576 119.402 42.814C119.292 42.7223 119.182 42.6306 119.075 42.5366C118.88 42.3669 118.692 42.1926 118.508 42.0138C118.336 41.8441 118.169 41.6675 118.008 41.4841C117.937 41.4038 117.866 41.3213 117.8 41.2387C117.763 41.1952 117.729 41.1493 117.692 41.1058C117.625 41.0232 117.763 41.2044 117.655 41.0553C117.417 40.7297 117.201 40.3881 117.029 40.0235C117.009 39.9799 116.99 39.9364 116.97 39.8928C117.02 40.0028 117.002 39.9753 116.972 39.8905C116.94 39.8057 116.91 39.7208 116.883 39.636C116.832 39.4709 116.809 39.3012 116.768 39.1361C116.761 39.1109 116.782 39.3058 116.772 39.1613C116.77 39.1201 116.766 39.0811 116.763 39.0398C116.759 38.9596 116.759 38.8793 116.763 38.8013C116.766 38.7624 116.77 38.7234 116.772 38.6844C116.779 38.5399 116.759 38.7417 116.768 38.7165C116.791 38.6431 116.795 38.5629 116.816 38.4872C116.837 38.4115 116.864 38.3382 116.887 38.2648C116.931 38.1318 116.825 38.3817 116.876 38.29C116.894 38.2556 116.91 38.2189 116.928 38.1822C116.965 38.1112 117.006 38.0424 117.052 37.9736C117.071 37.9438 117.093 37.9163 117.112 37.8865C117.192 37.7626 117.016 37.9919 117.114 37.8842C117.238 37.7535 117.357 37.6251 117.492 37.5081C117.566 37.4439 117.591 37.437 117.497 37.5012C117.538 37.4737 117.577 37.4439 117.616 37.4164C117.701 37.3591 117.786 37.3041 117.875 37.2513C117.969 37.1963 118.063 37.1458 118.162 37.0954C118.206 37.0748 118.249 37.0518 118.293 37.0312C118.318 37.0197 118.501 36.9395 118.416 36.9739C118.334 37.0083 118.494 36.9441 118.527 36.9303C118.584 36.9074 118.643 36.8867 118.703 36.8661C118.827 36.8225 118.951 36.7836 119.077 36.7446C119.572 36.5887 120.061 36.4121 120.542 36.2126C121.468 35.8297 122.365 35.3871 123.223 34.8689C124.773 33.9357 126.183 32.7938 127.586 31.6542C127.921 31.3814 128.258 31.1085 128.597 30.8402C128.767 30.705 128.939 30.572 129.108 30.439C129.141 30.4137 129.008 30.5169 129.118 30.4321C129.161 30.4 129.205 30.3656 129.248 30.3335C129.342 30.2624 129.434 30.1913 129.528 30.1225C130.237 29.5952 130.966 29.0953 131.729 28.6459C132.131 28.4097 132.541 28.1873 132.961 27.9832C133.176 27.8778 133.396 27.7746 133.616 27.6783C133.671 27.653 133.729 27.6301 133.784 27.6049C133.855 27.5728 133.745 27.6209 133.74 27.6232C133.772 27.6095 133.804 27.5957 133.839 27.582C133.953 27.5338 134.07 27.4879 134.187 27.4421C135.194 27.0523 136.237 26.7565 137.297 26.5478C137.59 26.4905 137.884 26.4378 138.177 26.3919C138.253 26.3805 138.328 26.369 138.404 26.3575C138.438 26.3529 138.645 26.3254 138.519 26.3415C138.675 26.3208 138.833 26.3025 138.991 26.2842C139.661 26.2108 140.332 26.1649 141.007 26.142C142.58 26.0893 144.157 26.1603 145.723 26.3094C147.303 26.4607 148.885 26.6648 150.419 27.0844C151.751 27.449 152.854 27.8846 154.04 28.5312C154.595 28.8339 155.131 29.1664 155.647 29.5264C155.764 29.6089 155.881 29.6938 155.998 29.7786C156.06 29.8245 156.122 29.8703 156.184 29.9185C156.186 29.9208 156.273 29.9873 156.218 29.946C156.161 29.9024 156.294 30.0056 156.305 30.0148C156.546 30.2051 156.78 30.4 157.009 30.6018C157.463 31.0007 157.894 31.4249 158.305 31.8698C158.509 32.0899 158.706 32.3146 158.898 32.5439C158.988 32.6494 159.075 32.7571 159.162 32.8649C159.208 32.9222 159.254 32.9818 159.302 33.0392C159.304 33.0438 159.371 33.1263 159.327 33.0713C159.281 33.0117 159.394 33.1584 159.389 33.1538C160.105 34.0985 160.733 35.1051 161.281 36.1553C161.554 36.6758 161.804 37.2055 162.037 37.7443C162.063 37.8016 162.088 37.8589 162.111 37.9163C162.06 37.7993 162.136 37.9782 162.15 38.0126C162.205 38.1479 162.26 38.2831 162.313 38.4184C162.418 38.689 162.521 38.9619 162.618 39.2347C163.001 40.3101 163.315 41.4084 163.569 42.5205C163.693 43.0593 163.801 43.6028 163.895 44.1462C163.941 44.4122 163.984 44.6805 164.023 44.9464C164.032 45.0129 164.042 45.0794 164.053 45.1459C164.058 45.1757 164.083 45.3683 164.071 45.2812C164.06 45.1964 164.081 45.3615 164.085 45.3867C164.094 45.4624 164.103 45.5357 164.113 45.6114C164.234 46.6088 164.308 47.6108 164.333 48.6129C164.344 49.0737 164.351 49.5392 164.333 50.0001C164.33 50.062 164.305 50.2294 164.335 50.0781C164.328 50.1193 164.308 50.1698 164.308 50.211C164.305 50.3119 164.379 50.0941 164.317 50.1927C164.278 50.2523 164.395 50.0964 164.383 50.1102C164.351 50.1445 164.491 50.0391 164.525 50.0207C164.548 50.0093 164.725 49.9817 164.677 49.9795C164.72 49.9795 164.869 50.0161 164.757 49.984C164.672 49.9588 164.908 50.0712 164.796 50.0001C164.757 49.9772 164.716 49.9565 164.679 49.9336C164.356 49.7364 164.078 49.4567 163.709 49.342C163.09 49.1494 162.588 49.5484 162.462 50.1468C162.29 50.9654 162.132 51.7863 161.895 52.5911C161.82 52.8479 161.733 53.1002 161.636 53.3501C161.609 53.4235 161.661 53.2928 161.661 53.2928C161.65 53.318 161.639 53.3455 161.627 53.373C161.609 53.4097 161.593 53.4464 161.574 53.4808C161.535 53.5565 161.485 53.6275 161.446 53.7032C161.395 53.7995 161.499 53.6505 161.485 53.655C161.462 53.6642 161.448 53.7055 161.425 53.7192C161.32 53.7812 161.508 53.6619 161.489 53.6734C161.453 53.6986 161.37 53.717 161.499 53.678C161.728 53.6069 161.361 53.7032 161.606 53.6482C161.737 53.6207 161.675 53.639 161.634 53.639C161.655 53.639 161.852 53.678 161.744 53.6482C161.73 53.6436 161.939 53.7399 161.829 53.678C161.751 53.6344 161.918 53.7651 161.905 53.7399C161.895 53.7215 161.863 53.7055 161.849 53.6894C161.833 53.6688 161.815 53.6459 161.794 53.6298C161.71 53.5519 161.886 53.7766 161.824 53.6665C161.753 53.5427 161.673 53.4258 161.609 53.2973C161.531 53.1437 161.462 52.9832 161.391 52.825C161.375 52.7883 161.448 52.9672 161.398 52.8411C161.379 52.7952 161.361 52.7516 161.343 52.7058C161.306 52.6118 161.269 52.52 161.233 52.426C161.079 52.0294 160.93 51.6327 160.772 51.2383C160.43 50.3876 160.059 49.5828 159.453 48.8857C158.841 48.1795 158.043 47.6292 157.211 47.2142C155.209 46.2167 152.951 45.8338 150.74 45.6412C148.443 45.4394 146.127 45.4807 143.829 45.6458C142.032 45.7742 140.234 45.976 138.457 46.2809C138.046 46.352 137.631 46.4208 137.228 46.5286C136.37 46.7556 136.735 48.0832 137.592 47.8562Z" fill="#553529"/>
<path d="M164.472 56.5717C164.479 56.5832 164.484 56.5969 164.488 56.6084C164.53 56.6978 164.482 56.7184 164.466 56.5511C164.477 56.6588 164.557 56.7895 164.594 56.895C164.649 57.0624 164.697 57.2321 164.738 57.4017C164.764 57.5072 164.787 57.6127 164.805 57.7182C164.816 57.7801 164.826 57.8397 164.835 57.9016C164.814 57.7801 164.83 57.8672 164.839 57.9383C164.867 58.1836 164.876 58.4313 164.865 58.6766C164.862 58.75 164.858 58.8211 164.851 58.8944C164.848 58.9243 164.826 59.11 164.846 58.9655C164.828 59.0939 164.803 59.2246 164.77 59.3507C164.69 59.6809 164.628 59.8391 164.493 60.0891C164.328 60.394 164.193 60.5729 163.961 60.8182C163.704 61.0865 163.693 61.5245 163.961 61.7904C164.22 62.0495 164.676 62.061 164.933 61.7904C165.906 60.7678 166.355 59.3943 166.22 57.9933C166.149 57.2665 165.979 56.535 165.66 55.8746C165.497 55.5399 165.023 55.4504 164.72 55.627C164.378 55.8288 164.31 56.2346 164.472 56.5717Z" fill="#553529"/>
<path d="M139.628 77.6577C139.367 77.6989 139.108 77.7517 138.851 77.8044C138.133 77.9489 137.422 78.1139 136.711 78.2905C135.622 78.5634 134.54 78.866 133.465 79.1962C132.1 79.6158 130.748 80.0813 129.413 80.588C127.808 81.198 126.224 81.8698 124.671 82.6035C122.997 83.3946 121.36 84.2613 119.771 85.2106C118.081 86.2195 116.446 87.3201 114.885 88.5216C113.211 89.808 111.617 91.1952 110.143 92.7063C108.618 94.2677 107.222 95.9577 105.979 97.753C104.688 99.6149 103.576 101.598 102.664 103.673C101.668 105.937 100.898 108.291 100.375 110.708C99.9418 112.715 99.7262 114.732 100.029 116.773C100.263 118.351 100.843 119.896 101.76 121.201C102.659 122.48 103.833 123.533 105.179 124.326C106.562 125.142 108.107 125.69 109.678 126.014C111.374 126.362 113.122 126.474 114.851 126.385C116.687 126.289 118.517 125.981 120.285 125.479C122.092 124.966 123.85 124.248 125.494 123.335C127.129 122.43 128.663 121.318 130.009 120.022C131.362 118.72 132.536 117.209 133.423 115.553C133.873 114.716 134.251 113.838 134.556 112.937C134.675 112.586 134.419 112.185 134.075 112.091C133.699 111.988 133.348 112.219 133.228 112.572C133.155 112.79 133.077 113.006 132.992 113.221C132.949 113.331 132.905 113.441 132.859 113.551C132.809 113.675 132.898 113.467 132.843 113.588C132.818 113.645 132.793 113.705 132.768 113.762C132.582 114.184 132.378 114.597 132.155 115.001C131.935 115.4 131.699 115.792 131.449 116.172C131.328 116.358 131.199 116.541 131.071 116.723C131.009 116.81 130.945 116.895 130.883 116.982C130.851 117.025 130.819 117.067 130.786 117.11C130.718 117.202 130.846 117.037 130.748 117.161C130.186 117.871 129.578 118.541 128.92 119.162C128.592 119.474 128.253 119.772 127.902 120.061C127.819 120.13 127.737 120.196 127.654 120.263C127.613 120.295 127.572 120.329 127.528 120.361C127.508 120.378 127.487 120.394 127.466 120.41C127.386 120.472 127.597 120.311 127.457 120.417C127.281 120.549 127.102 120.682 126.921 120.813C126.182 121.341 125.41 121.822 124.609 122.253C124.21 122.469 123.804 122.675 123.392 122.868C123.19 122.962 122.986 123.053 122.782 123.143C122.734 123.163 122.683 123.184 122.635 123.207C122.564 123.239 122.672 123.191 122.676 123.189C122.651 123.198 122.628 123.209 122.603 123.218C122.495 123.262 122.39 123.306 122.282 123.349C120.613 124.014 118.87 124.496 117.095 124.778C116.992 124.794 116.889 124.81 116.788 124.826C116.738 124.833 116.685 124.84 116.634 124.849C116.513 124.867 116.751 124.835 116.586 124.856C116.364 124.883 116.141 124.911 115.919 124.931C115.488 124.975 115.055 125.005 114.619 125.023C113.78 125.057 112.938 125.046 112.099 124.979C111.888 124.963 111.677 124.943 111.466 124.92C111.37 124.908 111.274 124.897 111.177 124.885C111.035 124.867 111.212 124.89 111.168 124.885C111.113 124.876 111.056 124.869 111.001 124.863C110.599 124.803 110.203 124.732 109.806 124.645C109.04 124.477 108.286 124.255 107.557 123.971C107.472 123.938 107.389 123.904 107.307 123.87C107.178 123.817 107.343 123.886 107.307 123.87C107.259 123.849 107.21 123.828 107.162 123.808C106.986 123.73 106.811 123.65 106.639 123.562C106.307 123.397 105.979 123.216 105.663 123.021C105.358 122.833 105.064 122.627 104.775 122.411C104.759 122.4 104.883 122.496 104.762 122.4C104.727 122.372 104.695 122.347 104.661 122.32C104.59 122.262 104.519 122.203 104.447 122.143C104.312 122.028 104.181 121.909 104.053 121.788C103.792 121.538 103.544 121.276 103.312 120.999C103.257 120.935 103.205 120.868 103.152 120.802C103.065 120.696 103.179 120.841 103.154 120.806C103.12 120.76 103.085 120.715 103.051 120.671C102.946 120.527 102.845 120.38 102.746 120.231C102.547 119.921 102.363 119.603 102.2 119.272C102.161 119.194 102.125 119.114 102.088 119.034C102.06 118.972 101.95 118.713 102.024 118.894C101.95 118.713 101.879 118.534 101.815 118.351C101.687 117.979 101.579 117.601 101.492 117.218C101.448 117.023 101.409 116.828 101.377 116.631C101.361 116.535 101.347 116.438 101.334 116.342C101.313 116.209 101.347 116.466 101.331 116.33C101.324 116.273 101.318 116.216 101.311 116.159C101.212 115.262 101.217 114.356 101.297 113.46C101.306 113.345 101.318 113.233 101.331 113.118C101.338 113.052 101.347 112.985 101.354 112.916C101.359 112.886 101.361 112.859 101.366 112.829C101.379 112.724 101.35 112.944 101.363 112.838C101.4 112.591 101.437 112.345 101.483 112.1C101.593 111.495 101.723 110.894 101.866 110.295C102.148 109.115 102.487 107.95 102.886 106.803C103.079 106.248 103.285 105.698 103.507 105.155C103.558 105.029 103.61 104.902 103.663 104.776C103.624 104.87 103.688 104.717 103.7 104.689C103.732 104.616 103.762 104.545 103.794 104.471C103.906 104.215 104.021 103.958 104.14 103.701C104.615 102.681 105.138 101.683 105.709 100.713C106.263 99.7708 106.86 98.8513 107.499 97.964C107.653 97.7484 107.809 97.5375 107.969 97.3242C108.052 97.2142 108.134 97.1064 108.217 96.9964C108.295 96.8955 108.185 97.0353 108.263 96.9367C108.309 96.8794 108.352 96.8221 108.398 96.7625C108.728 96.3452 109.065 95.9347 109.412 95.5312C110.758 93.9651 112.227 92.5091 113.791 91.1631C114.174 90.8329 114.564 90.5096 114.958 90.1932C115.151 90.0396 115.343 89.8882 115.538 89.7369C115.6 89.6887 115.522 89.7484 115.515 89.7552C115.538 89.7369 115.561 89.7185 115.584 89.7025C115.639 89.6612 115.692 89.62 115.747 89.5787C115.848 89.5007 115.949 89.425 116.052 89.3494C116.838 88.7601 117.643 88.196 118.464 87.6549C120.028 86.6254 121.647 85.6807 123.307 84.8185C124.093 84.4081 124.891 84.0183 125.696 83.6422C126.084 83.4611 126.473 83.2845 126.866 83.1126C127.054 83.03 127.242 82.9475 127.43 82.8672C127.519 82.8282 127.608 82.7916 127.698 82.7526C127.592 82.7984 127.643 82.7755 127.712 82.7457C127.764 82.7251 127.815 82.7021 127.868 82.6815C129.273 82.0968 130.702 81.5602 132.144 81.0741C133.325 80.6775 134.517 80.3106 135.716 79.9827C136.592 79.7419 137.473 79.5218 138.36 79.3246C138.835 79.2191 139.309 79.1183 139.789 79.0334C139.85 79.022 139.91 79.0105 139.972 79.0013C140.339 78.9417 140.543 78.4854 140.454 78.1552C140.369 77.7471 139.997 77.598 139.628 77.6577Z" fill="#553529"/>
<path d="M122.768 108.741C122.768 108.741 119.648 110.16 124.009 113.391C128.37 116.622 133.387 116.624 134.763 113.62C135.712 111.552 125.41 106.691 122.768 108.741Z" fill="white"/>
<path d="M122.422 108.147C121.979 108.349 121.58 108.736 121.326 109.147C120.739 110.089 121.035 111.229 121.654 112.072C122.227 112.854 122.965 113.478 123.745 114.047C124.55 114.636 125.416 115.143 126.331 115.542C127.89 116.223 129.633 116.679 131.346 116.496C132.809 116.337 134.189 115.743 135.051 114.505C135.338 114.093 135.563 113.639 135.492 113.127C135.434 112.703 135.216 112.348 134.957 112.017C134.37 111.275 133.543 110.71 132.742 110.222C131.681 109.575 130.546 109.048 129.388 108.603C128.289 108.184 127.148 107.84 125.98 107.672C125.006 107.532 123.94 107.457 123.004 107.835C122.798 107.918 122.601 108.009 122.422 108.147C122.126 108.372 121.972 108.741 122.174 109.087C122.344 109.378 122.818 109.559 123.114 109.335C123.178 109.287 123.243 109.243 123.311 109.202C123.389 109.156 123.598 109.087 123.403 109.147C123.575 109.094 123.74 109.03 123.917 108.993C123.963 108.984 124.011 108.977 124.059 108.968C124.213 108.938 123.94 108.975 124.064 108.966C124.167 108.959 124.268 108.945 124.371 108.94C124.591 108.929 124.811 108.931 125.031 108.943C125.148 108.949 125.265 108.959 125.382 108.97C125.432 108.975 125.485 108.982 125.536 108.986C125.593 108.993 125.772 109.018 125.614 108.995C125.866 109.034 126.118 109.076 126.37 109.128C126.907 109.241 127.434 109.385 127.957 109.55C128.51 109.727 129.055 109.931 129.592 110.151C129.665 110.181 129.578 110.146 129.569 110.142C129.596 110.153 129.626 110.165 129.654 110.179C129.72 110.206 129.784 110.236 129.849 110.263C129.989 110.325 130.126 110.387 130.264 110.451C130.516 110.568 130.766 110.692 131.011 110.821C131.474 111.061 131.928 111.32 132.366 111.605C132.566 111.733 132.761 111.866 132.951 112.008C132.997 112.04 133.04 112.075 133.086 112.109C132.997 112.043 133.034 112.068 133.095 112.116C133.183 112.187 133.27 112.258 133.352 112.332C133.494 112.455 133.634 112.586 133.763 112.726C133.818 112.783 133.868 112.845 133.919 112.905C134.015 113.017 133.898 112.87 133.907 112.889C133.928 112.925 133.958 112.96 133.983 112.997C134.02 113.052 134.052 113.109 134.084 113.166C134.1 113.194 134.109 113.23 134.127 113.256C134.118 113.244 134.077 113.091 134.107 113.217C134.109 113.23 134.139 113.373 134.148 113.375C134.136 113.373 134.12 113.164 134.134 113.299C134.136 113.324 134.125 113.366 134.132 113.391C134.139 113.414 134.164 113.187 134.141 113.308C134.136 113.329 134.116 113.366 134.118 113.384C134.114 113.354 134.205 113.205 134.125 113.357C134.086 113.43 134.049 113.503 134.008 113.577C133.971 113.639 133.935 113.7 133.893 113.76C133.875 113.788 133.767 113.934 133.804 113.888C133.843 113.84 133.742 113.962 133.724 113.983C133.671 114.042 133.616 114.102 133.559 114.157C133.508 114.207 133.458 114.253 133.403 114.301C133.38 114.322 133.357 114.34 133.334 114.361C133.254 114.43 133.414 114.304 133.329 114.365C133.215 114.45 133.095 114.531 132.972 114.602C132.846 114.675 132.715 114.741 132.582 114.801C132.511 114.833 132.589 114.799 132.6 114.794C132.561 114.81 132.52 114.826 132.481 114.84C132.41 114.868 132.339 114.891 132.265 114.916C131.598 115.129 131.133 115.173 130.431 115.154C129.674 115.136 129.009 115.014 128.255 114.792C126.588 114.304 124.988 113.405 123.687 112.254C123.401 111.999 123.126 111.726 122.883 111.43C122.807 111.339 122.89 111.447 122.823 111.352C122.779 111.293 122.738 111.231 122.697 111.169C122.619 111.048 122.557 110.924 122.488 110.798C122.426 110.683 122.516 110.894 122.479 110.775C122.463 110.722 122.442 110.671 122.426 110.619C122.413 110.568 122.401 110.518 122.387 110.467C122.342 110.3 122.381 110.543 122.381 110.444C122.381 110.362 122.381 110.277 122.376 110.197C122.369 110.046 122.342 110.318 122.371 110.22C122.383 110.176 122.39 110.13 122.401 110.087C122.41 110.05 122.426 110.013 122.436 109.977C122.468 109.86 122.397 110.046 122.415 110.02C122.461 109.963 122.488 109.878 122.527 109.816C122.546 109.789 122.573 109.759 122.587 109.729C122.603 109.697 122.47 109.86 122.552 109.777C122.601 109.727 122.644 109.674 122.695 109.624C122.738 109.582 122.784 109.546 122.828 109.504C122.917 109.422 122.669 109.61 122.832 109.502C122.899 109.459 122.965 109.417 123.032 109.378C123.057 109.362 123.084 109.348 123.112 109.337C123.449 109.181 123.534 108.693 123.36 108.397C123.16 108.046 122.761 107.991 122.422 108.147Z" fill="#553529"/>
<path d="M141.332 100C139.05 97.37 136.432 97.7231 136.432 97.7231C137.672 92.3691 134.925 86.9624 132.479 87.4806C131.05 87.7832 131.825 91.5299 131.917 92.1926C131.805 91.4474 129.828 85.5316 126.336 86.8248C125.863 86.999 125.093 88.024 125.389 88.8816C123.944 87.5127 120.124 89.0352 121.555 92.4952C123.63 97.5145 121.796 102.586 121.55 104.494C121.014 108.638 125.038 111.217 127.198 112.272C134.941 116.055 137.262 112.659 140.135 109.468C141.561 107.883 140.995 107.028 140.087 106.627C140.88 106.838 141.614 106.73 142.02 106.544C143.028 106.088 143.953 103.02 141.332 100ZM138.216 106.363C137.248 106.551 131.908 110.1 132.988 105.62C133.898 101.844 137.067 102.763 137.067 102.763C137.541 104.967 138.589 106.024 139.628 106.468C139.089 106.322 138.525 106.303 138.216 106.363Z" fill="white"/>
<path d="M131.174 91.9815C131.229 92.2154 131.271 92.4539 131.31 92.6923C131.33 92.823 131.351 92.9537 131.369 93.0844C131.374 93.1097 131.397 93.2954 131.374 93.1234C131.383 93.2014 131.394 93.2816 131.404 93.3596C131.443 93.6921 131.472 94.0268 131.493 94.3593C131.539 95.1343 131.534 95.9139 131.45 96.6867C131.378 97.3356 131.172 98.2069 130.888 98.8053C130.73 99.1401 130.794 99.5482 131.135 99.7454C131.436 99.9197 131.917 99.8349 132.075 99.4978C132.821 97.9271 132.967 96.1432 132.871 94.4281C132.818 93.488 132.711 92.5318 132.5 91.6147C132.415 91.2524 132.002 91.0391 131.654 91.1331C131.282 91.2386 131.09 91.6192 131.174 91.9815Z" fill="#553529"/>
<path d="M141.818 99.5117C140.869 98.4317 139.637 97.5833 138.239 97.2187C137.672 97.0697 137.023 96.9573 136.434 97.0353C136.654 97.3265 136.877 97.6154 137.097 97.9066C137.503 96.1204 137.528 94.2769 137.184 92.4792C136.904 91.0186 136.363 89.5374 135.448 88.3519C134.792 87.4989 133.797 86.6528 132.642 86.7675C132.061 86.8248 131.58 87.0885 131.3 87.6159C131.034 88.1135 130.961 88.6959 130.942 89.253C130.906 90.3055 131.108 91.3396 131.254 92.376C131.697 92.2545 132.139 92.133 132.582 92.0092C132.511 91.5666 132.334 91.1287 132.169 90.7159C131.871 89.9616 131.52 89.2209 131.082 88.5376C130.115 87.0312 128.638 85.6967 126.721 86.0085C126.079 86.114 125.584 86.4121 125.189 86.9326C124.738 87.531 124.499 88.3267 124.726 89.0604C125.109 88.838 125.492 88.6133 125.875 88.3909C124.843 87.4393 123.197 87.5219 122.069 88.2648C121.429 88.6867 120.945 89.292 120.707 90.0235C120.436 90.8581 120.549 91.7913 120.863 92.5962C121.319 93.7656 121.658 94.9602 121.778 96.2144C121.888 97.3586 121.86 98.5143 121.736 99.6561C121.64 100.555 121.466 101.486 121.271 102.401C121.124 103.093 120.952 103.786 120.865 104.49C120.411 108.168 123.332 110.986 126.308 112.584C129.367 114.226 133.304 115.562 136.569 113.723C137.746 113.061 138.709 112.084 139.605 111.091C140.619 109.965 142.563 108.213 141.261 106.636C141.043 106.372 140.745 106.17 140.435 106.031C140.259 106.45 140.082 106.87 139.906 107.287C140.706 107.487 141.68 107.521 142.426 107.108C142.825 106.888 143.123 106.482 143.311 106.076C143.868 104.873 143.827 103.449 143.407 102.208C143.068 101.204 142.506 100.317 141.818 99.5117C141.577 99.2297 141.093 99.264 140.846 99.5117C140.566 99.7914 140.603 100.202 140.846 100.484C141.437 101.176 141.919 101.974 142.169 102.855C142.272 103.222 142.322 103.492 142.341 103.811C142.352 103.997 142.354 104.18 142.343 104.366C142.338 104.432 142.332 104.497 142.329 104.563C142.32 104.646 142.32 104.648 142.332 104.57C142.325 104.611 142.32 104.652 142.313 104.691C142.29 104.827 142.26 104.962 142.221 105.095C142.201 105.166 142.176 105.235 142.155 105.306C142.144 105.34 142.13 105.372 142.118 105.405C142.155 105.32 142.157 105.313 142.127 105.382C142.075 105.48 142.029 105.581 141.969 105.675C141.944 105.716 141.816 105.868 141.951 105.712C141.923 105.742 141.9 105.774 141.873 105.804C141.839 105.84 141.795 105.87 141.765 105.909C141.71 105.955 141.729 105.941 141.82 105.868C141.802 105.881 141.784 105.893 141.763 105.904C141.738 105.909 141.701 105.939 141.678 105.95C141.802 105.893 141.545 105.985 141.518 105.992C141.128 106.092 140.69 106.067 140.275 105.962C139.945 105.879 139.591 106.04 139.463 106.361C139.346 106.65 139.429 107.076 139.745 107.221C139.874 107.278 139.988 107.351 140.11 107.42C140.213 107.48 140.11 107.42 140.089 107.404C140.112 107.427 140.139 107.445 140.162 107.468C140.183 107.489 140.206 107.516 140.231 107.537C140.332 107.624 140.183 107.432 140.24 107.548C140.268 107.601 140.328 107.759 140.279 107.597C140.298 107.661 140.316 107.72 140.33 107.785C140.295 107.608 140.316 107.805 140.316 107.863C140.318 107.986 140.311 107.881 140.318 107.851C140.302 107.913 140.291 107.973 140.272 108.032C140.259 108.076 140.245 108.119 140.227 108.161C140.24 108.129 140.27 108.071 140.206 108.197C140.156 108.296 140.101 108.39 140.041 108.484C139.91 108.686 139.757 108.865 139.598 109.043C139.39 109.275 139.183 109.509 138.977 109.743C138.557 110.213 138.138 110.683 137.688 111.125C137.475 111.334 137.257 111.538 137.03 111.733C136.975 111.779 136.92 111.825 136.865 111.871C136.833 111.896 136.64 112.047 136.773 111.946C136.652 112.038 136.53 112.127 136.404 112.212C136.161 112.377 135.909 112.531 135.645 112.664C135.581 112.696 135.517 112.728 135.45 112.758C135.409 112.779 135.226 112.857 135.366 112.799C135.212 112.864 135.058 112.921 134.9 112.971C134.588 113.072 134.272 113.141 133.951 113.196C133.923 113.201 133.816 113.214 133.955 113.196C133.916 113.201 133.875 113.205 133.834 113.21C133.751 113.219 133.671 113.226 133.589 113.233C133.407 113.246 133.226 113.251 133.045 113.251C132.866 113.251 132.685 113.242 132.506 113.23C132.412 113.224 132.321 113.214 132.227 113.205C132.178 113.201 132.133 113.194 132.084 113.189C132.018 113.182 132.128 113.196 132.013 113.18C131.568 113.113 131.128 113.017 130.695 112.898C129.661 112.616 128.666 112.215 127.7 111.749C127.113 111.467 126.542 111.155 125.994 110.804C125.318 110.371 124.871 110.036 124.293 109.495C123.694 108.931 123.282 108.447 122.885 107.757C122.67 107.383 122.566 107.161 122.445 106.785C122.385 106.601 122.332 106.413 122.291 106.225C122.236 105.971 122.225 105.891 122.206 105.671C122.19 105.464 122.186 105.258 122.193 105.051C122.195 104.946 122.202 104.838 122.211 104.733C122.216 104.678 122.222 104.625 122.227 104.57C122.255 104.306 122.202 104.703 122.229 104.547C122.28 104.274 122.328 104.001 122.385 103.728C122.548 102.965 122.72 102.206 122.855 101.438C123.231 99.3099 123.357 97.15 122.991 95.0106C122.887 94.4145 122.745 93.8229 122.562 93.2474C122.397 92.7314 122.151 92.2385 122.016 91.7111C121.991 91.6171 121.975 91.5231 121.954 91.4291C121.95 91.4107 121.934 91.2915 121.947 91.4084C121.943 91.3648 121.938 91.319 121.934 91.2754C121.92 91.0966 121.924 90.92 121.94 90.7412C121.95 90.6334 121.92 90.8512 121.94 90.748C121.947 90.7091 121.954 90.6724 121.963 90.6334C121.979 90.56 121.998 90.4867 122.021 90.4133C122.03 90.3858 122.105 90.1886 122.073 90.2619C122.037 90.3468 122.085 90.239 122.094 90.2207C122.115 90.1817 122.135 90.1404 122.156 90.1014C122.19 90.0395 122.229 89.9799 122.268 89.9203C122.287 89.8905 122.31 89.863 122.33 89.8355C122.243 89.9547 122.298 89.8744 122.321 89.8515C122.429 89.7392 122.537 89.6291 122.651 89.5236C122.741 89.4411 122.653 89.5236 122.633 89.5351C122.66 89.5144 122.688 89.4938 122.715 89.4755C122.773 89.4388 122.83 89.3998 122.887 89.3654C122.947 89.331 123.007 89.3012 123.066 89.2691C123.096 89.253 123.128 89.2416 123.158 89.2255C123.002 89.3035 123.146 89.2301 123.181 89.2187C123.307 89.1751 123.433 89.1338 123.564 89.104C123.628 89.0902 123.692 89.0788 123.759 89.0673C123.591 89.0994 123.775 89.0673 123.841 89.0627C123.977 89.0559 124.11 89.0627 124.245 89.0696C124.362 89.0765 124.107 89.0352 124.291 89.0788C124.357 89.0948 124.424 89.1086 124.49 89.1292C124.513 89.1361 124.703 89.2072 124.598 89.1636C124.495 89.1201 124.674 89.2049 124.697 89.2164C124.747 89.2439 124.795 89.2829 124.846 89.3104C124.924 89.3539 124.742 89.2232 124.811 89.2829C124.839 89.3058 124.866 89.331 124.894 89.3562C125.378 89.8034 126.253 89.3723 126.042 88.6867C125.981 88.4849 125.987 88.3565 126.068 88.1272C126.097 88.0447 126.116 88.008 126.178 87.9002C126.247 87.7787 126.311 87.6938 126.352 87.6503C126.384 87.6159 126.6 87.4049 126.494 87.5035C126.515 87.4829 126.561 87.46 126.586 87.4485C126.435 87.5196 126.526 87.4691 126.565 87.4577C126.662 87.4279 126.756 87.3958 126.852 87.3728C126.898 87.3614 126.946 87.3522 126.992 87.343C127.019 87.3384 127.047 87.3316 127.074 87.3293C126.992 87.3384 126.978 87.3407 127.028 87.3361C127.2 87.3201 127.363 87.3293 127.535 87.3316C127.659 87.3339 127.533 87.3293 127.508 87.327C127.558 87.3361 127.609 87.343 127.659 87.3545C127.742 87.3728 127.824 87.3958 127.907 87.421C127.946 87.4325 128.196 87.5379 128.03 87.46C128.108 87.4966 128.186 87.5333 128.262 87.5746C128.416 87.6594 128.56 87.7558 128.702 87.8589C128.569 87.7603 128.76 87.9094 128.792 87.9369C128.854 87.9896 128.913 88.0447 128.973 88.102C129.113 88.235 129.246 88.3771 129.372 88.5262C129.427 88.5904 129.48 88.6569 129.532 88.7211C129.434 88.5973 129.603 88.8174 129.629 88.8518C129.739 89.0054 129.844 89.1613 129.943 89.3218C130.138 89.6337 130.314 89.957 130.477 90.2849C130.546 90.4247 130.612 90.5646 130.677 90.7068C130.711 90.7824 130.743 90.8581 130.775 90.9338C130.697 90.7526 130.805 91.0072 130.823 91.053C130.991 91.4726 131.172 91.9174 131.243 92.3669C131.302 92.7337 131.759 92.9378 132.089 92.8484C132.486 92.7406 132.621 92.3715 132.57 92.0023C132.527 91.6973 132.472 91.3947 132.428 91.092C132.421 91.0415 132.415 90.9888 132.408 90.9384C132.433 91.1241 132.408 90.9361 132.403 90.904C132.392 90.81 132.38 90.7159 132.371 90.6196C132.343 90.3605 132.323 90.1037 132.311 89.8446C132.302 89.6062 132.3 89.3677 132.314 89.1292C132.321 89.0169 132.33 88.9022 132.343 88.7899C132.323 88.971 132.371 88.6546 132.382 88.6064C132.405 88.5101 132.44 88.4184 132.465 88.3244C132.506 88.18 132.385 88.4413 132.467 88.3221C132.488 88.2923 132.518 88.2442 132.532 88.2098C132.582 88.0882 132.424 88.3015 132.522 88.2166C132.55 88.1937 132.582 88.1593 132.607 88.1318C132.499 88.2579 132.527 88.1777 132.596 88.1501C132.694 88.1066 132.433 88.1754 132.614 88.1456C132.658 88.1387 132.703 88.1272 132.747 88.1203C132.554 88.157 132.703 88.1272 132.749 88.1272C132.827 88.1295 132.903 88.1318 132.981 88.1364C132.772 88.1226 133.061 88.1616 133.123 88.18C133.171 88.1937 133.215 88.212 133.263 88.2281C133.086 88.1685 133.29 88.2419 133.329 88.2625C133.423 88.3106 133.513 88.368 133.602 88.4253C133.623 88.4391 133.77 88.5491 133.644 88.4482C133.689 88.4826 133.733 88.5216 133.777 88.5583C133.962 88.7211 134.134 88.8999 134.29 89.0903C134.558 89.4158 134.925 90.0487 135.155 90.5554C135.395 91.0874 135.611 91.7707 135.753 92.3944C136.141 94.0774 136.141 95.8499 135.76 97.5329C135.673 97.9181 135.955 98.4661 136.423 98.4042C136.563 98.3859 136.709 98.3859 136.849 98.3904C137.005 98.395 137.159 98.4088 137.312 98.4248C137.367 98.4317 137.161 98.3996 137.321 98.4271C137.372 98.4363 137.425 98.4432 137.475 98.4546C137.585 98.4753 137.695 98.4982 137.805 98.5257C138.372 98.6679 138.716 98.8123 139.213 99.1013C139.835 99.4658 140.362 99.9405 140.837 100.479C141.082 100.759 141.559 100.729 141.809 100.479C142.095 100.209 142.066 99.7937 141.818 99.5117Z" fill="#553529"/>
<path d="M138.032 105.7C137.727 105.764 137.436 105.92 137.156 106.051C136.776 106.225 136.4 106.409 136.019 106.578C135.969 106.601 135.918 106.624 135.865 106.645C135.794 106.675 135.707 106.711 135.831 106.661C135.719 106.707 135.609 106.753 135.496 106.796C135.283 106.879 135.067 106.957 134.85 107.021C134.639 107.085 134.425 107.126 134.21 107.172C134.086 107.197 134.357 107.163 134.233 107.17C134.187 107.172 134.141 107.179 134.098 107.181C134.006 107.186 133.912 107.172 133.822 107.179C133.735 107.186 133.99 107.22 133.836 107.181C133.804 107.172 133.772 107.165 133.74 107.159C133.568 107.124 133.77 107.161 133.756 107.175C133.747 107.181 133.657 107.122 133.648 107.117C133.545 107.065 133.666 107.101 133.689 107.152C133.685 107.14 133.614 107.069 133.602 107.065C133.657 107.09 133.687 107.204 133.634 107.101C133.618 107.071 133.547 106.913 133.591 107.03C133.637 107.152 133.584 106.996 133.577 106.97C133.568 106.932 133.561 106.89 133.55 106.854C133.524 106.769 133.554 107 133.547 106.817C133.545 106.75 133.54 106.686 133.543 106.62C133.543 106.555 133.547 106.494 133.552 106.429C133.554 106.395 133.575 106.2 133.556 106.345C133.579 106.175 133.614 106.005 133.653 105.838C133.74 105.466 133.852 105.113 133.992 104.829C134.063 104.687 134.141 104.547 134.228 104.414C134.27 104.352 134.311 104.292 134.354 104.233C134.403 104.169 134.347 104.242 134.341 104.251C134.373 104.214 134.405 104.175 134.437 104.139C134.524 104.04 134.62 103.951 134.717 103.864C134.834 103.758 134.671 103.886 134.765 103.822C134.822 103.786 134.877 103.744 134.934 103.708C135.031 103.648 135.134 103.6 135.235 103.545C135.343 103.488 135.104 103.586 135.265 103.531C135.322 103.513 135.377 103.49 135.437 103.471C135.547 103.437 135.659 103.41 135.771 103.387C135.799 103.382 135.987 103.35 135.863 103.368C135.739 103.387 135.916 103.364 135.948 103.361C136.138 103.345 136.329 103.345 136.519 103.359C136.558 103.361 136.595 103.366 136.634 103.368C136.778 103.38 136.638 103.391 136.579 103.359C136.617 103.382 136.698 103.377 136.744 103.387C136.794 103.396 136.847 103.407 136.897 103.421C136.737 103.261 136.576 103.1 136.416 102.939C136.785 104.606 137.649 106.338 139.293 107.055C139.47 106.636 139.646 106.216 139.823 105.799C139.227 105.657 138.626 105.599 138.032 105.7C137.665 105.762 137.461 106.214 137.551 106.546C137.658 106.934 138.03 107.09 138.397 107.028C138.25 107.053 138.541 107.021 138.571 107.021C138.658 107.019 138.748 107.023 138.835 107.028C139.041 107.042 139.243 107.081 139.445 107.131C139.775 107.214 140.128 107.051 140.256 106.732C140.371 106.445 140.293 106.012 139.974 105.872C139.718 105.76 139.475 105.622 139.25 105.453C139.371 105.544 139.174 105.386 139.156 105.368C139.094 105.313 139.032 105.253 138.972 105.193C138.91 105.132 138.851 105.067 138.794 105.001C138.764 104.966 138.734 104.932 138.706 104.898C138.736 104.937 138.736 104.939 138.706 104.9C138.184 104.21 137.913 103.419 137.727 102.58C137.677 102.348 137.468 102.162 137.246 102.098C136.624 101.919 135.909 101.94 135.288 102.084C133.912 102.403 132.983 103.501 132.515 104.785C132.128 105.849 131.763 107.654 132.997 108.335C133.884 108.825 135.031 108.449 135.902 108.106C136.452 107.89 136.989 107.64 137.526 107.388C137.725 107.294 137.929 107.204 138.129 107.11C138.216 107.069 137.957 107.177 138.101 107.122C138.138 107.108 138.174 107.092 138.211 107.081C138.271 107.06 138.333 107.039 138.395 107.026C138.759 106.95 138.968 106.521 138.876 106.179C138.775 105.803 138.397 105.625 138.032 105.7Z" fill="#553529"/>
<path d="M134.632 100.58C134.022 100.147 133.298 99.8418 132.601 99.5827C130.984 98.9774 129.223 98.7412 127.503 98.8696C127.132 98.8971 126.815 99.1654 126.815 99.5575C126.815 99.9083 127.132 100.273 127.503 100.245C129.129 100.126 130.704 100.337 132.236 100.91C132.305 100.936 132.374 100.963 132.442 100.991C132.472 101.002 132.672 101.085 132.527 101.023C132.644 101.073 132.761 101.126 132.878 101.179C133.077 101.273 133.275 101.373 133.467 101.481C133.628 101.571 133.788 101.662 133.94 101.77C134.242 101.986 134.705 101.825 134.88 101.523C135.081 101.176 134.937 100.796 134.632 100.58Z" fill="#553529"/>
<path d="M125.607 89.2117C125.607 89.2117 128.067 93.0317 127.035 96.5422L125.607 89.2117Z" fill="white"/>
<path d="M125.013 89.558C125.141 89.7575 125.256 89.9684 125.366 90.1794C125.492 90.4202 125.611 90.6678 125.721 90.9154C125.747 90.9728 125.772 91.0324 125.797 91.0897C125.747 90.9705 125.847 91.2135 125.857 91.2364C125.918 91.3924 125.978 91.5483 126.033 91.7065C126.563 93.213 126.817 94.8043 126.372 96.3589C126.129 97.2119 127.457 97.5764 127.7 96.7258C128.198 94.9808 127.971 93.1075 127.386 91.413C127.083 90.5371 126.705 89.6474 126.203 88.8655C126.003 88.5537 125.593 88.4253 125.263 88.6179C124.949 88.799 124.811 89.2439 125.013 89.558Z" fill="#553529"/>
<path d="M178.086 106.345C178.086 106.345 181.128 107.925 176.602 110.924C172.076 113.923 165.479 112.834 165.85 110.589C166.222 108.344 175.554 104.16 178.086 106.345Z" fill="white"/>
<path d="M177.737 106.939C177.765 106.952 177.79 106.968 177.815 106.984C177.845 107.003 177.872 107.021 177.9 107.042C178.035 107.129 177.891 107.033 177.884 107.026C177.964 107.106 178.056 107.172 178.134 107.257C178.154 107.28 178.175 107.305 178.198 107.328C178.296 107.438 178.161 107.296 178.17 107.289C178.17 107.289 178.274 107.445 178.285 107.464C178.303 107.494 178.317 107.528 178.335 107.558C178.409 107.675 178.299 107.427 178.324 107.523C178.345 107.601 178.37 107.684 178.393 107.759C178.429 107.879 178.393 107.677 178.39 107.714C178.388 107.753 178.397 107.798 178.4 107.837C178.4 107.881 178.397 107.925 178.397 107.968C178.397 107.986 178.393 108.007 178.393 108.025C178.395 108.138 178.434 107.92 178.397 107.98C178.358 108.048 178.352 108.17 178.326 108.25C178.317 108.28 178.303 108.307 178.294 108.337C178.294 108.335 178.349 108.213 178.317 108.285C178.287 108.346 178.257 108.408 178.225 108.468C178.166 108.576 178.099 108.679 178.028 108.78C178.005 108.814 177.98 108.846 177.955 108.878C177.964 108.867 178.012 108.805 177.962 108.867C177.902 108.938 177.842 109.007 177.781 109.076C176.724 110.224 175.251 111.041 173.805 111.508C172.408 111.96 171.071 112.141 169.599 112.052C169.45 112.043 169.304 112.031 169.154 112.015C169.118 112.011 168.911 111.985 169.04 112.004C168.955 111.992 168.868 111.978 168.783 111.965C168.503 111.917 168.226 111.857 167.953 111.777C167.836 111.742 167.721 111.706 167.607 111.664C167.547 111.644 167.49 111.621 167.432 111.598C167.572 111.651 167.414 111.589 167.361 111.566C167.164 111.472 166.981 111.362 166.804 111.236C166.905 111.307 166.859 111.281 166.8 111.224C166.765 111.192 166.731 111.162 166.699 111.128C166.671 111.1 166.648 111.068 166.621 111.043C166.55 110.974 166.694 111.174 166.618 111.036C166.6 111.002 166.58 110.963 166.557 110.928C166.483 110.821 166.577 111.038 166.563 110.951C166.559 110.919 166.543 110.885 166.534 110.855C166.476 110.678 166.545 110.873 166.529 110.871C166.472 110.866 166.605 110.483 166.515 110.777C166.534 110.72 166.547 110.655 166.563 110.598C166.598 110.472 166.531 110.658 166.543 110.644C166.563 110.619 166.575 110.578 166.591 110.55C166.628 110.484 166.669 110.419 166.71 110.357C166.724 110.337 166.816 110.215 166.74 110.314C166.664 110.415 166.761 110.291 166.779 110.268C166.843 110.192 166.91 110.121 166.978 110.05C167.123 109.903 167.277 109.766 167.435 109.633C167.471 109.603 167.508 109.573 167.545 109.543C167.678 109.436 167.478 109.589 167.579 109.516C167.682 109.44 167.786 109.362 167.891 109.289C168.1 109.142 168.315 109.002 168.533 108.869C169.012 108.576 169.508 108.31 170.012 108.062C170.278 107.931 170.549 107.81 170.821 107.691C170.851 107.677 170.881 107.665 170.911 107.652C170.803 107.698 170.906 107.654 170.925 107.645C170.993 107.615 171.065 107.588 171.133 107.56C171.273 107.503 171.415 107.448 171.555 107.395C172.649 106.98 173.789 106.645 174.951 106.487C174.827 106.503 174.935 106.489 174.995 106.482C175.059 106.475 175.125 106.469 175.19 106.462C175.325 106.448 175.46 106.439 175.598 106.432C175.836 106.42 176.077 106.42 176.315 106.436C176.373 106.441 176.428 106.446 176.485 106.45C176.513 106.453 176.668 106.471 176.558 106.457C176.444 106.443 176.623 106.469 176.65 106.473C176.71 106.485 176.767 106.496 176.827 106.508C176.918 106.528 177.008 106.551 177.097 106.581C177.143 106.595 177.189 106.613 177.235 106.629C177.395 106.684 177.18 106.595 177.258 106.638C177.338 106.682 177.421 106.718 177.499 106.769C177.531 106.79 177.56 106.812 177.595 106.833C177.691 106.888 177.471 106.728 177.604 106.842C177.888 107.083 178.299 107.12 178.576 106.842C178.822 106.597 178.861 106.111 178.576 105.87C177.765 105.185 176.685 105.022 175.65 105.061C174.394 105.109 173.144 105.407 171.954 105.801C170.688 106.221 169.45 106.76 168.292 107.418C167.4 107.925 166.463 108.518 165.798 109.312C165.195 110.032 164.892 110.972 165.49 111.809C166.164 112.754 167.423 113.139 168.519 113.313C171.913 113.847 175.529 112.857 178.15 110.637C179.083 109.848 180.014 108.69 179.723 107.386C179.576 106.728 179.092 106.161 178.528 105.813C178.498 105.794 178.471 105.776 178.441 105.76C178.111 105.588 177.693 105.675 177.501 106.008C177.311 106.308 177.407 106.767 177.737 106.939Z" fill="#553529"/>
<path d="M158.974 103.146C159.371 103.352 160.098 103.499 160.9 103.329C159.971 103.683 159.364 104.508 160.703 106.164C163.404 109.502 165.546 113.015 173.475 109.64C175.685 108.7 179.84 106.333 179.521 102.167C179.374 100.248 177.808 95.0886 180.145 90.184C181.754 86.8042 178.019 85.0822 176.506 86.3754C176.847 85.5362 176.13 84.4723 175.669 84.2728C172.248 82.8007 169.966 88.6019 169.813 89.3425C169.939 88.6844 170.909 84.9836 169.499 84.6076C167.084 83.9609 164.057 89.2187 165.016 94.63C165.016 94.63 162.42 94.1393 160.004 96.6455C157.229 99.5232 157.99 102.637 158.974 103.146ZM161.368 103.192C162.427 102.802 163.53 101.802 164.119 99.6263C164.119 99.6263 167.332 98.8743 168.043 102.694C168.886 107.225 163.739 103.401 162.783 103.164C162.478 103.086 161.914 103.077 161.368 103.192Z" fill="white"/>
<path d="M158.625 103.74C159.393 104.118 160.251 104.155 161.083 103.992C160.961 103.55 160.84 103.107 160.716 102.665C159.932 102.972 159.274 103.538 159.237 104.435C159.196 105.462 159.936 106.297 160.535 107.044C161.36 108.076 162.174 109.142 163.202 109.984C164.369 110.94 165.71 111.522 167.217 111.664C169.25 111.855 171.325 111.247 173.192 110.495C176.198 109.284 179.589 107.145 180.135 103.664C180.266 102.83 180.213 102.036 180.087 101.206C179.972 100.463 179.823 99.6126 179.743 98.9706C179.47 96.7969 179.456 94.575 180.036 92.4472C180.197 91.8625 180.394 91.2823 180.644 90.7297C180.857 90.2597 181.07 89.7942 181.158 89.2806C181.3 88.446 181.192 87.5701 180.72 86.8501C179.942 85.6623 178.349 84.9538 176.955 85.3711C176.599 85.4766 176.299 85.6532 176.017 85.887C176.4 86.1095 176.783 86.3342 177.166 86.5566C177.606 85.3574 176.776 83.9128 175.618 83.5184C174.742 83.2203 173.813 83.3327 172.992 83.7386C171.504 84.4746 170.484 86.0705 169.789 87.5219C169.542 88.0378 169.266 88.595 169.147 89.1591C169.59 89.2806 170.032 89.4021 170.475 89.5259C170.656 88.6019 170.867 87.6916 170.926 86.7469C170.991 85.7197 170.874 84.3003 169.7 83.9495C168.59 83.617 167.471 84.2705 166.726 85.0501C165.731 86.0888 165.091 87.4554 164.683 88.822C164.1 90.7618 164.006 92.8232 164.35 94.8135C164.632 94.5314 164.914 94.2494 165.196 93.9674C163.665 93.6831 161.968 94.254 160.725 95.1299C158.714 96.5492 157.098 99.0096 157.435 101.562C157.543 102.364 157.861 103.323 158.625 103.74C159.402 104.164 160.097 102.976 159.32 102.552C159.246 102.513 159.168 102.41 159.301 102.554C159.269 102.52 159.232 102.49 159.2 102.458C159.18 102.438 159.161 102.405 159.138 102.389C159.074 102.346 159.228 102.534 159.164 102.419C159.129 102.36 159.086 102.302 159.054 102.24C159.017 102.174 158.985 102.105 158.953 102.036C159.017 102.176 158.957 102.039 158.934 101.974C158.877 101.805 158.834 101.63 158.804 101.454C158.797 101.417 158.79 101.378 158.785 101.339C158.806 101.491 158.788 101.353 158.785 101.316C158.778 101.225 158.772 101.133 158.769 101.039C158.762 100.819 158.774 100.596 158.797 100.378C158.813 100.239 158.804 100.323 158.799 100.353C158.808 100.294 158.817 100.234 158.829 100.177C158.85 100.067 158.875 99.9588 158.9 99.8511C158.964 99.5966 159.047 99.3443 159.148 99.1013C159.934 97.2302 161.755 95.6779 163.745 95.3317C163.793 95.3225 163.839 95.3156 163.887 95.3088C163.947 95.2996 163.761 95.3202 163.919 95.3065C164.009 95.2996 164.1 95.2904 164.19 95.2835C164.325 95.2766 164.46 95.2744 164.596 95.2789C164.697 95.2812 164.795 95.2927 164.894 95.2996C165.024 95.3088 164.678 95.2629 164.83 95.2904C165.373 95.3913 165.767 94.9809 165.676 94.4443C165.21 91.7409 165.701 88.6042 167.361 86.4052C167.283 86.5084 167.418 86.3365 167.418 86.3319C167.46 86.2814 167.503 86.231 167.544 86.1828C167.627 86.0888 167.714 85.9971 167.804 85.9077C167.888 85.8228 167.98 85.7472 168.069 85.6669C168.209 85.5408 167.957 85.738 168.111 85.6348C168.17 85.5935 168.23 85.55 168.292 85.511C168.365 85.4651 168.441 85.4193 168.519 85.3803C168.565 85.3574 168.611 85.3367 168.656 85.3161C168.489 85.3918 168.64 85.3253 168.675 85.3138C168.767 85.2886 168.858 85.2679 168.95 85.2427C169.097 85.2014 168.799 85.2381 168.95 85.2427C169.01 85.245 169.072 85.2358 169.131 85.2381C169.177 85.2404 169.221 85.245 169.266 85.2473C169.067 85.2313 169.218 85.2404 169.262 85.2542C169.303 85.2679 169.344 85.2794 169.386 85.2909C169.218 85.245 169.308 85.2588 169.363 85.2932C169.487 85.3688 169.232 85.1946 169.347 85.284C169.393 85.3207 169.436 85.4216 169.344 85.2679C169.365 85.3023 169.388 85.339 169.411 85.3734C169.509 85.5247 169.404 85.3046 169.431 85.4101C169.457 85.5041 169.489 85.5935 169.509 85.6876C169.521 85.738 169.528 85.7884 169.537 85.8389C169.503 85.6577 169.537 85.8343 169.539 85.8687C169.555 86.1003 169.562 86.3296 169.553 86.5612C169.542 86.8455 169.514 87.1275 169.477 87.4096C169.498 87.2445 169.473 87.444 169.468 87.4646C169.457 87.5425 169.445 87.6205 169.431 87.6962C169.411 87.8246 169.388 87.9553 169.363 88.0837C169.296 88.4414 169.209 88.7968 169.14 89.1522C169.069 89.5168 169.243 89.8951 169.622 89.9983C169.963 90.0923 170.39 89.8836 170.468 89.5168C170.5 89.3723 170.55 89.2302 170.599 89.0903C170.633 88.994 170.67 88.8954 170.709 88.7991C170.729 88.744 170.755 88.6913 170.775 88.6363C170.81 88.5469 170.702 88.8014 170.764 88.6661C170.782 88.6271 170.798 88.5858 170.816 88.5469C171.092 87.9278 171.413 87.327 171.786 86.7629C171.88 86.6208 171.979 86.4786 172.082 86.341C172.105 86.3112 172.128 86.2791 172.151 86.2493C172.055 86.3754 172.172 86.2241 172.185 86.2081C172.245 86.1347 172.307 86.0613 172.371 85.9879C172.483 85.8595 172.6 85.7357 172.722 85.6165C172.788 85.5523 172.857 85.4881 172.928 85.4262C172.956 85.4009 172.983 85.378 173.013 85.3528C173.027 85.3413 173.19 85.2129 173.116 85.2679C173.059 85.3115 173.233 85.1854 173.268 85.1625C173.341 85.112 173.419 85.0662 173.495 85.0203C173.557 84.9859 173.618 84.9515 173.683 84.9194C173.731 84.8965 173.777 84.8736 173.825 84.8529C173.719 84.8988 173.788 84.869 173.855 84.846C174.004 84.7956 174.155 84.7635 174.309 84.7268C174.474 84.6878 174.201 84.7337 174.306 84.7268C174.35 84.7245 174.393 84.7199 174.437 84.7176C174.526 84.713 174.616 84.7131 174.705 84.7199C174.751 84.7222 174.797 84.7268 174.841 84.7314C174.893 84.7383 174.877 84.736 174.795 84.7268C174.822 84.7314 174.85 84.736 174.877 84.7429C174.98 84.7681 175.084 84.791 175.187 84.8231C175.226 84.8346 175.262 84.8483 175.301 84.8621C175.34 84.8759 175.379 84.8919 175.416 84.9057C175.345 84.8736 175.331 84.869 175.373 84.8919C175.409 84.9034 175.494 84.9836 175.386 84.8919C175.434 84.9332 175.478 84.9767 175.522 85.0203C175.806 85.3253 175.978 85.7839 175.831 86.1851C175.728 86.4672 175.9 86.818 176.148 86.9624C176.427 87.1252 176.744 87.0519 176.982 86.8547C177.049 86.7996 176.881 86.912 177.023 86.8294C177.074 86.7996 177.131 86.7744 177.179 86.74C177.248 86.6942 177.069 86.7721 177.225 86.7217C177.299 86.6987 177.372 86.6758 177.448 86.6575C177.521 86.6414 177.652 86.63 177.496 86.6437C177.56 86.6391 177.622 86.6322 177.686 86.63C177.75 86.6277 177.815 86.6277 177.881 86.63C177.936 86.6322 178.186 86.6689 177.993 86.6345C178.126 86.6575 178.257 86.685 178.385 86.724C178.45 86.7446 178.514 86.7698 178.578 86.7905C178.695 86.8271 178.578 86.7882 178.557 86.779C178.606 86.7996 178.651 86.8226 178.697 86.8455C178.821 86.9074 178.94 86.9808 179.055 87.0587C179.085 87.0771 179.112 87.1 179.14 87.1206C179.119 87.1046 179.034 87.0266 179.124 87.1115C179.188 87.1711 179.254 87.2284 179.316 87.2903C179.367 87.3408 179.41 87.3958 179.459 87.4485C179.481 87.4738 179.532 87.5517 179.449 87.4348C179.47 87.4646 179.493 87.4921 179.511 87.5219C179.55 87.5838 179.589 87.6434 179.624 87.7053C179.642 87.7374 179.658 87.7695 179.674 87.8017C179.683 87.8177 179.743 87.9599 179.706 87.8704C179.676 87.7971 179.747 87.9965 179.757 88.0264C179.782 88.1089 179.798 88.1937 179.819 88.2786C179.825 88.3061 179.839 88.4139 179.821 88.2717C179.825 88.3107 179.83 88.352 179.832 88.3909C179.839 88.4849 179.841 88.5767 179.839 88.6707C179.837 88.7578 179.83 88.8449 179.821 88.9298C179.807 89.0421 179.839 88.8335 179.816 88.9481C179.807 88.994 179.8 89.0398 179.789 89.0857C179.743 89.2944 179.681 89.5007 179.601 89.6979C179.408 90.1703 179.126 90.7527 178.943 91.2869C178.23 93.3575 178.067 95.5885 178.232 97.7622C178.301 98.6473 178.42 99.5301 178.56 100.406C178.615 100.75 178.672 101.092 178.727 101.436C178.748 101.573 178.768 101.711 178.789 101.846C178.803 101.942 178.773 101.711 178.784 101.805C178.787 101.834 178.791 101.864 178.796 101.894C178.803 101.958 178.81 102.02 178.817 102.084C178.894 102.935 178.807 103.612 178.5 104.414C178.484 104.458 178.466 104.503 178.447 104.547C178.484 104.458 178.438 104.565 178.434 104.577C178.395 104.662 178.353 104.747 178.312 104.831C178.216 105.019 178.11 105.201 177.998 105.377C177.764 105.739 177.631 105.909 177.34 106.228C177.083 106.507 176.81 106.771 176.521 107.017C176.443 107.083 176.365 107.15 176.285 107.214C176.251 107.241 176.214 107.271 176.18 107.299C176.203 107.28 176.267 107.232 176.159 107.315C176.008 107.429 175.854 107.539 175.698 107.645C175.132 108.032 174.533 108.376 173.917 108.679C173.139 109.062 172.327 109.378 171.507 109.649C171.014 109.812 170.514 109.954 170.009 110.068C169.567 110.169 169.163 110.238 168.783 110.275C168.4 110.311 168.017 110.328 167.634 110.314C167.453 110.307 167.272 110.291 167.09 110.275C167.063 110.273 166.953 110.259 167.088 110.277C167.047 110.273 167.008 110.266 166.967 110.259C166.877 110.245 166.788 110.229 166.701 110.211C166.382 110.146 166.068 110.057 165.763 109.945C165.738 109.935 165.54 109.857 165.614 109.887C165.689 109.919 165.495 109.835 165.472 109.823C165.334 109.759 165.196 109.688 165.063 109.612C164.8 109.463 164.552 109.293 164.304 109.117C164.204 109.043 164.3 109.112 164.316 109.128C164.288 109.105 164.261 109.085 164.233 109.062C164.178 109.016 164.123 108.972 164.068 108.927C163.947 108.823 163.825 108.716 163.708 108.606C163.259 108.184 162.846 107.72 162.452 107.248C162.051 106.767 161.665 106.274 161.273 105.785C161.14 105.62 161.014 105.45 160.902 105.272C160.766 105.051 160.695 104.912 160.643 104.724C160.631 104.682 160.622 104.639 160.613 104.597C160.585 104.492 160.615 104.705 160.613 104.602C160.613 104.572 160.615 104.352 160.606 104.448C160.597 104.545 160.636 104.348 160.643 104.32C160.666 104.231 160.581 104.428 160.631 104.352C160.652 104.32 160.672 104.283 160.691 104.249C160.744 104.148 160.688 104.256 160.67 104.274C160.698 104.247 160.727 104.217 160.753 104.187C160.856 104.072 160.672 104.224 160.805 104.141C160.863 104.104 160.92 104.07 160.98 104.038C161.01 104.022 161.042 104.008 161.071 103.992C161.168 103.944 160.915 104.052 161.076 103.99C161.422 103.855 161.663 103.529 161.558 103.144C161.452 102.763 161.078 102.591 160.711 102.662C160.439 102.715 160.145 102.731 159.87 102.699C159.764 102.685 159.647 102.66 159.542 102.63C159.494 102.616 159.446 102.6 159.398 102.584C159.198 102.522 159.482 102.632 159.315 102.55C158.983 102.385 158.57 102.46 158.375 102.798C158.201 103.102 158.29 103.575 158.625 103.74Z" fill="#553529"/>
<path d="M161.551 103.857C163.316 103.194 164.298 101.562 164.782 99.8097C164.621 99.9702 164.461 100.131 164.3 100.291C164.341 100.282 164.385 100.277 164.426 100.268C164.532 100.243 164.231 100.289 164.323 100.282C164.351 100.28 164.378 100.275 164.408 100.273C164.477 100.268 164.543 100.261 164.612 100.259C164.775 100.252 164.935 100.259 165.096 100.271C165.155 100.275 165.314 100.316 165.098 100.268C165.142 100.277 165.187 100.282 165.233 100.291C165.341 100.312 165.447 100.337 165.552 100.367C165.6 100.381 165.648 100.397 165.694 100.413C165.735 100.427 165.919 100.507 165.735 100.424C165.848 100.475 165.96 100.53 166.066 100.594C166.114 100.624 166.162 100.654 166.208 100.686C166.263 100.722 166.352 100.796 166.249 100.711C166.357 100.8 166.462 100.894 166.559 101C166.609 101.055 166.657 101.112 166.705 101.169C166.621 101.066 166.731 101.208 166.756 101.243C166.852 101.383 166.937 101.532 167.013 101.683C167.024 101.708 167.107 101.887 167.072 101.805C167.111 101.896 167.143 101.988 167.175 102.082C167.244 102.286 167.299 102.497 167.345 102.708C167.366 102.802 167.382 102.896 167.4 102.99C167.402 103.006 167.425 103.155 167.416 103.077C167.407 103.011 167.421 103.121 167.421 103.123C167.439 103.284 167.451 103.446 167.448 103.609C167.448 103.678 167.439 103.749 167.439 103.818C167.439 103.944 167.476 103.694 167.435 103.845C167.421 103.9 167.409 103.955 167.396 104.01C167.391 104.029 167.382 104.047 167.377 104.068C167.354 104.175 167.43 103.992 167.396 104.026C167.373 104.052 167.343 104.118 167.327 104.148C167.265 104.272 167.4 104.033 167.343 104.125C167.331 104.146 167.224 104.253 167.32 104.157C167.409 104.068 167.283 104.166 167.258 104.189C167.187 104.253 167.419 104.15 167.292 104.175C167.253 104.182 167.203 104.196 167.166 104.21C167.038 104.256 167.306 104.214 167.198 104.208C167.146 104.205 167.091 104.214 167.038 104.214C166.958 104.214 166.676 104.159 166.896 104.212C166.795 104.187 166.692 104.175 166.591 104.15C166.361 104.095 166.139 104.017 165.919 103.935C165.859 103.912 165.8 103.887 165.74 103.864C165.625 103.818 165.864 103.919 165.703 103.848C165.584 103.795 165.465 103.74 165.348 103.685C165.123 103.577 164.901 103.465 164.678 103.348C164.277 103.139 163.885 102.912 163.477 102.715C162.745 102.364 161.975 102.378 161.184 102.534C160.819 102.605 160.611 103.04 160.702 103.38C160.808 103.756 161.184 103.928 161.551 103.857C161.934 103.781 162.369 103.765 162.654 103.843C162.677 103.85 162.7 103.861 162.723 103.868C162.839 103.896 162.553 103.786 162.67 103.845C162.745 103.882 162.823 103.916 162.897 103.955C163.305 104.162 163.704 104.386 164.112 104.597C165.018 105.065 166.109 105.652 167.164 105.583C167.733 105.547 168.262 105.294 168.551 104.783C168.897 104.173 168.849 103.435 168.748 102.77C168.531 101.318 167.811 99.8487 166.407 99.2296C165.648 98.8948 164.752 98.7779 163.936 98.9659C163.704 99.0186 163.516 99.2227 163.454 99.4474C163.335 99.8785 163.195 100.303 162.993 100.704C162.833 101.025 162.603 101.392 162.431 101.598C162.33 101.717 162.223 101.834 162.108 101.942C162.046 102.002 161.982 102.054 161.918 102.112C161.856 102.162 161.854 102.165 161.911 102.119C161.879 102.144 161.847 102.167 161.812 102.19C161.702 102.268 161.585 102.339 161.466 102.403C161.4 102.437 161.333 102.467 161.267 102.502C161.195 102.534 161.2 102.531 161.28 102.497C161.248 102.511 161.214 102.522 161.182 102.536C160.833 102.667 160.597 103.001 160.7 103.382C160.796 103.71 161.2 103.987 161.551 103.857Z" fill="#553529"/>
<path d="M176.274 86.6942C176.274 86.6942 173.617 90.379 174.463 93.9399L176.274 86.6942Z" fill="white"/>
<path d="M169.252 88.7714C168.996 89.668 168.849 90.6035 168.748 91.5276C168.567 93.1693 168.585 94.9486 169.223 96.4987C169.365 96.8426 169.679 97.0857 170.069 96.9802C170.394 96.8908 170.692 96.4803 170.55 96.1341C169.95 94.6758 169.952 93.1005 170.126 91.5298C170.135 91.445 170.147 91.3625 170.156 91.2776C170.167 91.1928 170.167 91.1836 170.158 91.2524C170.165 91.2065 170.172 91.163 170.177 91.1171C170.199 90.9681 170.222 90.8167 170.248 90.6677C170.293 90.3994 170.346 90.1312 170.404 89.8629C170.456 89.6198 170.511 89.3768 170.58 89.1383C170.823 88.283 169.496 87.9207 169.252 88.7714Z" fill="#553529"/>
<path d="M167.327 98.7825C167.487 98.6816 167.659 98.5945 167.829 98.5119C167.916 98.4684 168.003 98.4294 168.093 98.3881C168.136 98.3698 168.178 98.3514 168.221 98.3308C168.29 98.301 168.281 98.3056 168.194 98.3423C168.226 98.3285 168.258 98.3147 168.29 98.3033C168.549 98.2024 168.808 98.1061 169.074 98.0235C170.629 97.5328 172.202 97.409 173.834 97.6177C174.203 97.6635 174.522 97.2692 174.522 96.9298C174.522 96.5194 174.203 96.2878 173.834 96.2419C172.121 96.0241 170.354 96.1777 168.707 96.6982C167.999 96.9229 167.263 97.1981 166.63 97.597C165.887 98.0671 166.577 99.2571 167.327 98.7825Z" fill="#553529"/>
<path d="M175.68 86.3479C175.134 87.1069 174.724 87.9736 174.373 88.8335C173.697 90.5027 173.392 92.3486 173.8 94.1233C173.882 94.4856 174.3 94.6988 174.646 94.6048C175.017 94.5016 175.21 94.121 175.128 93.7587C174.77 92.1972 175.121 90.599 175.731 89.1316C175.696 89.2118 175.781 89.0169 175.79 88.9963C175.822 88.9229 175.857 88.8472 175.891 88.7739C175.955 88.6363 176.022 88.4987 176.093 88.3611C176.217 88.1181 176.347 87.8796 176.487 87.6434C176.609 87.4394 176.733 87.2353 176.872 87.0427C177.09 86.74 176.925 86.2768 176.625 86.1026C176.274 85.8985 175.896 86.0453 175.68 86.3479Z" fill="#553529"/>
<path d="M173.007 123.858C173.052 124.043 173.084 124.231 173.114 124.419C173.13 124.515 173.145 124.612 173.157 124.709C173.164 124.764 173.172 124.819 173.18 124.876C173.184 124.907 173.188 124.941 173.192 124.973C173.18 124.882 173.181 124.871 173.191 124.969C173.223 125.253 173.247 125.537 173.264 125.822C173.359 127.46 173.223 129.104 172.808 130.687C172.513 131.808 172.083 132.899 171.495 133.933C171.317 134.246 171.395 134.627 171.731 134.795C172.042 134.951 172.515 134.845 172.693 134.532C174.515 131.337 175.018 127.668 174.506 124.233C174.47 123.983 174.429 123.729 174.369 123.483C174.172 122.693 172.812 123.068 173.007 123.858Z" fill="#553529"/>
<path d="M121.354 109.633C118.32 109.087 115.151 109.346 112.191 110.167C111.029 110.49 109.898 110.91 108.795 111.396C108.456 111.545 108.376 112.043 108.548 112.336C108.752 112.687 109.148 112.733 109.488 112.584C112.549 111.235 115.892 110.554 119.228 110.754C119.565 110.775 119.902 110.804 120.239 110.843C120.281 110.848 120.508 110.878 120.345 110.855C120.409 110.864 120.476 110.873 120.54 110.882C120.689 110.905 120.838 110.928 120.985 110.956C121.349 111.022 121.725 110.857 121.831 110.474C121.927 110.146 121.723 109.699 121.354 109.633Z" fill="#553529"/>
<path d="M155.967 74.9588C158.501 75.3738 161.01 75.9471 163.461 76.7083C164.596 77.0615 165.719 77.4535 166.825 77.8892C167.847 78.2928 168.79 78.7032 169.84 79.2122C171.757 80.1432 173.607 81.2117 175.363 82.4224C175.774 82.7044 176.18 82.9956 176.579 83.2937C176.677 83.367 176.776 83.4427 176.875 83.5161C176.923 83.5528 176.973 83.5918 177.021 83.6284C177.182 83.7523 176.916 83.5459 177.076 83.672C177.269 83.8211 177.459 83.9747 177.65 84.126C178.411 84.7405 179.147 85.3848 179.86 86.0544C182.598 88.6294 184.73 91.3052 186.631 94.5016C187.493 95.9507 188.264 97.4503 188.942 98.9935C189.025 99.1792 189.105 99.3649 189.183 99.553C189.11 99.3787 189.231 99.6676 189.25 99.7135C189.295 99.8212 189.339 99.9313 189.383 100.039C189.532 100.408 189.676 100.78 189.814 101.153C190.091 101.901 190.348 102.655 190.582 103.414C191.029 104.863 191.4 106.335 191.692 107.824C191.829 108.525 191.948 109.229 192.049 109.938C192.061 110.023 192.072 110.107 192.084 110.192C192.052 109.965 192.086 110.211 192.093 110.261C192.116 110.442 192.139 110.623 192.159 110.802C192.198 111.144 192.233 111.485 192.262 111.827C192.37 113.061 192.418 114.301 192.393 115.539C192.382 116.103 192.354 116.665 192.308 117.227C192.285 117.495 192.26 117.764 192.23 118.032C192.217 118.146 192.203 118.259 192.189 118.373C192.173 118.5 192.217 118.188 192.198 118.314C192.194 118.344 192.189 118.373 192.185 118.406C192.175 118.477 192.164 118.545 192.155 118.617C192.024 119.483 191.838 120.348 191.556 121.18C191.497 121.352 191.432 121.522 191.366 121.691C191.299 121.859 191.391 121.636 191.377 121.666C191.359 121.705 191.343 121.744 191.327 121.783C191.293 121.861 191.256 121.939 191.217 122.017C191.084 122.288 190.928 122.542 190.756 122.787C190.664 122.918 190.822 122.709 190.793 122.742C190.77 122.764 190.751 122.792 190.731 122.817C190.655 122.907 190.579 122.994 190.501 123.081C190.343 123.255 190.18 123.423 190.013 123.588C189.827 123.769 189.635 123.943 189.438 124.113C189.348 124.191 189.256 124.266 189.162 124.34C189.112 124.381 189.059 124.422 189.009 124.464C188.908 124.546 189.149 124.36 189.043 124.438C189.006 124.466 188.972 124.493 188.935 124.519C188.479 124.86 188.002 125.17 187.505 125.447C187.25 125.589 186.991 125.722 186.727 125.844C186.661 125.876 186.592 125.906 186.526 125.936C186.475 125.959 186.227 126.059 186.45 125.97C186.299 126.03 186.147 126.092 185.996 126.149C185.404 126.367 184.794 126.536 184.173 126.651C184.029 126.676 183.886 126.699 183.742 126.72C183.983 126.683 183.703 126.724 183.646 126.731C183.552 126.743 183.458 126.752 183.364 126.759C183.036 126.786 182.708 126.798 182.378 126.795C182.024 126.791 181.671 126.768 181.321 126.727C181.277 126.722 181.236 126.715 181.192 126.711C181.401 126.736 181.245 126.717 181.201 126.711C181.114 126.697 181.027 126.683 180.94 126.669C180.763 126.64 180.589 126.603 180.415 126.564C180.039 126.479 179.667 126.374 179.303 126.247C179.135 126.19 178.97 126.13 178.805 126.064C178.759 126.046 178.473 125.924 178.652 126.002C178.544 125.956 178.438 125.908 178.333 125.86C177.533 125.491 176.776 125.034 176.061 124.521C175.967 124.452 175.872 124.383 175.778 124.312C175.765 124.301 175.609 124.181 175.73 124.275C175.682 124.239 175.636 124.202 175.588 124.165C175.396 124.012 175.208 123.856 175.022 123.695C174.611 123.34 174.217 122.969 173.836 122.581C172.002 120.712 170.557 118.598 169.253 116.308C168.457 114.911 167.737 113.473 167.07 112.013C166.916 111.676 166.426 111.591 166.13 111.765C165.784 111.969 165.728 112.366 165.882 112.705C167.182 115.555 168.684 118.339 170.569 120.85C171.954 122.696 173.529 124.395 175.412 125.741C178.046 127.625 181.238 128.552 184.457 127.988C186.874 127.564 189.153 126.314 190.917 124.622C191.485 124.076 192.013 123.482 192.37 122.774C192.742 122.042 193.001 121.253 193.193 120.458C193.712 118.316 193.829 116.071 193.762 113.875C193.675 111.011 193.246 108.149 192.556 105.368C191.76 102.167 190.593 99.0508 189.091 96.1135C187.431 92.8667 185.338 89.84 182.873 87.1504C180.117 84.1398 176.881 81.5694 173.355 79.5195C169.25 77.1371 164.752 75.4541 160.134 74.3787C158.875 74.0852 157.607 73.8376 156.332 73.6289C155.965 73.5693 155.591 73.7252 155.486 74.1104C155.396 74.4429 155.598 74.8992 155.967 74.9588Z" fill="#553529"/>
<path d="M179.367 108.926C179.45 108.965 179.528 109.014 179.604 109.059C179.698 109.117 179.787 109.176 179.879 109.238C179.938 109.28 179.996 109.321 180.053 109.362C180.085 109.385 180.117 109.41 180.149 109.433C180.275 109.527 180.154 109.436 180.156 109.438C181.044 110.178 181.855 110.974 182.605 111.855C183.284 112.65 183.91 113.489 184.504 114.352C184.715 114.657 185.107 114.796 185.444 114.599C185.746 114.423 185.902 113.966 185.691 113.659C184.703 112.226 183.63 110.832 182.396 109.601C181.78 108.986 181.115 108.392 180.376 107.922C180.275 107.858 180.172 107.791 180.062 107.741C179.725 107.583 179.319 107.647 179.122 107.989C178.945 108.284 179.03 108.768 179.367 108.926Z" fill="#553529"/>
<path d="M120.725 124.732C120.131 126.984 119.535 129.233 118.941 131.485C118.856 131.803 118.774 132.122 118.689 132.441C118.462 133.298 119.79 133.663 120.017 132.808C120.611 130.556 121.207 128.307 121.801 126.055C121.885 125.736 121.968 125.417 122.053 125.099C122.278 124.241 120.95 123.874 120.725 124.732Z" fill="#553529"/>
<path d="M137.931 71.1044C139.135 71.4163 140.339 71.7258 141.54 72.0377C141.731 72.0881 141.923 72.1431 142.116 72.1867C142.384 72.2463 142.597 72.1615 142.834 72.0606C143.471 71.7854 144.106 71.5103 144.744 71.2374C145.292 71.0012 145.84 70.7651 146.388 70.5289C146.729 70.3821 146.805 69.88 146.635 69.5888C146.429 69.2357 146.037 69.1944 145.695 69.3412C144.459 69.8754 143.223 70.4074 141.985 70.9416C142.162 70.9187 142.338 70.8958 142.515 70.8728C141.109 70.5083 139.704 70.146 138.296 69.7814C137.441 69.5567 137.074 70.882 137.931 71.1044Z" fill="#553529"/>
</g>
<defs>
<clipPath id="clip0_376_2646">
<rect width="297" height="165" fill="white" transform="translate(0.5)"/>
</clipPath>
</defs>
</svg>
