<svg width="140" height="73" viewBox="0 0 140 73" fill="none" xmlns="http://www.w3.org/2000/svg">
<path d="M111.468 0C102.77 0 93.7763 2.57698 85.6448 6.94233C82.1376 8.82384 78.1129 8.74311 75.6242 6.63806C70.696 2.459 63.7227 0 55.2216 0C33.3076 0 9.57025 16.3437 2.19441 36.5C-5.17321 56.6626 6.61334 73 28.5355 73C36.9134 73 45.5623 70.6093 53.4638 66.5296C57.4721 64.4618 62.0553 64.5177 64.9547 66.8277C69.8418 70.7273 76.6098 73 84.7824 73C106.696 73 130.442 56.6563 137.81 36.5C145.169 16.3437 133.382 0 111.468 0Z" fill="#553529"/>
</svg>
