<svg width="160" height="160" viewBox="0 0 160 160" fill="none" xmlns="http://www.w3.org/2000/svg">
<path d="M36.7275 130.596C36.6875 130.579 36.5846 130.538 36.4246 130.526C36.3903 130.509 36.3618 130.503 36.3389 130.491C36.2475 130.421 36.1446 130.392 36.0303 130.386L0.38859 114.374C0.125721 114.252 0 114.024 0 113.855V81.8603C0.0628602 81.7436 0.0800026 81.6269 0.0857171 81.5452C0.11429 81.5102 0.148577 81.4694 0.17715 81.4227C0.188579 81.4052 0.194293 81.3935 0.205722 81.376C0.211437 81.3702 0.537168 81.1193 0.537168 81.1193L36.316 65.084C36.4703 65.014 36.6589 64.9731 36.8589 64.9731C37.0589 64.9731 37.2475 65.0082 37.3961 65.0782L73.0892 81.1134L73.3007 81.2768C73.3407 81.3293 73.3921 81.3818 73.455 81.4285C73.4836 81.4752 73.5121 81.5102 73.5407 81.5452C73.5521 81.6211 73.5807 81.6969 73.6207 81.7611L73.4378 113.843C73.4378 114.013 73.3178 114.24 73.0435 114.368L37.4075 130.38C37.2932 130.386 37.1846 130.427 37.0932 130.503C37.0875 130.509 37.0761 130.515 37.0704 130.52C36.9789 130.52 36.8875 130.544 36.8075 130.59C36.8018 130.59 36.7903 130.59 36.7846 130.59C36.7789 130.596 36.7275 130.596 36.7275 130.596ZM2.7087 104.507C2.60012 104.507 2.49155 104.536 2.3944 104.6C2.23439 104.705 2.13724 104.892 2.13724 105.09V113.155C2.13724 113.388 2.26868 113.598 2.48012 113.692L35.1388 128.35C35.2131 128.385 35.2931 128.396 35.3674 128.396C35.476 128.396 35.5846 128.367 35.6817 128.303C35.8417 128.198 35.9389 128.011 35.9389 127.813V119.749C35.9389 119.515 35.8074 119.305 35.596 119.212L2.93728 104.554C2.86299 104.519 2.78299 104.507 2.7087 104.507ZM71.112 104.501C71.032 104.501 70.9577 104.519 70.8834 104.548L38.2247 119.206C38.019 119.299 37.8818 119.509 37.8818 119.743V127.807C37.8818 128.005 37.979 128.186 38.139 128.297C38.2361 128.361 38.3447 128.391 38.4533 128.391C38.5333 128.391 38.6076 128.373 38.6819 128.344L71.3406 113.686C71.5463 113.592 71.6835 113.382 71.6835 113.149V105.085C71.6835 104.886 71.5863 104.705 71.4263 104.594C71.3349 104.536 71.2263 104.501 71.112 104.501ZM2.7087 94.8262C2.60012 94.8262 2.49155 94.8554 2.3944 94.9196C2.23439 95.0246 2.13724 95.2114 2.13724 95.4098V102.354C2.13724 102.587 2.26868 102.797 2.48012 102.891L35.1388 117.549C35.2131 117.584 35.2931 117.595 35.3674 117.595C35.476 117.595 35.5846 117.566 35.6817 117.502C35.8417 117.397 35.9389 117.21 35.9389 117.012V110.068C35.9389 109.834 35.8074 109.624 35.596 109.531L2.93728 94.8729C2.86299 94.8437 2.78299 94.8262 2.7087 94.8262ZM71.1177 94.7562C71.0377 94.7562 70.9634 94.7737 70.8891 94.8029L38.2304 109.461C38.0247 109.554 37.8875 109.764 37.8875 109.998V116.942C37.8875 117.14 37.9847 117.321 38.1447 117.432C38.2418 117.496 38.3504 117.525 38.459 117.525C38.539 117.525 38.6133 117.508 38.6876 117.479L71.3463 102.821C71.552 102.727 71.6892 102.517 71.6892 102.284V95.3397C71.6892 95.1413 71.592 94.9605 71.432 94.8496C71.3349 94.7912 71.2263 94.7562 71.1177 94.7562ZM71.1177 83.255C71.0377 83.255 70.9634 83.2725 70.8891 83.3016L38.2304 97.9598C38.0247 98.0531 37.8875 98.2632 37.8875 98.4966V107.267C37.8875 107.465 37.9847 107.646 38.1447 107.757C38.2418 107.821 38.3504 107.85 38.459 107.85C38.539 107.85 38.6133 107.833 38.6876 107.804L71.3463 93.1457C71.552 93.0523 71.6892 92.8423 71.6892 92.6089V83.8443C71.6892 83.6459 71.592 83.465 71.432 83.3542C71.3349 83.2841 71.2263 83.255 71.1177 83.255ZM2.7087 83.255C2.60012 83.255 2.49155 83.2841 2.3944 83.3483C2.23439 83.4534 2.13724 83.6401 2.13724 83.8385V92.603C2.13724 92.8364 2.26868 93.0465 2.48012 93.1399L35.1388 107.798C35.2131 107.833 35.2931 107.845 35.3674 107.845C35.476 107.845 35.5846 107.815 35.6817 107.751C35.8417 107.646 35.9389 107.46 35.9389 107.261V98.4966C35.9389 98.2632 35.8074 98.0531 35.596 97.9598L2.93728 83.3016C2.86299 83.2725 2.7887 83.255 2.7087 83.255ZM36.9104 66.4961C36.8303 66.4961 36.7561 66.5136 36.6818 66.5428L4.02305 81.201C3.81733 81.2943 3.68018 81.5044 3.68018 81.7378C3.68018 81.9712 3.81161 82.1813 4.02305 82.2746L36.6818 96.9328C36.7561 96.9678 36.8361 96.9794 36.9104 96.9794C36.9846 96.9794 37.0646 96.9619 37.1389 96.9328L69.7976 82.2746C70.0034 82.1813 70.1405 81.9712 70.1405 81.7378C70.1405 81.5044 70.0091 81.2943 69.7976 81.201L37.1389 66.5428C37.0704 66.5078 36.9904 66.4961 36.9104 66.4961Z" fill="#553529"/>
<path d="M86.3985 40.4243C78.5752 43.4178 78.2838 47.8584 80.0496 46.4755C81.8154 45.0867 86.3356 43.5054 86.907 43.1027C87.5528 42.6476 87.4842 40.0042 86.3985 40.4243Z" fill="#553529"/>
<path d="M102.531 37.1042C105.439 36.4798 108.119 37.7811 109.971 38.4405C111.148 38.8606 110.411 33.4864 101.108 33.9298C99.8219 33.994 99.8847 37.6761 102.531 37.1042Z" fill="#553529"/>
<path d="M86.4728 47.7068C84.4955 47.8936 83.1812 51.2372 83.5412 55.1701C83.8955 59.1031 85.787 62.1432 87.7643 61.9565C89.7415 61.7698 91.0559 58.4262 90.6958 54.4932C90.3415 50.5544 88.45 47.5201 86.4728 47.7068Z" fill="#553529"/>
<path d="M108.185 60.0265C110.162 59.8398 111.475 56.4993 111.119 52.5652C110.763 48.6311 108.871 45.5933 106.895 45.78C104.918 45.9667 103.605 49.3072 103.961 53.2413C104.317 57.1753 106.209 60.2132 108.185 60.0265Z" fill="#553529"/>
<path d="M100.999 66.3154C101.725 66.1987 102.582 66.0178 103.148 65.5043C103.485 65.2008 103.474 64.5765 103.148 64.2672C102.822 63.9638 102.393 63.9579 102.045 64.1972C102.056 64.1855 102.056 64.1797 102.011 64.203C101.971 64.2263 101.936 64.2497 101.896 64.2672C101.856 64.2847 101.816 64.3022 101.782 64.3255C101.805 64.3139 101.822 64.3022 101.845 64.2905C101.816 64.3022 101.788 64.3197 101.771 64.3255C101.491 64.4306 101.199 64.5064 100.908 64.5648C100.799 64.5881 100.679 64.5998 100.565 64.6173C100.553 64.6231 100.53 64.629 100.496 64.6348C100.485 64.6348 100.479 64.6348 100.468 64.6406C100.462 64.6406 100.45 64.6406 100.445 64.6465C100.45 64.6465 100.451 64.6465 100.456 64.6406C100.428 64.6465 100.393 64.6465 100.365 64.6523C100.273 64.664 100.188 64.6698 100.096 64.6756C99.919 64.6873 99.7362 64.6932 99.559 64.6873C99.4847 64.6873 99.4104 64.6815 99.3362 64.6756C99.2904 64.6698 99.2504 64.6698 99.2047 64.664C99.199 64.664 99.1933 64.664 99.1933 64.664C99.0676 64.6173 98.9076 64.6115 98.7761 64.5765C98.7133 64.5589 98.6504 64.5356 98.5875 64.5123C98.5533 64.4948 98.519 64.4773 98.4847 64.4597C98.4447 64.4364 98.4104 64.4131 98.3704 64.3897C98.3532 64.3722 98.3304 64.3547 98.3132 64.3372C98.3018 64.3255 98.2961 64.3197 98.2904 64.3139C98.279 64.2964 98.2732 64.273 98.2618 64.2555C98.2618 64.273 98.239 64.2497 98.2275 64.1972C98.2275 64.1913 98.2275 64.1855 98.2218 64.1855C98.2161 64.1738 98.2104 64.1622 98.199 64.1505C98.199 64.1563 98.199 64.1563 98.199 64.1563C98.199 64.1563 98.199 64.1505 98.199 64.1446C98.199 64.1388 98.1932 64.133 98.1932 64.133C98.199 64.1388 98.199 64.1388 98.199 64.1446C98.199 64.133 98.199 64.1155 98.199 64.098V64.0921C98.1875 64.0571 98.1875 64.0338 98.1932 64.0279C98.1875 63.9521 98.1932 63.8762 98.1932 63.8062C98.1875 63.8179 98.1875 63.8237 98.1818 63.8412C98.199 63.7945 98.2047 63.7362 98.2104 63.6837C98.2047 63.6895 98.199 63.6895 98.1875 63.6895C98.1875 63.6895 98.2047 63.6603 98.2218 63.6311C98.2332 63.567 98.239 63.567 98.2447 63.5903C98.2504 63.5786 98.2561 63.5728 98.2561 63.567C98.2561 63.567 98.2675 63.5553 98.2732 63.5378C98.279 63.5319 98.279 63.5319 98.2904 63.5203C98.3247 63.4853 98.359 63.4503 98.3933 63.4152C98.3875 63.4152 98.3875 63.4211 98.3818 63.4211C98.3875 63.4211 98.3932 63.4152 98.399 63.4152C98.4675 63.3452 98.479 63.3686 98.4504 63.3919C98.5361 63.3452 98.6504 63.2402 98.7076 63.211C98.7933 63.1643 98.8847 63.1235 98.9704 63.0768C98.999 63.0651 99.0276 63.0535 99.039 63.0476C99.1133 63.0184 99.1933 62.9893 99.2733 62.9659C99.5304 62.8784 99.7933 62.8142 100.056 62.7675C100.062 62.7675 100.073 62.7617 100.085 62.7617C100.148 62.7383 100.245 62.7442 100.308 62.7383C100.422 62.7267 100.536 62.7267 100.651 62.7267C100.708 62.7267 100.822 62.715 100.913 62.7208C100.925 62.7267 100.942 62.7383 100.976 62.7442C101.033 62.7559 101.091 62.7734 101.148 62.785C101.576 62.9134 102.102 62.6275 102.205 62.1723C102.308 61.7055 102.068 61.2329 101.605 61.0928C100.485 60.7602 99.1704 61.0695 98.1361 61.548C97.6104 61.793 97.1132 62.1548 96.7932 62.6567C96.5189 63.0943 96.4389 63.6895 96.496 64.1972C96.736 66.4379 99.2619 66.5838 100.999 66.3154Z" fill="#553529"/>
<path d="M111.823 68.0426C111.508 67.3132 110.988 66.648 110.451 66.0761C110.102 65.7085 109.594 65.7844 109.24 66.0761C105.011 69.5131 100.062 71.9347 94.816 73.2185C93.7416 73.4811 94.1988 75.1674 95.2731 74.9049C97.519 74.3563 99.6962 73.5919 101.793 72.6525C101.816 73.0726 102.085 73.5044 102.611 73.5511C104.234 73.7028 105.862 73.6036 107.457 73.2535C108.834 72.9501 110.257 72.4074 111.177 71.2695C111.914 70.3534 112.314 69.1747 111.823 68.0426ZM109.531 70.4934C108.668 71.252 107.434 71.5146 106.342 71.7013C105.388 71.8647 104.422 71.9055 103.462 71.8647C105.662 70.7443 107.754 69.4081 109.72 67.8851C109.868 68.0835 110.011 68.2877 110.131 68.5094C110.56 69.2447 110.131 69.9624 109.531 70.4934Z" fill="#553529"/>
<path d="M157.413 80.4775C155.773 77.1805 153.35 74.3154 150.533 72.0047C145.858 68.1651 140.212 65.6326 134.429 64.0979C133.372 63.8178 132.303 63.5553 131.223 63.3685C131.778 61.723 132.212 60.0308 132.583 58.3269C136.749 58.0643 139.304 53.8921 139.961 49.965C140.755 45.2093 139.578 39.7066 136.184 36.2055C134.784 34.7583 132.938 33.7255 130.938 33.638C127.366 23.8639 120.286 15.2628 110.605 11.4407C101.513 7.85203 91.2615 9.52091 83.6383 15.6713C75.8665 21.9383 71.6149 31.8757 70.8491 41.8073C70.0148 52.6142 73.2264 63.7712 79.9467 72.1973C85.8955 79.6489 94.8388 84.778 104.411 84.5096C105.594 84.4746 106.765 84.3521 107.937 84.1712C109.022 84.0019 108.559 82.3156 107.479 82.4848C98.5076 83.8794 89.6672 80.0223 83.4097 73.5335C76.3865 66.2453 72.6206 56.0395 72.4435 45.8803C72.272 36.2113 75.4493 26.2622 82.2097 19.3241C88.6214 12.7361 97.9018 9.80684 106.794 12.0534C116.366 14.475 123.897 22.09 128.029 31.0238C128.589 32.2375 129.08 33.4804 129.52 34.7467C129.64 35.0968 129.955 35.406 130.349 35.3885C133.972 35.2135 136.527 38.7613 137.612 41.8948C138.938 45.7228 138.95 50.4901 136.652 53.9563C135.555 55.6193 133.892 56.6872 131.898 56.6055C131.543 56.588 131.149 56.8856 131.069 57.2474C130.441 60.2758 129.646 63.3102 128.28 66.0936C126.989 68.7253 125.229 71.0185 123.183 73.0784C122.4 73.872 123.612 75.109 124.395 74.3154C126.532 72.1564 128.412 69.7289 129.761 66.9747C130.069 66.3387 130.349 65.6968 130.612 65.0432C133.801 65.5509 136.972 66.5837 139.955 67.8033C145.938 70.2541 151.704 74.1345 155.105 79.8648C157.453 83.8211 158.413 88.3609 158.27 92.9649C158.236 94.0911 159.951 94.0911 159.985 92.9649C160.122 88.6351 159.333 84.3404 157.413 80.4775Z" fill="#553529"/>
<path d="M134.389 49.6032C134.395 49.5857 134.401 49.5799 134.407 49.5682C134.401 49.574 134.401 49.5857 134.395 49.5915C134.361 49.6674 134.326 49.7432 134.292 49.8133C134.264 49.8775 134.229 49.9358 134.195 50C133.646 50.9803 135.127 51.8614 135.675 50.8811C136.212 49.93 136.492 48.8096 136.624 47.7301C136.898 45.4427 136.178 43.272 134.778 41.4922C134.487 41.1246 133.869 41.183 133.566 41.4922C133.212 41.854 133.275 42.3617 133.566 42.7293C134.184 43.5112 134.618 44.4157 134.835 45.396C134.927 45.8103 134.967 46.2188 134.972 46.6447C134.972 46.8373 134.967 47.0357 134.955 47.2283C134.949 47.3275 134.938 47.4325 134.932 47.5317C134.921 47.6484 134.921 47.6484 134.915 47.6892C134.824 48.3019 134.658 48.8913 134.447 49.469C134.441 49.4748 134.441 49.4865 134.435 49.4923C134.429 49.504 134.424 49.5273 134.412 49.5507C134.401 49.5682 134.395 49.5857 134.389 49.6032Z" fill="#553529"/>
<path d="M134.401 49.5639C134.401 49.558 134.407 49.552 134.407 49.552C134.412 49.5342 134.424 49.5104 134.43 49.4926C134.442 49.4688 134.436 49.4867 134.401 49.5639Z" fill="#553529"/>
<path d="M84.3641 89.633C84.3641 89.633 88.2558 84.7722 91.9759 87.0655C95.6961 89.3587 100.159 94.698 97.3076 101.239C94.456 107.781 92.6788 103.054 92.6788 103.054" fill="#EDEDEB"/>
<path d="M84.9698 90.2516C85.827 89.1895 86.9699 88.2209 88.2157 87.6899C89.2386 87.2522 90.3701 87.1706 91.3701 87.7191C92.353 88.2617 93.2502 89.0145 94.0388 89.8139C95.8275 91.6112 97.2047 93.9803 97.3419 96.5886C97.4219 98.1408 97.0847 99.6521 96.4504 101.058C96.0275 101.998 95.4903 103.282 94.5474 103.801C94.5303 103.813 94.456 103.83 94.416 103.83C94.4674 103.824 94.2046 103.778 94.2903 103.813C94.1246 103.748 94.1417 103.725 94.1131 103.702C94.016 103.614 93.9246 103.515 93.8445 103.41C93.9017 103.48 93.7874 103.334 93.7245 103.223C93.6731 103.13 93.616 103.037 93.5703 102.943C93.5017 102.803 93.3874 102.511 93.5074 102.827C93.1131 101.788 91.4559 102.237 91.8559 103.293C92.2559 104.35 93.0674 105.505 94.2731 105.581C95.336 105.645 96.159 104.863 96.7533 104.052C97.7876 102.646 98.5419 100.872 98.8677 99.1445C99.502 95.8184 98.4791 92.5682 96.4561 89.9481C95.5418 88.7636 94.4446 87.7366 93.2388 86.8671C92.0959 86.0443 90.8558 85.4667 89.4272 85.6009C87.2328 85.8109 85.1413 87.3106 83.7641 89.0203C83.0612 89.8781 84.2669 91.1268 84.9698 90.2516Z" fill="#553529"/>
<path d="M75.1865 87.6668C73.4322 88.0403 63.4545 78.418 59.2372 82.0242C53.7112 86.7449 60.6887 94.3307 67.7233 95.451C67.7233 95.451 53.0598 101.123 50.3568 105.365C48.5395 108.213 50.3396 112.869 53.2198 111.766C58.3 109.823 53.4769 111.492 51.9968 114.258C50.2711 117.479 55.2027 122.474 60.0201 119.591C57.7343 121.622 59.3172 126.407 64.1346 125.888C68.7291 125.392 79.7982 120.613 84.4955 116.295C88.0329 112.963 93.3417 108.464 94.0389 102.226C94.736 95.9937 89.0786 84.7259 75.1865 87.6668Z" fill="#EDEDEB"/>
<path d="M74.9578 86.8266C75.0779 86.8091 75.1693 86.8383 75.0493 86.8033C74.9636 86.7741 74.615 86.6457 74.7521 86.7041C74.3978 86.5465 74.0664 86.3481 73.7349 86.1497C72.7692 85.572 71.8377 84.9418 70.8948 84.3291C68.7404 82.9345 66.5003 81.5107 64.0373 80.7463C62.963 80.4137 61.8201 80.2269 60.7 80.4137C59.4714 80.6179 58.477 81.3765 57.6999 82.351C55.7569 84.7901 56.1855 87.947 57.9113 90.3803C60.1286 93.508 63.7687 95.6728 67.4832 96.2914C67.4832 95.7312 67.4832 95.1652 67.4832 94.605C64.0259 95.9413 60.62 97.4759 57.3399 99.209C53.494 101.24 47.2479 104.397 49.048 109.905C49.4823 111.23 50.4195 112.496 51.8367 112.753C52.7225 112.916 53.494 112.583 54.3111 112.274C54.6369 112.146 54.9683 112.017 55.294 111.895C55.4769 111.825 55.8255 111.819 55.4712 111.801C55.2712 111.714 55.0655 111.632 54.8654 111.545L54.8712 111.551C54.7969 111.265 54.7226 110.985 54.6483 110.699C54.8083 110.296 55.0769 110.173 54.6597 110.465C54.4197 110.634 54.1797 110.798 53.9397 110.973C53.3282 111.434 52.7282 111.918 52.2082 112.49C51.0481 113.762 50.4367 115.338 50.991 117.047C51.551 118.775 52.9396 120.123 54.5626 120.817C56.5055 121.646 58.6199 121.389 60.4371 120.344C60.0886 119.883 59.7457 119.428 59.3971 118.967C57.6427 120.589 57.8084 123.355 59.3171 125.082C61.1343 127.166 63.9573 126.944 66.3631 126.343C69.1976 125.637 71.9406 124.528 74.5978 123.314C77.4608 122.013 80.2838 120.525 82.8554 118.687C85.1926 117.012 87.3299 114.923 89.2957 112.823C91.5587 110.407 93.5988 107.623 94.4845 104.356C95.6503 100.043 94.3016 95.4511 91.6386 92.0083C89.9471 89.8259 87.6842 88.1862 85.1183 87.2467C81.8725 86.0505 78.318 86.1264 74.9578 86.8266C73.8778 87.0483 74.335 88.7406 75.415 88.513C80.3467 87.4918 85.6498 88.2037 89.33 91.9674C91.7758 94.4708 93.4216 98.1353 93.2216 101.718C92.8959 107.618 87.867 112.012 83.884 115.676C81.9239 117.479 79.5638 118.85 77.238 120.093C74.6893 121.453 72.0491 122.637 69.3347 123.606C68.0775 124.055 66.8032 124.464 65.5002 124.762C64.3402 125.024 63.123 125.217 61.9629 124.82C60.1286 124.184 59.0028 121.704 60.62 120.21C61.3515 119.533 60.4143 118.354 59.58 118.833C58.1342 119.667 56.4255 119.854 54.9169 119.066C53.7683 118.465 52.6653 117.345 52.5053 115.974C52.3568 114.678 53.3797 113.68 54.2654 112.922C54.8712 112.402 55.9969 111.941 56.3055 111.165C56.4198 110.885 56.2827 110.518 56.0826 110.313C55.414 109.613 53.8883 110.582 53.2197 110.833C52.1339 111.241 51.3624 110.903 50.8538 109.823C50.3452 108.744 50.3281 107.361 50.831 106.275C51.191 105.499 51.7967 104.928 52.4653 104.356C54.1854 102.885 56.2255 101.771 58.2085 100.726C60.2828 99.635 62.4087 98.643 64.5516 97.7035C65.6717 97.2133 66.8032 96.7407 67.9404 96.2972C68.6375 96.0288 68.8661 94.7625 67.9404 94.6108C64.8488 94.0915 61.8715 92.481 59.82 90.0477C58.2142 88.1454 57.3056 85.397 59.1457 83.3196C59.8085 82.5727 60.5114 82.1176 61.4943 82.0942C62.4601 82.0709 63.4087 82.351 64.3059 82.6952C66.5346 83.5414 68.5747 84.901 70.5691 86.2022C71.4548 86.7799 72.3349 87.3809 73.2606 87.9003C73.9235 88.2679 74.6321 88.6472 75.4036 88.5188C76.5008 88.3321 76.0379 86.6457 74.9578 86.8266Z" fill="#553529"/>
<path d="M68.6605 103.404C68.6605 103.404 61.1115 107.442 55.4884 110.809L68.6605 103.404Z" fill="#EDEDEB"/>
<path d="M68.2262 102.646C63.7917 105.021 59.38 107.466 55.0541 110.051C54.0998 110.617 54.9627 112.134 55.917 111.562C60.2429 108.977 64.6488 106.532 69.0891 104.157C70.072 103.632 69.2033 102.121 68.2262 102.646Z" fill="#553529"/>
<path d="M60.0143 119.591C60.0143 119.591 67.2432 116.942 71.472 112.653L60.0143 119.591Z" fill="#EDEDEB"/>
<path d="M60.2429 120.437C61.7287 119.889 63.1802 119.212 64.5917 118.488C67.289 117.105 69.9177 115.442 72.0778 113.272C72.8664 112.478 71.6549 111.241 70.8663 112.035C68.8091 114.1 66.2947 115.658 63.7288 116.977C62.3859 117.666 61.1573 118.249 59.7915 118.751C58.7571 119.13 59.2029 120.822 60.2429 120.437Z" fill="#553529"/>
<path d="M68.1804 95.5031C68.1804 95.5031 77.7237 96.921 80.901 95.258L68.1804 95.5031Z" fill="#EDEDEB"/>
<path d="M67.9519 96.3493C69.7634 96.6177 71.5921 96.7928 73.4207 96.8861C74.838 96.9561 76.2609 96.9795 77.6781 96.8686C78.9239 96.7694 80.1982 96.5885 81.3297 96.0167C82.3183 95.5148 81.4497 94.0035 80.4668 94.5054C79.6153 94.9372 78.4153 95.0714 77.3981 95.1414C76.0266 95.2348 74.6494 95.2056 73.2779 95.1297C72.1007 95.0655 70.9235 94.9605 69.7463 94.8321C69.3748 94.7913 69.0034 94.7446 68.6319 94.6979C68.3348 94.6571 68.7234 94.7096 68.5234 94.6862C68.4834 94.6804 68.4434 94.6746 68.4034 94.6687C67.9405 94.5987 67.489 94.7854 67.3462 95.2814C67.2376 95.6841 67.4947 96.2793 67.9519 96.3493Z" fill="#553529"/>
<path d="M75.1865 114.876C69.2034 109.321 68.8434 100.44 68.8434 100.44L75.1865 114.876Z" fill="#EDEDEB"/>
<path d="M75.7922 114.258C73.2264 111.842 71.5406 108.667 70.5748 105.266C70.1119 103.638 69.7691 102.045 69.7005 100.44C69.6548 99.3194 67.9404 99.3136 67.9861 100.44C68.2204 105.931 70.6205 111.766 74.5807 115.495C75.3922 116.259 76.6037 115.022 75.7922 114.258Z" fill="#553529"/>
<path d="M63.923 26.9856C67.1003 27.9485 69.569 30.3001 65.186 33.7253C62.7973 35.5868 68.1347 46.7729 94.6731 28.2752C112.605 15.7761 120.514 35.2017 122.194 39.0296C123.634 42.3031 124.44 45.0515 126.269 44.4797C129.515 43.4585 126.126 32.5758 132.098 34.729C137.921 36.8297 136.521 3.6155 109.702 1.17636C78.0723 -1.69457 44.3107 21.0629 63.923 26.9856Z" fill="#EDEDEB"/>
<path d="M63.6945 27.8318C64.6488 28.1294 65.7632 28.5612 66.3918 29.4073C67.0261 30.2651 66.4946 31.2221 65.8775 31.9165C65.1746 32.7101 64.1631 33.1711 63.8945 34.2681C63.5631 35.6102 64.3003 37.0223 65.2774 37.8801C66.9347 39.3331 69.2319 39.7124 71.352 39.6423C75.3122 39.514 79.1695 38.0435 82.7297 36.3746C85.5641 35.05 88.29 33.4862 90.9358 31.8056C93.7931 29.9967 96.4789 27.8376 99.5762 26.4547C103.382 24.7508 107.674 24.4065 111.423 26.4314C117.057 29.4774 119.857 35.7036 122.28 41.3929C123.046 43.196 124.589 46.668 127.086 45.0516C128.406 44.1997 128.606 42.3382 128.772 40.9028C128.943 39.4264 128.938 37.635 129.475 36.3338C129.589 36.0478 129.732 35.8203 129.863 35.6744C130.058 35.4526 130.121 35.406 130.423 35.3476C130.886 35.2601 131.532 35.511 132.109 35.6394C133.921 36.042 134.955 34.2622 135.355 32.7393C135.984 30.3585 135.812 27.7676 135.458 25.3577C134.441 18.3904 131.006 11.5865 125.76 6.96499C122.52 4.10572 118.634 2.1159 114.474 1.0889C108.828 -0.305726 102.736 -0.16568 96.9933 0.429515C91.0101 1.04805 85.0955 2.36682 79.4096 4.35663C74.5979 6.03718 69.8662 8.17288 65.6032 11.0263C62.7287 12.9519 59.5857 15.3619 58.0199 18.5888C56.8256 21.0513 57.0713 23.7705 59.22 25.5852C60.5172 26.6764 62.0944 27.3417 63.6945 27.8318C64.7517 28.1586 65.2089 26.4664 64.1517 26.1454C62.7288 25.7078 61.1972 25.0892 60.1572 24.0973C59.7057 23.6654 59.4772 23.3912 59.2086 22.796C59.1971 22.7727 59.0829 22.4284 59.0257 22.2008C58.9686 21.9616 58.9629 21.9382 58.9629 21.5531C58.9629 20.5086 59.4257 19.4466 60.0829 18.4371C60.9629 17.0775 62.1459 15.9162 63.3631 14.8659C66.7632 11.9424 70.8149 9.77757 74.8779 7.99199C80.0096 5.73375 85.4327 4.11739 90.9244 3.07288C96.879 1.94084 102.982 1.51487 109.028 1.99336C113.445 2.34347 117.754 3.5572 121.537 5.94965C127.48 9.71338 131.515 16.0388 133.218 22.8952C133.852 25.4394 134.206 28.001 133.966 30.6561C133.921 31.1579 133.904 31.3563 133.766 31.9573C133.721 32.1616 133.669 32.3658 133.606 32.57C133.578 32.6634 133.544 32.7568 133.515 32.8501C133.504 32.8851 133.486 32.9201 133.475 32.9552C133.389 33.1886 133.521 32.8618 133.458 32.996C133.389 33.1419 133.321 33.2878 133.241 33.422C133.201 33.4862 133.155 33.5504 133.115 33.6145C133.035 33.7371 133.241 33.492 133.075 33.6612C132.961 33.7779 132.744 33.9471 132.926 33.8188C132.875 33.8538 132.824 33.8888 132.772 33.918C132.601 33.9997 132.978 33.8129 132.749 33.9238C132.698 33.9471 132.629 33.9588 132.578 33.9647C132.846 33.9296 132.641 33.988 132.612 33.9471C132.595 33.9238 132.304 33.8888 132.618 33.9588C132.549 33.9413 132.475 33.9296 132.406 33.9063C131.624 33.6437 130.783 33.4512 129.966 33.6554C128.463 34.0347 127.806 35.546 127.526 36.9581C127.212 38.557 127.223 40.2025 126.926 41.7955C126.863 42.134 126.789 42.4666 126.675 42.7934C126.623 42.9451 126.435 43.3069 126.389 43.3594C126.229 43.5636 126.155 43.5986 126.046 43.6278C125.635 43.7387 125.389 43.5228 125.132 43.196C124.235 42.0698 123.772 40.5118 123.212 39.1989C122.989 38.6795 122.76 38.1544 122.532 37.6409C122.046 36.5497 121.532 35.476 120.96 34.4315C119.394 31.5489 117.429 28.7771 114.897 26.6998C111.92 24.2548 108.257 22.9244 104.422 23.327C98.4105 23.9572 93.8045 28.0244 88.8043 31.082C84.5184 33.7137 79.9467 36.1529 75.0608 37.3433C73.615 37.6934 72.1749 37.9209 70.6891 37.8976C69.5862 37.8801 68.8148 37.7634 67.729 37.3666C67.689 37.3491 67.649 37.3374 67.609 37.3199C67.409 37.2382 67.7747 37.4016 67.5861 37.3082C67.4947 37.2674 67.4033 37.2207 67.3118 37.174C67.1404 37.0865 66.9804 36.9873 66.8204 36.8823C66.7461 36.8298 66.6718 36.7772 66.5975 36.7247C66.4032 36.5847 66.7004 36.8239 66.5289 36.6664C66.3975 36.5497 66.2661 36.4271 66.1403 36.2929C66.0889 36.2346 66.0375 36.1762 65.9918 36.1179C65.8432 35.9486 66.0889 36.2696 65.9632 36.0828C65.8889 35.9661 65.8146 35.8436 65.7403 35.7211C65.706 35.6627 65.6832 35.5985 65.6546 35.5402C65.6203 35.4701 65.7175 35.7502 65.6546 35.5343C65.6146 35.406 65.5803 35.2717 65.546 35.1434C65.4717 34.8866 65.5117 35.3068 65.5346 34.9975C65.5403 34.9216 65.5632 34.5774 65.5346 34.7582C65.506 34.9508 65.5689 34.6415 65.586 34.5832C65.6375 34.3731 65.5232 34.7232 65.5632 34.6299C65.586 34.5832 65.626 34.5307 65.6432 34.484C65.7003 34.2973 65.4946 34.554 65.6946 34.4256C66.1118 34.1514 66.5118 33.7487 66.8604 33.3928C67.689 32.5409 68.4433 31.4263 68.409 30.1717C68.3462 27.9018 65.9918 26.7056 64.1517 26.1338C63.0945 25.8128 62.643 27.505 63.6945 27.8318Z" fill="#553529"/>
<path d="M113.308 95.1005L78.1009 110.972L77.6038 142.949L113.217 159.049L149.11 143.037L148.927 111.112L113.308 95.1005Z" fill="#EDEDEB"/>
<path d="M113.16 160C113.12 159.983 113.017 159.942 112.857 159.93C112.823 159.912 112.794 159.907 112.771 159.895C112.68 159.825 112.577 159.796 112.463 159.79L76.8208 143.778C76.558 143.656 76.4323 143.428 76.4323 143.259V111.264C76.4951 111.147 76.5123 111.031 76.518 110.949C76.5465 110.914 76.5808 110.873 76.6094 110.826C76.6208 110.809 76.6265 110.797 76.638 110.78C76.6437 110.774 76.9694 110.523 76.9694 110.523L112.748 94.4878C112.903 94.4177 113.091 94.3769 113.291 94.3769C113.491 94.3769 113.68 94.4119 113.828 94.4819L149.521 110.517L149.733 110.681C149.773 110.733 149.824 110.786 149.887 110.832C149.916 110.879 149.944 110.914 149.973 110.949C149.984 111.025 150.013 111.101 150.053 111.165L149.87 143.247C149.87 143.416 149.75 143.644 149.476 143.772L113.84 159.784C113.725 159.79 113.617 159.831 113.525 159.907C113.52 159.913 113.508 159.918 113.503 159.924C113.411 159.924 113.32 159.948 113.24 159.994C113.234 159.994 113.223 159.994 113.217 159.994C113.211 160 113.16 160 113.16 160ZM79.141 133.911C79.0324 133.911 78.9238 133.94 78.8267 134.004C78.6666 134.109 78.5695 134.296 78.5695 134.494V142.558C78.5695 142.792 78.7009 143.002 78.9124 143.095L111.571 157.753C111.645 157.788 111.725 157.8 111.8 157.8C111.908 157.8 112.017 157.771 112.114 157.707C112.274 157.602 112.371 157.415 112.371 157.217V149.152C112.371 148.919 112.24 148.709 112.028 148.615L79.3695 133.957C79.2952 133.928 79.221 133.911 79.141 133.911ZM147.55 133.911C147.47 133.911 147.396 133.928 147.321 133.957L114.663 148.615C114.457 148.709 114.32 148.919 114.32 149.152V157.217C114.32 157.415 114.417 157.596 114.577 157.707C114.674 157.771 114.783 157.8 114.891 157.8C114.971 157.8 115.046 157.783 115.12 157.753L147.779 143.095C147.984 143.002 148.121 142.792 148.121 142.558V134.494C148.121 134.296 148.024 134.115 147.864 134.004C147.767 133.94 147.659 133.911 147.55 133.911ZM79.141 124.23C79.0324 124.23 78.9238 124.259 78.8267 124.323C78.6666 124.428 78.5695 124.615 78.5695 124.814V131.757C78.5695 131.991 78.7009 132.201 78.9124 132.294L111.571 146.952C111.645 146.987 111.725 146.999 111.8 146.999C111.908 146.999 112.017 146.97 112.114 146.906C112.274 146.801 112.371 146.614 112.371 146.416V139.472C112.371 139.238 112.24 139.028 112.028 138.935L79.3695 124.277C79.2952 124.247 79.221 124.23 79.141 124.23ZM147.55 124.16C147.47 124.16 147.396 124.177 147.321 124.207L114.663 138.865C114.457 138.958 114.32 139.168 114.32 139.402V146.346C114.32 146.544 114.417 146.725 114.577 146.836C114.674 146.9 114.783 146.929 114.891 146.929C114.971 146.929 115.046 146.912 115.12 146.882L147.779 132.224C147.984 132.131 148.121 131.921 148.121 131.687V124.743C148.121 124.545 148.024 124.364 147.864 124.253C147.767 124.195 147.659 124.16 147.55 124.16ZM147.55 112.659C147.47 112.659 147.396 112.676 147.321 112.705L114.663 127.364C114.457 127.457 114.32 127.667 114.32 127.9V136.671C114.32 136.869 114.417 137.05 114.577 137.161C114.674 137.225 114.783 137.254 114.891 137.254C114.971 137.254 115.046 137.237 115.12 137.208L147.779 122.549C147.984 122.456 148.121 122.246 148.121 122.013V113.248C148.121 113.05 148.024 112.869 147.864 112.758C147.767 112.694 147.659 112.659 147.55 112.659ZM79.141 112.659C79.0324 112.659 78.9238 112.688 78.8267 112.752C78.6666 112.857 78.5695 113.044 78.5695 113.242V122.007C78.5695 122.24 78.7009 122.45 78.9124 122.544L111.571 137.202C111.645 137.237 111.725 137.248 111.8 137.248C111.908 137.248 112.017 137.219 112.114 137.155C112.274 137.05 112.371 136.863 112.371 136.665V127.9C112.371 127.667 112.24 127.457 112.028 127.364L79.3695 112.705C79.301 112.676 79.221 112.659 79.141 112.659ZM113.343 95.8999C113.263 95.8999 113.188 95.9174 113.114 95.9466L80.4553 110.605C80.2496 110.698 80.1124 110.908 80.1124 111.142C80.1124 111.375 80.2439 111.585 80.4553 111.678L113.114 126.337C113.188 126.372 113.268 126.383 113.343 126.383C113.417 126.383 113.497 126.366 113.571 126.337L146.23 111.678C146.436 111.585 146.573 111.375 146.573 111.142C146.573 110.908 146.441 110.698 146.23 110.605L113.571 95.9466C113.503 95.9174 113.423 95.8999 113.343 95.8999Z" fill="#553529"/>
</svg>
