<svg width="73" height="49" viewBox="0 0 73 49" fill="none" xmlns="http://www.w3.org/2000/svg">
<path d="M57.329 0C52.8554 0 48.2297 1.71869 44.0476 4.6301C42.2438 5.88495 40.1739 5.83112 38.8939 4.42717C36.3593 1.64 32.7728 0 28.4006 0C17.13 0 4.9216 10.9002 1.12812 24.3433C-2.66113 37.7904 3.40083 48.6865 14.6756 48.6865C18.9845 48.6865 23.4327 47.0921 27.4966 44.3711C29.5581 42.9921 31.9152 43.0293 33.4064 44.5699C35.9199 47.1707 39.4008 48.6865 43.604 48.6865C54.8746 48.6865 67.0873 37.7863 70.8765 24.3433C74.6615 10.9002 68.5996 0 57.329 0Z" fill="white"/>
<path d="M8.55884 20.3053C12.4284 20.4005 16.243 19.916 19.9562 18.8599C22.5626 18.1186 21.4516 14.1222 18.8325 14.8676C15.4572 15.8284 12.0693 16.255 8.55462 16.168C5.83835 16.0976 5.84258 20.239 8.55884 20.3053Z" fill="#553529"/>
<path d="M13.7464 14.5364C13.3535 17.9904 12.7199 25.6396 7.75625 25.4325C5.41596 25.3372 4.82877 29.0728 7.19441 29.4994C10.5401 30.0999 13.89 29.1805 17.0836 28.2321C19.6774 27.4618 18.5706 23.4612 15.96 24.2398C14.1055 24.7906 12.1834 25.3869 10.2402 25.5484C9.29814 25.6271 8.7532 25.5857 8.31387 25.507C8.128 26.8613 7.9379 28.2197 7.75203 29.5739C15.7149 29.9052 17.2991 20.3841 17.9665 14.5364C18.2749 11.8942 14.0463 11.9149 13.7464 14.5364Z" fill="#553529"/>
<path d="M24.0832 16.015C27.6443 14.9796 31.2308 14.023 34.7793 12.942C33.888 12.2753 32.9966 11.6126 32.1053 10.9459C32.0504 13.7248 31.8983 16.5244 31.5477 19.2867C31.0745 23.0015 29.4439 28.6504 25.1477 29.6402C22.5033 30.249 23.6228 34.2455 26.2714 33.6326C31.442 32.444 34.5892 26.5176 35.4129 21.7923C36.0339 18.2224 36.2578 14.5613 36.3296 10.9459C36.355 9.63305 34.9567 8.55214 33.6556 8.94972C30.1071 10.0306 26.5207 10.9873 22.9595 12.0226C20.3573 12.7764 21.4641 16.7729 24.0832 16.015Z" fill="#553529"/>
<path d="M24.6662 14.3622C24.438 16.8346 23.9015 20.653 21.1261 21.6263C18.5873 22.5208 19.6814 26.5214 22.2498 25.6186C27.1205 23.9082 28.4639 18.9509 28.8905 14.3622C29.1397 11.7076 24.9112 11.7241 24.6662 14.3622Z" fill="#553529"/>
<path d="M54.1437 14.3622C53.9156 16.8346 53.3791 20.653 50.6037 21.6263C48.0648 22.5208 49.1589 26.5214 51.7274 25.6186C56.598 23.9082 57.9414 18.9509 58.3681 14.3622C58.6173 11.7076 54.3887 11.7241 54.1437 14.3622Z" fill="#553529"/>
<path d="M40.9173 22.2107C43.9462 22.2894 46.7976 21.8876 49.704 21.0469C52.3062 20.2932 51.1994 16.2967 48.5803 17.0546C46.0077 17.8001 43.5956 18.1438 40.9173 18.0734C38.1968 17.9988 38.1968 22.1403 40.9173 22.2107Z" fill="#553529"/>
<path d="M43.4941 16.727C43.1097 20.0898 42.4676 27.8218 37.6095 27.6189C34.8215 27.4988 34.9989 31.429 37.6095 31.7603C39.3204 31.9798 41.196 31.6816 42.8858 31.4621C45.112 31.1722 47.4396 30.7871 49.3955 29.6399C51.7273 28.2733 49.6025 24.6909 47.2622 26.0659C44.7656 27.5319 40.4863 27.9916 37.6095 27.6231C37.6095 29.0021 37.6095 30.3854 37.6095 31.7645C45.488 32.0999 47.0594 22.4918 47.7184 16.7311C48.0184 14.0806 43.794 14.1013 43.4941 16.727Z" fill="#553529"/>
<path d="M53.738 15.1368C57.5569 14.0269 61.3926 12.9833 65.1945 11.8237C64.3032 11.1569 63.4118 10.4943 62.5205 9.8275C62.2543 16.284 61.7854 22.8688 58.5454 28.6461C54.9293 35.0984 48.6012 36.6018 41.5423 36.6308C38.8261 36.6432 38.8176 40.7846 41.5423 40.7722C49.6573 40.739 57.2358 38.7594 61.6883 31.5906C65.7648 25.0306 66.4365 17.3235 66.7448 9.8275C66.7997 8.50638 65.3466 7.44204 64.0708 7.83133C60.2689 8.99093 56.4332 10.0346 52.6144 11.1445C50.0164 11.9023 51.1232 15.8988 53.738 15.1368Z" fill="#553529"/>
<path d="M9.13329 40.3869H8.23773C8.10255 40.3869 7.99694 40.3248 7.93357 40.1923L7.05913 38.5771L6.55221 40.1923C6.50996 40.3248 6.42548 40.3869 6.2903 40.3869H5.60172C5.46655 40.3869 5.42008 40.3248 5.4581 40.1923L6.61557 36.4898C6.65781 36.3573 6.7423 36.2993 6.87748 36.2993H7.56605C7.70123 36.2993 7.75192 36.3573 7.70968 36.4898L7.20276 38.105L9.09105 36.4898C9.23468 36.3573 9.3783 36.2993 9.51348 36.2993H10.4048C10.54 36.2993 10.5316 36.3573 10.3879 36.4898L8.22505 38.341L9.23045 40.1881C9.29804 40.3248 9.26847 40.3869 9.13329 40.3869Z" fill="#553529"/>
<path d="M11.1862 36.755C11.2242 36.6307 11.3129 36.5645 11.4481 36.5645H12.1409C12.2761 36.5645 12.3225 36.6266 12.2845 36.755L12.2254 36.9496C12.1874 37.0738 12.0986 37.1401 11.9635 37.1401H11.2707C11.1355 37.1401 11.089 37.078 11.127 36.9496L11.1862 36.755ZM10.9496 37.517C10.9919 37.3886 11.0764 37.3265 11.2115 37.3265H11.9043C12.0395 37.3265 12.0902 37.3845 12.048 37.517L11.2073 40.1965C11.1651 40.329 11.0806 40.3911 10.9454 40.3911H10.2526C10.1174 40.3911 10.071 40.329 10.109 40.1965L10.9496 37.517Z" fill="#553529"/>
<path d="M12.8551 37.5167C12.8973 37.3883 12.9818 37.3262 13.117 37.3262H14.7011C14.8363 37.3262 14.887 37.3842 14.8447 37.5167L14.7518 37.8149C14.7096 37.9432 14.6251 38.0054 14.4899 38.0054H13.9999C13.8647 38.0054 13.776 38.0675 13.738 38.1959L13.1128 40.2003C13.0705 40.3328 12.986 40.395 12.8508 40.395H12.1623C12.0271 40.395 11.9806 40.3328 12.0186 40.2003L12.8551 37.5167Z" fill="#553529"/>
<path d="M18.1057 40.1964C18.0634 40.329 17.9789 40.3911 17.8437 40.3911H15.5668C15.0261 40.3911 14.836 40.1384 14.9923 39.6332L15.6555 37.5211C15.6978 37.3927 15.7823 37.3306 15.9174 37.3306H16.6102C16.7454 37.3306 16.7961 37.3885 16.7539 37.5211L16.1287 39.5255C16.0906 39.6498 16.1371 39.716 16.2723 39.716H16.9651C17.1003 39.716 17.189 39.6539 17.227 39.5255L17.8522 37.5211C17.8944 37.3927 17.9789 37.3306 18.1141 37.3306H18.8027C18.9378 37.3306 18.9885 37.3885 18.9463 37.5211L18.1057 40.1964Z" fill="#553529"/>
<path d="M22.5923 40.3869H21.7009C21.5658 40.3869 21.4601 40.3248 21.3968 40.1922L20.5223 38.5771L20.0154 40.1922C19.9732 40.3248 19.8887 40.3869 19.7535 40.3869H19.0607C18.9255 40.3869 18.8791 40.3248 18.9171 40.1922L20.0746 36.4898C20.1168 36.3573 20.2013 36.2993 20.3365 36.2993H21.0293C21.1644 36.2993 21.2151 36.3573 21.1729 36.4898L20.666 38.105L22.5543 36.4898C22.6979 36.3573 22.8415 36.2993 22.9767 36.2993H23.868C24.0032 36.2993 23.9948 36.3573 23.8511 36.4898L21.6883 38.341L22.6937 40.1881C22.757 40.3248 22.7275 40.3869 22.5923 40.3869Z" fill="#553529"/>
<path d="M24.6452 36.755C24.6832 36.6307 24.7719 36.5645 24.9071 36.5645H25.5956C25.7308 36.5645 25.7773 36.6266 25.7393 36.755L25.6801 36.9496C25.6421 37.0738 25.5534 37.1401 25.4182 37.1401H24.7297C24.5945 37.1401 24.548 37.078 24.586 36.9496L24.6452 36.755ZM24.4086 37.517C24.4508 37.3886 24.5353 37.3265 24.6705 37.3265H25.3591C25.4943 37.3265 25.545 37.3845 25.5027 37.517L24.6621 40.1965C24.6198 40.329 24.5353 40.3911 24.4002 40.3911H23.7116C23.5764 40.3911 23.5299 40.329 23.568 40.1965L24.4086 37.517Z" fill="#553529"/>
<path d="M26.3139 37.5167C26.3561 37.3883 26.4406 37.3262 26.5758 37.3262H28.1599C28.2951 37.3262 28.3458 37.3842 28.3036 37.5167L28.2106 37.8149C28.1684 37.9432 28.0839 38.0054 27.9487 38.0054H27.4587C27.3235 38.0054 27.239 38.0675 27.1968 38.1959L26.5716 40.2003C26.5293 40.3328 26.4448 40.395 26.3097 40.395H25.6169C25.4817 40.395 25.4352 40.3328 25.4732 40.2003L26.3139 37.5167Z" fill="#553529"/>
<path d="M31.5646 40.1964C31.5224 40.329 31.4379 40.3911 31.3027 40.3911H29.0258C28.4851 40.3911 28.295 40.1384 28.4513 39.6332L29.1145 37.5211C29.1568 37.3927 29.2412 37.3306 29.3764 37.3306H30.0692C30.2044 37.3306 30.2551 37.3885 30.2128 37.5211L29.5876 39.5255C29.5496 39.6498 29.5961 39.716 29.7313 39.716H30.4241C30.5592 39.716 30.6479 39.6539 30.686 39.5255L31.3112 37.5211C31.3534 37.3927 31.4379 37.3306 31.5731 37.3306H32.2617C32.3968 37.3306 32.4475 37.3885 32.4053 37.5211L31.5646 40.1964Z" fill="#553529"/>
</svg>
