<svg width="393" height="275" viewBox="0 0 393 275" fill="none" xmlns="http://www.w3.org/2000/svg">
<g clip-path="url(#clip0_70_904)">
<path d="M353.034 161.184C345.931 194.132 325.673 216.388 291.686 230.469C257.596 244.593 209.745 250.46 147.68 250.46C85.9608 250.46 47.0455 228.011 25.1534 198.04C3.21868 168.011 -1.77242 130.234 4.76741 99.3709C9.33221 77.8285 17.1092 57.4532 36.8762 42.661C56.6854 27.8372 88.7933 18.4277 142.47 19.4997C223.632 21.1254 279.637 41.3356 313.638 68.7256C347.619 96.1004 359.623 130.617 353.034 161.184Z" fill="white" stroke="#FFB11B" stroke-width="3"/>
<path d="M102.92 223.81C102.85 223.78 102.67 223.71 102.39 223.69C102.33 223.66 102.28 223.65 102.24 223.63C102.08 223.51 101.9 223.46 101.7 223.45L39.33 196.01C38.87 195.8 38.65 195.41 38.65 195.12V140.29C38.76 140.09 38.79 139.89 38.8 139.75C38.85 139.69 38.91 139.62 38.96 139.54C38.98 139.51 38.99 139.49 39.01 139.46C39.02 139.45 39.59 139.02 39.59 139.02L102.2 111.54C102.47 111.42 102.8 111.35 103.15 111.35C103.5 111.35 103.83 111.41 104.09 111.53L166.55 139.01L166.92 139.29C166.99 139.38 167.08 139.47 167.19 139.55C167.24 139.63 167.29 139.69 167.34 139.75C167.36 139.88 167.41 140.01 167.48 140.12L167.16 195.1C167.16 195.39 166.95 195.78 166.47 196L104.11 223.44C103.91 223.45 103.72 223.52 103.56 223.65C103.55 223.66 103.53 223.67 103.52 223.68C103.36 223.68 103.2 223.72 103.06 223.8C103.05 223.8 103.03 223.8 103.02 223.8C103.01 223.81 102.92 223.81 102.92 223.81ZM43.39 179.1C43.2 179.1 43.01 179.15 42.84 179.26C42.56 179.44 42.39 179.76 42.39 180.1V193.92C42.39 194.32 42.62 194.68 42.99 194.84L100.14 219.96C100.27 220.02 100.41 220.04 100.54 220.04C100.73 220.04 100.92 219.99 101.09 219.88C101.37 219.7 101.54 219.38 101.54 219.04V205.22C101.54 204.82 101.31 204.46 100.94 204.3L43.79 179.18C43.66 179.12 43.52 179.1 43.39 179.1ZM163.09 179.09C162.95 179.09 162.82 179.12 162.69 179.17L105.54 204.29C105.18 204.45 104.94 204.81 104.94 205.21V219.03C104.94 219.37 105.11 219.68 105.39 219.87C105.56 219.98 105.75 220.03 105.94 220.03C106.08 220.03 106.21 220 106.34 219.95L163.49 194.83C163.85 194.67 164.09 194.31 164.09 193.91V180.09C164.09 179.75 163.92 179.44 163.64 179.25C163.48 179.15 163.29 179.09 163.09 179.09ZM43.39 162.51C43.2 162.51 43.01 162.56 42.84 162.67C42.56 162.85 42.39 163.17 42.39 163.51V175.41C42.39 175.81 42.62 176.17 42.99 176.33L100.14 201.45C100.27 201.51 100.41 201.53 100.54 201.53C100.73 201.53 100.92 201.48 101.09 201.37C101.37 201.19 101.54 200.87 101.54 200.53V188.63C101.54 188.23 101.31 187.87 100.94 187.71L43.79 162.59C43.66 162.54 43.52 162.51 43.39 162.51ZM163.1 162.39C162.96 162.39 162.83 162.42 162.7 162.47L105.55 187.59C105.19 187.75 104.95 188.11 104.95 188.51V200.41C104.95 200.75 105.12 201.06 105.4 201.25C105.57 201.36 105.76 201.41 105.95 201.41C106.09 201.41 106.22 201.38 106.35 201.33L163.5 176.21C163.86 176.05 164.1 175.69 164.1 175.29V163.39C164.1 163.05 163.93 162.74 163.65 162.55C163.48 162.45 163.29 162.39 163.1 162.39ZM163.1 142.68C162.96 142.68 162.83 142.71 162.7 142.76L105.55 167.88C105.19 168.04 104.95 168.4 104.95 168.8V183.83C104.95 184.17 105.12 184.48 105.4 184.67C105.57 184.78 105.76 184.83 105.95 184.83C106.09 184.83 106.22 184.8 106.35 184.75L163.5 159.63C163.86 159.47 164.1 159.11 164.1 158.71V143.69C164.1 143.35 163.93 143.04 163.65 142.85C163.48 142.73 163.29 142.68 163.1 142.68ZM43.39 142.68C43.2 142.68 43.01 142.73 42.84 142.84C42.56 143.02 42.39 143.34 42.39 143.68V158.7C42.39 159.1 42.62 159.46 42.99 159.62L100.14 184.74C100.27 184.8 100.41 184.82 100.54 184.82C100.73 184.82 100.92 184.77 101.09 184.66C101.37 184.48 101.54 184.16 101.54 183.82V168.8C101.54 168.4 101.31 168.04 100.94 167.88L43.79 142.76C43.66 142.71 43.53 142.68 43.39 142.68ZM103.24 113.96C103.1 113.96 102.97 113.99 102.84 114.04L45.69 139.16C45.33 139.32 45.09 139.68 45.09 140.08C45.09 140.48 45.32 140.84 45.69 141L102.84 166.12C102.97 166.18 103.11 166.2 103.24 166.2C103.37 166.2 103.51 166.17 103.64 166.12L160.79 141C161.15 140.84 161.39 140.48 161.39 140.08C161.39 139.68 161.16 139.32 160.79 139.16L103.64 114.04C103.52 113.98 103.38 113.96 103.24 113.96Z" fill="#FFB11B"/>
<path d="M189.84 69.28C176.15 74.41 175.64 82.02 178.73 79.65C181.82 77.27 189.73 74.56 190.73 73.87C191.86 73.09 191.74 68.56 189.84 69.28Z" fill="#FFB11B"/>
<path d="M218.07 63.59C223.16 62.52 227.85 64.75 231.09 65.88C233.15 66.6 231.86 57.39 215.58 58.15C213.33 58.26 213.44 64.57 218.07 63.59Z" fill="#FFB11B"/>
<path d="M189.97 81.76C186.51 82.08 184.21 87.81 184.84 94.55C185.46 101.29 188.77 106.5 192.23 106.18C195.69 105.86 197.99 100.13 197.36 93.39C196.74 86.64 193.43 81.44 189.97 81.76Z" fill="#FFB11B"/>
<path d="M227.965 102.873C231.424 102.553 233.723 96.8279 233.099 90.086C232.475 83.3441 229.166 78.1381 225.707 78.458C222.248 78.7779 219.949 84.5027 220.573 91.2446C221.197 97.9865 224.506 103.193 227.965 102.873Z" fill="#FFB11B"/>
<path d="M215.39 113.65C216.66 113.45 218.16 113.14 219.15 112.26C219.74 111.74 219.72 110.67 219.15 110.14C218.58 109.62 217.83 109.61 217.22 110.02C217.24 110 217.24 109.99 217.16 110.03C217.09 110.07 217.03 110.11 216.96 110.14C216.89 110.17 216.82 110.2 216.76 110.24C216.8 110.22 216.83 110.2 216.87 110.18C216.82 110.2 216.77 110.23 216.74 110.24C216.25 110.42 215.74 110.55 215.23 110.65C215.04 110.69 214.83 110.71 214.63 110.74C214.61 110.75 214.57 110.76 214.51 110.77C214.49 110.77 214.48 110.77 214.46 110.78C214.45 110.78 214.43 110.78 214.42 110.79C214.43 110.79 214.43 110.79 214.44 110.78C214.39 110.79 214.33 110.79 214.28 110.8C214.12 110.82 213.97 110.83 213.81 110.84C213.5 110.86 213.18 110.87 212.87 110.86C212.74 110.86 212.61 110.85 212.48 110.84C212.4 110.83 212.33 110.83 212.25 110.82C212.24 110.82 212.23 110.82 212.23 110.82C212.01 110.74 211.73 110.73 211.5 110.67C211.39 110.64 211.28 110.6 211.17 110.56C211.11 110.53 211.05 110.5 210.99 110.47C210.92 110.43 210.86 110.39 210.79 110.35C210.76 110.32 210.72 110.29 210.69 110.26C210.67 110.24 210.66 110.23 210.65 110.22C210.63 110.19 210.62 110.15 210.6 110.12C210.6 110.15 210.56 110.11 210.54 110.02C210.54 110.01 210.54 110 210.53 110C210.52 109.98 210.51 109.96 210.49 109.94C210.49 109.95 210.49 109.95 210.49 109.95C210.49 109.95 210.49 109.94 210.49 109.93C210.49 109.92 210.48 109.91 210.48 109.91C210.49 109.92 210.49 109.92 210.49 109.93C210.49 109.91 210.49 109.88 210.49 109.85V109.84C210.47 109.78 210.47 109.74 210.48 109.73C210.47 109.6 210.48 109.47 210.48 109.35C210.47 109.37 210.47 109.38 210.46 109.41C210.49 109.33 210.5 109.23 210.51 109.14C210.5 109.15 210.49 109.15 210.47 109.15C210.47 109.15 210.5 109.1 210.53 109.05C210.55 108.94 210.56 108.94 210.57 108.98C210.58 108.96 210.59 108.95 210.59 108.94C210.59 108.94 210.61 108.92 210.62 108.89C210.63 108.88 210.63 108.88 210.65 108.86C210.71 108.8 210.77 108.74 210.83 108.68C210.82 108.68 210.82 108.69 210.81 108.69C210.82 108.69 210.83 108.68 210.84 108.68C210.96 108.56 210.98 108.6 210.93 108.64C211.08 108.56 211.28 108.38 211.38 108.33C211.53 108.25 211.69 108.18 211.84 108.1C211.89 108.08 211.94 108.06 211.96 108.05C212.09 108 212.23 107.95 212.37 107.91C212.82 107.76 213.28 107.65 213.74 107.57C213.75 107.57 213.77 107.56 213.79 107.56C213.9 107.52 214.07 107.53 214.18 107.52C214.38 107.5 214.58 107.5 214.78 107.5C214.88 107.5 215.08 107.48 215.24 107.49C215.26 107.5 215.29 107.52 215.35 107.53C215.45 107.55 215.55 107.58 215.65 107.6C216.4 107.82 217.32 107.33 217.5 106.55C217.68 105.75 217.26 104.94 216.45 104.7C214.49 104.13 212.19 104.66 210.38 105.48C209.46 105.9 208.59 106.52 208.03 107.38C207.55 108.13 207.41 109.15 207.51 110.02C207.93 113.86 212.35 114.11 215.39 113.65Z" fill="#FFB11B"/>
<path d="M234.33 116.61C233.78 115.36 232.87 114.22 231.93 113.24C231.32 112.61 230.43 112.74 229.81 113.24C222.41 119.13 213.75 123.28 204.57 125.48C202.69 125.93 203.49 128.82 205.37 128.37C209.3 127.43 213.11 126.12 216.78 124.51C216.82 125.23 217.29 125.97 218.21 126.05C221.05 126.31 223.9 126.14 226.69 125.54C229.1 125.02 231.59 124.09 233.2 122.14C234.49 120.57 235.19 118.55 234.33 116.61ZM230.32 120.81C228.81 122.11 226.65 122.56 224.74 122.88C223.07 123.16 221.38 123.23 219.7 123.16C223.55 121.24 227.21 118.95 230.65 116.34C230.91 116.68 231.16 117.03 231.37 117.41C232.12 118.67 231.37 119.9 230.32 120.81Z" fill="#FFB11B"/>
<path d="M314.11 137.92C311.24 132.27 307 127.36 302.07 123.4C293.89 116.82 284.01 112.48 273.89 109.85C272.04 109.37 270.17 108.92 268.28 108.6C269.25 105.78 270.01 102.88 270.66 99.96C277.95 99.51 282.42 92.36 283.57 85.63C284.96 77.48 282.9 68.05 276.96 62.05C274.51 59.57 271.28 57.8 267.78 57.65C261.53 40.9 249.14 26.16 232.2 19.61C216.29 13.46 198.35 16.32 185.01 26.86C171.41 37.6 163.97 54.63 162.63 71.65C161.17 90.17 166.79 109.29 178.55 123.73C188.96 136.5 204.61 145.29 221.36 144.83C223.43 144.77 225.48 144.56 227.53 144.25C229.43 143.96 228.62 141.07 226.73 141.36C211.03 143.75 195.56 137.14 184.61 126.02C172.32 113.53 165.73 96.04 165.42 78.63C165.12 62.06 170.68 45.01 182.51 33.12C193.73 21.83 209.97 16.81 225.53 20.66C242.28 24.81 255.46 37.86 262.69 53.17C263.67 55.25 264.53 57.38 265.3 59.55C265.51 60.15 266.06 60.68 266.75 60.65C273.09 60.35 277.56 66.43 279.46 71.8C281.78 78.36 281.8 86.53 277.78 92.47C275.86 95.32 272.95 97.15 269.46 97.01C268.84 96.98 268.15 97.49 268.01 98.11C266.91 103.3 265.52 108.5 263.13 113.27C260.87 117.78 257.79 121.71 254.21 125.24C252.84 126.6 254.96 128.72 256.33 127.36C260.07 123.66 263.36 119.5 265.72 114.78C266.26 113.69 266.75 112.59 267.21 111.47C272.79 112.34 278.34 114.11 283.56 116.2C294.03 120.4 304.12 127.05 310.07 136.87C314.18 143.65 315.86 151.43 315.61 159.32C315.55 161.25 318.55 161.25 318.61 159.32C318.85 151.9 317.47 144.54 314.11 137.92Z" fill="#FFB11B"/>
<path d="M273.82 85.01C273.83 84.98 273.84 84.97 273.85 84.95C273.84 84.96 273.84 84.98 273.83 84.99C273.77 85.12 273.71 85.25 273.65 85.37C273.6 85.48 273.54 85.58 273.48 85.69C272.52 87.37 275.11 88.88 276.07 87.2C277.01 85.57 277.5 83.65 277.73 81.8C278.21 77.88 276.95 74.16 274.5 71.11C273.99 70.48 272.91 70.58 272.38 71.11C271.76 71.73 271.87 72.6 272.38 73.23C273.46 74.57 274.22 76.12 274.6 77.8C274.76 78.51 274.83 79.21 274.84 79.94C274.84 80.27 274.83 80.61 274.81 80.94C274.8 81.11 274.78 81.29 274.77 81.46C274.75 81.66 274.75 81.66 274.74 81.73C274.58 82.78 274.29 83.79 273.92 84.78C273.91 84.79 273.91 84.81 273.9 84.82C273.89 84.84 273.88 84.88 273.86 84.92C273.84 84.95 273.83 84.98 273.82 85.01Z" fill="#FFB11B"/>
<path d="M273.84 84.94C273.84 84.93 273.85 84.92 273.85 84.92C273.86 84.89 273.88 84.85 273.89 84.82C273.91 84.78 273.9 84.81 273.84 84.94Z" fill="#FFB11B"/>
<path d="M186.28 153.61C186.28 153.61 193.09 145.28 199.6 149.21C206.11 153.14 213.92 162.29 208.93 173.5C203.94 184.71 200.83 176.61 200.83 176.61" fill="white"/>
<path d="M187.34 154.67C188.84 152.85 190.84 151.19 193.02 150.28C194.81 149.53 196.79 149.39 198.54 150.33C200.26 151.26 201.83 152.55 203.21 153.92C206.34 157 208.75 161.06 208.99 165.53C209.13 168.19 208.54 170.78 207.43 173.19C206.69 174.8 205.75 177 204.1 177.89C204.07 177.91 203.94 177.94 203.87 177.94C203.96 177.93 203.5 177.85 203.65 177.91C203.36 177.8 203.39 177.76 203.34 177.72C203.17 177.57 203.01 177.4 202.87 177.22C202.97 177.34 202.77 177.09 202.66 176.9C202.57 176.74 202.47 176.58 202.39 176.42C202.27 176.18 202.07 175.68 202.28 176.22C201.59 174.44 198.69 175.21 199.39 177.02C200.09 178.83 201.51 180.81 203.62 180.94C205.48 181.05 206.92 179.71 207.96 178.32C209.77 175.91 211.09 172.87 211.66 169.91C212.77 164.21 210.98 158.64 207.44 154.15C205.84 152.12 203.92 150.36 201.81 148.87C199.81 147.46 197.64 146.47 195.14 146.7C191.3 147.06 187.64 149.63 185.23 152.56C184 154.03 186.11 156.17 187.34 154.67Z" fill="#FFB11B"/>
<path d="M170.22 150.24C167.15 150.88 149.69 134.39 142.31 140.57C132.64 148.66 144.85 161.66 157.16 163.58C157.16 163.58 131.5 173.3 126.77 180.57C123.59 185.45 126.74 193.43 131.78 191.54C140.67 188.21 132.23 191.07 129.64 195.81C126.62 201.33 135.25 209.89 143.68 204.95C139.68 208.43 142.45 216.63 150.88 215.74C158.92 214.89 178.29 206.7 186.51 199.3C192.7 193.59 201.99 185.88 203.21 175.19C204.43 164.51 194.53 145.2 170.22 150.24Z" fill="white"/>
<path d="M169.82 148.8C170.03 148.77 170.19 148.82 169.98 148.76C169.83 148.71 169.22 148.49 169.46 148.59C168.84 148.32 168.26 147.98 167.68 147.64C165.99 146.65 164.36 145.57 162.71 144.52C158.94 142.13 155.02 139.69 150.71 138.38C148.83 137.81 146.83 137.49 144.87 137.81C142.72 138.16 140.98 139.46 139.62 141.13C136.22 145.31 136.97 150.72 139.99 154.89C143.87 160.25 150.24 163.96 156.74 165.02C156.74 164.06 156.74 163.09 156.74 162.13C150.69 164.42 144.73 167.05 138.99 170.02C132.26 173.5 121.33 178.91 124.48 188.35C125.24 190.62 126.88 192.79 129.36 193.23C130.91 193.51 132.26 192.94 133.69 192.41C134.26 192.19 134.84 191.97 135.41 191.76C135.73 191.64 136.34 191.63 135.72 191.6C135.37 191.45 135.01 191.31 134.66 191.16L134.67 191.17C134.54 190.68 134.41 190.2 134.28 189.71C134.56 189.02 135.03 188.81 134.3 189.31C133.88 189.6 133.46 189.88 133.04 190.18C131.97 190.97 130.92 191.8 130.01 192.78C127.98 194.96 126.91 197.66 127.88 200.59C128.86 203.55 131.29 205.86 134.13 207.05C137.53 208.47 141.23 208.03 144.41 206.24C143.8 205.45 143.2 204.67 142.59 203.88C139.52 206.66 139.81 211.4 142.45 214.36C145.63 217.93 150.57 217.55 154.78 216.52C159.74 215.31 164.54 213.41 169.19 211.33C174.2 209.1 179.14 206.55 183.64 203.4C187.73 200.53 191.47 196.95 194.91 193.35C198.87 189.21 202.44 184.44 203.99 178.84C206.03 171.45 203.67 163.58 199.01 157.68C196.05 153.94 192.09 151.13 187.6 149.52C181.92 147.47 175.7 147.6 169.82 148.8C167.93 149.18 168.73 152.08 170.62 151.69C179.25 149.94 188.53 151.16 194.97 157.61C199.25 161.9 202.13 168.18 201.78 174.32C201.21 184.43 192.41 191.96 185.44 198.24C182.01 201.33 177.88 203.68 173.81 205.81C169.35 208.14 164.73 210.17 159.98 211.83C157.78 212.6 155.55 213.3 153.27 213.81C151.24 214.26 149.11 214.59 147.08 213.91C143.87 212.82 141.9 208.57 144.73 206.01C146.01 204.85 144.37 202.83 142.91 203.65C140.38 205.08 137.39 205.4 134.75 204.05C132.74 203.02 130.81 201.1 130.53 198.75C130.27 196.53 132.06 194.82 133.61 193.52C134.67 192.63 136.64 191.84 137.18 190.51C137.38 190.03 137.14 189.4 136.79 189.05C135.62 187.85 132.95 189.51 131.78 189.94C129.88 190.64 128.53 190.06 127.64 188.21C126.75 186.36 126.72 183.99 127.6 182.13C128.23 180.8 129.29 179.82 130.46 178.84C133.47 176.32 137.04 174.41 140.51 172.62C144.14 170.75 147.86 169.05 151.61 167.44C153.57 166.6 155.55 165.79 157.54 165.03C158.76 164.57 159.16 162.4 157.54 162.14C152.13 161.25 146.92 158.49 143.33 154.32C140.52 151.06 138.93 146.35 142.15 142.79C143.31 141.51 144.54 140.73 146.26 140.69C147.95 140.65 149.61 141.13 151.18 141.72C155.08 143.17 158.65 145.5 162.14 147.73C163.69 148.72 165.23 149.75 166.85 150.64C168.01 151.27 169.25 151.92 170.6 151.7C172.52 151.38 171.71 148.49 169.82 148.8Z" fill="#FFB11B"/>
<path d="M158.8 177.21C158.8 177.21 145.59 184.13 135.75 189.9L158.8 177.21Z" fill="white"/>
<path d="M158.04 175.91C150.28 179.98 142.56 184.17 134.99 188.6C133.32 189.57 134.83 192.17 136.5 191.19C144.07 186.76 151.78 182.57 159.55 178.5C161.27 177.6 159.75 175.01 158.04 175.91Z" fill="#FFB11B"/>
<path d="M143.67 204.95C143.67 204.95 156.32 200.41 163.72 193.06L143.67 204.95Z" fill="white"/>
<path d="M144.07 206.4C146.67 205.46 149.21 204.3 151.68 203.06C156.4 200.69 161 197.84 164.78 194.12C166.16 192.76 164.04 190.64 162.66 192C159.06 195.54 154.66 198.21 150.17 200.47C147.82 201.65 145.67 202.65 143.28 203.51C141.47 204.16 142.25 207.06 144.07 206.4Z" fill="#FFB11B"/>
<path d="M157.96 163.67C157.96 163.67 174.66 166.1 180.22 163.25L157.96 163.67Z" fill="white"/>
<path d="M157.56 165.12C160.73 165.58 163.93 165.88 167.13 166.04C169.61 166.16 172.1 166.2 174.58 166.01C176.76 165.84 178.99 165.53 180.97 164.55C182.7 163.69 181.18 161.1 179.46 161.96C177.97 162.7 175.87 162.93 174.09 163.05C171.69 163.21 169.28 163.16 166.88 163.03C164.82 162.92 162.76 162.74 160.7 162.52C160.05 162.45 159.4 162.37 158.75 162.29C158.23 162.22 158.91 162.31 158.56 162.27C158.49 162.26 158.42 162.25 158.35 162.24C157.54 162.12 156.75 162.44 156.5 163.29C156.31 163.98 156.76 165 157.56 165.12Z" fill="#FFB11B"/>
<path d="M170.22 196.87C159.75 187.35 159.12 172.13 159.12 172.13L170.22 196.87Z" fill="white"/>
<path d="M171.28 195.81C166.79 191.67 163.84 186.23 162.15 180.4C161.34 177.61 160.74 174.88 160.62 172.13C160.54 170.21 157.54 170.2 157.62 172.13C158.03 181.54 162.23 191.54 169.16 197.93C170.58 199.24 172.7 197.12 171.28 195.81Z" fill="#FFB11B"/>
<path d="M150.51 46.25C156.07 47.9 160.39 51.93 152.72 57.8C148.54 60.99 157.88 80.16 204.32 48.46C235.7 27.04 249.54 60.33 252.48 66.89C255 72.5 256.41 77.21 259.61 76.23C265.29 74.48 259.36 55.83 269.81 59.52C280 63.12 277.55 6.2 230.62 2.02C175.27 -2.9 116.19 36.1 150.51 46.25Z" fill="white"/>
<path d="M150.11 47.7C151.78 48.21 153.73 48.95 154.83 50.4C155.94 51.87 155.01 53.51 153.93 54.7C152.7 56.06 150.93 56.85 150.46 58.73C149.88 61.03 151.17 63.45 152.88 64.92C155.78 67.41 159.8 68.06 163.51 67.94C170.44 67.72 177.19 65.2 183.42 62.34C188.38 60.07 193.15 57.39 197.78 54.51C202.78 51.41 207.48 47.71 212.9 45.34C219.56 42.42 227.07 41.83 233.63 45.3C243.49 50.52 248.39 61.19 252.63 70.94C253.97 74.03 256.67 79.98 261.04 77.21C263.35 75.75 263.7 72.56 263.99 70.1C264.29 67.57 264.28 64.5 265.22 62.27C265.42 61.78 265.67 61.39 265.9 61.14C266.24 60.76 266.35 60.68 266.88 60.58C267.69 60.43 268.82 60.86 269.83 61.08C273 61.77 274.81 58.72 275.51 56.11C276.61 52.03 276.31 47.59 275.69 43.46C273.91 31.52 267.9 19.86 258.72 11.94C253.05 7.04 246.25 3.63 238.97 1.87C229.09 -0.520001 218.43 -0.280001 208.38 0.739999C197.91 1.8 187.56 4.06 177.61 7.47C169.19 10.35 160.91 14.01 153.45 18.9C148.42 22.2 142.92 26.33 140.18 31.86C138.09 36.08 138.52 40.74 142.28 43.85C144.55 45.72 147.31 46.86 150.11 47.7C151.96 48.26 152.76 45.36 150.91 44.81C148.42 44.06 145.74 43 143.92 41.3C143.13 40.56 142.73 40.09 142.26 39.07C142.24 39.03 142.04 38.44 141.94 38.05C141.84 37.64 141.83 37.6 141.83 36.94C141.83 35.15 142.64 33.33 143.79 31.6C145.33 29.27 147.4 27.28 149.53 25.48C155.48 20.47 162.57 16.76 169.68 13.7C178.66 9.83 188.15 7.06 197.76 5.27C208.18 3.33 218.86 2.6 229.44 3.42C237.17 4.02 244.71 6.1 251.33 10.2C261.73 16.65 268.79 27.49 271.77 39.24C272.88 43.6 273.5 47.99 273.08 52.54C273 53.4 272.97 53.74 272.73 54.77C272.65 55.12 272.56 55.47 272.45 55.82C272.4 55.98 272.34 56.14 272.29 56.3C272.27 56.36 272.24 56.42 272.22 56.48C272.07 56.88 272.3 56.32 272.19 56.55C272.07 56.8 271.95 57.05 271.81 57.28C271.74 57.39 271.66 57.5 271.59 57.61C271.45 57.82 271.81 57.4 271.52 57.69C271.32 57.89 270.94 58.18 271.26 57.96C271.17 58.02 271.08 58.08 270.99 58.13C270.69 58.27 271.35 57.95 270.95 58.14C270.86 58.18 270.74 58.2 270.65 58.21C271.12 58.15 270.76 58.25 270.71 58.18C270.68 58.14 270.17 58.08 270.72 58.2C270.6 58.17 270.47 58.15 270.35 58.11C268.98 57.66 267.51 57.33 266.08 57.68C263.45 58.33 262.3 60.92 261.81 63.34C261.26 66.08 261.28 68.9 260.76 71.63C260.65 72.21 260.52 72.78 260.32 73.34C260.23 73.6 259.9 74.22 259.82 74.31C259.54 74.66 259.41 74.72 259.22 74.77C258.5 74.96 258.07 74.59 257.62 74.03C256.05 72.1 255.24 69.43 254.26 67.18C253.87 66.29 253.47 65.39 253.07 64.51C252.22 62.64 251.32 60.8 250.32 59.01C247.58 54.07 244.14 49.32 239.71 45.76C234.5 41.57 228.09 39.29 221.38 39.98C210.86 41.06 202.8 48.03 194.05 53.27C186.55 57.78 178.55 61.96 170 64C167.47 64.6 164.95 64.99 162.35 64.95C160.42 64.92 159.07 64.72 157.17 64.04C157.1 64.01 157.03 63.99 156.96 63.96C156.61 63.82 157.25 64.1 156.92 63.94C156.76 63.87 156.6 63.79 156.44 63.71C156.14 63.56 155.86 63.39 155.58 63.21C155.45 63.12 155.32 63.03 155.19 62.94C154.85 62.7 155.37 63.11 155.07 62.84C154.84 62.64 154.61 62.43 154.39 62.2C154.3 62.1 154.21 62 154.13 61.9C153.87 61.61 154.3 62.16 154.08 61.84C153.95 61.64 153.82 61.43 153.69 61.22C153.63 61.12 153.59 61.01 153.54 60.91C153.48 60.79 153.65 61.27 153.54 60.9C153.47 60.68 153.41 60.45 153.35 60.23C153.22 59.79 153.29 60.51 153.33 59.98C153.34 59.85 153.38 59.26 153.33 59.57C153.28 59.9 153.39 59.37 153.42 59.27C153.51 58.91 153.31 59.51 153.38 59.35C153.42 59.27 153.49 59.18 153.52 59.1C153.62 58.78 153.26 59.22 153.61 59C154.34 58.53 155.04 57.84 155.65 57.23C157.1 55.77 158.42 53.86 158.36 51.71C158.25 47.82 154.13 45.77 150.91 44.79C149.06 44.24 148.27 47.14 150.11 47.7Z" fill="#FFB11B"/>
<path d="M236.93 162.98L175.32 190.18L174.45 244.98L236.77 272.57L299.58 245.13L299.26 190.42L236.93 162.98Z" fill="white"/>
<path d="M236.67 274.2C236.6 274.17 236.42 274.1 236.14 274.08C236.08 274.05 236.03 274.04 235.99 274.02C235.83 273.9 235.65 273.85 235.45 273.84L173.08 246.4C172.62 246.19 172.4 245.8 172.4 245.51V190.68C172.51 190.48 172.54 190.28 172.55 190.14C172.6 190.08 172.66 190.01 172.71 189.93C172.73 189.9 172.74 189.88 172.76 189.85C172.77 189.84 173.34 189.41 173.34 189.41L235.95 161.93C236.22 161.81 236.55 161.74 236.9 161.74C237.25 161.74 237.58 161.8 237.84 161.92L300.3 189.4L300.67 189.68C300.74 189.77 300.83 189.86 300.94 189.94C300.99 190.02 301.04 190.08 301.09 190.14C301.11 190.27 301.16 190.4 301.23 190.51L300.91 245.49C300.91 245.78 300.7 246.17 300.22 246.39L237.86 273.83C237.66 273.84 237.47 273.91 237.31 274.04C237.3 274.05 237.28 274.06 237.27 274.07C237.11 274.07 236.95 274.11 236.81 274.19C236.8 274.19 236.78 274.19 236.77 274.19C236.76 274.2 236.67 274.2 236.67 274.2ZM177.14 229.49C176.95 229.49 176.76 229.54 176.59 229.65C176.31 229.83 176.14 230.15 176.14 230.49V244.31C176.14 244.71 176.37 245.07 176.74 245.23L233.89 270.35C234.02 270.41 234.16 270.43 234.29 270.43C234.48 270.43 234.67 270.38 234.84 270.27C235.12 270.09 235.29 269.77 235.29 269.43V255.61C235.29 255.21 235.06 254.85 234.69 254.69L177.54 229.57C177.41 229.52 177.28 229.49 177.14 229.49ZM296.85 229.49C296.71 229.49 296.58 229.52 296.45 229.57L239.3 254.69C238.94 254.85 238.7 255.21 238.7 255.61V269.43C238.7 269.77 238.87 270.08 239.15 270.27C239.32 270.38 239.51 270.43 239.7 270.43C239.84 270.43 239.97 270.4 240.1 270.35L297.25 245.23C297.61 245.07 297.85 244.71 297.85 244.31V230.49C297.85 230.15 297.68 229.84 297.4 229.65C297.23 229.54 297.04 229.49 296.85 229.49ZM177.14 212.9C176.95 212.9 176.76 212.95 176.59 213.06C176.31 213.24 176.14 213.56 176.14 213.9V225.8C176.14 226.2 176.37 226.56 176.74 226.72L233.89 251.84C234.02 251.9 234.16 251.92 234.29 251.92C234.48 251.92 234.67 251.87 234.84 251.76C235.12 251.58 235.29 251.26 235.29 250.92V239.02C235.29 238.62 235.06 238.26 234.69 238.1L177.54 212.98C177.41 212.93 177.28 212.9 177.14 212.9ZM296.85 212.78C296.71 212.78 296.58 212.81 296.45 212.86L239.3 237.98C238.94 238.14 238.7 238.5 238.7 238.9V250.8C238.7 251.14 238.87 251.45 239.15 251.64C239.32 251.75 239.51 251.8 239.7 251.8C239.84 251.8 239.97 251.77 240.1 251.72L297.25 226.6C297.61 226.44 297.85 226.08 297.85 225.68V213.78C297.85 213.44 297.68 213.13 297.4 212.94C297.23 212.84 297.04 212.78 296.85 212.78ZM296.85 193.07C296.71 193.07 296.58 193.1 296.45 193.15L239.3 218.27C238.94 218.43 238.7 218.79 238.7 219.19V234.22C238.7 234.56 238.87 234.87 239.15 235.06C239.32 235.17 239.51 235.22 239.7 235.22C239.84 235.22 239.97 235.19 240.1 235.14L297.25 210.02C297.61 209.86 297.85 209.5 297.85 209.1V194.08C297.85 193.74 297.68 193.43 297.4 193.24C297.23 193.13 297.04 193.07 296.85 193.07ZM177.14 193.07C176.95 193.07 176.76 193.12 176.59 193.23C176.31 193.41 176.14 193.73 176.14 194.07V209.09C176.14 209.49 176.37 209.85 176.74 210.01L233.89 235.13C234.02 235.19 234.16 235.21 234.29 235.21C234.48 235.21 234.67 235.16 234.84 235.05C235.12 234.87 235.29 234.55 235.29 234.21V219.19C235.29 218.79 235.06 218.43 234.69 218.27L177.54 193.15C177.42 193.1 177.28 193.07 177.14 193.07ZM236.99 164.35C236.85 164.35 236.72 164.38 236.59 164.43L179.44 189.55C179.08 189.71 178.84 190.07 178.84 190.47C178.84 190.87 179.07 191.23 179.44 191.39L236.59 216.51C236.72 216.57 236.86 216.59 236.99 216.59C237.12 216.59 237.26 216.56 237.39 216.51L294.54 191.39C294.9 191.23 295.14 190.87 295.14 190.47C295.14 190.07 294.91 189.71 294.54 189.55L237.39 164.43C237.27 164.38 237.13 164.35 236.99 164.35Z" fill="#FFB11B"/>
<path d="M47.5613 70.3221C53.7015 70.4763 59.7546 69.692 65.6469 67.9826C69.7828 66.7827 68.0199 60.314 63.8638 61.5206C58.5078 63.0758 53.1317 63.7662 47.5546 63.6254C43.2443 63.5115 43.251 70.2148 47.5613 70.3221Z" fill="#FFB11B"/>
<path d="M55.793 60.9844C55.1696 66.5749 54.1641 78.956 46.2877 78.6209C42.574 78.4667 41.6422 84.5131 45.3961 85.2035C50.7052 86.1755 56.0209 84.6874 61.0886 83.1523C65.2045 81.9055 63.4482 75.4301 59.3055 76.6903C56.3628 77.5818 53.3128 78.5471 50.2292 78.8085C48.7344 78.9359 47.8696 78.8689 47.1725 78.7415C46.8775 80.9335 46.5759 83.1322 46.2809 85.3242C58.9167 85.8605 61.4305 70.4495 62.4896 60.9844C62.979 56.7076 56.2689 56.7411 55.793 60.9844Z" fill="#FFB11B"/>
<path d="M72.1961 63.3775C77.847 61.7017 83.5381 60.1532 89.1689 58.4036C87.7545 57.3244 86.3401 56.2518 84.9257 55.1726C84.8386 59.6705 84.5972 64.202 84.0409 68.6731C83.2901 74.686 80.7026 83.8294 73.8853 85.4315C69.689 86.4169 71.4654 92.8856 75.6684 91.8935C83.8733 89.9697 88.8673 80.3772 90.1744 72.7287C91.1598 66.9504 91.5151 61.0246 91.6291 55.1726C91.6693 53.0476 89.4505 51.2981 87.3858 51.9416C81.755 53.6912 76.0639 55.2396 70.413 56.9155C66.2837 58.1355 68.04 64.6042 72.1961 63.3775Z" fill="#FFB11B"/>
<path d="M73.1211 60.7028C72.7591 64.7047 71.9078 70.8852 67.5037 72.4605C63.475 73.9084 65.2112 80.3838 69.2868 78.9225C77.0157 76.154 79.1474 68.1301 79.8244 60.7028C80.2199 56.406 73.5099 56.4328 73.1211 60.7028Z" fill="#FFB11B"/>
<path d="M119.897 60.7028C119.535 64.7047 118.684 70.8852 114.28 72.4605C110.251 73.9084 111.987 80.3838 116.063 78.9225C123.792 76.154 125.923 68.1301 126.6 60.7028C126.996 56.406 120.286 56.4328 119.897 60.7028Z" fill="#FFB11B"/>
<path d="M98.9089 73.4057C103.715 73.533 108.24 72.8828 112.852 71.522C116.981 70.302 115.225 63.8333 111.069 65.06C106.986 66.2666 103.159 66.823 98.9089 66.709C94.5919 66.5884 94.5919 73.2917 98.9089 73.4057Z" fill="#FFB11B"/>
<path d="M102.998 64.5304C102.388 69.9735 101.369 82.4887 93.6601 82.1602C89.2359 81.9658 89.5175 88.3273 93.6601 88.8636C96.375 89.2188 99.3513 88.7362 102.033 88.3809C105.565 87.9117 109.259 87.2883 112.362 85.4315C116.063 83.2193 112.691 77.421 108.977 79.6465C105.016 82.0194 98.2251 82.7635 93.6601 82.1669C93.6601 84.3991 93.6601 86.6381 93.6601 88.8703C106.162 89.4132 108.656 73.8615 109.701 64.5371C110.177 60.247 103.474 60.2805 102.998 64.5304Z" fill="#FFB11B"/>
<path d="M119.254 61.9563C125.313 60.1598 131.4 58.4706 137.433 56.5937C136.019 55.5144 134.604 54.4419 133.19 53.3627C132.767 63.8132 132.023 74.4715 126.882 83.8226C121.144 94.2664 111.102 96.6998 99.901 96.7467C95.5907 96.7668 95.5773 103.47 99.901 103.45C112.778 103.396 124.804 100.192 131.869 88.5887C138.338 77.9706 139.404 65.4957 139.893 53.3627C139.98 51.2243 137.674 49.5015 135.65 50.1316C129.617 52.0086 123.53 53.6978 117.47 55.4943C113.348 56.721 115.104 63.1898 119.254 61.9563Z" fill="#FFB11B"/>
<path d="M48.4729 102.827H47.0518C46.8373 102.827 46.6697 102.726 46.5692 102.512L45.1816 99.8973L44.3772 102.512C44.3101 102.726 44.1761 102.827 43.9616 102.827H42.8689C42.6544 102.827 42.5807 102.726 42.641 102.512L44.4777 96.5188C44.5448 96.3043 44.6788 96.2104 44.8933 96.2104H45.986C46.2005 96.2104 46.2809 96.3043 46.2139 96.5188L45.4095 99.1331L48.4059 96.5188C48.6338 96.3043 48.8617 96.2104 49.0762 96.2104H50.4906C50.7051 96.2104 50.6917 96.3043 50.4638 96.5188L47.0317 99.5152L48.6271 102.505C48.7344 102.726 48.6874 102.827 48.4729 102.827Z" fill="#FFB11B"/>
<path d="M51.7308 96.9478C51.7911 96.7467 51.9319 96.6394 52.1464 96.6394H53.2458C53.4603 96.6394 53.534 96.74 53.4737 96.9478L53.3798 97.2628C53.3195 97.4639 53.1787 97.5712 52.9642 97.5712H51.8649C51.6504 97.5712 51.5766 97.4706 51.637 97.2628L51.7308 96.9478ZM51.3554 98.1812C51.4224 97.9734 51.5565 97.8728 51.771 97.8728H52.8704C53.0849 97.8728 53.1653 97.9667 53.0983 98.1812L51.7643 102.518C51.6973 102.733 51.5632 102.833 51.3487 102.833H50.2494C50.0349 102.833 49.9611 102.733 50.0214 102.518L51.3554 98.1812Z" fill="#FFB11B"/>
<path d="M54.3786 98.1812C54.4456 97.9734 54.5797 97.8728 54.7942 97.8728H57.3079C57.5225 97.8728 57.6029 97.9667 57.5359 98.1812L57.3884 98.6638C57.3213 98.8716 57.1873 98.9722 56.9728 98.9722H56.1952C55.9807 98.9722 55.8399 99.0728 55.7796 99.2806L54.7875 102.525C54.7205 102.739 54.5864 102.84 54.3719 102.84H53.2792C53.0647 102.84 52.991 102.739 53.0513 102.525L54.3786 98.1812Z" fill="#FFB11B"/>
<path d="M62.7108 102.518C62.6438 102.733 62.5097 102.833 62.2952 102.833H58.6821C57.8241 102.833 57.5224 102.424 57.7704 101.607L58.8229 98.1879C58.8899 97.9801 59.024 97.8796 59.2385 97.8796H60.3378C60.5523 97.8796 60.6328 97.9734 60.5657 98.1879L59.5736 101.432C59.5133 101.633 59.587 101.741 59.8016 101.741H60.9009C61.1154 101.741 61.2562 101.64 61.3165 101.432L62.3086 98.1879C62.3756 97.9801 62.5097 97.8796 62.7242 97.8796H63.8169C64.0314 97.8796 64.1118 97.9734 64.0448 98.1879L62.7108 102.518Z" fill="#FFB11B"/>
<path d="M69.8298 102.827H68.4154C68.2009 102.827 68.0333 102.726 67.9327 102.512L66.5451 99.8973L65.7407 102.512C65.6737 102.726 65.5396 102.827 65.3251 102.827H64.2258C64.0113 102.827 63.9375 102.726 63.9979 102.512L65.8346 96.5188C65.9016 96.3043 66.0357 96.2104 66.2502 96.2104H67.3495C67.564 96.2104 67.6445 96.3043 67.5774 96.5188L66.773 99.1331L69.7694 96.5188C69.9973 96.3043 70.2253 96.2104 70.4398 96.2104H71.8542C72.0687 96.2104 72.0553 96.3043 71.8274 96.5188L68.3952 99.5152L69.9906 102.505C70.0912 102.726 70.0443 102.827 69.8298 102.827Z" fill="#FFB11B"/>
<path d="M73.0876 96.9478C73.148 96.7467 73.2887 96.6394 73.5032 96.6394H74.5959C74.8104 96.6394 74.8841 96.74 74.8238 96.9478L74.73 97.2628C74.6696 97.4639 74.5289 97.5712 74.3143 97.5712H73.2217C73.0072 97.5712 72.9335 97.4706 72.9938 97.2628L73.0876 96.9478ZM72.7123 98.1812C72.7793 97.9734 72.9134 97.8728 73.1279 97.8728H74.2205C74.435 97.8728 74.5155 97.9667 74.4484 98.1812L73.1145 102.518C73.0474 102.733 72.9134 102.833 72.6988 102.833H71.6062C71.3917 102.833 71.318 102.733 71.3783 102.518L72.7123 98.1812Z" fill="#FFB11B"/>
<path d="M75.7354 98.1812C75.8024 97.9734 75.9365 97.8728 76.151 97.8728H78.6647C78.8793 97.8728 78.9597 97.9667 78.8927 98.1812L78.7452 98.6638C78.6782 98.8716 78.5441 98.9722 78.3296 98.9722H77.552C77.3375 98.9722 77.2034 99.0728 77.1364 99.2806L76.1443 102.525C76.0773 102.739 75.9432 102.84 75.7287 102.84H74.6293C74.4148 102.84 74.3411 102.739 74.4014 102.525L75.7354 98.1812Z" fill="#FFB11B"/>
<path d="M84.0676 102.518C84.0006 102.733 83.8665 102.833 83.652 102.833H80.0389C79.1809 102.833 78.8793 102.424 79.1273 101.607L80.1797 98.1879C80.2467 97.9801 80.3808 97.8796 80.5953 97.8796H81.6947C81.9092 97.8796 81.9896 97.9734 81.9226 98.1879L80.9305 101.432C80.8702 101.633 80.9439 101.741 81.1584 101.741H82.2577C82.4723 101.741 82.613 101.64 82.6734 101.432L83.6655 98.1879C83.7325 97.9801 83.8665 97.8796 84.0811 97.8796H85.1737C85.3882 97.8796 85.4686 97.9734 85.4016 98.1879L84.0676 102.518Z" fill="#FFB11B"/>
</g>
<defs>
<clipPath id="clip0_70_904">
<rect width="392.03" height="274.2" fill="white"/>
</clipPath>
</defs>
</svg>
