<svg width="160" height="76" viewBox="0 0 160 76" fill="none" xmlns="http://www.w3.org/2000/svg">
<path d="M98.0993 7.67686L98.0995 7.67679C107.335 3.16031 117.539 0.5 127.393 0.5C139.808 0.5 149.272 4.71593 154.598 11.4412C159.915 18.1536 161.183 27.4577 157.033 37.814C152.872 48.1837 144.067 57.6091 133.164 64.4456C122.263 71.2806 109.309 75.5 96.8942 75.5C87.6357 75.5 80.0102 73.1545 74.5279 69.1696L74.5276 69.1694C71.023 66.6258 65.5794 66.6069 60.8889 68.8112L60.8887 68.8112C51.9147 73.0322 42.1026 75.5 32.612 75.5C20.1917 75.5 10.7257 71.2856 5.39912 64.5612C0.0827355 57.8498 -1.18354 48.5459 2.97187 38.1864C7.13745 27.8164 15.9421 18.3909 26.8441 11.5543C37.7436 4.71939 50.696 0.5 63.1104 0.5C72.7411 0.5 80.5958 3.03764 86.122 7.30654L86.1225 7.30692C89.1616 9.64864 93.9771 9.69139 98.0993 7.67686Z" stroke="#553529"/>
</svg>
